<svg width="585" height="215" viewBox="0 0 585 215" fill="none" xmlns="http://www.w3.org/2000/svg">
<g clip-path="url(#clip0)">
<rect width="585" height="224.76" fill="white"/>
<path d="M88.9667 110.231C104.412 110.231 116.933 97.7799 116.933 82.4212C116.933 67.0625 104.412 54.6118 88.9667 54.6118C73.5211 54.6118 61 67.0625 61 82.4212C61 97.7799 73.5211 110.231 88.9667 110.231Z" fill="#EEEEEE"/>
<path d="M88.9666 97.4536C97.3155 97.4536 104.084 90.7235 104.084 82.4216C104.084 74.1197 97.3155 67.3896 88.9666 67.3896C80.6177 67.3896 73.8496 74.1197 73.8496 82.4216C73.8496 90.7235 80.6177 97.4536 88.9666 97.4536Z" fill="#A1C3FC"/>
<path d="M238.788 72.4893C254.234 72.4893 266.755 60.0387 266.755 44.68C266.755 29.3213 254.234 16.8706 238.788 16.8706C223.343 16.8706 210.822 29.3213 210.822 44.68C210.822 60.0387 223.343 72.4893 238.788 72.4893Z" fill="#EEEEEE"/>
<path d="M238.789 59.7119C247.138 59.7119 253.906 52.9818 253.906 44.6799C253.906 36.378 247.138 29.6479 238.789 29.6479C230.44 29.6479 223.672 36.378 223.672 44.6799C223.672 52.9818 230.44 59.7119 238.789 59.7119Z" fill="#A1C3FC"/>
<path d="M366.636 169.822C382.082 169.822 394.603 157.372 394.603 142.013C394.603 126.654 382.082 114.204 366.636 114.204C351.191 114.204 338.669 126.654 338.669 142.013C338.669 157.372 351.191 169.822 366.636 169.822Z" fill="#EEEEEE"/>
<path d="M366.637 157.045C374.985 157.045 381.754 150.315 381.754 142.013C381.754 133.711 374.985 126.981 366.637 126.981C358.288 126.981 351.52 133.711 351.52 142.013C351.52 150.315 358.288 157.045 366.637 157.045Z" fill="#A1C3FC"/>
<path d="M185.351 178.761C195.005 178.761 202.83 170.98 202.83 161.38C202.83 151.781 195.005 144 185.351 144C175.698 144 167.872 151.781 167.872 161.38C167.872 170.98 175.698 178.761 185.351 178.761Z" fill="#EEEEEE"/>
<path d="M185.351 170.775C190.569 170.775 194.799 166.568 194.799 161.38C194.799 156.191 190.569 151.985 185.351 151.985C180.133 151.985 175.903 156.191 175.903 161.38C175.903 166.568 180.133 170.775 185.351 170.775Z" fill="#A1C3FC"/>
<path d="M363.139 62.5576C372.793 62.5576 380.619 54.7759 380.619 45.1768C380.619 35.5776 372.793 27.7959 363.139 27.7959C353.486 27.7959 345.66 35.5776 345.66 45.1768C345.66 54.7759 353.486 62.5576 363.139 62.5576Z" fill="#EEEEEE"/>
<path d="M363.14 54.5714C368.358 54.5714 372.588 50.3653 372.588 45.1768C372.588 39.9883 368.358 35.7822 363.14 35.7822C357.922 35.7822 353.692 39.9883 353.692 45.1768C353.692 50.3653 357.922 54.5714 363.14 54.5714Z" fill="#A1C3FC"/>
<path d="M139.407 22.7892C144.625 22.7892 148.854 18.5831 148.854 13.3946C148.854 8.2061 144.625 4 139.407 4C134.189 4 129.959 8.2061 129.959 13.3946C129.959 18.5831 134.189 22.7892 139.407 22.7892Z" fill="#A1C3FC"/>
<path d="M272.748 133.53C277.966 133.53 282.196 129.324 282.196 124.135C282.196 118.947 277.966 114.741 272.748 114.741C267.53 114.741 263.3 118.947 263.3 124.135C263.3 129.324 267.53 133.53 272.748 133.53Z" fill="#A1C3FC"/>
<path d="M99.9536 196.101C105.171 196.101 109.401 191.895 109.401 186.707C109.401 181.518 105.171 177.312 99.9536 177.312C94.7358 177.312 90.5059 181.518 90.5059 186.707C90.5059 191.895 94.7358 196.101 99.9536 196.101Z" fill="#A1C3FC"/>
<path d="M293.723 210.999C298.94 210.999 303.17 206.793 303.17 201.605C303.17 196.416 298.94 192.21 293.723 192.21C288.505 192.21 284.275 196.416 284.275 201.605C284.275 206.793 288.505 210.999 293.723 210.999Z" fill="#A1C3FC"/>
<path d="M436.552 74.9318C441.77 74.9318 446 70.7257 446 65.5372C446 60.3487 441.77 56.1426 436.552 56.1426C431.334 56.1426 427.104 60.3487 427.104 65.5372C427.104 70.7257 431.334 74.9318 436.552 74.9318Z" fill="#A1C3FC"/>
<path d="M236.035 45.6334L235.553 43.7056L86.7342 80.4837L87.216 82.4115L236.035 45.6334Z" fill="#A1C3FC"/>
<path d="M274.673 125.778L244.71 47.313L242.842 48.0182L272.806 126.483L274.673 125.778Z" fill="#A1C3FC"/>
<path d="M295.697 203.333L273.719 123.878L271.793 124.405L293.771 203.86L295.697 203.333Z" fill="#A1C3FC"/>
<path d="M185.48 160.121L93.5879 85.627L92.3256 87.1666L184.218 161.661L185.48 160.121Z" fill="#A1C3FC"/>
<path d="M277.12 125.053L276.363 123.213L188.472 158.984L189.23 160.823L277.12 125.053Z" fill="#A1C3FC"/>
<path d="M235.028 36.7584L135.151 11.9321L134.667 13.8582L234.544 38.6844L235.028 36.7584Z" fill="#A1C3FC"/>
<path d="M365.636 43.687H245.779V45.6734H365.636V43.687Z" fill="#A1C3FC"/>
<path d="M365.638 48.6528H363.64V151.945H365.638V48.6528Z" fill="#A1C3FC"/>
<path d="M435.336 67.1657L433.807 65.8877L370.862 140.357L372.391 141.635L435.336 67.1657Z" fill="#A1C3FC"/>
<path d="M185.134 162.817L184.57 160.913L99.6775 185.754L100.241 187.659L185.134 162.817Z" fill="#A1C3FC"/>
<path d="M528.637 94.4331C533.207 86.4753 530.131 75.9893 521.766 71.012C513.401 66.0346 502.915 68.4508 498.345 76.4085C493.775 84.3663 496.851 94.8523 505.216 99.8296C513.581 104.807 524.067 102.391 528.637 94.4331Z" fill="#EEEEEE"/>
<path d="M521.678 90.2922C524.148 85.9909 522.485 80.3231 517.964 77.6328C513.442 74.9425 507.774 76.2484 505.304 80.5497C502.834 84.851 504.497 90.5188 509.018 93.2091C513.54 95.8995 519.207 94.5935 521.678 90.2922Z" fill="#A1C3FC"/>
<path d="M513.263 82.5156L460.363 190.236L462.142 191.116L515.041 83.3955L513.263 82.5156Z" fill="#A1C3FC"/>
<path d="M449.096 190.317C447.198 194.215 449.03 199.072 453.186 201.164C457.343 203.257 462.251 201.793 464.149 197.894C466.047 193.995 464.215 189.139 460.059 187.046C455.902 184.954 450.994 186.418 449.096 190.317Z" fill="#A1C3FC"/>
<path d="M453.613 193.218L455.779 192.268L372.162 143.939L369.996 144.89L453.613 193.218Z" fill="#A1C3FC"/>
<path d="M38.9947 124.224C39.7833 124.224 40.4787 124.091 41.0807 123.825C41.6873 123.554 42.161 123.165 42.5017 122.656C42.847 122.143 43.0197 121.524 43.0197 120.801C43.0197 120.115 42.8657 119.557 42.5577 119.128C42.2543 118.694 41.8367 118.33 41.3047 118.036C40.7727 117.737 40.166 117.453 39.4847 117.182C39.1393 117.047 38.8197 116.914 38.5257 116.783C38.2363 116.648 38.0053 116.482 37.8327 116.286C37.66 116.085 37.5737 115.822 37.5737 115.495C37.5737 115.075 37.73 114.706 38.0427 114.389C38.3553 114.067 38.7987 113.906 39.3727 113.906C39.8627 113.906 40.3177 114.013 40.7377 114.228C41.1577 114.438 41.4983 114.681 41.7597 114.956L42.5577 113.563C42.3383 113.334 42.0583 113.12 41.7177 112.919C41.3817 112.718 41.0083 112.555 40.5977 112.429C40.1917 112.303 39.7717 112.24 39.3377 112.24C38.633 112.24 38.0147 112.394 37.4827 112.702C36.9507 113.01 36.5353 113.414 36.2367 113.913C35.9427 114.412 35.7957 114.951 35.7957 115.53C35.7957 116.062 35.917 116.515 36.1597 116.888C36.4023 117.257 36.7103 117.567 37.0837 117.819C37.4617 118.066 37.849 118.274 38.2457 118.442C38.801 118.671 39.2887 118.888 39.7087 119.093C40.1287 119.294 40.4553 119.529 40.6887 119.8C40.922 120.066 41.0387 120.414 41.0387 120.843C41.0387 121.398 40.8473 121.818 40.4647 122.103C40.082 122.383 39.6083 122.523 39.0437 122.523C38.5117 122.523 38.038 122.423 37.6227 122.222C37.2073 122.017 36.8527 121.783 36.5587 121.522C36.2647 121.261 36.0313 121.041 35.8587 120.864L34.8927 122.348C35.014 122.488 35.1913 122.663 35.4247 122.873C35.658 123.078 35.945 123.286 36.2857 123.496C36.631 123.701 37.0277 123.874 37.4757 124.014C37.9283 124.154 38.4347 124.224 38.9947 124.224ZM47.4803 124.224C48.0403 124.224 48.5467 124.096 48.9993 123.839L48.5583 122.446C48.3577 122.595 48.136 122.67 47.8933 122.67C47.408 122.67 47.1653 122.348 47.1653 121.704V118.155H48.8173V116.832H47.1653V114.151H45.4223V116.832H44.5473V118.155H45.4223V121.823C45.4223 122.579 45.602 123.169 45.9613 123.594C46.3253 124.014 46.8317 124.224 47.4803 124.224ZM53.9862 124.224C54.5275 124.224 55.0268 124.105 55.4842 123.867C55.9462 123.624 56.3358 123.286 56.6532 122.852V124H58.3962V116.832H56.6532V117.931C56.3778 117.516 56.0022 117.191 55.5262 116.958C55.0548 116.725 54.5415 116.608 53.9862 116.608C53.2955 116.608 52.6818 116.774 52.1452 117.105C51.6132 117.436 51.1932 117.889 50.8852 118.463C50.5818 119.037 50.4302 119.686 50.4302 120.409C50.4302 121.146 50.5865 121.802 50.8992 122.376C51.2165 122.95 51.6435 123.403 52.1802 123.734C52.7215 124.061 53.3235 124.224 53.9862 124.224ZM54.4832 122.733C54.0538 122.733 53.6712 122.633 53.3352 122.432C52.9992 122.231 52.7355 121.958 52.5442 121.613C52.3528 121.263 52.2572 120.864 52.2572 120.416C52.2572 119.968 52.3528 119.569 52.5442 119.219C52.7355 118.869 52.9992 118.596 53.3352 118.4C53.6712 118.199 54.0538 118.099 54.4832 118.099C54.9172 118.099 55.2998 118.199 55.6312 118.4C55.9672 118.596 56.2285 118.869 56.4152 119.219C56.6065 119.564 56.7022 119.963 56.7022 120.416C56.7022 120.864 56.6065 121.263 56.4152 121.613C56.2285 121.963 55.9672 122.238 55.6312 122.439C55.2998 122.635 54.9172 122.733 54.4832 122.733ZM63.0193 124.224C63.9293 124.224 64.6503 124.014 65.1823 123.594C65.7143 123.174 65.9803 122.584 65.9803 121.823C65.9803 121.403 65.8987 121.067 65.7353 120.815C65.572 120.563 65.3433 120.358 65.0493 120.199C64.76 120.04 64.4263 119.891 64.0483 119.751C63.8057 119.658 63.5607 119.562 63.3133 119.464C63.0707 119.361 62.8677 119.242 62.7043 119.107C62.5457 118.967 62.4663 118.801 62.4663 118.61C62.4663 118.377 62.5597 118.185 62.7463 118.036C62.9377 117.887 63.1897 117.812 63.5023 117.812C64.0343 117.812 64.5733 118.038 65.1193 118.491L65.7493 117.392C65.3667 117.14 64.9863 116.949 64.6083 116.818C64.235 116.683 63.8617 116.615 63.4883 116.615C62.9703 116.615 62.5083 116.706 62.1023 116.888C61.701 117.07 61.3837 117.322 61.1503 117.644C60.9217 117.966 60.8073 118.335 60.8073 118.75C60.8073 119.114 60.8937 119.415 61.0663 119.653C61.239 119.886 61.4607 120.08 61.7313 120.234C62.0067 120.388 62.2937 120.528 62.5923 120.654C62.947 120.794 63.241 120.915 63.4743 121.018C63.7077 121.121 63.8827 121.235 63.9993 121.361C64.116 121.487 64.1743 121.662 64.1743 121.886C64.1743 122.213 64.0623 122.467 63.8383 122.649C63.619 122.831 63.3437 122.922 63.0123 122.922C62.6483 122.922 62.296 122.824 61.9553 122.628C61.6193 122.427 61.3137 122.143 61.0383 121.774L60.2683 122.908C60.8657 123.785 61.7827 124.224 63.0193 124.224ZM70.2303 124.224C70.7903 124.224 71.2967 124.096 71.7493 123.839L71.3083 122.446C71.1077 122.595 70.886 122.67 70.6433 122.67C70.158 122.67 69.9153 122.348 69.9153 121.704V118.155H71.5673V116.832H69.9153V114.151H68.1723V116.832H67.2973V118.155H68.1723V121.823C68.1723 122.579 68.352 123.169 68.7113 123.594C69.0753 124.014 69.5817 124.224 70.2303 124.224ZM74.6145 115.362C74.9038 115.362 75.1512 115.259 75.3565 115.054C75.5618 114.844 75.6645 114.594 75.6645 114.305C75.6645 114.011 75.5618 113.761 75.3565 113.556C75.1512 113.351 74.9038 113.248 74.6145 113.248C74.3252 113.248 74.0755 113.351 73.8655 113.556C73.6602 113.761 73.5575 114.011 73.5575 114.305C73.5575 114.594 73.6602 114.844 73.8655 115.054C74.0755 115.259 74.3252 115.362 74.6145 115.362ZM73.7395 124H75.4825V116.832H73.7395V124ZM80.1639 124.224C81.0739 124.224 81.7949 124.014 82.3269 123.594C82.8589 123.174 83.1249 122.584 83.1249 121.823C83.1249 121.403 83.0432 121.067 82.8799 120.815C82.7165 120.563 82.4879 120.358 82.1939 120.199C81.9045 120.04 81.5709 119.891 81.1929 119.751C80.9502 119.658 80.7052 119.562 80.4579 119.464C80.2152 119.361 80.0122 119.242 79.8489 119.107C79.6902 118.967 79.6109 118.801 79.6109 118.61C79.6109 118.377 79.7042 118.185 79.8909 118.036C80.0822 117.887 80.3342 117.812 80.6469 117.812C81.1789 117.812 81.7179 118.038 82.2639 118.491L82.8939 117.392C82.5112 117.14 82.1309 116.949 81.7529 116.818C81.3795 116.683 81.0062 116.615 80.6329 116.615C80.1149 116.615 79.6529 116.706 79.2469 116.888C78.8455 117.07 78.5282 117.322 78.2949 117.644C78.0662 117.966 77.9519 118.335 77.9519 118.75C77.9519 119.114 78.0382 119.415 78.2109 119.653C78.3835 119.886 78.6052 120.08 78.8759 120.234C79.1512 120.388 79.4382 120.528 79.7369 120.654C80.0915 120.794 80.3855 120.915 80.6189 121.018C80.8522 121.121 81.0272 121.235 81.1439 121.361C81.2605 121.487 81.3189 121.662 81.3189 121.886C81.3189 122.213 81.2069 122.467 80.9829 122.649C80.7635 122.831 80.4882 122.922 80.1569 122.922C79.7929 122.922 79.4405 122.824 79.0999 122.628C78.7639 122.427 78.4582 122.143 78.1829 121.774L77.4129 122.908C78.0102 123.785 78.9272 124.224 80.1639 124.224ZM87.3749 124.224C87.9349 124.224 88.4412 124.096 88.8939 123.839L88.4529 122.446C88.2522 122.595 88.0305 122.67 87.7879 122.67C87.3025 122.67 87.0599 122.348 87.0599 121.704V118.155H88.7119V116.832H87.0599V114.151H85.3169V116.832H84.4419V118.155H85.3169V121.823C85.3169 122.579 85.4965 123.169 85.8559 123.594C86.2199 124.014 86.7262 124.224 87.3749 124.224ZM91.759 115.362C92.0484 115.362 92.2957 115.259 92.501 115.054C92.7064 114.844 92.809 114.594 92.809 114.305C92.809 114.011 92.7064 113.761 92.501 113.556C92.2957 113.351 92.0484 113.248 91.759 113.248C91.4697 113.248 91.22 113.351 91.01 113.556C90.8047 113.761 90.702 114.011 90.702 114.305C90.702 114.594 90.8047 114.844 91.01 115.054C91.22 115.259 91.4697 115.362 91.759 115.362ZM90.884 124H92.627V116.832H90.884V124ZM98.6804 124.224C99.1517 124.224 99.5974 124.154 100.017 124.014C100.437 123.879 100.79 123.704 101.074 123.489L100.444 122.313C100.043 122.626 99.5437 122.782 98.9464 122.782C98.4704 122.782 98.0504 122.677 97.6864 122.467C97.3271 122.257 97.0447 121.975 96.8394 121.62C96.6387 121.261 96.5384 120.859 96.5384 120.416C96.5384 119.996 96.6341 119.606 96.8254 119.247C97.0214 118.888 97.2967 118.598 97.6514 118.379C98.0107 118.16 98.4377 118.05 98.9324 118.05C99.5391 118.05 100.045 118.206 100.451 118.519L101.074 117.343C100.794 117.124 100.44 116.946 100.01 116.811C99.5857 116.676 99.1401 116.608 98.6734 116.608C98.1087 116.608 97.5861 116.708 97.1054 116.909C96.6247 117.11 96.2047 117.385 95.8454 117.735C95.4907 118.085 95.2131 118.491 95.0124 118.953C94.8164 119.41 94.7184 119.898 94.7184 120.416C94.7184 120.953 94.8211 121.452 95.0264 121.914C95.2317 122.376 95.5164 122.78 95.8804 123.125C96.2444 123.47 96.6644 123.741 97.1404 123.937C97.6211 124.128 98.1344 124.224 98.6804 124.224ZM104.896 124.224C105.806 124.224 106.527 124.014 107.059 123.594C107.591 123.174 107.857 122.584 107.857 121.823C107.857 121.403 107.776 121.067 107.612 120.815C107.449 120.563 107.22 120.358 106.926 120.199C106.637 120.04 106.303 119.891 105.925 119.751C105.683 119.658 105.438 119.562 105.19 119.464C104.948 119.361 104.745 119.242 104.581 119.107C104.423 118.967 104.343 118.801 104.343 118.61C104.343 118.377 104.437 118.185 104.623 118.036C104.815 117.887 105.067 117.812 105.379 117.812C105.911 117.812 106.45 118.038 106.996 118.491L107.626 117.392C107.244 117.14 106.863 116.949 106.485 116.818C106.112 116.683 105.739 116.615 105.365 116.615C104.847 116.615 104.385 116.706 103.979 116.888C103.578 117.07 103.261 117.322 103.027 117.644C102.799 117.966 102.684 118.335 102.684 118.75C102.684 119.114 102.771 119.415 102.943 119.653C103.116 119.886 103.338 120.08 103.608 120.234C103.884 120.388 104.171 120.528 104.469 120.654C104.824 120.794 105.118 120.915 105.351 121.018C105.585 121.121 105.76 121.235 105.876 121.361C105.993 121.487 106.051 121.662 106.051 121.886C106.051 122.213 105.939 122.467 105.715 122.649C105.496 122.831 105.221 122.922 104.889 122.922C104.525 122.922 104.173 122.824 103.832 122.628C103.496 122.427 103.191 122.143 102.915 121.774L102.145 122.908C102.743 123.785 103.66 124.224 104.896 124.224Z" fill="#6D6D6D"/>
<path d="M159.066 191H160.374L161.478 188.114H165.624L166.722 191H168.036L164.118 181.1H162.984L159.066 191ZM161.892 187.04L163.548 182.726L165.21 187.04H161.892ZM169.753 191H170.917V180.68H169.753V191ZM176.159 194.3C177.247 194.3 178.087 194.024 178.679 193.472C179.271 192.92 179.567 192.152 179.567 191.168V184.856H178.403V185.978C178.159 185.566 177.825 185.244 177.401 185.012C176.977 184.78 176.509 184.664 175.997 184.664C175.409 184.664 174.883 184.806 174.419 185.09C173.959 185.374 173.595 185.762 173.327 186.254C173.059 186.742 172.925 187.3 172.925 187.928C172.925 188.56 173.061 189.122 173.333 189.614C173.605 190.106 173.971 190.492 174.431 190.772C174.891 191.052 175.405 191.192 175.973 191.192C176.485 191.192 176.953 191.074 177.377 190.838C177.801 190.598 178.143 190.268 178.403 189.848V191.162C178.403 191.606 178.305 191.988 178.109 192.308C177.917 192.628 177.651 192.874 177.311 193.046C176.975 193.218 176.591 193.304 176.159 193.304C175.655 193.304 175.201 193.19 174.797 192.962C174.393 192.738 174.099 192.436 173.915 192.056L172.949 192.512C173.481 193.704 174.551 194.3 176.159 194.3ZM176.285 190.19C175.869 190.19 175.499 190.094 175.175 189.902C174.851 189.706 174.597 189.438 174.413 189.098C174.229 188.758 174.137 188.37 174.137 187.934C174.137 187.494 174.229 187.104 174.413 186.764C174.601 186.42 174.857 186.152 175.181 185.96C175.505 185.764 175.875 185.666 176.291 185.666C176.707 185.666 177.077 185.764 177.401 185.96C177.725 186.152 177.979 186.42 178.163 186.764C178.351 187.104 178.445 187.494 178.445 187.934C178.445 188.37 178.353 188.758 178.169 189.098C177.985 189.438 177.729 189.706 177.401 189.902C177.077 190.094 176.705 190.19 176.285 190.19ZM184.862 191.192C185.486 191.192 186.052 191.058 186.56 190.79C187.072 190.522 187.474 190.146 187.766 189.662L186.914 189.218C186.422 189.902 185.758 190.244 184.922 190.244C184.478 190.244 184.084 190.152 183.74 189.968C183.4 189.78 183.132 189.522 182.936 189.194C182.744 188.866 182.648 188.488 182.648 188.06H187.928C187.948 187.976 187.958 187.892 187.958 187.808C187.958 187.184 187.822 186.636 187.55 186.164C187.282 185.692 186.906 185.324 186.422 185.06C185.942 184.796 185.382 184.664 184.742 184.664C184.29 184.664 183.866 184.748 183.47 184.916C183.074 185.084 182.726 185.32 182.426 185.624C182.126 185.924 181.892 186.272 181.724 186.668C181.556 187.064 181.472 187.49 181.472 187.946C181.472 188.562 181.62 189.116 181.916 189.608C182.212 190.096 182.616 190.482 183.128 190.766C183.64 191.05 184.218 191.192 184.862 191.192ZM182.708 187.202C182.788 186.718 183.014 186.332 183.386 186.044C183.758 185.756 184.216 185.612 184.76 185.612C185.276 185.612 185.72 185.76 186.092 186.056C186.468 186.348 186.7 186.73 186.788 187.202H182.708ZM193.492 191.192C194.064 191.192 194.58 191.052 195.04 190.772C195.5 190.492 195.864 190.106 196.132 189.614C196.404 189.122 196.54 188.56 196.54 187.928C196.54 187.3 196.406 186.742 196.138 186.254C195.874 185.762 195.51 185.374 195.046 185.09C194.582 184.806 194.056 184.664 193.468 184.664C192.956 184.664 192.488 184.78 192.064 185.012C191.644 185.244 191.31 185.566 191.062 185.978V180.68H189.898V191H191.062V189.848C191.326 190.268 191.67 190.598 192.094 190.838C192.518 191.074 192.984 191.192 193.492 191.192ZM193.18 190.19C192.76 190.19 192.386 190.094 192.058 189.902C191.734 189.706 191.48 189.438 191.296 189.098C191.112 188.758 191.02 188.37 191.02 187.934C191.02 187.494 191.112 187.104 191.296 186.764C191.484 186.42 191.74 186.152 192.064 185.96C192.392 185.764 192.764 185.666 193.18 185.666C193.596 185.666 193.964 185.764 194.284 185.96C194.608 186.152 194.862 186.42 195.046 186.764C195.234 187.104 195.328 187.494 195.328 187.934C195.328 188.37 195.236 188.758 195.052 189.098C194.868 189.438 194.614 189.706 194.29 189.902C193.97 190.094 193.6 190.19 193.18 190.19ZM198.546 191H199.71V187.13C199.71 186.878 199.784 186.642 199.932 186.422C200.084 186.202 200.28 186.024 200.52 185.888C200.764 185.748 201.02 185.678 201.288 185.678C201.432 185.678 201.586 185.698 201.75 185.738C201.914 185.778 202.058 185.832 202.182 185.9L202.662 184.916C202.518 184.84 202.346 184.78 202.146 184.736C201.95 184.688 201.756 184.664 201.564 184.664C200.744 184.664 200.126 185.028 199.71 185.756V184.856H198.546V191ZM206.611 191.192C207.119 191.192 207.583 191.074 208.003 190.838C208.423 190.602 208.767 190.272 209.035 189.848V191H210.199V184.856H209.035V185.978C208.799 185.566 208.465 185.244 208.033 185.012C207.605 184.78 207.131 184.664 206.611 184.664C206.023 184.664 205.499 184.806 205.039 185.09C204.579 185.374 204.217 185.762 203.953 186.254C203.689 186.742 203.557 187.298 203.557 187.922C203.557 188.554 203.691 189.116 203.959 189.608C204.231 190.1 204.597 190.488 205.057 190.772C205.521 191.052 206.039 191.192 206.611 191.192ZM206.923 190.19C206.507 190.19 206.137 190.094 205.813 189.902C205.489 189.706 205.233 189.438 205.045 189.098C204.861 188.754 204.769 188.364 204.769 187.928C204.769 187.488 204.861 187.098 205.045 186.758C205.233 186.418 205.489 186.152 205.813 185.96C206.137 185.764 206.507 185.666 206.923 185.666C207.343 185.666 207.713 185.764 208.033 185.96C208.357 186.152 208.611 186.418 208.795 186.758C208.979 187.098 209.071 187.488 209.071 187.928C209.071 188.368 208.979 188.758 208.795 189.098C208.611 189.438 208.357 189.706 208.033 189.902C207.713 190.094 207.343 190.19 206.923 190.19Z" fill="#6D6D6D"/>
<path d="M187.507 12H190.475C191.297 12 192.06 11.8553 192.764 11.566C193.474 11.272 194.092 10.8637 194.619 10.341C195.151 9.81367 195.564 9.2 195.858 8.5C196.152 7.8 196.299 7.044 196.299 6.232C196.299 5.42 196.15 4.664 195.851 3.964C195.557 3.25933 195.144 2.64567 194.612 2.123C194.085 1.59567 193.469 1.185 192.764 0.890999C192.06 0.596999 191.297 0.449999 190.475 0.449999H187.507V12ZM189.341 10.355V2.095H190.279C191.049 2.095 191.74 2.277 192.351 2.641C192.963 3.00033 193.446 3.49267 193.8 4.118C194.155 4.73867 194.332 5.441 194.332 6.225C194.332 7.009 194.155 7.71367 193.8 8.339C193.446 8.95967 192.963 9.452 192.351 9.816C191.74 10.1753 191.049 10.355 190.279 10.355H189.341ZM201.935 12.224C202.677 12.224 203.349 12.0653 203.951 11.748C204.558 11.426 205.031 10.9803 205.372 10.411L204.105 9.76C203.559 10.4693 202.866 10.824 202.026 10.824C201.335 10.824 200.773 10.621 200.339 10.215C199.91 9.809 199.695 9.28167 199.695 8.633H205.533C205.556 8.479 205.568 8.36233 205.568 8.283C205.568 7.55033 205.409 6.90867 205.092 6.358C204.779 5.80733 204.341 5.378 203.776 5.07C203.216 4.762 202.563 4.608 201.816 4.608C201.093 4.608 200.435 4.77833 199.842 5.119C199.254 5.45967 198.785 5.91933 198.435 6.498C198.09 7.072 197.917 7.716 197.917 8.43C197.917 9.14867 198.092 9.795 198.442 10.369C198.792 10.943 199.27 11.3957 199.877 11.727C200.484 12.0583 201.17 12.224 201.935 12.224ZM199.772 7.541C199.842 7.051 200.061 6.66133 200.43 6.372C200.799 6.08267 201.258 5.938 201.809 5.938C202.336 5.938 202.784 6.085 203.153 6.379C203.522 6.66833 203.75 7.05567 203.839 7.541H199.772ZM211.095 12.224C211.837 12.224 212.509 12.0653 213.111 11.748C213.718 11.426 214.191 10.9803 214.532 10.411L213.265 9.76C212.719 10.4693 212.026 10.824 211.186 10.824C210.495 10.824 209.933 10.621 209.499 10.215C209.07 9.809 208.855 9.28167 208.855 8.633H214.693C214.716 8.479 214.728 8.36233 214.728 8.283C214.728 7.55033 214.569 6.90867 214.252 6.358C213.939 5.80733 213.501 5.378 212.936 5.07C212.376 4.762 211.723 4.608 210.976 4.608C210.253 4.608 209.595 4.77833 209.002 5.119C208.414 5.45967 207.945 5.91933 207.595 6.498C207.25 7.072 207.077 7.716 207.077 8.43C207.077 9.14867 207.252 9.795 207.602 10.369C207.952 10.943 208.43 11.3957 209.037 11.727C209.644 12.0583 210.33 12.224 211.095 12.224ZM208.932 7.541C209.002 7.051 209.221 6.66133 209.59 6.372C209.959 6.08267 210.418 5.938 210.969 5.938C211.496 5.938 211.944 6.085 212.313 6.379C212.682 6.66833 212.91 7.05567 212.999 7.541H208.932ZM216.812 15.64H218.555V10.852C218.872 11.286 219.262 11.6243 219.724 11.867C220.191 12.105 220.695 12.224 221.236 12.224C221.913 12.224 222.517 12.0583 223.049 11.727C223.586 11.391 224.008 10.936 224.316 10.362C224.629 9.788 224.785 9.13933 224.785 8.416C224.785 7.68333 224.629 7.03233 224.316 6.463C224.003 5.889 223.576 5.43633 223.035 5.105C222.498 4.77367 221.885 4.608 221.194 4.608C220.648 4.608 220.144 4.72467 219.682 4.958C219.22 5.18667 218.844 5.50867 218.555 5.924V4.832H216.812V15.64ZM220.739 10.733C220.31 10.733 219.925 10.635 219.584 10.439C219.248 10.2383 218.984 9.963 218.793 9.613C218.602 9.263 218.506 8.864 218.506 8.416C218.506 7.968 218.602 7.569 218.793 7.219C218.984 6.869 219.248 6.596 219.584 6.4C219.925 6.19933 220.31 6.099 220.739 6.099C221.164 6.099 221.542 6.19933 221.873 6.4C222.209 6.60067 222.473 6.876 222.664 7.226C222.86 7.57133 222.958 7.97033 222.958 8.423C222.958 8.871 222.862 9.27 222.671 9.62C222.48 9.96533 222.216 10.2383 221.88 10.439C221.549 10.635 221.168 10.733 220.739 10.733ZM230.984 12H237.228V10.39H232.818V0.449999H230.984V12ZM242.445 12.224C243.187 12.224 243.859 12.0653 244.461 11.748C245.067 11.426 245.541 10.9803 245.882 10.411L244.615 9.76C244.069 10.4693 243.376 10.824 242.536 10.824C241.845 10.824 241.283 10.621 240.849 10.215C240.419 9.809 240.205 9.28167 240.205 8.633H246.043C246.066 8.479 246.078 8.36233 246.078 8.283C246.078 7.55033 245.919 6.90867 245.602 6.358C245.289 5.80733 244.85 5.378 244.286 5.07C243.726 4.762 243.072 4.608 242.326 4.608C241.602 4.608 240.944 4.77833 240.352 5.119C239.764 5.45967 239.295 5.91933 238.945 6.498C238.599 7.072 238.427 7.716 238.427 8.43C238.427 9.14867 238.602 9.795 238.952 10.369C239.302 10.943 239.78 11.3957 240.387 11.727C240.993 12.0583 241.679 12.224 242.445 12.224ZM240.282 7.541C240.352 7.051 240.571 6.66133 240.94 6.372C241.308 6.08267 241.768 5.938 242.319 5.938C242.846 5.938 243.294 6.085 243.663 6.379C244.031 6.66833 244.26 7.05567 244.349 7.541H240.282ZM251.138 12.224C251.679 12.224 252.178 12.105 252.636 11.867C253.098 11.6243 253.487 11.286 253.805 10.852V12H255.548V4.832H253.805V5.931C253.529 5.51567 253.154 5.19133 252.678 4.958C252.206 4.72467 251.693 4.608 251.138 4.608C250.447 4.608 249.833 4.77367 249.297 5.105C248.765 5.43633 248.345 5.889 248.037 6.463C247.733 7.037 247.582 7.68567 247.582 8.409C247.582 9.14633 247.738 9.802 248.051 10.376C248.368 10.95 248.795 11.4027 249.332 11.734C249.873 12.0607 250.475 12.224 251.138 12.224ZM251.635 10.733C251.205 10.733 250.823 10.6327 250.487 10.432C250.151 10.2313 249.887 9.95833 249.696 9.613C249.504 9.263 249.409 8.864 249.409 8.416C249.409 7.968 249.504 7.569 249.696 7.219C249.887 6.869 250.151 6.596 250.487 6.4C250.823 6.19933 251.205 6.099 251.635 6.099C252.069 6.099 252.451 6.19933 252.783 6.4C253.119 6.596 253.38 6.869 253.567 7.219C253.758 7.56433 253.854 7.96333 253.854 8.416C253.854 8.864 253.758 9.263 253.567 9.613C253.38 9.963 253.119 10.2383 252.783 10.439C252.451 10.635 252.069 10.733 251.635 10.733ZM258.251 12H259.994V7.73C259.994 7.45 260.076 7.18867 260.239 6.946C260.407 6.69867 260.624 6.50033 260.89 6.351C261.156 6.197 261.439 6.12 261.737 6.12C261.915 6.12 262.104 6.148 262.304 6.204C262.505 6.26 262.682 6.33467 262.836 6.428L263.557 4.951C263.38 4.84833 263.165 4.76667 262.913 4.706C262.666 4.64067 262.423 4.608 262.185 4.608C261.238 4.608 260.508 5.03033 259.994 5.875V4.832H258.251V12ZM265.005 12H266.748V7.604C266.748 7.156 266.902 6.77333 267.21 6.456C267.523 6.13867 267.95 5.98 268.491 5.98C269.014 5.98 269.422 6.14333 269.716 6.47C270.015 6.792 270.164 7.25167 270.164 7.849V12H271.907V7.485C271.907 6.60767 271.655 5.91 271.151 5.392C270.647 4.86933 269.982 4.608 269.156 4.608C268.624 4.608 268.151 4.71067 267.735 4.916C267.325 5.11667 266.996 5.37567 266.748 5.693V4.832H265.005V12ZM275.348 3.362C275.637 3.362 275.885 3.25933 276.09 3.054C276.295 2.844 276.398 2.59433 276.398 2.305C276.398 2.011 276.295 1.76133 276.09 1.556C275.885 1.35067 275.637 1.248 275.348 1.248C275.059 1.248 274.809 1.35067 274.599 1.556C274.394 1.76133 274.291 2.011 274.291 2.305C274.291 2.59433 274.394 2.844 274.599 3.054C274.809 3.25933 275.059 3.362 275.348 3.362ZM274.473 12H276.216V4.832H274.473V12ZM278.923 12H280.666V7.604C280.666 7.156 280.82 6.77333 281.128 6.456C281.441 6.13867 281.868 5.98 282.409 5.98C282.932 5.98 283.34 6.14333 283.634 6.47C283.933 6.792 284.082 7.25167 284.082 7.849V12H285.825V7.485C285.825 6.60767 285.573 5.91 285.069 5.392C284.565 4.86933 283.9 4.608 283.074 4.608C282.542 4.608 282.069 4.71067 281.653 4.916C281.243 5.11667 280.914 5.37567 280.666 5.693V4.832H278.923V12ZM291.744 15.85C293.083 15.85 294.098 15.5163 294.789 14.849C295.48 14.1817 295.825 13.2973 295.825 12.196V4.832H294.082V5.931C293.797 5.51567 293.424 5.19133 292.962 4.958C292.505 4.72467 291.998 4.608 291.443 4.608C290.752 4.608 290.136 4.77367 289.595 5.105C289.058 5.43633 288.634 5.889 288.321 6.463C288.013 7.037 287.859 7.688 287.859 8.416C287.859 9.158 288.018 9.816 288.335 10.39C288.652 10.9593 289.079 11.4073 289.616 11.734C290.153 12.0607 290.748 12.224 291.401 12.224C291.952 12.224 292.458 12.1027 292.92 11.86C293.387 11.6173 293.774 11.2813 294.082 10.852V12.126C294.082 12.8027 293.863 13.3417 293.424 13.743C292.985 14.149 292.425 14.352 291.744 14.352C291.226 14.352 290.752 14.2353 290.323 14.002C289.894 13.7733 289.576 13.4653 289.371 13.078L287.943 13.764C288.246 14.4453 288.72 14.9633 289.364 15.318C290.008 15.6727 290.801 15.85 291.744 15.85ZM291.898 10.733C291.469 10.733 291.086 10.635 290.75 10.439C290.419 10.2383 290.157 9.963 289.966 9.613C289.779 9.263 289.686 8.86633 289.686 8.423C289.686 7.97033 289.782 7.57133 289.973 7.226C290.164 6.876 290.428 6.60067 290.764 6.4C291.1 6.19933 291.483 6.099 291.912 6.099C292.341 6.099 292.722 6.19933 293.053 6.4C293.389 6.60067 293.653 6.876 293.844 7.226C294.04 7.57133 294.138 7.97033 294.138 8.423C294.138 8.871 294.042 9.27 293.851 9.62C293.66 9.96533 293.396 10.2383 293.06 10.439C292.724 10.635 292.337 10.733 291.898 10.733Z" fill="#6D6D6D"/>
<path d="M469.743 63H470.961V58.926H472.551C473.199 58.926 473.763 58.804 474.243 58.56C474.723 58.316 475.095 57.972 475.359 57.528C475.627 57.08 475.761 56.556 475.761 55.956C475.761 55.348 475.627 54.832 475.359 54.408C475.095 53.984 474.723 53.66 474.243 53.436C473.763 53.212 473.199 53.1 472.551 53.1H469.743V63ZM470.961 57.924V54.084H472.221C472.893 54.084 473.441 54.246 473.865 54.57C474.289 54.89 474.501 55.362 474.501 55.986C474.501 56.602 474.289 57.08 473.865 57.42C473.441 57.756 472.893 57.924 472.221 57.924H470.961ZM477.429 63H478.593V59.13C478.593 58.878 478.667 58.642 478.815 58.422C478.967 58.202 479.163 58.024 479.403 57.888C479.647 57.748 479.903 57.678 480.171 57.678C480.315 57.678 480.469 57.698 480.633 57.738C480.797 57.778 480.941 57.832 481.065 57.9L481.545 56.916C481.401 56.84 481.229 56.78 481.029 56.736C480.833 56.688 480.639 56.664 480.447 56.664C479.627 56.664 479.009 57.028 478.593 57.756V56.856H477.429V63ZM485.884 63.192C486.536 63.192 487.122 63.054 487.642 62.778C488.166 62.502 488.58 62.118 488.884 61.626C489.192 61.134 489.346 60.568 489.346 59.928C489.346 59.284 489.192 58.718 488.884 58.23C488.58 57.738 488.166 57.354 487.642 57.078C487.122 56.802 486.536 56.664 485.884 56.664C485.232 56.664 484.644 56.802 484.12 57.078C483.6 57.354 483.186 57.738 482.878 58.23C482.574 58.718 482.422 59.284 482.422 59.928C482.422 60.568 482.574 61.134 482.878 61.626C483.186 62.118 483.6 62.502 484.12 62.778C484.644 63.054 485.232 63.192 485.884 63.192ZM485.884 62.178C485.456 62.178 485.072 62.082 484.732 61.89C484.392 61.698 484.124 61.432 483.928 61.092C483.732 60.752 483.634 60.364 483.634 59.928C483.634 59.488 483.732 59.1 483.928 58.764C484.124 58.424 484.392 58.158 484.732 57.966C485.072 57.774 485.456 57.678 485.884 57.678C486.316 57.678 486.702 57.774 487.042 57.966C487.382 58.158 487.65 58.424 487.846 58.764C488.042 59.1 488.14 59.488 488.14 59.928C488.14 60.364 488.042 60.752 487.846 61.092C487.65 61.432 487.382 61.698 487.042 61.89C486.702 62.082 486.316 62.178 485.884 62.178ZM493.914 63.192C494.422 63.192 494.888 63.074 495.312 62.838C495.736 62.598 496.08 62.268 496.344 61.848V63H497.508V52.674H496.344V57.978C496.096 57.566 495.76 57.244 495.336 57.012C494.916 56.78 494.45 56.664 493.938 56.664C493.346 56.664 492.818 56.806 492.354 57.09C491.894 57.374 491.53 57.762 491.262 58.254C490.998 58.742 490.866 59.3 490.866 59.928C490.866 60.56 491 61.122 491.268 61.614C491.54 62.106 491.906 62.492 492.366 62.772C492.83 63.052 493.346 63.192 493.914 63.192ZM494.226 62.19C493.81 62.19 493.44 62.094 493.116 61.902C492.792 61.706 492.538 61.438 492.354 61.098C492.17 60.758 492.078 60.37 492.078 59.934C492.078 59.494 492.17 59.104 492.354 58.764C492.542 58.42 492.798 58.152 493.122 57.96C493.446 57.764 493.816 57.666 494.232 57.666C494.648 57.666 495.018 57.764 495.342 57.96C495.666 58.152 495.92 58.42 496.104 58.764C496.288 59.104 496.38 59.494 496.38 59.934C496.38 60.37 496.288 60.758 496.104 61.098C495.92 61.438 495.666 61.706 495.342 61.902C495.018 62.094 494.646 62.19 494.226 62.19ZM502.604 63.192C503.596 63.192 504.306 62.98 504.734 62.556C505.162 62.128 505.376 61.418 505.376 60.426V56.856H504.212V60.186C504.212 60.922 504.09 61.446 503.846 61.758C503.602 62.07 503.188 62.226 502.604 62.226C502.024 62.226 501.612 62.07 501.368 61.758C501.124 61.446 501.002 60.922 501.002 60.186V56.856H499.838V60.426C499.838 61.418 500.052 62.128 500.48 62.556C500.908 62.98 501.616 63.192 502.604 63.192ZM510.572 63.192C510.976 63.192 511.358 63.132 511.718 63.012C512.078 62.892 512.386 62.734 512.642 62.538L512.198 61.752C511.806 62.064 511.318 62.22 510.734 62.22C510.278 62.22 509.874 62.12 509.522 61.92C509.174 61.716 508.902 61.442 508.706 61.098C508.51 60.75 508.412 60.36 508.412 59.928C508.412 59.508 508.506 59.124 508.694 58.776C508.886 58.428 509.156 58.152 509.504 57.948C509.852 57.74 510.258 57.636 510.722 57.636C511.306 57.636 511.8 57.792 512.204 58.104L512.642 57.318C512.39 57.118 512.082 56.96 511.718 56.844C511.354 56.724 510.97 56.664 510.566 56.664C509.93 56.664 509.358 56.81 508.85 57.102C508.346 57.394 507.946 57.786 507.65 58.278C507.358 58.77 507.212 59.32 507.212 59.928C507.212 60.548 507.362 61.104 507.662 61.596C507.966 62.088 508.372 62.478 508.88 62.766C509.388 63.05 509.952 63.192 510.572 63.192ZM516.071 63.192C516.507 63.192 516.893 63.092 517.229 62.892L516.935 61.962C516.759 62.094 516.559 62.16 516.335 62.16C515.871 62.16 515.639 61.844 515.639 61.212V57.738H517.115V56.856H515.639V54.558H514.475V56.856H513.791V57.738H514.475V61.284C514.475 61.888 514.615 62.358 514.895 62.694C515.175 63.026 515.567 63.192 516.071 63.192ZM522.477 63H524.853C525.557 63 526.211 62.876 526.815 62.628C527.423 62.376 527.953 62.026 528.405 61.578C528.861 61.126 529.215 60.6 529.467 60C529.719 59.4 529.845 58.752 529.845 58.056C529.845 57.36 529.717 56.712 529.461 56.112C529.209 55.508 528.855 54.982 528.399 54.534C527.947 54.082 527.419 53.73 526.815 53.478C526.211 53.226 525.557 53.1 524.853 53.1H522.477V63ZM523.695 61.908V54.192H524.733C525.273 54.192 525.775 54.29 526.239 54.486C526.703 54.682 527.107 54.954 527.451 55.302C527.799 55.65 528.069 56.058 528.261 56.526C528.453 56.994 528.549 57.502 528.549 58.05C528.549 58.598 528.453 59.106 528.261 59.574C528.069 60.042 527.799 60.452 527.451 60.804C527.107 61.152 526.703 61.424 526.239 61.62C525.775 61.812 525.273 61.908 524.733 61.908H523.695ZM534.855 63.192C535.479 63.192 536.045 63.058 536.553 62.79C537.065 62.522 537.467 62.146 537.759 61.662L536.907 61.218C536.415 61.902 535.751 62.244 534.915 62.244C534.471 62.244 534.077 62.152 533.733 61.968C533.393 61.78 533.125 61.522 532.929 61.194C532.737 60.866 532.641 60.488 532.641 60.06H537.921C537.941 59.976 537.951 59.892 537.951 59.808C537.951 59.184 537.815 58.636 537.543 58.164C537.275 57.692 536.899 57.324 536.415 57.06C535.935 56.796 535.375 56.664 534.735 56.664C534.283 56.664 533.859 56.748 533.463 56.916C533.067 57.084 532.719 57.32 532.419 57.624C532.119 57.924 531.885 58.272 531.717 58.668C531.549 59.064 531.465 59.49 531.465 59.946C531.465 60.562 531.613 61.116 531.909 61.608C532.205 62.096 532.609 62.482 533.121 62.766C533.633 63.05 534.211 63.192 534.855 63.192ZM532.701 59.202C532.781 58.718 533.007 58.332 533.379 58.044C533.751 57.756 534.209 57.612 534.753 57.612C535.269 57.612 535.713 57.76 536.085 58.056C536.461 58.348 536.693 58.73 536.781 59.202H532.701ZM541.481 63.192C542.201 63.192 542.779 63.012 543.215 62.652C543.655 62.292 543.875 61.796 543.875 61.164C543.875 60.804 543.803 60.518 543.659 60.306C543.515 60.09 543.313 59.914 543.053 59.778C542.797 59.642 542.497 59.51 542.153 59.382C541.925 59.294 541.705 59.204 541.493 59.112C541.281 59.02 541.107 58.912 540.971 58.788C540.835 58.66 540.767 58.502 540.767 58.314C540.767 58.07 540.861 57.872 541.049 57.72C541.237 57.564 541.483 57.486 541.787 57.486C542.291 57.486 542.751 57.706 543.167 58.146L543.635 57.438C543.055 56.926 542.437 56.67 541.781 56.67C541.373 56.67 541.009 56.744 540.689 56.892C540.369 57.04 540.117 57.244 539.933 57.504C539.753 57.764 539.663 58.062 539.663 58.398C539.663 58.71 539.739 58.968 539.891 59.172C540.047 59.372 540.245 59.538 540.485 59.67C540.725 59.802 540.973 59.92 541.229 60.024C541.549 60.148 541.815 60.258 542.027 60.354C542.243 60.45 542.405 60.562 542.513 60.69C542.625 60.814 542.681 60.986 542.681 61.206C542.681 61.55 542.563 61.82 542.327 62.016C542.095 62.212 541.811 62.31 541.475 62.31C541.131 62.31 540.809 62.212 540.509 62.016C540.209 61.82 539.953 61.544 539.741 61.188L539.183 61.908C539.415 62.32 539.727 62.638 540.119 62.862C540.515 63.082 540.969 63.192 541.481 63.192ZM546.431 55.614C546.631 55.614 546.801 55.542 546.941 55.398C547.085 55.254 547.157 55.082 547.157 54.882C547.157 54.682 547.085 54.512 546.941 54.372C546.801 54.228 546.631 54.156 546.431 54.156C546.231 54.156 546.059 54.228 545.915 54.372C545.775 54.512 545.705 54.682 545.705 54.882C545.705 55.082 545.775 55.254 545.915 55.398C546.059 55.542 546.231 55.614 546.431 55.614ZM545.849 63H547.013V56.856H545.849V63ZM552.26 66.3C553.348 66.3 554.188 66.024 554.78 65.472C555.372 64.92 555.668 64.152 555.668 63.168V56.856H554.504V57.978C554.26 57.566 553.926 57.244 553.502 57.012C553.078 56.78 552.61 56.664 552.098 56.664C551.51 56.664 550.984 56.806 550.52 57.09C550.06 57.374 549.696 57.762 549.428 58.254C549.16 58.742 549.026 59.3 549.026 59.928C549.026 60.56 549.162 61.122 549.434 61.614C549.706 62.106 550.072 62.492 550.532 62.772C550.992 63.052 551.506 63.192 552.074 63.192C552.586 63.192 553.054 63.074 553.478 62.838C553.902 62.598 554.244 62.268 554.504 61.848V63.162C554.504 63.606 554.406 63.988 554.21 64.308C554.018 64.628 553.752 64.874 553.412 65.046C553.076 65.218 552.692 65.304 552.26 65.304C551.756 65.304 551.302 65.19 550.898 64.962C550.494 64.738 550.2 64.436 550.016 64.056L549.05 64.512C549.582 65.704 550.652 66.3 552.26 66.3ZM552.386 62.19C551.97 62.19 551.6 62.094 551.276 61.902C550.952 61.706 550.698 61.438 550.514 61.098C550.33 60.758 550.238 60.37 550.238 59.934C550.238 59.494 550.33 59.104 550.514 58.764C550.702 58.42 550.958 58.152 551.282 57.96C551.606 57.764 551.976 57.666 552.392 57.666C552.808 57.666 553.178 57.764 553.502 57.96C553.826 58.152 554.08 58.42 554.264 58.764C554.452 59.104 554.546 59.494 554.546 59.934C554.546 60.37 554.454 60.758 554.27 61.098C554.086 61.438 553.83 61.706 553.502 61.902C553.178 62.094 552.806 62.19 552.386 62.19ZM558.125 63H559.289V59.106C559.289 58.698 559.435 58.344 559.727 58.044C560.019 57.744 560.423 57.594 560.939 57.594C561.439 57.594 561.827 57.748 562.103 58.056C562.379 58.364 562.517 58.806 562.517 59.382V63H563.681V59.148C563.681 58.372 563.471 57.764 563.051 57.324C562.631 56.884 562.065 56.664 561.353 56.664C560.869 56.664 560.451 56.758 560.099 56.946C559.747 57.134 559.477 57.368 559.289 57.648V56.856H558.125V63Z" fill="#6D6D6D"/>
<path d="M347.276 17H348.494V12.926H350.084C350.732 12.926 351.296 12.804 351.776 12.56C352.256 12.316 352.628 11.972 352.892 11.528C353.16 11.08 353.294 10.556 353.294 9.956C353.294 9.348 353.16 8.832 352.892 8.408C352.628 7.984 352.256 7.66 351.776 7.436C351.296 7.212 350.732 7.1 350.084 7.1H347.276V17ZM348.494 11.924V8.084H349.754C350.426 8.084 350.974 8.246 351.398 8.57C351.822 8.89 352.034 9.362 352.034 9.986C352.034 10.602 351.822 11.08 351.398 11.42C350.974 11.756 350.426 11.924 349.754 11.924H348.494ZM355.473 20.12H356.793L361.155 10.856H359.829L357.795 15.506L355.527 10.856H354.201L357.123 16.664L355.473 20.12ZM364.342 17.192C364.778 17.192 365.164 17.092 365.5 16.892L365.206 15.962C365.03 16.094 364.83 16.16 364.606 16.16C364.142 16.16 363.91 15.844 363.91 15.212V11.738H365.386V10.856H363.91V8.558H362.746V10.856H362.062V11.738H362.746V15.284C362.746 15.888 362.886 16.358 363.166 16.694C363.446 17.026 363.838 17.192 364.342 17.192ZM367.314 17H368.478V13.106C368.478 12.698 368.624 12.344 368.916 12.044C369.208 11.74 369.612 11.588 370.128 11.588C370.628 11.588 371.016 11.744 371.292 12.056C371.568 12.364 371.706 12.806 371.706 13.382V17H372.87V13.148C372.87 12.372 372.66 11.764 372.24 11.324C371.82 10.884 371.254 10.664 370.542 10.664C370.058 10.664 369.64 10.758 369.288 10.946C368.936 11.134 368.666 11.368 368.478 11.648V6.674H367.314V17ZM378.182 17.192C378.834 17.192 379.42 17.054 379.94 16.778C380.464 16.502 380.878 16.118 381.182 15.626C381.49 15.134 381.644 14.568 381.644 13.928C381.644 13.284 381.49 12.718 381.182 12.23C380.878 11.738 380.464 11.354 379.94 11.078C379.42 10.802 378.834 10.664 378.182 10.664C377.53 10.664 376.942 10.802 376.418 11.078C375.898 11.354 375.484 11.738 375.176 12.23C374.872 12.718 374.72 13.284 374.72 13.928C374.72 14.568 374.872 15.134 375.176 15.626C375.484 16.118 375.898 16.502 376.418 16.778C376.942 17.054 377.53 17.192 378.182 17.192ZM378.182 16.178C377.754 16.178 377.37 16.082 377.03 15.89C376.69 15.698 376.422 15.432 376.226 15.092C376.03 14.752 375.932 14.364 375.932 13.928C375.932 13.488 376.03 13.1 376.226 12.764C376.422 12.424 376.69 12.158 377.03 11.966C377.37 11.774 377.754 11.678 378.182 11.678C378.614 11.678 379 11.774 379.34 11.966C379.68 12.158 379.948 12.424 380.144 12.764C380.34 13.1 380.438 13.488 380.438 13.928C380.438 14.364 380.34 14.752 380.144 15.092C379.948 15.432 379.68 15.698 379.34 15.89C379 16.082 378.614 16.178 378.182 16.178ZM383.591 17H384.755V13.106C384.755 12.698 384.901 12.344 385.193 12.044C385.485 11.744 385.889 11.594 386.405 11.594C386.905 11.594 387.293 11.748 387.569 12.056C387.845 12.364 387.983 12.806 387.983 13.382V17H389.147V13.148C389.147 12.372 388.937 11.764 388.517 11.324C388.097 10.884 387.531 10.664 386.819 10.664C386.335 10.664 385.917 10.758 385.565 10.946C385.213 11.134 384.943 11.368 384.755 11.648V10.856H383.591V17Z" fill="#6D6D6D"/>
<path d="M310.078 182H311.912V177.408H313.676C314.427 177.408 315.087 177.266 315.657 176.981C316.231 176.692 316.679 176.283 317.001 175.756C317.323 175.224 317.484 174.592 317.484 173.859C317.484 173.122 317.323 172.501 317.001 171.997C316.679 171.488 316.231 171.103 315.657 170.842C315.087 170.581 314.427 170.45 313.676 170.45H310.078V182ZM311.912 175.924V171.92H313.137C313.827 171.92 314.406 172.081 314.873 172.403C315.339 172.725 315.573 173.227 315.573 173.908C315.573 174.585 315.339 175.091 314.873 175.427C314.406 175.758 313.827 175.924 313.137 175.924H311.912ZM319.175 182H320.918V177.73C320.918 177.45 321 177.189 321.163 176.946C321.331 176.699 321.548 176.5 321.814 176.351C322.08 176.197 322.363 176.12 322.661 176.12C322.839 176.12 323.028 176.148 323.228 176.204C323.429 176.26 323.606 176.335 323.76 176.428L324.481 174.951C324.304 174.848 324.089 174.767 323.837 174.706C323.59 174.641 323.347 174.608 323.109 174.608C322.162 174.608 321.432 175.03 320.918 175.875V174.832H319.175V182ZM329.368 182.224C330.143 182.224 330.84 182.063 331.461 181.741C332.082 181.419 332.574 180.971 332.938 180.397C333.302 179.823 333.484 179.163 333.484 178.416C333.484 177.665 333.302 177.004 332.938 176.435C332.574 175.861 332.082 175.413 331.461 175.091C330.84 174.769 330.143 174.608 329.368 174.608C328.593 174.608 327.893 174.769 327.268 175.091C326.647 175.413 326.155 175.861 325.791 176.435C325.427 177.004 325.245 177.665 325.245 178.416C325.245 179.163 325.427 179.823 325.791 180.397C326.155 180.971 326.647 181.419 327.268 181.741C327.893 182.063 328.593 182.224 329.368 182.224ZM329.368 180.726C328.934 180.726 328.542 180.628 328.192 180.432C327.847 180.231 327.571 179.958 327.366 179.613C327.165 179.263 327.065 178.864 327.065 178.416C327.065 177.963 327.165 177.564 327.366 177.219C327.571 176.874 327.847 176.603 328.192 176.407C328.542 176.206 328.934 176.106 329.368 176.106C329.807 176.106 330.199 176.206 330.544 176.407C330.894 176.603 331.169 176.874 331.37 177.219C331.571 177.564 331.671 177.963 331.671 178.416C331.671 178.864 331.571 179.263 331.37 179.613C331.169 179.958 330.894 180.231 330.544 180.432C330.199 180.628 329.807 180.726 329.368 180.726ZM338.941 185.85C340.281 185.85 341.296 185.516 341.986 184.849C342.677 184.182 343.022 183.297 343.022 182.196V174.832H341.279V175.931C340.995 175.516 340.621 175.191 340.159 174.958C339.702 174.725 339.196 174.608 338.64 174.608C337.95 174.608 337.334 174.774 336.792 175.105C336.256 175.436 335.831 175.889 335.518 176.463C335.21 177.037 335.056 177.688 335.056 178.416C335.056 179.158 335.215 179.816 335.532 180.39C335.85 180.959 336.277 181.407 336.813 181.734C337.35 182.061 337.945 182.224 338.598 182.224C339.149 182.224 339.655 182.103 340.117 181.86C340.584 181.617 340.971 181.281 341.279 180.852V182.126C341.279 182.803 341.06 183.342 340.621 183.743C340.183 184.149 339.623 184.352 338.941 184.352C338.423 184.352 337.95 184.235 337.52 184.002C337.091 183.773 336.774 183.465 336.568 183.078L335.14 183.764C335.444 184.445 335.917 184.963 336.561 185.318C337.205 185.673 337.999 185.85 338.941 185.85ZM339.095 180.733C338.666 180.733 338.283 180.635 337.947 180.439C337.616 180.238 337.355 179.963 337.163 179.613C336.977 179.263 336.883 178.866 336.883 178.423C336.883 177.97 336.979 177.571 337.17 177.226C337.362 176.876 337.625 176.601 337.961 176.4C338.297 176.199 338.68 176.099 339.109 176.099C339.539 176.099 339.919 176.199 340.25 176.4C340.586 176.601 340.85 176.876 341.041 177.226C341.237 177.571 341.335 177.97 341.335 178.423C341.335 178.871 341.24 179.27 341.048 179.62C340.857 179.965 340.593 180.238 340.257 180.439C339.921 180.635 339.534 180.733 339.095 180.733ZM345.726 182H347.469V177.73C347.469 177.45 347.551 177.189 347.714 176.946C347.882 176.699 348.099 176.5 348.365 176.351C348.631 176.197 348.913 176.12 349.212 176.12C349.389 176.12 349.578 176.148 349.779 176.204C349.98 176.26 350.157 176.335 350.311 176.428L351.032 174.951C350.855 174.848 350.64 174.767 350.388 174.706C350.141 174.641 349.898 174.608 349.66 174.608C348.713 174.608 347.982 175.03 347.469 175.875V174.832H345.726V182ZM355.388 182.224C355.929 182.224 356.428 182.105 356.886 181.867C357.348 181.624 357.737 181.286 358.055 180.852V182H359.798V174.832H358.055V175.931C357.779 175.516 357.404 175.191 356.928 174.958C356.456 174.725 355.943 174.608 355.388 174.608C354.697 174.608 354.083 174.774 353.547 175.105C353.015 175.436 352.595 175.889 352.287 176.463C351.983 177.037 351.832 177.686 351.832 178.409C351.832 179.146 351.988 179.802 352.301 180.376C352.618 180.95 353.045 181.403 353.582 181.734C354.123 182.061 354.725 182.224 355.388 182.224ZM355.885 180.733C355.455 180.733 355.073 180.633 354.737 180.432C354.401 180.231 354.137 179.958 353.946 179.613C353.754 179.263 353.659 178.864 353.659 178.416C353.659 177.968 353.754 177.569 353.946 177.219C354.137 176.869 354.401 176.596 354.737 176.4C355.073 176.199 355.455 176.099 355.885 176.099C356.319 176.099 356.701 176.199 357.033 176.4C357.369 176.596 357.63 176.869 357.817 177.219C358.008 177.564 358.104 177.963 358.104 178.416C358.104 178.864 358.008 179.263 357.817 179.613C357.63 179.963 357.369 180.238 357.033 180.439C356.701 180.635 356.319 180.733 355.885 180.733ZM362.501 182H364.244V177.464C364.244 177.207 364.317 176.969 364.461 176.75C364.611 176.526 364.814 176.346 365.07 176.211C365.327 176.076 365.614 176.008 365.931 176.008C366.398 176.008 366.767 176.16 367.037 176.463C367.308 176.762 367.443 177.163 367.443 177.667V182H369.186V177.471C369.186 177.084 369.343 176.743 369.655 176.449C369.973 176.155 370.372 176.008 370.852 176.008C371.319 176.008 371.69 176.164 371.965 176.477C372.245 176.785 372.385 177.205 372.385 177.737V182H374.128V177.261C374.128 176.71 374.014 176.237 373.785 175.84C373.557 175.443 373.242 175.14 372.84 174.93C372.439 174.715 371.982 174.608 371.468 174.608C370.927 174.608 370.451 174.732 370.04 174.979C369.63 175.222 369.263 175.572 368.941 176.029C368.755 175.595 368.442 175.25 368.003 174.993C367.565 174.736 367.063 174.608 366.498 174.608C365.644 174.608 364.893 174.97 364.244 175.693V174.832H362.501V182ZM376.706 182H378.449V177.464C378.449 177.207 378.522 176.969 378.666 176.75C378.816 176.526 379.019 176.346 379.275 176.211C379.532 176.076 379.819 176.008 380.136 176.008C380.603 176.008 380.972 176.16 381.242 176.463C381.513 176.762 381.648 177.163 381.648 177.667V182H383.391V177.471C383.391 177.084 383.548 176.743 383.86 176.449C384.178 176.155 384.577 176.008 385.057 176.008C385.524 176.008 385.895 176.164 386.17 176.477C386.45 176.785 386.59 177.205 386.59 177.737V182H388.333V177.261C388.333 176.71 388.219 176.237 387.99 175.84C387.762 175.443 387.447 175.14 387.045 174.93C386.644 174.715 386.187 174.608 385.673 174.608C385.132 174.608 384.656 174.732 384.245 174.979C383.835 175.222 383.468 175.572 383.146 176.029C382.96 175.595 382.647 175.25 382.208 174.993C381.77 174.736 381.268 174.608 380.703 174.608C379.849 174.608 379.098 174.97 378.449 175.693V174.832H376.706V182ZM391.78 173.362C392.069 173.362 392.316 173.259 392.522 173.054C392.727 172.844 392.83 172.594 392.83 172.305C392.83 172.011 392.727 171.761 392.522 171.556C392.316 171.351 392.069 171.248 391.78 171.248C391.49 171.248 391.241 171.351 391.031 171.556C390.825 171.761 390.723 172.011 390.723 172.305C390.723 172.594 390.825 172.844 391.031 173.054C391.241 173.259 391.49 173.362 391.78 173.362ZM390.905 182H392.648V174.832H390.905V182ZM395.355 182H397.098V177.604C397.098 177.156 397.252 176.773 397.56 176.456C397.873 176.139 398.3 175.98 398.841 175.98C399.364 175.98 399.772 176.143 400.066 176.47C400.365 176.792 400.514 177.252 400.514 177.849V182H402.257V177.485C402.257 176.608 402.005 175.91 401.501 175.392C400.997 174.869 400.332 174.608 399.506 174.608C398.974 174.608 398.5 174.711 398.085 174.916C397.674 175.117 397.345 175.376 397.098 175.693V174.832H395.355V182ZM408.176 185.85C409.515 185.85 410.53 185.516 411.221 184.849C411.911 184.182 412.257 183.297 412.257 182.196V174.832H410.514V175.931C410.229 175.516 409.856 175.191 409.394 174.958C408.936 174.725 408.43 174.608 407.875 174.608C407.184 174.608 406.568 174.774 406.027 175.105C405.49 175.436 405.065 175.889 404.753 176.463C404.445 177.037 404.291 177.688 404.291 178.416C404.291 179.158 404.449 179.816 404.767 180.39C405.084 180.959 405.511 181.407 406.048 181.734C406.584 182.061 407.179 182.224 407.833 182.224C408.383 182.224 408.89 182.103 409.352 181.86C409.818 181.617 410.206 181.281 410.514 180.852V182.126C410.514 182.803 410.294 183.342 409.856 183.743C409.417 184.149 408.857 184.352 408.176 184.352C407.658 184.352 407.184 184.235 406.755 184.002C406.325 183.773 406.008 183.465 405.803 183.078L404.375 183.764C404.678 184.445 405.152 184.963 405.796 185.318C406.44 185.673 407.233 185.85 408.176 185.85ZM408.33 180.733C407.9 180.733 407.518 180.635 407.182 180.439C406.85 180.238 406.589 179.963 406.398 179.613C406.211 179.263 406.118 178.866 406.118 178.423C406.118 177.97 406.213 177.571 406.405 177.226C406.596 176.876 406.86 176.601 407.196 176.4C407.532 176.199 407.914 176.099 408.344 176.099C408.773 176.099 409.153 176.199 409.485 176.4C409.821 176.601 410.084 176.876 410.276 177.226C410.472 177.571 410.57 177.97 410.57 178.423C410.57 178.871 410.474 179.27 410.283 179.62C410.091 179.965 409.828 180.238 409.492 180.439C409.156 180.635 408.768 180.733 408.33 180.733Z" fill="#6D6D6D"/>
</g>
<defs>
<clipPath id="clip0">
<rect width="585" height="224.76" fill="white"/>
</clipPath>
</defs>
</svg>
