<?xml version="1.0" encoding="iso-8859-1" ?>
<svg version="1.1" xmlns="http://www.w3.org/2000/svg" xmlns:xlink="http://www.w3.org/1999/xlink" 
    viewBox="0 0 1200 800" width="1200" height="800">
    
    
    <!-- ITEM 0 -->
    <g>
        <defs>
            <clipPath id="clip-path-id-viewbox-item-0">
                <rect x="0.0" y="0.0" width="83.363" height="176.931"/>
            </clipPath>
        </defs>
        <g transform="translate(686.0 815.0) rotate(57.660835068706795 -152.0 -323.0) scale(-3.6467017741683962 -3.6511408402145467)">
            <g clip-path="url(#clip-path-id-viewbox-item-0)" transform="translate(-0.0 -0.0)">
                <title>line_5</title><g id="Layer_2-i0" data-name="Layer 2"><g id="Layer_1-2-i0" data-name="Layer 1"><path d="M26.66,172.028a1.086,1.086,0,1,0-1.634,1.43c.919.919,1.94,2.043,3.064,3.166a1.157,1.157,0,0,0,.817.307,1.374,1.374,0,0,0,.817-.2,1.111,1.111,0,0,0,0-1.533C28.7,174.071,27.579,173.049,26.66,172.028Z" fill="#2b2b2b"></path><path d="M2.554,127.084c0-.511-.715-.919-1.226-.919a1.07,1.07,0,0,0-.919,1.226,52.238,52.238,0,0,0,1.736,8.682,1,1,0,0,0,1.022.817h.408a1.19,1.19,0,0,0,.715-1.43A50.922,50.922,0,0,1,2.554,127.084Z" fill="#2b2b2b"></path><path d="M2.247,118.5a38.562,38.562,0,0,1,1.226-8.376,1.088,1.088,0,0,0-.817-1.328,1.088,1.088,0,0,0-1.328.817A41.45,41.45,0,0,0,0,118.4a1.155,1.155,0,0,0,1.124,1.225A1.133,1.133,0,0,0,2.247,118.5Z" fill="#2b2b2b"></path><path d="M6.231,102.161A44.691,44.691,0,0,1,10.419,94.7,1.105,1.105,0,0,0,8.58,93.478a48.86,48.86,0,0,0-4.392,7.763,1.089,1.089,0,0,0,.613,1.43.609.609,0,0,0,.408.1A1.125,1.125,0,0,0,6.231,102.161Z" fill="#2b2b2b"></path><path d="M20.735,24.122c.715-.1,1.226-.511,1.124-.919V21.262c0-2.247,0-4.6.1-6.844a1.128,1.128,0,1,0-2.247-.2c0,2.247-.1,4.6-.1,6.844V23A1.134,1.134,0,0,0,20.735,24.122Z" fill="#2b2b2b"></path><path d="M7.15,143.632a1.055,1.055,0,0,0-1.43-.613,1.055,1.055,0,0,0-.613,1.43c1.226,2.553,2.554,5.209,3.984,7.865a.982.982,0,0,0,.919.613c.2,0,.307-.1.613-.2a1.01,1.01,0,0,0,.409-1.43A59.892,59.892,0,0,1,7.15,143.632Z" fill="#2b2b2b"></path><path d="M61.9,69.781a39.848,39.848,0,0,1,8.171,2.247.617.617,0,0,0,.409.1,1.23,1.23,0,0,0,1.022-.715,1.089,1.089,0,0,0-.613-1.43,33.939,33.939,0,0,0-8.683-2.349,1.083,1.083,0,0,0-.306,2.145Z" fill="#2b2b2b"></path><path d="M44.74,71.006c.1,0,.1-.1.306,0a59.563,59.563,0,0,1,8.376-1.327,1.129,1.129,0,0,0-.2-2.248,54.286,54.286,0,0,0-8.785,1.43,1.089,1.089,0,0,0-.817,1.328A1.355,1.355,0,0,0,44.74,71.006Z" fill="#2b2b2b"></path><path d="M23.187,40.261q-.614-4.137-.919-8.58a1.129,1.129,0,0,0-2.248.2c.205,2.962.511,5.924.92,8.682a1.2,1.2,0,0,0,1.123.92A1.293,1.293,0,0,0,23.187,40.261Z" fill="#2b2b2b"></path><path d="M83.35,82.855c-.306-2.656-2.043-5.311-4.9-7.865a1.086,1.086,0,0,0-1.43,1.634c2.452,2.145,3.882,4.5,4.188,6.538a1.2,1.2,0,0,0,1.124.919h.1A1.07,1.07,0,0,0,83.35,82.855Z" fill="#2b2b2b"></path><path d="M15.628,158.545a1.1,1.1,0,1,0-1.838,1.226,84.9,84.9,0,0,0,5.311,7.048,1.109,1.109,0,0,0,.919.408,1.355,1.355,0,0,0,.715-.306,1.11,1.11,0,0,0,.1-1.532C19,163.141,17.263,160.792,15.628,158.545Z" fill="#2b2b2b"></path><path d="M39.734,79.178a1.086,1.086,0,1,0-1.634,1.43,45.885,45.885,0,0,0,6.742,5.924,2.563,2.563,0,0,0,.715.2c.408,0,.715-.2.715-.409a1.035,1.035,0,0,0-.2-1.532A63.987,63.987,0,0,1,39.734,79.178Z" fill="#2b2b2b"></path><path d="M77.732,89.29a17.437,17.437,0,0,1-7.763,2.554,1.071,1.071,0,0,0-.919,1.226,1.111,1.111,0,0,0,1.124.919.1.1,0,0,0,.1-.1,19.8,19.8,0,0,0,8.682-2.758,1.105,1.105,0,1,0-1.226-1.839Z" fill="#2b2b2b"></path><path d="M61.593,91.435a30.432,30.432,0,0,1-8.069-2.451,1.183,1.183,0,0,0-1.43.613,1.089,1.089,0,0,0,.613,1.43,45.642,45.642,0,0,0,8.58,2.554h.2a1.008,1.008,0,0,0,1.022-.92A1.11,1.11,0,0,0,61.593,91.435Z" fill="#2b2b2b"></path><path d="M26.047,58.443h.409a1.105,1.105,0,0,0,.715-1.43c-.92-2.554-1.635-5.414-2.35-8.274a1.1,1.1,0,1,0-2.145.511,73.7,73.7,0,0,0,2.35,8.478A1.11,1.11,0,0,0,26.047,58.443Z" fill="#2b2b2b"></path><path d="M20.633,80.506A61.017,61.017,0,0,0,14.1,86.532a1.238,1.238,0,0,0,.1,1.533.928.928,0,0,0,.715.306,1.039,1.039,0,0,0,.817-.511,68.3,68.3,0,0,1,6.333-5.72,1.086,1.086,0,0,0-1.43-1.634Z" fill="#2b2b2b"></path><path d="M36.057,71.517c-.613.307-1.123.511-1.634.715a55.483,55.483,0,0,1-4.086-7.252A1.074,1.074,0,1,0,28.4,65.9c1.328,2.554,2.656,5,4.086,7.252A35.621,35.621,0,0,0,28.09,75.4a1.153,1.153,0,0,0-.409,1.532,1.075,1.075,0,0,0,.92.511,1.283,1.283,0,0,0,.612-.1,66.848,66.848,0,0,1,7.661-3.779,1.137,1.137,0,0,0,.613-1.43A1.055,1.055,0,0,0,36.057,71.517Z" fill="#2b2b2b"></path><path d="M21.553,6.553a1.008,1.008,0,0,0,1.021-.919c.1-1.43.306-2.963.409-4.393A1.083,1.083,0,0,0,20.838.935c-.1,1.43-.307,2.962-.409,4.392A1.219,1.219,0,0,0,21.553,6.553Z" fill="#2b2b2b"></path></g></g>
            </g>
        </g>
    </g>
    
    <!-- ITEM 1 -->
    <g>
        <defs>
            <clipPath id="clip-path-id-viewbox-item-1">
                <rect x="0.0" y="0.0" width="290.007" height="490.896"/>
            </clipPath>
        </defs>
        <g transform="translate(756.0 42.0) rotate(0.0 85.5 144.0) scale(0.5896409397014555 0.5866823115283074)">
            <g clip-path="url(#clip-path-id-viewbox-item-1)" transform="translate(-0.0 -0.0)">
                <title>map_marker</title><g id="Layer_2-i1" data-name="Layer 2"><g id="Layer_1-2-i1" data-name="Layer 1"><path d="M286.232,145c0,25.536-15.173,71.946-35.529,122.8-3.109,7.772-6.365,15.766-9.7,23.686-33.013,78.534-74.464,161.584-89.934,191.932a6.887,6.887,0,0,1-12.287,0C117.913,442.339,49.3,304.811,18.653,212.435a408.662,408.662,0,0,1-11.4-40.192c-2.295-10.585-3.627-19.763-3.627-27.165A141.3,141.3,0,0,1,286.232,145Z" fill="#fff"></path><path d="M144.93,490.9h0a10.326,10.326,0,0,1-9.4-5.848c-20.429-40.266-89.637-178.9-120.355-271.5A419.355,419.355,0,0,1,3.7,172.983C1.184,161.436,0,152.332,0,145,0,65.063,65.063,0,145,0s145,64.989,145,144.93c0,23.094-12.065,64.841-35.825,124.2-3.479,8.734-6.662,16.506-9.7,23.76C209.919,375.056,166.839,460.77,154.4,485.048A10.6,10.6,0,0,1,144.93,490.9Zm0-483.42c-75.87,0-137.6,61.732-137.6,137.6,0,6.735,1.184,15.4,3.553,26.351a380.949,380.949,0,0,0,11.325,39.822c30.57,92.08,99.482,230.348,119.911,270.466a3.173,3.173,0,0,0,5.7,0c12.362-24.278,55.367-109.77,89.786-191.71,3.035-7.253,6.217-14.952,9.7-23.612,23.39-58.475,35.233-99.334,35.233-121.391C282.532,69.134,220.8,7.476,144.93,7.476Z" fill="#3ab8aa"></path><circle cx="144.942" cy="141.819" r="90.75" fill="#3ab8aa"></circle><path d="M144.93,175.352a7.487,7.487,0,0,1-5.626-2.591l-28.423-32.939a7.4,7.4,0,0,1,11.177-9.7l22.206,25.759,27.757-39.6a7.383,7.383,0,0,1,12.065,8.512l-33.235,47.373a7.334,7.334,0,0,1-5.7,3.109C145.152,175.352,145.078,175.352,144.93,175.352Z" fill="#fff"></path></g></g>
            </g>
        </g>
    </g>
    
</svg>