<svg width="727" height="761" viewBox="0 0 727 761" fill="none" xmlns="http://www.w3.org/2000/svg">
<path fill-rule="evenodd" clip-rule="evenodd" d="M371.927 26.0818C372.763 25.8836 373.6 25.6831 374.436 25.4802C382.374 57.6897 380.551 87.5342 371.109 114.66C364.837 133.083 354.768 150.188 341.467 165.015C326.283 181.743 309.384 197.051 291.011 210.719C261.447 232.682 230.003 248.437 197.123 255.498C177.642 259.612 157.974 262.919 138.179 265.408C129.9 266.48 121.569 267.478 111.279 268.622L86.7558 271.35C56.6438 274.783 41.1829 277.559 30.2402 282.21C28.9675 282.748 27.6243 283.27 26.2136 283.777C26.4227 283.299 26.6326 282.823 26.8431 282.348C27.1033 281.761 27.3674 281.178 27.6355 280.598C28.1581 280.391 28.6696 280.181 29.1695 279.969C40.4517 275.197 56.0432 272.421 86.4424 268.939L110.992 266.212C121.229 265.043 129.56 264.069 137.813 262.998C159.124 260.222 178.032 257.081 196.548 253.112C228.985 246.148 260.089 230.564 289.392 208.796C307.632 195.221 324.408 180.02 339.482 163.408C352.545 148.836 362.436 132.03 368.602 113.929C377.912 87.2202 379.71 57.8408 371.927 26.0818ZM339.109 33.0856C339.862 32.9326 340.616 32.7797 341.37 32.6267C341.469 32.6066 341.568 32.5865 341.667 32.5664C344.03 43.7598 345.384 53.9165 345.881 64.5242C347.161 91.3331 341.911 116.291 328.566 140.422C308.195 177.263 275.106 204.948 233.973 223.454C201.641 237.966 165.757 245.783 139.38 245.783C121.516 245.783 94.3557 249.143 42.0449 257.032L41.879 257.057C42.5892 256.122 43.3101 255.197 44.0415 254.281C94.9591 246.605 121.612 243.348 139.38 243.348C165.366 243.348 200.858 235.604 232.824 221.238C273.487 202.976 306.184 175.631 326.268 139.302C339.378 115.561 344.549 91.0409 343.269 64.6215C342.774 54.1728 341.441 44.1464 339.109 33.0856ZM299.252 42.0995C300.129 41.8629 301.006 41.6297 301.885 41.3999C303.524 59.6825 303.365 78.0758 301.405 96.3491C298.898 117.728 293.309 135.333 284.09 147.848C254.474 188.025 180.147 218.998 110.652 218.998C100.791 218.998 90.514 219.373 79.6385 220.114C80.7585 219.225 81.884 218.341 83.0141 217.46C92.648 216.871 101.815 216.563 110.652 216.563C179.338 216.563 252.855 185.931 281.948 146.485C290.88 134.359 296.312 117.119 298.82 96.0812C300.853 78.6095 300.755 60.0077 299.252 42.0995ZM261.872 55.3497C262.796 54.9205 263.722 54.4996 264.651 54.0868C263.716 62.6069 261.357 71.9672 257.53 84.1012C251.366 103.727 251.079 104.725 250.374 110.764C247.527 134.505 210.938 163.554 160.717 179.941C149.074 183.739 135.452 186.851 120.153 189.346C121.482 188.306 122.805 187.259 124.122 186.204C137.492 183.865 149.475 181.026 159.829 177.652C209.189 161.533 245.072 133.093 247.762 110.472C248.52 104.238 248.807 103.264 255.049 83.4194C258.596 72.1341 260.857 63.3066 261.872 55.3497ZM213.545 89.7652C214.474 88.8357 215.409 87.9148 216.351 87.003C215.32 109.387 203.226 126.987 182.211 140.251C175.728 144.352 168.537 147.959 160.765 151.106C161.99 149.711 163.207 148.307 164.418 146.896C170.263 144.304 175.728 141.429 180.748 138.255C200.201 125.941 211.689 109.975 213.545 89.7652ZM182.82 564.917C182.441 564.069 182.05 563.228 181.644 562.395C186.965 556.145 192.504 550.685 198.612 545.599C210.643 535.422 224.167 526.895 238.778 520.276L249.329 515.479C265.783 507.93 274.061 501.429 283.176 486.819C287.734 479.27 291.647 471.397 294.876 463.273C306.785 434.443 324.831 414.525 347.03 402.399C363.353 393.487 380.798 389.445 395.345 389.445C413.653 389.445 428.382 389.153 448.022 388.057C476.487 386.606 504.816 383.384 532.821 378.415C545.879 376.029 558.284 373.228 569.958 370.014C605.032 360.323 623.183 357.791 655.985 355.94L661.835 355.599C670.256 355.095 677.268 354.469 684.124 353.507C684.497 354.271 684.873 355.034 685.252 355.797C677.55 356.927 669.786 357.674 661.992 358.034L656.116 358.375C623.497 360.201 605.529 362.709 570.663 372.352C558.911 375.59 546.454 378.415 533.317 380.825C505.2 385.81 476.757 389.04 448.178 390.492C428.434 391.588 413.679 391.88 395.319 391.88C381.216 391.88 364.241 395.8 348.31 404.493C326.633 416.351 308.979 435.831 297.305 464.15C294.015 472.384 290.033 480.363 285.396 488.012C275.994 503.109 267.323 509.903 250.452 517.67L239.927 522.443C225.524 528.965 212.193 537.369 200.335 547.401C194.022 552.663 188.317 558.341 182.82 564.917ZM194.32 641.337C194.271 639.698 194.222 638.058 194.171 636.418C211.596 605.918 222.79 595.595 245.647 579.616C253.847 573.869 262.283 569.632 275.498 564.032L281.583 561.499C312.74 548.472 325.641 539.755 336.688 519.18C341.598 510 343.165 503.864 345.489 489.303C347.526 476.665 349.354 470.895 354.708 464.344C361.42 456.066 373.068 449.077 392.211 442.406C401.012 439.337 411.433 436.318 423.681 433.323C466.329 422.853 489.703 420.272 527.102 419.176C545.122 418.64 551.912 417.812 560.165 414.306C563.273 412.991 566.328 411.311 569.514 409.168C579.177 402.594 590.773 398.114 604.092 395.362C619.005 392.27 632.011 391.612 652.93 391.831L659.067 391.88C665.58 391.88 674.462 389.976 699.729 383.321C700.121 384.058 700.512 384.794 700.903 385.53C675.212 392.309 666.076 394.291 659.067 394.291L652.904 394.242C632.167 393.998 619.344 394.656 604.667 397.7C591.687 400.402 580.379 404.761 571.029 411.092C567.97 413.2 564.689 415.011 561.235 416.498C552.565 420.15 545.566 421.051 527.18 421.587C489.964 422.658 466.773 425.239 424.36 435.636C413.803 438.154 403.387 441.161 393.151 444.646C374.426 451.22 363.144 457.941 356.771 465.781C351.809 471.917 350.034 477.372 348.075 489.644C345.724 504.448 344.079 510.779 339.012 520.227C333.211 531.326 324.541 540.906 313.784 548.107C305.636 553.61 298.245 557.19 282.628 563.691L276.595 566.223C263.51 571.751 255.232 575.939 247.214 581.539C223.779 597.935 212.816 608.216 194.32 641.337ZM196.796 682.282C196.464 679.644 196.182 676.973 195.94 674.277C222.657 634.588 265.996 591.501 300.308 578.349C337.263 564.153 350.921 549.763 350.921 534.325C350.921 527.288 358.051 513.872 368.759 500.893C381.19 485.796 396.573 473.232 412.503 466.365C445.149 452.316 499.993 441.797 536.347 441.797C550.241 441.797 562.019 438.144 579.23 429.89C603.257 418.421 605.607 417.447 614.695 417.447C636.72 417.447 677.938 413.38 711.822 407.415C712.517 408.941 713.195 410.472 713.855 412.008C679.442 418.136 637.28 422.317 614.695 422.317C606.887 422.317 604.484 423.291 581.606 434.224C563.716 442.771 551.285 446.667 536.347 446.667C500.698 446.667 446.638 457.04 414.697 470.773C399.602 477.274 384.873 489.327 372.911 503.84C362.857 516.063 356.145 528.676 356.145 534.325C356.145 552.027 340.997 567.976 302.293 582.83C267.643 596.141 222.563 641.973 196.796 682.282ZM214.114 730.233C213.543 729.508 212.99 728.773 212.453 728.027C220.439 714.863 228.798 700.413 237.499 684.733C251.131 660.14 269.543 639.929 292.682 622.13C306.08 611.806 317.649 604.476 338.516 592.35C357.894 581.101 363.64 577.4 368.237 572.481C371.366 568.87 373.958 564.881 375.941 560.623C377.534 557.457 383.436 544.869 383.776 544.138C387.327 536.833 390.461 530.989 394.092 525.316C411.145 498.604 435.956 481.487 476.096 474.669C509.342 469.068 527.937 468.094 553.609 469.068C562.097 469.385 564.396 469.458 568.235 469.409C581.685 469.239 593.593 466.877 611.614 460.156C650.218 445.752 685.201 436.988 721.442 433.141C721.664 433.934 721.879 434.729 722.087 435.527C685.959 439.331 651.092 448.051 612.606 462.397C594.299 469.214 582.05 471.649 568.287 471.844C564.369 471.893 562.045 471.82 553.505 471.503C528.016 470.529 509.63 471.479 476.54 477.104C437.21 483.751 413.026 500.431 396.338 526.558C392.554 532.559 389.153 538.762 386.152 545.136C385.839 545.818 379.91 558.456 378.291 561.67C376.21 566.133 373.486 570.311 370.195 574.088C365.338 579.275 359.566 583 339.9 594.42C319.138 606.497 307.647 613.778 294.354 624.005C271.476 641.61 253.273 661.576 239.797 685.853C230.868 701.959 222.297 716.771 214.114 730.233ZM233.219 746.997C232.495 746.548 231.775 746.087 231.061 745.612C231.659 744.731 232.289 743.802 232.947 742.831C244.283 726.113 264.099 696.89 274.636 683.101C299.055 651.13 322.22 628.193 345.019 616.067C364.058 605.913 379.388 591.035 394.118 570.46C395.957 567.883 400.112 561.464 404.929 554.024C413.312 541.074 423.698 525.031 427.364 520.763C431.386 516.063 435.199 512.946 439.168 511.291C475.914 496.072 502.422 489.278 541.544 489.278H617.281C627.858 489.278 636.502 488.304 677.165 483.191L688.395 481.803C703.863 479.913 716.287 478.605 726.678 477.857C726.705 478.669 726.731 479.482 726.754 480.296C716.445 481.042 704.105 482.343 688.735 484.214L677.505 485.626C636.659 490.764 628.041 491.713 617.281 491.713H541.544C502.866 491.713 476.671 498.41 440.213 513.531C436.713 514.992 433.188 517.865 429.401 522.296C425.842 526.414 415.63 542.191 407.29 555.074C402.412 562.611 398.175 569.157 396.285 571.799C381.347 592.667 365.729 607.837 346.325 618.161C323.943 630.092 300.987 652.81 276.777 684.489C266.477 697.965 247.223 726.352 235.761 743.251C234.863 744.574 234.013 745.827 233.219 746.997ZM357.745 754.63C355.778 748.525 348.257 744.949 335.252 744.949C324.1 744.949 314.698 742.271 302.215 736.573L298.924 735.039C295.901 733.549 292.817 732.168 289.679 730.9C285.213 729.073 281.687 728.124 278.397 727.978C270.483 727.661 264.216 732.239 258.339 743.196C256.334 746.936 253.851 750.973 250.97 755.229C251.816 755.51 252.667 755.779 253.523 756.037C256.313 751.891 258.725 747.953 260.69 744.292C266.148 734.114 271.554 730.169 278.292 730.413C279.505 730.465 280.317 730.459 281.119 730.542C283.669 730.805 286.127 731.967 301.066 738.764C313.863 744.608 323.63 747.384 335.252 747.384C346.839 747.384 353.281 750.116 355.1 754.986C355.984 754.867 356.865 754.748 357.745 754.63ZM390.746 750.615C389.883 750.745 389.019 750.87 388.153 750.991C387.603 749.038 386.775 747.115 385.682 745.217C379.937 735.258 369.36 727.88 350.295 718.019C346.194 715.876 340.893 714.78 333.528 714.196C331.454 714.026 330.049 713.953 325.915 713.738L325.824 713.733C310.755 713.003 305.897 711.663 305.662 705.6C305.401 698.758 314.803 686.437 336.923 664.961C353.977 648.403 367.61 636.496 379.571 627.341C384.246 623.761 388.503 620.718 393.151 617.528L403.911 610.369C405.975 608.957 407.724 607.739 409.396 606.497C417.91 600.166 425.483 592.74 436.06 579.859C438.252 577.175 440.429 574.481 442.589 571.775L448.622 564.251C453.323 558.431 456.562 554.511 459.826 550.907C481.947 526.144 504.171 516.915 557.161 513.652C556.012 513.701 588.501 511.461 594.56 511.266C604.014 511.023 610.36 511.656 616.654 513.652C618.743 514.31 620.885 515.162 623.105 516.185C629.033 518.961 631.384 525.608 634.256 542.604L635.406 549.325C635.85 551.93 636.267 554.121 636.711 556.216C640.472 574.94 646.165 586.141 657.082 591.693C674.737 600.653 684.765 604.233 693.619 603.722C703.71 603.134 711.341 596.478 717.286 581.758C716.111 586.104 714.81 590.387 713.374 594.593C708.059 602.009 701.619 605.698 693.775 606.157C684.295 606.717 673.927 603.015 655.855 593.836C644.024 587.821 638.043 576.06 634.126 556.678C633.708 554.686 633.337 552.607 632.903 550.179L632.82 549.714L631.697 542.994C628.955 526.972 626.735 520.592 621.956 518.376C619.84 517.402 617.803 516.574 615.792 515.941C609.864 514.066 603.779 513.458 594.638 513.701C589.218 513.856 562.09 515.73 558.861 515.953C558.527 515.976 558.448 515.982 558.676 515.966C505.007 519.302 483.461 528.262 461.811 552.466C457.989 556.791 454.288 561.208 450.711 565.712L444.705 573.236L438.15 581.32C427.442 594.371 419.712 601.968 411.015 608.397C409.317 609.663 407.541 610.929 405.452 612.341L394.718 619.5C390.121 622.61 385.627 625.85 381.242 629.216C369.359 638.322 355.805 650.156 338.804 666.665C317.258 687.557 308.039 699.635 308.247 705.503C308.43 709.521 312.531 710.641 325.98 711.298L326.049 711.302C330.201 711.518 331.607 711.591 333.763 711.785C341.467 712.369 347.056 713.563 351.548 715.876C371.083 725.981 381.921 733.554 387.98 744.073C389.219 746.224 390.144 748.405 390.746 750.615ZM681.612 648.994C677.894 646.953 673.629 644.63 670.036 642.674C666.368 640.676 663.401 639.061 662.436 638.517C650.84 632.065 641.543 626.245 632.559 619.646H632.585C630.626 618.185 628.72 616.724 626.839 615.263C623.34 612.487 619.997 607.252 615.766 598.365C614.854 596.473 612.588 591.483 610.764 587.466C609.558 584.812 608.546 582.583 608.245 581.953C600.593 565.371 594.325 555.631 585.837 549.446C566.171 535.104 545.853 535.664 514.357 549.154C493.96 557.92 453.663 594.104 424.621 627.755C419.033 634.232 411.955 640.051 400.281 648.33C399.308 649.043 395.909 651.446 393.189 653.371C391.819 654.339 390.621 655.186 389.991 655.635C386.074 658.411 383.07 660.627 380.381 662.818C369.177 671.803 363.692 679.376 363.98 687.801C364.452 701.352 389.517 724.645 419.209 744.632C421.352 744.064 423.489 743.473 425.621 742.862C395.746 723.188 369.612 699.709 369.203 687.655C368.968 681.105 373.669 674.603 383.776 666.495C386.828 664.074 389.955 661.735 393.151 659.482L403.441 652.226C415.429 643.728 422.767 637.689 428.696 630.823C457.267 597.707 497.094 561.913 516.551 553.586C546.454 540.754 564.787 540.267 582.625 553.294C590.198 558.797 596.127 568.049 603.465 583.877C603.727 584.435 604.573 586.302 605.621 588.612C607.495 592.747 610.015 598.306 610.987 600.337C615.531 609.858 619.187 615.58 623.444 618.964C625.377 620.499 627.336 621.984 629.346 623.445C638.513 630.214 647.994 636.131 659.746 642.681C660.787 643.269 664.01 645.024 667.922 647.154C671.06 648.862 674.642 650.812 677.895 652.595C679.157 651.434 680.396 650.234 681.612 648.994ZM642.871 674.506C639.036 672.782 634.693 670.845 630.286 668.88C620.531 664.529 610.456 660.036 604.85 657.388L604.823 657.412C592.444 651.569 581.319 643.558 567.738 631.602C566.649 630.645 563.705 627.978 560.319 624.911C555.26 620.328 549.213 614.851 546.898 612.853C539.324 606.351 533.343 602.09 527.493 599.412C513.991 593.154 501.664 595.735 488.397 608.957C484.431 612.871 480.32 616.656 476.07 620.304C468.505 626.77 460.763 633.054 452.853 639.15C416.473 667.542 414.123 669.466 405.583 678.913C393.517 692.281 392.551 702.118 405.139 708.449C412.96 712.624 420.488 717.26 427.677 722.328C429.125 723.296 433.957 726.613 439.312 730.289C442.026 732.152 444.875 734.108 447.485 735.896C448.46 735.558 449.434 735.217 450.407 734.873C446.707 732.343 442.345 729.35 438.51 726.719C434.137 723.719 430.451 721.19 429.218 720.356C419.189 713.587 412.216 709.228 406.392 706.307C395.632 700.925 396.416 692.841 407.594 680.471C415.977 671.194 418.353 669.246 454.551 641.001C464.37 633.331 471.37 627.682 477.846 622.081C482.132 618.394 486.278 614.569 490.278 610.612C502.813 598.17 513.913 595.832 526.318 601.579C531.907 604.184 537.731 608.299 545.122 614.655C547.658 616.826 554.729 623.237 560.028 628.04C562.751 630.509 565.006 632.553 565.936 633.379C579.674 645.481 590.982 653.614 603.648 659.58C609.164 662.162 618.893 666.5 628.409 670.743C632.319 672.487 636.194 674.214 639.725 675.798C640.78 675.377 641.829 674.947 642.871 674.506ZM560.953 696.185C556.43 694.345 551.83 692.353 546.741 690.065C531.332 683.15 529.791 682.493 524.176 680.885C517.125 678.864 510.361 678.28 502.239 679.181V679.205C488.319 680.739 476.854 684.684 470.377 690.65C462.829 697.614 462.386 706.842 469.959 717.58C471.916 720.35 473.858 722.947 475.809 725.378C476.637 725.056 477.466 724.733 478.294 724.41C476.248 721.88 474.21 719.161 472.153 716.241C465.206 706.428 465.598 698.466 472.205 692.378C478.186 686.875 489.155 683.077 502.552 681.616H502.526C509.532 680.713 516.666 681.262 523.419 683.223C528.851 684.781 530.366 685.414 545.618 692.257C549.596 694.041 553.277 695.648 556.855 697.144C558.218 696.82 559.584 696.5 560.953 696.185ZM726.826 509.697C717.698 509.18 708.56 508.826 699.416 508.636C672.203 508.247 654.497 510.438 652.486 515.284C651.493 517.646 654.053 521.493 660.399 527.142C663.036 529.504 666.197 532.085 670.95 535.786C675.113 539.056 679.283 542.319 683.459 545.575C687.09 548.497 691.555 550.25 697.823 551.662L698.08 551.717C699.702 552.063 700.294 552.189 704.718 552.977C713.937 554.682 717.855 556.021 720.78 559.381C721.205 559.876 721.581 560.405 721.907 560.968C721.571 562.849 721.217 564.723 720.842 566.588C720.692 564.198 719.975 562.332 718.743 560.891C716.392 558.164 712.788 556.946 704.196 555.363C701.86 554.97 699.535 554.523 697.223 554.024C690.589 552.563 685.758 550.615 681.736 547.425C677.618 544.123 673.456 540.868 669.252 537.661C665.6 534.847 662.047 531.923 658.597 528.895C651.467 522.564 648.516 518.108 650.031 514.407C652.695 507.979 670.454 505.788 699.469 506.201C708.616 506.34 717.758 506.672 726.887 507.199C726.869 508.031 726.848 508.864 726.826 509.697ZM331.51 758.115C329.006 757.826 325.735 757.765 321.306 757.83L319.425 757.854C311.721 758.001 308.848 757.879 307.02 757.221C304.205 756.145 301.496 754.842 298.924 753.326L295.294 751.28C291.69 749.284 289 748.139 285.944 747.409C277.502 745.449 270.741 749.07 263.362 758.473C264.311 758.66 265.265 758.836 266.223 759.001C272.662 751.154 278.492 748.204 285.318 749.795C288.375 750.577 291.289 751.783 293.962 753.374L297.566 755.395C300.909 757.27 303.285 758.463 306.054 759.462C307.186 759.894 308.471 760.136 310.464 760.254C317.452 759.732 324.489 758.976 331.51 758.115ZM673.885 329.381C645.356 331.409 619.714 334.382 601.924 338.287C591.844 340.478 547.89 350.948 551.259 350.169C538.267 353.257 525.215 356.122 512.111 358.765C483.279 364.487 459.591 367.53 439.717 367.53C383.828 367.53 335.878 376.467 309.919 394.072C302.084 399.404 295.189 407.951 286.153 422.512C284.97 424.439 281.981 429.43 279.074 434.284C276.399 438.751 273.793 443.102 272.729 444.84C255.78 472.356 241.39 487.964 220.863 496.462C199.709 505.237 179.652 520.323 162.658 538.031C162.011 537.486 161.355 536.951 160.692 536.427C177.916 518.476 198.271 503.177 219.818 494.246C239.692 486.016 253.769 470.748 270.484 443.623C271.409 442.103 273.533 438.555 275.853 434.68C279.032 429.371 282.578 423.448 283.907 421.294C293.1 406.441 300.151 397.675 308.378 392.124C334.886 374.105 383.332 365.096 439.717 365.096C459.356 365.096 482.913 362.076 511.562 356.378C524.641 353.744 537.666 350.886 550.632 347.807C547.237 348.611 591.217 338.116 601.35 335.9C619.144 331.996 644.669 329.023 673.073 326.99C673.337 327.789 673.608 328.586 673.885 329.381ZM668.115 307.272C668.25 308.077 668.393 308.879 668.544 309.679C653.129 311.093 631.085 315.095 597.877 322.045L590.172 323.677C532.299 335.9 519.528 338.311 507.619 338.311C501.09 338.311 493.385 339.188 482.991 340.965C478.865 341.671 474.503 342.475 468.262 343.668C462.864 344.712 457.466 345.759 452.07 346.809C421.566 352.58 399.054 355.356 374.426 355.356C314.306 355.356 280.408 371.694 260.742 412.967C250.557 434.395 240.319 446.034 222.351 458.014C220.769 459.066 214.712 462.701 206.675 467.524C191.094 476.873 168.074 490.687 155.807 498.799C146.443 504.98 138.455 512.106 131.482 520.44C130.642 520.114 129.798 519.795 128.951 519.481C136.18 510.737 144.496 503.272 154.292 496.802C166.58 488.695 189.532 474.914 205.095 465.571C213.182 460.715 219.274 457.058 220.837 456.017C238.439 444.305 248.337 433.031 258.287 412.188C278.501 369.722 313.366 352.921 374.426 352.921C398.871 352.921 421.2 350.169 451.547 344.423C456.95 343.409 462.348 342.37 467.739 341.306C474.007 340.088 478.369 339.261 482.521 338.554C493.046 336.753 500.907 335.876 507.619 335.876C519.214 335.876 532.142 333.441 589.598 321.291L597.302 319.684C630.483 312.735 652.549 308.716 668.115 307.272ZM669.578 258.001C669.392 258.988 669.213 259.975 669.041 260.962C664.558 262.976 659.974 264.793 655.306 266.407C649.848 268.33 643.841 270.254 634.23 273.2C624.379 276.222 614.525 279.233 604.667 282.234C593.959 285.57 585.132 288.224 565.022 294.214C548.256 299.181 540.891 301.397 531.855 304.149C503.832 312.744 484.14 319.489 468.993 326.014C453.95 332.491 427.285 336.095 391.245 337.629C371.501 338.433 353.638 338.579 326.085 338.384L311.747 338.311C282.523 338.311 251.262 369.454 229.376 417.934C223.657 430.572 214.125 441.115 200.44 450.855C189.941 458.33 179.573 463.979 158.628 474.279L153.091 477.006C125.613 490.534 111.67 498.741 99.1453 510.262C98.1895 509.998 97.2336 509.734 96.278 509.471C96.4114 509.348 96.5453 509.225 96.6799 509.099C109.607 497.07 123.71 488.718 151.864 474.864C152.076 474.758 152.375 474.61 152.726 474.435C154.406 473.6 157.271 472.177 157.4 472.136C178.241 461.885 188.531 456.285 198.847 448.907C212.192 439.411 221.463 429.184 226.974 416.985C249.225 367.701 281.165 335.876 311.747 335.876L326.111 335.949C353.611 336.144 371.423 335.998 391.14 335.194C426.815 333.685 453.245 330.105 467.896 323.823C483.174 317.249 502.944 310.455 531.045 301.86C540.081 299.084 547.472 296.868 564.213 291.876C584.322 285.911 593.149 283.257 603.831 279.945C613.676 276.874 623.539 273.855 633.421 270.887C643.005 267.965 648.986 266.017 654.392 264.118C659.567 262.33 664.636 260.288 669.578 258.001ZM658.578 43.9785C656.229 45.4805 653.632 47.169 650.71 49.0865C636.267 58.5342 629.869 62.357 621.982 65.6929C593.593 77.746 575.652 77.746 539.402 65.6686C509.212 55.6122 498.687 54.9548 488.293 62.2596C486.28 63.7013 480.283 69.1252 475.112 73.8022C471.899 76.709 469.004 79.3273 467.583 80.5218C460.819 86.1953 456.692 93.695 449.641 110.545L447.996 114.465C440.735 131.753 435.982 140.154 428.408 146.241C422.584 150.965 416.316 156.639 407.202 165.307L404.355 167.986C383.593 187.806 378.187 192.652 371.057 197.302C368.524 198.958 356.354 206.628 357.215 206.068C351.463 209.685 345.803 213.428 340.24 217.294C318.433 232.536 304.931 246.172 301.457 259.37C298.532 270.497 303.155 280.602 316.213 289.393C322.846 293.849 330.42 295.651 342.904 296.625L347.422 296.99C360.402 297.891 365.808 298.792 371.162 301.616C371.869 301.993 374.135 303.256 376.753 304.716C380.224 306.651 384.314 308.93 386.204 309.944C404.068 319.391 418.667 323.482 433.161 320.706C435.564 320.268 437.888 319.611 440.213 318.734L445.593 316.835C446.298 316.615 458.259 312.695 461.915 311.429C474.765 306.9 483.618 302.517 490.252 296.576C490.68 296.195 492.1 294.748 493.86 292.954C496.716 290.044 500.469 286.219 502.343 284.547C512.738 275.221 524.046 270.132 538.958 270.132C553.139 270.132 566.981 266.187 583.774 258.639C585.941 257.665 588.135 256.667 590.825 255.376L597.171 252.381C601.872 250.165 604.823 248.924 607.278 248.144C612.188 246.635 615.583 243.153 620.154 236.091C620.571 235.434 623.653 230.54 624.62 229.103C632.977 216.344 641.36 210.5 656.481 210.5C665.448 210.651 674.391 209.769 683.107 207.879C683.159 207.712 683.212 207.544 683.264 207.376C683.485 206.666 683.706 205.956 683.927 205.246C675.271 207.26 666.026 208.065 656.481 208.065C640.289 208.065 631.201 214.42 622.347 227.813L617.908 234.825C613.651 241.4 610.621 244.565 606.443 245.831C603.831 246.659 600.801 247.95 595.996 250.214C594.987 250.666 591.933 252.122 590.454 252.827C590.02 253.034 589.721 253.176 589.65 253.209C587.31 254.332 585.365 255.215 583.489 256.067L582.651 256.448C566.171 263.826 552.669 267.697 538.958 267.697C523.289 267.697 511.38 273.054 500.515 282.794C498.569 284.533 494.726 288.45 491.87 291.361C490.166 293.098 488.814 294.477 488.423 294.823C482.103 300.472 473.537 304.757 461.001 309.14C458.046 310.178 449.472 312.985 446.078 314.096C445.332 314.34 444.837 314.502 444.705 314.546C442.865 315.166 441.037 315.816 439.22 316.494C437.079 317.297 434.885 317.906 432.639 318.32C418.928 320.95 404.878 317.005 387.484 307.801C385.585 306.817 381.433 304.503 377.935 302.554C375.371 301.126 373.159 299.893 372.441 299.522C366.643 296.43 361.002 295.504 347.631 294.53L343.113 294.214C331.073 293.24 323.891 291.535 317.728 287.396C305.505 279.19 301.327 270.059 303.991 259.954C307.255 247.487 320.47 234.168 341.807 219.241C346.9 215.686 352.175 212.229 358.704 208.065C357.816 208.649 369.986 200.979 372.572 199.299C379.884 194.527 385.264 189.657 406.21 169.69C413.832 162.16 421.815 154.953 430.132 148.092C438.097 141.639 443.033 133.02 450.424 115.342L452.07 111.421C458.964 94.9611 462.986 87.6319 469.306 82.3237C470.854 81.0365 473.965 78.2302 477.337 75.1872C482.386 70.6317 488.023 65.5458 489.886 64.232C499.34 57.5358 509.107 58.1689 538.514 67.9575C575.39 80.2296 594.011 80.2296 623.079 67.9331C631.148 64.4755 637.626 60.6282 652.172 51.0832C655.24 49.0715 657.944 47.3146 660.377 45.763C659.782 45.1639 659.182 44.569 658.578 43.9785ZM615.38 12.3211C616.654 13.0251 617.921 13.7411 619.181 14.4692C613.313 14.595 608.588 16.2425 602.395 19.8427L595.474 24.0064C584.035 30.8243 574.555 33.9411 559.851 33.9411C545.226 33.9411 533.761 30.873 517.856 24.0795C515.848 23.2308 513.846 22.3704 511.85 21.4984L506.156 19.1122C501.978 17.4077 498.53 16.2633 495.266 15.5084C492.476 14.8334 489.608 14.4817 486.726 14.4614C480.719 14.4614 475.496 12.8056 457.998 6.25558L453.924 4.7459C450.689 3.55766 447.759 2.53675 445.085 1.67912C446.325 1.22372 447.564 0.771265 448.804 0.32251C450.71 0.97102 452.733 1.69035 454.89 2.48139L458.964 3.99107C476.018 10.3707 481.241 12.0264 486.726 12.0264C489.703 12.0264 492.733 12.416 495.867 13.1465C499.314 13.9501 502.866 15.1432 507.201 16.872C510.135 18.0509 513.043 19.2849 515.924 20.5731L518.927 21.888C534.545 28.5355 545.644 31.5061 559.851 31.5061C573.98 31.5061 583.016 28.5598 594.064 21.9611C594.149 21.9093 594.353 21.7845 594.642 21.6084C596.116 20.708 599.787 18.4654 601.011 17.7729C606.259 14.7286 610.585 12.9736 615.38 12.3211ZM412.294 13.8649C412.182 63.73 398.642 135.01 381.347 151.184C361.655 169.544 312.217 208.674 292.708 221.652C258.522 244.419 211.617 270.668 178.11 282.38C166.515 286.422 155.52 289.514 143.637 292.12C135.149 293.995 126.505 295.577 114.387 297.55C113.029 297.745 91.4305 301.202 84.353 302.371C71.6344 304.489 60.0128 306.632 47.712 309.116C34.1346 311.869 23.2583 314.007 14.0374 315.665C13.7518 316.539 13.4694 317.416 13.1904 318.294C22.723 316.601 34.0139 314.388 48.2604 311.502C60.535 309.018 72.1307 306.9 84.8231 304.782C89.2919 304.025 99.6029 302.379 106.909 301.213C111.131 300.539 114.35 300.025 114.857 299.936C127.001 297.964 135.671 296.381 144.238 294.482C156.049 291.919 167.67 288.641 179.024 284.669C212.819 272.835 259.854 246.537 294.223 223.649C313.836 210.597 363.379 171.37 383.175 152.889C401.3 136.015 414.906 63.7937 414.906 13.2439C414.906 13.135 414.907 13.0268 414.908 12.9193C414.036 13.2362 413.165 13.5515 412.294 13.8649ZM0.106445 389.397C18.9324 397.881 31.4456 406.406 37.9184 416.303C66.0978 459.304 80.2528 466.95 109.007 456.236C128.385 449.004 138.832 444.475 149.931 437.755C164.843 428.721 176.047 417.812 183.49 403.933C186.932 397.497 191.024 391.382 195.713 385.671C197.914 382.984 200.205 380.361 202.581 377.806L209.371 370.574C218.773 360.469 223.866 353.286 228.018 342.816C239.092 314.765 237.838 306.048 219.034 296.016C210.233 291.341 198.377 292.826 182.628 299.425C171.242 304.149 163.198 308.58 137.447 323.531L130.161 327.695C124.729 330.86 119.688 332.857 114.491 334.025C106.474 335.876 101.851 335.852 81.2192 334.659C56.0889 333.217 34.8219 333.509 7.85443 337.037C7.42841 338.732 7.01685 340.431 6.62048 342.134C34.151 338.401 55.4965 338.065 80.9057 339.504C102.112 340.722 106.97 340.746 115.745 338.774C121.822 337.333 127.614 334.999 132.903 331.858L140.19 327.646C165.705 312.866 173.697 308.483 184.77 303.856C199.134 297.842 209.476 296.551 216.423 300.253C232.51 308.824 233.425 315.057 223.109 341.111C219.217 350.948 214.464 357.669 205.428 367.384L198.638 374.616C196.18 377.25 193.811 379.954 191.534 382.725C186.729 388.617 182.602 394.705 178.842 401.766C171.842 414.793 161.265 425.069 147.11 433.664C136.351 440.165 126.139 444.597 107.074 451.731C81.1931 461.374 69.3885 454.97 42.3582 413.746C35.0096 402.495 21.1394 393.27 0.348938 384.109C0.245361 385.875 0.164307 387.638 0.106445 389.397ZM0.467529 408.83C0.546509 409.906 0.635803 410.979 0.735474 412.049C15.5443 422.481 27.6519 436.345 38.4669 453.825C42.6568 460.651 50.5997 476.034 56.9491 488.33C59.0375 492.375 60.9534 496.085 62.5068 499.048C63.6977 499.5 64.8976 499.94 66.1057 500.371C64.5018 497.349 62.2521 492.987 59.7134 488.064C53.3087 475.646 45.0648 459.662 40.7129 452.632C29.3206 434.162 16.4286 419.617 0.467529 408.83ZM17.8535 466.349C21.8463 470.549 25.5256 474.92 28.884 479.476C24.7725 475.66 21.0648 471.325 17.8535 466.349ZM677.99 66.8533C674.916 67.6144 671.754 69.4184 668.495 72.1699C665.335 74.824 663.69 76.5529 657.004 83.9551C649.064 92.721 644.729 96.6656 639.767 98.6623C633.042 101.41 623.638 105.625 615.719 109.174C608.477 112.42 602.478 115.109 600.906 115.61C595.239 117.436 589.572 117.947 575.521 117.947C558.598 117.947 550.345 115.999 541.57 110.764C541.022 110.45 539.025 109.152 536.467 107.489C532.078 104.637 526.036 100.709 522.818 98.8327C495.971 83.2003 477.69 92.1609 463.326 136.721C461.341 142.979 456.979 149.675 450.372 156.931C440.813 167.426 428.147 177.75 406.941 193.163C365.468 223.308 365.102 223.6 356.275 233.194C343.4 247.268 343.739 258.542 360.193 266.212C393.961 281.966 407.724 287.372 421.722 289.295C438.594 291.584 451.782 286.714 465.154 272.981C478.447 259.345 488.11 255.206 510.518 250.19C522.61 247.487 528.407 245.661 535.119 241.765C541.57 238.154 548.29 234.98 555.229 232.268L559.877 230.321C560.94 229.896 561.869 229.505 562.744 229.136C563.374 228.871 563.976 228.617 564.578 228.373C583.069 220.435 594.377 213.398 603.7 202.221C610.595 193.991 619.945 190.119 635.667 187.441C637.343 187.148 638.33 186.996 641.096 186.57C641.777 186.465 642.567 186.344 643.502 186.199C660.529 183.618 667.737 181.5 674.005 175.656C680.508 169.593 682.937 166.987 684.582 164.211C685.105 163.335 685.549 162.458 685.993 161.362C686.097 161.146 686.508 160.107 687.005 158.85C687.623 157.285 688.376 155.381 688.839 154.301C690.813 149.769 692.991 145.318 695.368 140.958C696.844 138.206 698.186 135.556 699.39 132.993C699.479 128.744 699.346 124.515 698.953 120.309C697.121 125.929 694.351 131.989 690.72 138.766C687.795 144.22 685.679 148.603 684.008 152.499C683.372 153.965 682.266 156.77 681.632 158.375C681.382 159.01 681.206 159.457 681.161 159.561C680.769 160.486 680.404 161.192 680.012 161.849C678.68 164.09 676.46 166.476 670.297 172.222C665.126 177.068 658.597 178.967 642.666 181.402L640.915 181.67C637.595 182.176 636.6 182.328 634.727 182.644C617.855 185.517 607.409 189.827 599.574 199.25C590.877 209.648 580.196 216.32 562.385 223.941L557.736 225.889L553.087 227.837C545.931 230.63 539.001 233.901 532.351 237.625C526.266 241.18 520.86 242.861 509.29 245.466C485.968 250.677 475.444 255.206 461.289 269.718C449.04 282.283 437.549 286.519 422.454 284.474C409.265 282.672 395.737 277.34 362.543 261.878C349.563 255.839 349.354 248.291 360.245 236.359C368.707 227.155 369.229 226.741 410.127 197.01C431.647 181.378 444.496 170.908 454.368 160.072C461.367 152.378 466.094 145.121 468.34 138.133C481.764 96.3734 496.415 89.1903 520.05 102.948C523.225 104.812 529.371 108.811 533.791 111.687C536.242 113.282 538.162 114.532 538.749 114.879C548.439 120.65 557.658 122.817 575.521 122.817C590.094 122.817 596.231 122.257 602.604 120.212C604.406 119.639 610.836 116.762 618.406 113.373C626.299 109.84 635.431 105.752 641.856 103.143C647.811 100.708 652.512 96.4708 660.973 87.0962C667.476 79.9131 669.095 78.2086 671.994 75.7737C675.35 72.9503 678.234 71.4105 680.959 71.3223C679.997 69.813 679.007 68.3234 677.99 66.8533ZM118.8 401.596C157.374 393.122 185.031 371.329 205.767 340.162C213.628 328.401 214.36 321.12 207.831 318.344C202.555 316.08 192.735 317.249 178.189 321.315C170.223 323.531 161.422 328.328 149.931 336.12C147.183 337.953 144.41 339.923 140.767 342.511L140.372 342.791C114.831 361.005 108.093 365.096 100.206 365.096C90.5165 365.096 83.0995 376.321 84.5359 387.156C86.2335 399.672 98.3774 406.052 118.8 401.596ZM206.734 320.56C211.252 322.484 210.677 328.182 203.574 338.895C183.125 369.552 156.016 390.93 118.2 399.209C99.2133 403.373 88.61 397.821 87.1475 386.864C85.8417 377.319 92.3185 367.53 100.206 367.53C108.981 367.53 115.614 363.537 141.939 344.739C145.779 342.012 148.651 339.991 151.472 338.067C162.728 330.446 171.346 325.771 178.92 323.653C192.84 319.757 202.268 318.637 206.734 320.56ZM589.963 145.901C569.358 152.816 556.639 153.254 542.353 143.758L542.327 143.733C537.209 140.324 532.56 136.794 527.519 132.654C526.406 131.748 523.354 129.175 520.737 126.967C518.994 125.497 517.443 124.19 516.786 123.645C509.421 117.728 505.164 116.194 500.646 119.019C495.658 122.16 490.904 131.047 482.887 151.623C476.358 168.351 463.796 182.425 445.253 196.28C441.131 199.36 431.922 205.518 423.882 210.895C417.302 215.295 411.505 219.172 409.918 220.41C400.333 227.861 399.001 233.413 407.698 238.283C409.666 239.393 411.616 240.529 413.548 241.692L418.745 244.809C421.747 246.659 424.909 248.272 428.199 249.63C442.172 255.108 456.118 250.019 490.121 226.059C503.022 216.977 518.875 209.234 539.402 201.345C544.519 199.372 556.624 195.074 568.023 191.026C578.44 187.326 588.268 183.836 591.635 182.522C617.699 172.393 628.093 163.773 623.758 151.647C621.068 144.099 616.602 140.763 610.073 140.787C605.424 140.787 604.04 141.177 589.963 145.901ZM525.796 134.505C530.888 138.693 535.616 142.248 540.786 145.706L540.813 145.73C556.012 155.835 569.514 155.348 590.851 148.189C604.458 143.612 605.894 143.198 610.073 143.198C615.427 143.173 618.952 145.827 621.303 152.426C624.985 162.75 615.479 170.615 590.668 180.282C587.365 181.56 577.849 184.937 567.656 188.555C556.091 192.66 543.655 197.074 538.436 199.08C517.674 207.067 501.664 214.883 488.554 224.111C455.23 247.56 442.015 252.43 429.218 247.39C426.632 246.391 423.995 245.003 420.156 242.739L414.958 239.622L409.056 236.213C402.292 232.439 403.18 228.811 411.59 222.285C413.123 221.085 418.85 217.257 425.386 212.887C433.432 207.508 442.706 201.309 446.899 198.179C465.754 184.081 478.63 169.666 485.342 152.451C493.124 132.484 497.773 123.742 502.108 121.04C505.294 119.043 508.559 120.236 515.088 125.496C515.899 126.154 518.104 128.021 520.344 129.917C522.577 131.808 524.844 133.727 525.796 134.505Z" fill="url(#paint0_radial)"/>
<defs>
<radialGradient id="paint0_radial" cx="0" cy="0" r="1" gradientUnits="userSpaceOnUse" gradientTransform="translate(703.5 195) rotate(163.05) scale(634.566 579.072)">
<stop stop-color="#BA8940"/>
<stop offset="0.507917" stop-color="#BA8940" stop-opacity="0.635888"/>
<stop offset="0.989583" stop-color="#BA8940" stop-opacity="0"/>
</radialGradient>
</defs>
</svg>
