<svg width="972" height="1041" viewBox="0 0 972 1041" fill="none" xmlns="http://www.w3.org/2000/svg">
<path fill-rule="evenodd" clip-rule="evenodd" d="M916.562 495.169C893.047 507.399 862.499 517.77 823.08 528.043C811.437 531.086 777.469 539.354 764.552 542.499C761.503 543.241 759.627 543.697 759.494 543.732C736.501 549.451 720.621 554.008 707.388 558.902C672.022 571.961 644.827 591.351 586.071 640.559L580.447 645.269C552.161 668.94 536.215 681.571 518.449 693.652C505.48 702.49 492.115 710.931 475.705 720.779C471.834 723.119 461.299 729.375 451.709 735.071C444.499 739.352 437.824 743.317 434.914 745.062C396.57 768.183 373.18 785.249 352.768 807.024C344.364 816.016 337.218 825.099 331.131 834.519C317.269 856.019 310.09 875.347 300.297 912.17L295.236 931.315C293.218 938.777 291.431 945.138 289.578 951.377C285.858 963.748 281.685 974.317 276.496 984.281C277.081 985.44 277.688 986.586 278.318 987.718C284.112 976.975 288.685 965.616 292.721 952.173C294.607 945.934 296.427 939.542 298.412 932.049L303.506 912.904C313.2 876.326 320.28 857.242 333.943 836.109C340.168 826.524 347.298 817.467 355.249 809.043C375.397 787.512 398.588 770.569 436.7 747.631C440.652 745.22 451.72 738.656 461.548 732.827C468.421 728.751 474.687 725.035 477.492 723.348C493.934 713.439 507.333 704.968 520.401 696.098C538.266 683.926 554.245 671.265 582.631 647.532L588.255 642.822C646.713 593.889 673.709 574.621 708.612 561.715C721.68 556.883 737.427 552.387 760.321 546.668C760.983 546.515 809.516 534.741 823.973 530.979C863.482 520.674 894.186 510.26 917.94 497.931C917.478 497.011 917.019 496.091 916.562 495.169ZM891.008 395.251C887.114 401.694 882.796 408.048 878.065 414.365C864.931 431.95 866.419 442.501 878.263 441.798C883.041 441.499 888.595 439.567 894.491 436.195C894.721 437.254 894.96 438.311 895.209 439.364C889.21 442.653 883.498 444.547 878.462 444.856C862.913 445.804 860.928 431.92 875.352 412.652C881.398 404.579 886.76 396.448 891.411 388.144C891.234 390.513 891.098 392.882 891.008 395.251ZM773.023 7.6549C766.486 10.3181 762.954 13.0987 761.975 16.231C759.924 22.7453 766.805 27.4551 783.215 34.1222C785.282 34.9606 791.828 37.4043 799.555 40.2892C810.997 44.5608 825.03 49.7997 830.954 52.2275C861.325 64.5526 880.976 76.6025 890.438 90.9461C902.444 109.112 912.441 122.255 921.808 131.186C910.406 106.436 893.772 85.0236 873.919 66.8416C863.362 59.8549 849.966 53.2757 833.634 46.6308C827.825 44.2542 814.519 39.2833 803.325 35.1014C795.072 32.0185 787.967 29.3645 785.861 28.4949C773.224 23.3875 767.798 19.6563 768.327 17.913C768.757 16.5062 772.099 14.396 778.815 12.0717C779.811 11.7291 780.874 11.3845 782.005 11.0378C779.017 9.86564 776.022 8.73808 773.023 7.6549ZM641.472 0.326172C648.037 14.5793 656.968 23.8125 669.276 29.8711C680.061 35.1926 691.607 37.8228 714.997 41.2176C746.161 45.7439 751.19 46.5697 766.276 50.1479C787.77 55.1896 808.473 62.765 827.877 72.6878C855.336 86.695 876.113 107.859 893.978 136.576C899.491 145.406 909.934 165.482 918.047 181.079C923.226 191.035 927.456 199.166 928.848 201.382C930.532 204.062 932.176 206.393 933.806 208.373C933.659 209.772 933.497 211.172 933.322 212.574C930.865 210.018 928.44 206.791 926.002 202.912C924.507 200.542 919.989 191.866 914.546 181.414C906.502 165.969 896.44 146.648 891.133 138.075C873.499 109.816 853.153 89.0805 826.289 75.3791C807.115 65.5744 786.656 58.0914 765.416 53.1145C750.528 49.5362 745.5 48.741 714.468 44.2453C690.747 40.82 678.936 38.1286 667.721 32.5931C654.631 26.1412 645.147 16.2747 638.288 1.20402C639.349 0.905972 640.41 0.613266 641.472 0.326172ZM487.611 50.8493C490.788 50.9943 493.791 51.096 496.25 51.096C513.519 51.096 519.508 50.1173 525.165 46.9672L529.499 44.3982C531.55 43.1749 533.403 42.1962 535.586 41.1258C542.972 37.7119 550.679 34.9275 558.612 32.8072C568.557 29.9825 575.072 26.6815 579.548 21.4652C581.376 20.7719 583.203 20.0795 585.03 19.3894C580.219 27.4237 572.618 32.0188 559.605 35.7126C551.854 37.7865 544.324 40.5095 537.108 43.8477C535.024 44.857 533.27 45.805 531.285 46.9672L526.852 49.5974C520.566 53.0839 514.082 54.1543 496.25 54.1543C490.98 54.1543 483.718 53.7375 477.475 53.3792C477.094 53.3573 476.716 53.3356 476.343 53.3143C480.102 52.5128 483.858 51.6943 487.611 50.8493ZM402.311 69.6285C393.788 76.5376 383.815 84.5774 376.371 90.5781C371.134 94.8002 367.149 98.0129 365.802 99.1118C358.506 105.06 351.293 111.096 344.166 117.217C321.107 137.066 305.094 153.183 295.864 166.609C276.279 195.052 261.193 221.782 257.19 240.254C251.698 265.638 269.331 269.43 320.114 243.954C368.255 219.837 417.412 197.494 467.467 176.977C472.325 174.976 481.281 171.317 490.442 167.574C503.12 162.394 516.192 157.053 519.342 155.722C536.049 148.84 546.801 144.1 555.006 139.971L561.457 136.699L568.669 133.09C574.492 130.215 579.852 127.707 585.211 125.291C645.092 98.6225 699.282 93.301 751.719 121.621C827.447 162.419 878.362 234.841 878.362 294.233C878.362 352.709 875.947 371.089 861.225 395.77C856.543 403.495 851.07 410.786 844.882 417.546C823.477 441.309 805.811 467.09 802.668 482.596C798.698 501.986 818.184 504.096 869.397 482.443C881.703 477.247 892.918 471.384 903.132 464.874C903.51 465.87 903.894 466.864 904.285 467.856C894.115 474.279 882.977 480.075 870.786 485.226C817.522 507.736 794.695 505.258 799.393 482.046C802.701 465.867 820.566 439.749 842.368 415.588C848.406 408.979 853.745 401.852 858.314 394.302C872.705 370.202 875.054 352.189 875.054 294.233C875.054 236.003 824.801 164.56 750.264 124.343C698.753 96.5734 645.654 101.773 586.667 128.044C578.671 131.605 570.793 135.388 563.045 139.39L556.594 142.662C544.85 148.37 532.876 153.665 520.699 158.535C518.344 159.512 510.521 162.708 501.455 166.412C489.505 171.295 475.393 177.06 468.791 179.791C418.825 200.271 369.757 222.573 321.702 246.646C268.934 273.131 247.695 268.543 253.948 239.642C258.05 220.681 273.235 193.706 293.052 164.958C302.481 151.256 318.659 134.986 341.916 114.985C348.467 109.327 355.547 103.393 363.619 96.818C364.975 95.7103 368.966 92.4926 374.205 88.2686C380.109 83.508 387.599 77.4692 394.689 71.7322C397.222 71.0077 399.763 70.3075 402.311 69.6285ZM244.946 180.847C234.305 202.402 224.814 231.404 215.538 268.268C212.66 279.676 209.848 291.634 206.804 305.396L202.9 323.135L199.294 339.803C193.339 367.205 190.13 380.417 186.822 389.531C164.325 452.043 129.72 518.47 97.0665 546.118C80.1609 560.492 70.269 567.74 60.344 573.215C57.3665 574.866 54.2567 576.395 50.6837 578.016C50.3444 578.173 48.4379 578.988 45.5246 580.233C36.2696 584.188 16.8542 592.485 5.2494 597.824C5.00398 596.797 4.76728 595.767 4.53917 594.733C16.7154 589.178 36.536 580.718 45.1097 577.059C47.438 576.065 48.9369 575.426 49.228 575.294C52.4253 573.839 55.5596 572.267 58.6237 570.584C68.3502 565.232 78.0767 558.076 94.8168 543.885C126.941 516.666 161.314 450.575 183.712 388.552C186.921 379.622 190.13 366.471 196.052 339.222L199.691 322.523C203.532 304.143 207.746 285.83 212.329 267.595C220.098 236.693 228.015 211.27 236.672 191.05C238.067 189.331 239.461 187.611 240.854 185.892C242.218 184.209 243.582 182.527 244.946 180.847ZM168.582 262.473C155.87 297.691 147.221 330.274 147.221 349.283C147.221 399.257 93.295 486.236 47.243 515.687C40.1632 520.214 19.9823 531.346 0 542.234V538.686V538.655C15.3335 530.483 30.4567 521.979 45.3572 513.149C90.5491 484.217 143.912 398.156 143.912 349.253C143.912 330.834 151.813 300.077 163.656 266.468C165.306 265.145 166.948 263.814 168.582 262.473ZM30.6142 406.43C47.7926 384.977 62.0554 362.983 72.7329 340.636C76.8257 336.389 81.0738 332.282 85.444 328.285C84.4653 330.58 83.4783 332.864 82.4767 335.154C68.9703 365.919 48.7588 396.008 23.494 424.968C25.7652 418.668 28.1466 412.48 30.6142 406.43ZM7.95163 478.059C14.8786 470.382 22.4757 461.155 31.363 449.872C44.6956 432.99 52.2717 424.182 61.7004 415.496C81.2082 397.44 103.012 353.292 124.221 296.628C125.849 295.393 127.481 294.16 129.114 292.927C107.195 352.284 84.5396 398.665 64.0163 417.637C54.7529 426.201 47.2761 434.886 29.6096 457.273C21.06 468.152 13.5999 477.07 6.56096 484.55C7.0058 482.383 7.46962 480.219 7.95163 478.059ZM44.03 665.736C41.1163 663.392 38.3265 660.889 35.6758 658.204C39.2574 660.44 42.0411 662.841 44.03 665.736ZM77.5108 684.91C75.3632 677.393 71.976 669.219 67.4238 659.765C56.8702 637.837 54.5875 631.812 54.5875 621.475C54.5875 611.23 60.7741 600.373 72.8495 587.619C81.4842 578.444 84.4287 575.906 112.219 552.449C129.058 538.197 138.95 529.205 147.618 519.571C178.915 484.829 189.369 460.026 206.837 382.619C217.159 336.591 228.771 320.596 256.859 305.396C258.603 304.449 263.725 301.761 267.725 299.662C269.794 298.576 271.562 297.648 272.408 297.2C278.493 293.983 284.431 290.534 290.207 286.863V286.893C304.433 277.78 316.277 271.602 330.37 265.638C332.603 264.655 334.944 263.711 337.579 262.649C338.223 262.389 338.885 262.122 339.567 261.846L354.025 256.096C374.168 248.065 393.767 238.914 412.715 228.693C442.647 212.528 473.418 197.728 504.918 184.348C516.792 179.275 560.854 161.062 572.297 156.332C574.308 155.501 575.311 155.086 574.955 155.232C638.376 128.869 667.919 134.038 738.718 179.852C764.887 196.795 782.52 220.375 793.14 249.154C803.131 276.159 805.579 299.647 805.579 334.022C805.579 359.468 803.396 373.628 793.404 392.039C779.576 417.607 752.712 441.401 708.777 463.818C627.889 505.075 580.315 548.075 533.998 610.129C504.785 649.275 375.992 745.338 318.427 775.737C297.785 786.632 275.729 796.956 253.37 806.101C253.162 805.076 252.947 804.055 252.723 803.038C274.736 794.007 296.449 783.834 316.773 773.107C373.941 742.891 502.37 647.104 531.285 608.416C577.867 545.965 625.804 502.628 707.189 461.127C750.595 439.015 776.962 415.649 790.46 390.693C800.12 372.772 802.271 359.04 802.271 334.022C802.271 299.983 799.823 276.74 790.03 250.132C779.609 221.934 762.372 198.905 736.799 182.36C666.894 137.096 638.541 132.142 576.345 158.046C578.661 157.067 520.235 181.167 506.307 187.1C505.542 187.433 504.784 187.763 504.031 188.09C499.246 190.171 494.688 192.152 490.229 194.134C464.407 205.586 439.1 218.003 414.369 231.354C395.304 241.632 375.583 250.835 355.315 258.91L340.858 264.659C337.417 266.036 334.506 267.228 331.727 268.421C317.83 274.265 304.551 281.288 292.06 289.401C286.22 293.126 280.216 296.626 274.062 299.891L258.513 308.057C231.286 322.798 220.236 338.059 210.046 383.292C192.512 461.127 181.892 486.358 150.165 521.559C141.365 531.315 131.374 540.399 114.435 554.712C86.7776 578.077 83.8662 580.646 75.3307 589.638C63.7516 601.902 57.8958 612.147 57.8958 621.506C57.8958 631.231 60.1455 637.103 70.4675 658.573C75.5347 669.104 79.1971 678.128 81.3404 686.458C80.0553 685.953 78.7786 685.437 77.5108 684.91ZM145.103 705.999C142.6 697.065 138.316 689.136 131.473 680.593C124.861 672.531 117.016 665.402 108.182 659.429C95.1807 650.407 88.1009 640.743 86.4798 630.405C83.2707 610.19 99.2831 590.464 133.359 564.07C138.552 560.059 155.208 547.596 156.786 546.415L156.815 546.393C162.963 541.93 168.746 537.054 174.118 531.805C187.682 517.645 193.471 502.598 199.923 470.424C200.826 465.973 201.708 461.518 202.569 457.059C203.661 451.34 204.554 446.967 205.481 442.593C207.929 431.033 210.443 420.634 213.421 410.083C216.729 398.523 217.986 393.262 221.228 378.368C223.213 369.132 224.305 365.493 226.389 361.639C230.425 354.146 230.591 353.993 266.916 326.713C292.39 307.598 307.609 301.726 345.258 292.246C365.505 287.138 375.43 283.223 385.983 274.752C398.555 264.659 410.696 260.928 438.453 256.096C447.551 254.506 450.595 253.955 455.194 252.977C473.323 249.184 486.557 244.016 498.533 234.963C533.006 208.875 582.564 191.81 618.658 191.81C636.292 191.81 674.139 214.992 703.815 244.291C739.313 279.339 756.616 315.458 745.93 343.687C735.409 371.518 708.248 400.48 669.739 428.892C641.817 449.474 608.998 468.65 586.303 479.14C573.996 484.829 564.501 494.065 553.98 509.693C553.413 510.53 550.856 514.781 547.083 521.054C535.688 540.001 513.201 577.39 500.948 594.806C482.355 621.261 449.999 647.899 400.937 680.317C390.863 686.957 380.717 693.502 370.5 699.952C370.41 700.009 369.376 700.663 367.741 701.696C361.546 705.608 346.734 714.965 342.049 717.965C320.644 731.606 307.807 740.444 298.875 748.029C284.887 759.882 264.85 769.395 243.964 775.742C243.538 774.788 243.1 773.842 242.649 772.903C263.175 766.683 282.931 757.371 296.625 745.766C305.723 738.059 318.659 729.159 340.163 715.427L368.614 697.413C380.624 689.829 389.953 683.835 399.018 677.84C447.75 645.605 479.874 619.181 498.169 593.124C510.169 576.054 532.158 539.544 543.724 520.339C547.783 513.601 550.558 508.992 551.168 508.103C561.987 492.016 571.878 482.382 584.847 476.388C607.311 465.989 639.931 446.936 667.655 426.476C705.767 398.4 732.531 369.805 742.82 342.677C752.977 315.825 736.137 280.685 701.4 246.371C672.286 217.622 635.101 194.868 618.658 194.868C583.358 194.868 534.527 211.689 500.617 237.348C488.178 246.738 474.481 252.059 455.954 255.974C451.29 256.952 448.18 257.503 439.049 259.093C411.888 263.834 400.143 267.442 388.167 277.076C377.117 285.945 366.828 289.982 346.151 295.182C308.899 304.571 294.045 310.29 269.034 329.098C233.403 355.828 233.039 356.134 229.334 362.985C227.415 366.533 226.422 370.019 224.47 378.949C221.228 393.905 219.971 399.226 216.63 410.878C213.652 421.368 211.171 431.675 208.723 443.174C207.22 450.246 205.798 457.331 204.455 464.43L203.165 471.005C196.614 503.668 190.692 519.143 176.566 533.823C171.085 539.196 165.18 544.184 158.899 548.748C157.51 549.788 140.703 562.419 135.509 566.425C102.294 592.115 86.8107 611.23 89.7551 629.977C91.2438 639.458 97.8274 648.419 110.167 656.982C120.092 663.864 127.999 671.112 134.12 678.758C141.748 688.262 146.308 697.038 148.812 707.092C147.578 706.724 146.341 706.36 145.103 705.999ZM257.734 839.47C257.655 838.424 257.572 837.38 257.485 836.339C277.469 829.614 287.877 833.768 289.479 847.731C290.869 859.628 286.435 876.295 275.551 906.084L273.434 911.833C268.39 925.488 265.475 933.476 263.475 939.416C263.128 937.012 262.816 934.587 262.533 932.142C264.391 926.927 266.857 920.219 270.324 910.855L272.408 905.105C283.127 875.806 287.494 859.322 286.204 848.067C284.821 836.265 276.308 832.887 257.734 839.47ZM451.184 58.5259C452.83 58.188 454.476 57.8508 456.122 57.5134C456.517 57.4325 456.913 57.3515 457.308 57.2705C454.294 59.9052 449.489 64.3637 441.166 72.0456C436.204 76.6331 429.62 81.7711 420.258 88.4688C417.062 90.7624 408.36 96.8486 401.779 101.451C398.006 104.09 394.93 106.242 393.989 106.911C377.58 118.471 366.431 127.096 357.399 135.598C341.255 150.828 334.737 163.581 339.005 174.439C343.438 185.663 352.47 187.956 368.449 183.063C377.299 180.127 385.892 176.569 394.155 172.42C396.993 171.073 405.004 167.136 412.326 163.536C417.807 160.842 422.902 158.337 425.154 157.251C438.354 150.736 451.952 144.936 465.879 139.879C478.248 135.365 490.431 130.428 502.403 125.077C504.948 123.959 510.624 121.441 517.109 118.564C527.826 113.809 540.754 108.074 545.412 106.054C560.002 99.6317 572.209 94.4937 583.954 89.8756C640.659 67.5498 680.954 59.5981 708.579 69.5377L726.543 75.9602C734.152 78.6516 740.339 80.9147 746.459 83.239C761.18 88.7169 775.609 94.8406 789.699 101.589C850.374 131.041 890.107 169.27 904.796 223.525C910.823 245.817 914.51 265.979 915.978 284.524C915.069 287.492 914.152 290.463 913.235 293.437C913.226 293.465 913.218 293.494 913.209 293.522C912.337 272.784 908.514 249.969 901.554 224.259C887.163 170.983 848.091 133.365 788.177 104.311C774.944 97.8885 761.049 92.0776 745.202 86.0527C739.115 83.7589 732.961 81.4958 725.352 78.7739L707.388 72.4126C680.822 62.8706 641.155 70.6387 585.244 92.6893C573.599 97.2768 561.391 102.445 546.834 108.807L503.826 127.83C488.244 134.619 476.83 139.298 467.07 142.754C453.256 147.766 439.769 153.515 426.676 159.973C424.622 160.97 420.169 163.156 415.216 165.589C407.56 169.348 398.71 173.694 395.677 175.142C387.277 179.363 378.539 182.982 369.541 185.968C352.007 191.321 341.023 188.568 335.895 175.478C331.065 163.184 338.079 149.483 355.083 133.457C364.181 124.832 375.463 116.147 391.971 104.464C392.627 104.003 394.294 102.84 396.502 101.298C403.09 96.6977 414.498 88.7329 418.239 86.0527C425.459 81.0627 432.342 75.67 438.85 69.9047C444.239 64.9229 448.202 61.2487 451.184 58.5259ZM311.615 1022.01C310.671 1021.43 309.735 1020.82 308.806 1020.2C308.997 1019.67 309.182 1019.14 309.362 1018.6C312.265 1009.07 314.552 999.388 316.21 989.607L318.89 975.63C324.25 948.411 328.815 933.425 336.226 923.975C346.151 911.283 360.046 912.414 378.275 929.296C390.846 940.918 396.206 952.478 395.478 964.956C394.982 973.092 392.004 981.502 386.446 991.503C383.839 996.138 381.059 1000.69 378.109 1005.14L368.714 1019.3C364.227 1026.14 360.356 1032.44 357.068 1038.4C355.932 1038.22 354.801 1038.02 353.674 1037.81C357.095 1031.54 361.149 1024.91 365.869 1017.71L375.264 1003.55C378.178 999.157 380.926 994.668 383.502 990.096C388.861 980.462 391.707 972.419 392.17 964.773C392.831 953.212 387.869 942.478 375.959 931.437C358.987 915.779 347.507 914.83 338.906 925.779C331.892 934.71 327.393 949.451 322.165 976.15C321.735 978.198 320.718 983.528 320.059 986.983C319.704 988.843 319.453 990.159 319.453 990.127C316.707 1004.41 314.821 1012.54 312.505 1019.49C312.222 1020.34 311.926 1021.19 311.615 1022.01ZM407.409 1040.35C405.243 1040.47 403.082 1040.57 400.927 1040.65C403.44 1039.12 406.266 1037.45 409.472 1035.6C414.001 1033.07 418.314 1030.21 422.375 1027.07C437.626 1014.96 444.144 1008.11 447.915 998.292C452.646 985.998 450.992 970.645 441.762 949.298C437.948 940.814 433.538 932.569 428.561 924.617L425.485 919.418C422.368 914.423 419.454 909.323 416.751 904.126C399.68 871.372 404.278 846.324 442.159 813.049C469.664 788.811 499.335 766.764 530.855 747.142C537.564 742.929 551.977 734.369 565.529 726.321C578.44 718.653 590.569 711.449 594.507 708.913C601.091 704.631 608.833 698.82 620.213 689.645C620.147 689.645 644.132 670.103 651.543 664.261C667.986 651.233 681.616 641.324 694.717 633.219C710.332 623.585 724.393 617.071 737.295 613.89C779.576 603.462 788.905 601.107 809.318 595.632C850.837 584.5 881.969 574.53 902.414 565.049C910.366 561.541 918.635 558.686 927.127 556.516C934.213 554.504 940.226 552.72 945.512 550.99C945.967 551.917 946.419 552.844 946.868 553.773C941.473 555.544 935.342 557.366 928.12 559.421C919.788 561.543 911.673 564.337 903.87 567.771C883.226 577.313 851.929 587.344 810.244 598.538C786.29 604.913 762.247 611 738.122 616.796C725.65 619.885 711.887 626.277 696.57 635.727C681.638 645.194 667.331 655.479 653.727 666.524C646.316 672.396 622.364 691.909 622.364 691.909C614.085 698.809 605.428 705.312 596.426 711.39C592.36 714.019 579.702 721.527 566.428 729.4C553.138 737.284 539.229 745.534 532.708 749.619C501.329 769.148 471.79 791.094 444.408 815.22C407.587 847.578 403.286 871.188 419.695 902.781C422.378 907.925 425.27 912.975 428.363 917.919L431.473 923.119C436.5 931.17 440.954 939.517 444.805 948.105C454.333 970.125 456.054 986.212 451.058 999.271C447.022 1009.76 440.207 1016.92 424.525 1029.36C420.808 1032.29 416.961 1034.8 407.409 1040.35ZM596.73 1007.41C592.492 1008.89 588.245 1010.32 583.986 1011.7C576.172 1010.32 569.844 1008.66 564.435 1006.58C517.986 988.689 449.933 925.779 449.933 893.667C449.933 877.335 455.69 864.521 468.03 850.452C472.375 845.502 487.145 831.359 498.21 820.765C503.824 815.389 508.484 810.927 510.343 809.043C525.297 793.843 543.956 779.866 568.835 764.208C572.905 761.655 582.836 755.678 593.454 749.289C607.004 741.134 621.671 732.308 626.698 729.067C634.173 724.076 641.188 718.521 647.672 712.461C652.734 707.873 670.698 690.655 671.228 690.135C694.982 667.809 713.244 654.78 736.534 646.156C747.65 642.058 763.431 637.623 794.265 629.702C807.253 626.351 820.244 623.007 833.237 619.671C847.253 616.04 861.226 612.268 875.153 608.355C908.414 598.95 936.21 589.842 958.539 580.695C959.265 582.635 959.966 584.582 960.638 586.539C938.107 595.733 910.277 604.824 877.072 614.196C863.112 618.12 849.106 621.902 835.056 625.543C822.058 628.936 809.046 632.28 796.018 635.574C765.449 643.464 749.801 647.838 738.982 651.844C716.717 660.071 699.117 672.641 675.959 694.416C675.86 694.507 675.073 695.259 673.833 696.443C668.82 701.23 656.415 713.076 652.304 716.803C645.556 723.112 638.252 728.892 630.469 734.083C625.338 737.407 610.38 746.405 596.714 754.625C586.238 760.927 576.521 766.772 572.573 769.254C548.092 784.668 529.763 798.369 515.24 813.141C513.195 815.229 508.005 820.205 501.902 826.056C491.022 836.487 477.239 849.702 473.191 854.306C461.711 867.335 456.55 878.864 456.55 893.667C456.55 922.721 522.717 983.888 566.982 1000.95C574.278 1003.76 583.677 1005.78 596.73 1007.41ZM910.255 890.436C909.436 891.267 908.609 892.083 907.774 892.887C902.792 891.275 897.626 890.139 892.357 889.507C868.537 886.663 844.419 893.086 813.254 907.49C810.029 908.991 802.169 912.766 795.991 915.734C792.348 917.484 789.289 918.954 788.111 919.51C783.451 921.694 778.883 924.04 774.415 926.544L759.858 934.679C721.415 955.843 692.368 962.754 651.312 953.274C640.328 950.705 630.668 948.992 607.972 945.2C564.137 937.89 546.107 933.731 530.789 925.443C510.178 914.219 506.109 897.857 521.261 874.522C534.581 854.068 550.631 835.244 569.033 818.493C577.901 810.381 587.082 802.567 596.559 795.066C596.48 795.118 598.804 793.266 602.124 790.621C608.581 785.476 618.803 777.33 622.43 774.361C629.965 768.266 637.143 761.804 643.934 755.002C669.408 729.128 686.214 714.143 710.365 698.209C743.25 676.494 781.164 660.408 826.752 650.56C893.699 636.12 937.863 625.863 968.38 616.919C968.543 617.945 968.697 618.974 968.84 620.006C938.196 628.954 894.082 639.191 827.48 653.557C782.322 663.283 744.838 679.216 712.284 700.717C688.398 716.498 671.691 731.33 646.382 757.082C639.518 763.959 632.263 770.492 624.646 776.655C619.121 781.181 598.477 797.543 598.709 797.36C587.891 806.046 579.521 813.141 571.382 820.664C553.194 837.244 537.333 855.873 524.172 876.112C509.946 898.01 513.519 912.475 532.542 922.782C547.331 930.825 565.229 934.985 609.428 942.325C623.773 944.507 638.03 947.159 652.172 950.277C692.236 959.543 720.456 952.845 758.237 932.049L772.794 923.944C778.285 920.886 782.586 918.653 786.689 916.757C787.94 916.172 791.364 914.53 795.358 912.615C801.392 909.721 808.726 906.204 811.832 904.769C843.559 890.089 868.206 883.544 892.853 886.48C898.816 887.192 904.653 888.524 910.255 890.436ZM938.87 850.446C938.363 851.402 937.849 852.353 937.328 853.3C914.396 849.621 884.283 851.08 850.605 858.465C829.079 862.951 808.089 869.405 787.946 877.733C771.026 884.903 732.188 907.038 733.307 906.507C711.095 917.616 690.42 919.167 651.312 910.457C553.55 888.62 550.639 884.094 600.826 828.463C658.524 764.452 756.715 687.229 787.35 687.229C813.665 687.229 912.301 663.673 970.724 644.924C970.775 645.986 970.824 647.051 970.872 648.116C911.97 666.934 813.93 690.288 787.35 690.288C758.171 690.288 660.343 767.205 603.341 830.42C555.039 884.002 556.395 886.113 652.106 907.49C690.482 916.054 710.332 914.525 731.803 903.82C729.587 904.891 769.221 882.32 786.589 874.95C804.487 867.365 824.966 860.912 849.812 855.468C884.296 847.919 915.234 846.463 938.87 850.446ZM971.565 669.413C951.82 675.46 927.601 681.7 898.179 688.544C891.098 690.185 874.759 693.879 859.715 697.28C846.434 700.283 834.162 703.057 830.16 703.989C805.678 709.647 789.17 713.898 776.896 717.904C763.332 722.339 753.274 726.743 745.665 731.453C736.071 737.416 731.307 742.769 724.922 753.045C717.114 765.675 714.468 769.284 706.792 776.38C702.261 780.569 700.377 782.168 688.609 792.158L687.273 793.292L681.384 798.308C667.555 810.174 659.45 818.248 654.653 825.741C648.4 835.497 648.863 843.388 657.399 849.046C686.645 868.344 707.057 872.35 748.113 861.493C766.574 856.63 784.869 849.657 810.641 838.342C809.648 838.77 837.306 826.506 844.485 823.447C854.022 819.231 863.847 815.594 873.896 812.56C885.111 809.379 892.721 808.645 908.667 808.462C910.156 808.4 910.85 808.4 911.71 808.4C930.647 808.102 942.513 805.877 959.025 797.736C959.375 796.407 959.717 795.074 960.05 793.737C959.579 793.973 959.103 794.212 958.623 794.454C942.015 802.834 930.568 805.067 911.644 805.373H908.634C892.39 805.587 884.516 806.321 872.904 809.654C862.719 812.72 852.762 816.398 843.096 820.664C835.883 823.723 808.226 836.017 809.218 835.589C783.612 846.813 765.416 853.755 747.22 858.557C707.156 869.139 687.769 865.347 659.318 846.568C652.403 841.981 652.039 835.834 657.498 827.301C662.064 820.144 670.07 812.223 683.634 800.54L689.49 795.555L690.152 794.994C702.59 784.459 704.492 782.849 709.141 778.521C717.081 771.211 719.86 767.419 727.8 754.574C733.954 744.665 738.42 739.649 747.518 733.991C754.862 729.434 764.688 725.122 778.021 720.779C790.162 716.834 806.572 712.583 830.954 706.956C834.601 706.106 845.112 703.733 856.998 701.05C872.933 697.453 891.337 693.298 898.973 691.511C927.978 684.764 951.955 678.609 971.622 672.633C971.605 671.559 971.586 670.486 971.565 669.413ZM692.765 361.976C699.382 351.638 701.367 341.362 701.367 318.241C701.367 296.65 686.612 267.84 664.942 245.851C641.287 221.873 614.06 210.374 591.067 217.959C545.213 233.097 538.133 236.217 507.697 254.506C503.854 256.818 496.037 261.96 488.542 266.891C481.069 271.807 473.915 276.513 471.338 277.994C459.759 284.661 449.702 287.658 436.7 287.658C407.487 287.658 399.084 292.704 384.197 316.712C379.631 324.113 376.29 324.419 359.616 321.361C339.865 317.721 326.599 318.517 309.329 327.845C255.469 356.868 218.35 402.621 218.35 458.925C218.35 485.593 207.896 509.448 185.763 542.173C182.984 546.332 173.092 560.553 173.621 559.788C168.957 566.578 165.747 571.471 162.935 576.151C155.756 588.078 152.183 597.345 152.183 605.725C152.183 615.328 157.344 622.056 167.005 626.644C173.919 629.977 180.867 631.69 196.879 634.718L198.864 635.085C223.941 639.825 234.131 643.77 238.498 652.854C245.544 667.534 275.849 668.818 319.949 659.949C357.929 652.303 401.334 637.745 428.396 623.677C479.874 596.917 542.567 520 542.567 486.45C542.567 471.372 552.293 462.136 572.309 453.634C574.207 452.823 578.713 451.044 582.82 449.422C586.3 448.048 589.493 446.787 590.571 446.324C593.217 445.223 595.368 444.214 597.187 443.205C599.933 441.676 602.778 440.391 607.211 438.617C633.447 427.974 644.596 420.818 664.313 396.535C665.11 395.556 667.126 393.18 669.746 390.093C677.356 381.127 690.058 366.162 692.765 361.976ZM660.046 249.979C680.687 270.896 694.746 298.355 694.75 318.234C694.749 340.36 692.961 349.684 687.042 358.887C684.646 362.629 672.795 376.588 665.158 385.584C662.249 389.011 659.951 391.717 659.02 392.865C640.096 416.169 629.84 422.745 604.532 432.99C599.9 434.886 596.823 436.262 593.78 437.945C592.192 438.831 590.273 439.749 587.825 440.789C586.929 441.16 584.369 442.17 581.396 443.343C577.013 445.072 571.731 447.156 569.563 448.068C547.43 457.457 535.95 468.406 535.95 486.45C535.95 517.461 474.713 592.574 425.154 618.356C363.619 650.346 255.006 672.182 244.519 650.346C238.895 638.663 227.547 634.29 200.187 629.09L198.169 628.723C168.295 623.065 158.8 618.539 158.8 605.725C158.8 598.629 162.042 590.219 168.725 579.117C171.438 574.591 174.614 569.759 179.212 563.061L191.387 545.414C214.115 511.803 224.967 487.061 224.967 458.925C224.967 405.129 260.63 361.15 312.637 333.105C328.286 324.664 339.997 323.991 358.292 327.355C369.276 329.374 371.261 329.649 375.562 329.221C381.649 328.579 386.314 325.612 389.953 319.771C403.683 297.536 409.969 293.775 436.7 293.775C451.025 293.775 462.273 290.411 474.845 283.193C477.618 281.598 485.138 276.647 492.816 271.592C500.159 266.757 507.647 261.826 511.27 259.644C541.276 241.6 547.893 238.694 593.316 223.708C613.2 217.133 637.979 227.592 660.046 249.979ZM581.506 244.107C579.686 245.117 572.242 249.429 571.746 249.735V249.704C561.216 255.778 550.135 260.997 538.63 265.302C532.542 267.626 527.084 270.042 522.121 272.58C513.914 276.706 506.356 281.851 499.658 287.872C496.018 291.175 486.358 301.329 486.92 300.778C479.377 308.241 472.893 311.054 459.858 311.054C439.909 311.054 430.183 315.734 419.067 327.967C418.724 328.334 417.507 329.709 416.06 331.344C414.014 333.656 411.509 336.487 410.366 337.723C406.949 341.453 403.221 344.93 399.217 348.121C397.232 349.712 395.213 351.057 393.195 352.189C385.52 356.501 379.135 357.633 363.42 358.458C338.641 359.774 325.573 361.7 303.771 369.254C285.278 375.677 273.136 386.687 264.997 403.294C258.414 416.689 254.841 431.553 250.143 460.332C248.75 469.418 247.261 478.491 245.677 487.551C243.824 498.408 241.971 507.858 239.887 517.186C238.206 524.622 234.735 537.767 231.446 550.221C227.809 563.994 224.396 576.92 223.875 580.34C221.758 594.317 225.463 601.688 238.762 608.814C244.774 611.863 251.009 614.52 257.421 616.765C275.948 623.616 292.027 626.368 308.37 625.604C331.032 624.503 346.515 619.61 400.937 598.415C455.723 577.099 494.927 520.795 520.963 444.551C525.628 430.91 533.766 421.858 545.776 415.68C555.105 410.878 564.17 408.462 584.152 404.517C585.267 404.298 586.222 404.111 587.054 403.948C590.992 403.176 592.186 402.942 594.507 402.437C625.44 395.984 643.074 387.543 656.439 368.459C690.35 320.015 675.231 274.538 626.069 250.071C606.285 240.223 598.047 237.991 589.545 240.529C587.13 241.233 584.682 242.364 581.506 244.107ZM501.973 290.044C508.454 284.216 515.767 279.235 523.709 275.241C528.572 272.764 533.932 270.409 539.887 268.115C551.564 263.752 562.81 258.462 573.5 252.304C573.57 252.263 573.764 252.15 574.049 251.984C575.897 250.91 581.617 247.585 583.193 246.738C586.17 245.086 588.42 244.046 590.571 243.435C597.915 241.263 605.458 243.282 624.481 252.762C672.022 276.434 686.479 319.893 653.66 366.808C640.89 385.066 623.952 393.14 593.78 399.44C593.303 399.54 592.873 399.63 592.456 399.718C590.441 400.143 588.721 400.506 583.458 401.52C563.178 405.526 553.881 408.034 544.188 413.019C531.451 419.564 522.75 429.228 517.82 443.602C492.048 519.113 453.308 574.713 399.68 595.602C345.655 616.612 330.337 621.475 308.204 622.515C292.357 623.28 276.742 620.619 258.679 613.952C250.672 610.985 244.883 608.508 240.417 606.153C228.308 599.669 225.198 593.522 227.15 580.769C227.647 577.509 230.951 565.002 234.52 551.497C237.848 538.904 241.405 525.442 243.129 517.798C245.247 508.439 247.066 498.928 248.952 488.04L251.268 474.063L253.418 460.79C258.083 432.287 261.623 417.607 268.008 404.548C275.783 388.644 287.296 378.246 304.962 372.129C326.367 364.697 339.137 362.801 363.586 361.517C379.863 360.63 386.645 359.437 394.916 354.819C397.099 353.596 399.25 352.128 401.4 350.446C405.524 347.15 409.362 343.56 412.88 339.711C414.458 338.009 418.545 333.369 420.537 331.108C421.051 330.525 421.425 330.1 421.581 329.924C432.101 318.364 440.935 314.113 459.858 314.113C473.853 314.113 481.197 310.932 489.336 302.889C493.435 298.513 497.649 294.23 501.973 290.044ZM490.891 394.149C470.677 372.343 436.898 366.533 383.469 375.31C372.717 377.053 365.339 377.634 347.706 378.46C325.209 379.5 316.21 380.968 306.914 386.473C295.269 393.415 287.693 406.321 282.896 428.494C280.348 440.208 277.768 450.943 272.507 471.739L272.11 473.299C262.615 510.825 259.042 526.208 256.462 543.579C253.021 566.792 253.815 582.604 259.969 591.687C277.205 617.224 347.838 610.802 394.651 579.912C436.204 552.449 455.425 532.172 471.272 502.873C494.629 459.659 507.697 412.285 490.891 394.149ZM347.871 381.518C365.67 380.693 373.147 380.111 384.064 378.307C436.435 369.713 469.055 375.34 488.376 396.168C503.859 412.836 490.99 459.567 468.295 501.527C452.712 530.337 433.855 550.247 392.732 577.405C347.243 607.437 278.694 613.646 262.748 590.097C257.157 581.809 256.363 566.517 259.77 544.008C262.318 526.759 265.858 511.406 275.319 473.972L275.716 472.443C280.977 451.585 283.59 440.85 286.138 429.106C290.769 407.667 297.948 395.464 308.701 389.042C317.335 383.904 325.97 382.528 347.871 381.518ZM473.919 420.237C471.967 403.049 460.255 393.629 436.7 393.629C430.216 393.629 425.088 393.507 412.284 393.171L399.415 392.865C373.147 392.345 356.142 393.262 341.585 396.932C322.959 401.581 310.983 410.603 306.087 425.283L304.863 428.953C301.356 439.25 297.992 449.588 294.772 459.965C291.795 469.476 289.181 478.345 286.932 486.756C275.187 530.734 273.665 558.963 286.866 567.679C308.535 581.992 351.577 578.934 374.768 564.651C404.014 546.607 456.285 495.044 464.755 468.987C472.496 445.132 475.308 432.531 473.919 420.237ZM412.185 396.229C425.022 396.565 430.183 396.688 436.7 396.688C458.568 396.688 468.857 404.945 470.61 420.543C471.967 432.317 469.188 444.673 461.579 468.13C453.407 493.331 401.565 544.436 372.915 562.113C350.783 575.722 309.23 578.689 288.818 565.171C277.338 557.617 278.793 529.939 290.141 487.49C292.39 479.11 294.971 470.271 297.948 460.79C299.768 454.888 301.72 448.863 303.97 442.134C305.746 436.827 307.511 431.515 309.263 426.201C313.762 412.622 324.845 404.272 342.446 399.899C356.605 396.321 373.378 395.403 399.349 395.923L412.185 396.229ZM406.197 422.378C397.007 419.74 387.465 418.298 377.845 418.096C367.89 419.161 358.317 422.264 349.823 427.179C335.2 435.712 325.341 449.138 322.562 468.344C316.078 513.455 328.65 528.961 361.138 518.929C403.584 505.87 435.046 482.596 435.046 453.267C435.046 437.761 424.128 427.821 406.197 422.378ZM351.577 429.748C358.972 425.467 367.235 422.626 375.86 421.399C376.885 421.246 377.613 421.154 378.043 421.154C387.258 421.278 396.401 422.669 405.172 425.283C421.879 430.329 431.737 439.321 431.737 453.267C431.737 480.792 401.301 503.332 360.079 516.054C330.37 525.199 319.618 511.926 325.871 468.773C328.484 450.484 337.748 437.822 351.577 429.748ZM555.006 359.774C594.011 379.836 634.406 379.653 643.405 349.681L643.438 349.712C655.612 309.128 649.591 279.553 619.287 268.36C602.15 261.999 588.619 263.13 572.97 270.562C568.535 272.724 564.207 275.071 560.002 277.596L553.286 281.572C548.464 284.503 543.52 287.258 538.464 289.829C509.351 304.785 521.36 342.525 555.006 359.774ZM561.788 280.165C565.908 277.696 570.147 275.399 574.492 273.284V273.314C589.313 266.219 601.852 265.21 618.063 271.174C646.349 281.664 652.039 309.617 640.229 348.855C632.024 376.166 594.011 376.35 556.594 357.113C524.867 340.842 513.784 305.977 540.052 292.521C542.633 291.206 545.213 289.799 547.926 288.27C549.769 287.237 551.612 286.161 553.813 284.876C554.22 284.638 554.639 284.394 555.072 284.141L561.788 280.165ZM611.578 340.904C625.473 337.968 633.546 327.875 633.546 310.443C633.546 274.477 586.898 268.666 564.402 296.374C549.613 314.602 549.812 322.523 563.277 329.802C564.766 330.597 566.453 331.453 568.669 332.493L574.922 335.368C586.567 340.751 600.661 343.228 611.578 340.904ZM606.02 282.428C620.738 284.293 630.232 294.228 630.237 310.429C630.233 326.505 623.187 335.308 610.851 337.937C600.727 340.078 587.428 337.723 576.378 332.616L570.191 329.771C568.008 328.731 566.387 327.936 564.931 327.172C553.484 320.963 553.319 315.152 567.048 298.209C576.279 286.832 592.026 280.685 606.02 282.428ZM857.685 730.994C846.933 732.493 840.581 733.104 833.7 733.104C829.928 733.104 826.686 733.074 821.228 732.982C793.404 732.523 785.498 733.655 774.315 741.943C772.76 743.074 771.206 744.359 769.684 745.796C769.598 745.872 769.075 746.32 768.207 747.065C762.371 752.072 740.933 770.467 731.803 778.826C726.808 783.414 722.242 787.787 718.074 791.977C704.113 805.954 695.147 817.423 692.269 826.016C688.53 836.996 694.816 843.204 711.292 843.204C743.382 843.204 760.453 836.629 787.549 818.646L790.195 816.903C803.627 808.003 811.005 803.843 821.062 800.296L828.605 797.666L829.498 797.36C854.708 788.582 865.592 784.209 876.311 777.786C890.703 769.162 898.212 759.253 898.212 746.867C898.212 736.652 894.011 731.178 885.674 729.465C879.653 728.241 874.955 728.639 857.685 730.994ZM821.161 736.04C826.653 736.132 829.895 736.163 833.7 736.163C840.78 736.163 847.264 735.551 858.182 734.022C874.889 731.728 879.52 731.361 884.979 732.493C891.695 733.838 894.904 738.028 894.904 746.867C894.904 758.091 888.023 767.113 874.525 775.218C864.037 781.487 853.285 785.799 828.307 794.485L827.48 794.791L819.871 797.421C809.483 801.091 801.907 805.373 788.243 814.425L785.597 816.169C759.064 833.815 742.588 840.146 711.292 840.146C696.9 840.146 692.434 835.742 695.412 826.934C698.124 818.89 706.858 807.728 720.489 794.057C724.928 789.622 729.473 785.278 734.119 781.028C741.848 773.929 758.583 759.513 766.985 752.275C769.913 749.753 771.829 748.103 772 747.937C773.455 746.592 774.911 745.399 776.367 744.328C786.755 736.652 794.099 735.612 821.161 736.04Z" fill="url(#paint0_linear)"/>
<defs>
<linearGradient id="paint0_linear" x1="37.4873" y1="544.846" x2="1020.49" y2="591.346" gradientUnits="userSpaceOnUse">
<stop stop-color="#007A7A"/>
<stop offset="0.890625" stop-opacity="0"/>
</linearGradient>
</defs>
</svg>
