<svg width="400" height="305" viewBox="0 0 400 305" fill="none" xmlns="http://www.w3.org/2000/svg">
<path fill-rule="evenodd" clip-rule="evenodd" d="M229.228 -10.0793C234.893 -1.99906 239.698 8.49788 244.457 22.0431C245.867 26.0452 249.699 37.725 251.155 42.1597C251.497 43.2044 251.708 43.8469 251.724 43.8926C254.374 51.7935 256.484 57.2502 258.752 61.7974C264.801 73.9499 273.783 83.2947 296.578 103.484L298.76 105.417C309.725 115.137 315.576 120.616 321.172 126.721C325.266 131.177 329.177 135.77 333.739 141.409C334.822 142.738 337.719 146.357 340.356 149.651C342.341 152.13 344.178 154.425 344.987 155.425C355.698 168.601 363.603 176.638 373.69 183.652C377.856 186.54 382.063 188.996 386.426 191.087C396.386 195.851 405.34 198.317 422.397 201.683L431.266 203.422C434.723 204.115 437.669 204.729 440.559 205.366C446.29 206.644 451.186 208.078 455.802 209.861C456.339 209.66 456.869 209.452 457.393 209.235C452.417 207.244 447.155 205.673 440.928 204.286C438.038 203.638 435.077 203.012 431.606 202.33L422.737 200.58C405.793 197.249 396.953 194.816 387.163 190.121C382.723 187.982 378.527 185.532 374.625 182.8C364.652 175.877 356.803 167.908 346.177 154.812C345.06 153.454 342.021 149.652 339.321 146.275C337.432 143.913 335.71 141.759 334.929 140.795C330.338 135.145 326.414 130.541 322.305 126.05C316.667 119.911 310.802 114.421 299.808 104.667L297.626 102.734C274.959 82.6466 266.033 73.3702 260.055 61.3768C257.816 56.8863 255.734 51.4753 253.084 43.6084C253.013 43.381 247.559 26.704 245.817 21.7363C241.043 8.16012 236.219 -2.39045 230.508 -10.5528C230.082 -10.3941 229.655 -10.2364 229.228 -10.0793ZM182.942 -1.29841C185.927 0.0396647 188.871 1.5234 191.797 3.14907C199.943 7.66219 204.831 7.1509 204.505 3.08105C204.366 1.43923 203.471 -0.469278 201.909 -2.49525C202.4 -2.57429 202.889 -2.65641 203.377 -2.74195C204.901 -0.680581 205.778 1.28219 205.922 3.01266C206.361 8.35564 199.929 9.03771 191.004 4.08132C187.264 2.00381 183.497 0.161277 179.651 -1.4369C180.748 -1.37608 181.845 -1.32932 182.942 -1.29841ZM3.39491 39.2438C4.62857 41.49 5.91665 42.7037 7.36764 43.0401C10.3853 43.7449 12.567 41.3804 15.6555 35.7416C16.0438 35.0313 17.1758 32.782 18.5123 30.1268C20.491 26.1951 22.9178 21.373 24.0425 19.3374C29.7519 8.9013 35.3338 2.1488 41.9782 -1.10254C50.3934 -5.22806 56.4812 -8.66324 60.6184 -11.8819C49.1533 -7.96396 39.2347 -2.24817 30.8122 4.57373C27.5757 8.20135 24.528 12.8045 21.4499 18.4165C20.3489 20.4126 18.0463 24.9849 16.1091 28.8314C14.6809 31.6673 13.4515 34.1087 13.0487 34.8324C10.6828 39.1747 8.95435 41.0392 8.14684 40.8574C7.49512 40.7097 6.5176 39.5613 5.44091 37.2535C5.2822 36.9113 5.12257 36.546 4.96197 36.1574C4.419 37.1841 3.89667 38.2133 3.39491 39.2438ZM-9.63502e-06 84.4475C6.60252 82.1917 10.8796 79.1228 13.6862 74.8935C16.1513 71.1875 17.3697 67.2201 18.9423 59.1828C21.039 48.4741 21.4216 46.7461 23.0791 41.5622C25.4146 34.1764 28.9238 27.0624 33.5204 20.3947C40.009 10.9593 49.8125 3.81982 63.1157 -2.31897C67.206 -4.21335 76.5059 -7.80179 83.731 -10.5896C88.3429 -12.3692 92.1095 -13.8227 93.136 -14.3011C94.377 -14.8797 95.4573 -15.4446 96.3745 -16.0047C97.0226 -15.9542 97.6711 -15.8986 98.3205 -15.8384C97.1365 -14.9945 95.6417 -14.1609 93.8443 -13.3231C92.7469 -12.8094 88.7274 -11.2569 83.8862 -9.38657C76.7315 -6.6225 67.7814 -3.16495 63.81 -1.34137C50.7195 4.71808 41.114 11.7094 34.7671 20.9404C30.2252 27.529 26.7588 34.5592 24.4533 41.8577C22.7958 46.9735 22.4274 48.7013 20.3448 59.3645C18.7581 67.5156 17.5114 71.5741 14.9471 75.4278C11.9584 79.9258 7.38793 83.1847 0.40664 85.5416C0.268574 85.177 0.132982 84.8125 -9.63502e-06 84.4475ZM23.404 137.317C23.4712 136.226 23.5183 135.194 23.5183 134.349C23.5183 128.415 23.0649 126.357 21.6057 124.413L20.4157 122.924C19.849 122.219 19.3957 121.582 18.8998 120.832C17.3183 118.294 16.0285 115.646 15.0463 112.92C13.7379 109.503 12.2087 107.264 9.7923 105.726C9.47114 105.098 9.1504 104.47 8.83076 103.842C12.5525 105.495 14.6811 108.107 16.3922 112.579C17.3529 115.242 18.6143 117.83 20.1607 120.309C20.6282 121.025 21.0674 121.628 21.6057 122.31L22.8241 123.833C24.4392 125.993 24.935 128.221 24.935 134.349C24.935 136.16 24.7419 138.655 24.576 140.8C24.5658 140.931 24.5558 141.061 24.5459 141.189C24.1747 139.898 23.7955 138.607 23.404 137.317ZM32.1032 166.628C35.3037 169.557 39.028 172.984 41.8078 175.542C43.7636 177.341 45.2518 178.711 45.7609 179.174C48.5164 181.681 51.3125 184.159 54.1479 186.608C63.3427 194.532 70.8086 200.034 77.028 203.206C90.2038 209.936 102.586 215.12 111.143 216.495C122.902 218.382 124.658 212.323 112.857 194.873C101.685 178.331 91.335 161.439 81.8308 144.239C80.9034 142.57 79.2084 139.493 77.4745 136.345C75.0754 131.988 72.6013 127.496 71.9843 126.414C68.7968 120.673 66.601 116.979 64.6883 114.159L63.1726 111.942L61.5008 109.464C60.169 107.463 59.0072 105.621 57.8881 103.78C45.5342 83.2036 43.0691 64.5828 56.188 46.5643C75.087 20.5425 108.635 3.04702 136.148 3.04702C163.236 3.04702 171.75 3.87688 183.183 8.93566C186.761 10.5445 190.139 12.4251 193.27 14.5515C204.278 21.9067 216.221 27.9771 223.404 29.0571C232.386 30.4213 233.364 23.7255 223.333 6.12758C220.926 1.89901 218.21 -1.95475 215.195 -5.46449C215.656 -5.59437 216.116 -5.7263 216.576 -5.86067C219.551 -2.36604 222.236 1.4612 224.622 5.65029C235.05 23.953 233.902 31.7968 223.149 30.1825C215.655 29.0458 203.556 22.907 192.364 15.4153C189.302 13.3406 186 11.5059 182.503 9.93594C171.339 4.99087 162.995 4.18371 136.148 4.18371C109.174 4.18371 76.0788 21.4517 57.4489 47.0643C44.585 64.7646 46.9933 83.0105 59.1629 103.28C60.8125 106.027 62.5653 108.734 64.4192 111.397L65.9349 113.613C68.579 117.649 71.0319 121.763 73.2878 125.948C73.7399 126.757 75.2209 129.445 76.9367 132.56C79.1987 136.667 81.8692 141.516 83.1339 143.784C92.6209 160.954 102.952 177.815 114.104 194.327C126.373 212.46 124.247 219.758 110.859 217.609C102.076 216.2 89.5802 210.982 76.2632 204.172C69.916 200.932 62.3791 195.373 53.1135 187.381C50.4925 185.13 47.7442 182.698 44.6983 179.924C44.1852 179.458 42.6946 178.086 40.738 176.286C38.5327 174.257 35.7353 171.684 33.0777 169.247C32.7421 168.377 32.4177 167.504 32.1032 166.628ZM83.6235 220.702C93.6085 224.359 107.043 227.62 124.12 230.808C129.404 231.797 134.944 232.763 141.319 233.809L149.536 235.15L157.257 236.389C169.951 238.436 176.071 239.538 180.293 240.675C209.251 248.405 240.022 260.297 252.83 271.517C259.488 277.326 262.846 280.725 265.381 284.136C266.147 285.159 266.855 286.227 267.606 287.455C267.679 287.572 268.056 288.227 268.633 289.228C270.465 292.408 274.308 299.08 276.782 303.067C276.306 303.152 275.828 303.233 275.35 303.311C272.777 299.128 268.859 292.319 267.163 289.372C266.702 288.571 266.406 288.055 266.345 287.955C265.67 286.857 264.943 285.78 264.163 284.727C261.684 281.384 258.369 278.042 251.795 272.29C239.186 261.251 208.571 249.44 179.84 241.744C175.703 240.641 169.611 239.538 156.988 237.503L149.253 236.253C140.738 234.933 132.255 233.485 123.808 231.91C109.493 229.241 97.7165 226.52 88.3494 223.546C87.5536 223.066 86.7568 222.587 85.9605 222.108C85.1809 221.64 84.4017 221.171 83.6235 220.702ZM121.435 246.943C137.75 251.311 152.843 254.283 161.649 254.283C184.798 254.283 225.09 272.813 238.733 288.637C240.83 291.07 245.987 298.005 251.03 304.871L249.387 304.871L249.372 304.871C245.587 299.602 241.648 294.406 237.557 289.285C224.155 273.756 184.288 255.42 161.635 255.42C153.103 255.42 138.855 252.705 123.286 248.635C122.673 248.068 122.057 247.504 121.435 246.943ZM188.121 294.351C178.184 288.449 167.995 283.548 157.643 279.879C155.676 278.472 153.773 277.012 151.922 275.511C152.985 275.847 154.043 276.186 155.104 276.53C169.355 281.171 183.293 288.117 196.708 296.798C193.79 296.018 190.924 295.199 188.121 294.351ZM221.302 302.139C217.746 299.758 213.472 297.148 208.245 294.094C200.425 289.513 196.345 286.909 192.321 283.67C183.957 276.966 163.506 269.474 137.257 262.186C136.685 261.627 136.114 261.066 135.543 260.505C163.039 268.037 184.524 275.821 193.313 282.874C197.279 286.057 201.303 288.626 211.674 294.697C216.713 297.634 220.844 300.198 224.309 302.617C223.305 302.464 222.303 302.304 221.302 302.139ZM308.24 289.741C307.155 290.743 305.995 291.701 304.752 292.612C305.787 291.381 306.9 290.425 308.24 289.741ZM317.123 278.237C313.641 278.975 309.854 280.139 305.475 281.703C295.317 285.329 292.526 286.114 287.737 286.114C282.992 286.114 277.962 283.988 272.054 279.838C267.804 276.871 266.628 275.86 255.762 266.31C249.16 260.524 244.995 257.125 240.532 254.146C224.438 243.392 212.949 239.8 177.091 233.797C155.769 230.251 148.36 226.26 141.319 216.609C140.88 216.01 139.635 214.25 138.663 212.875C138.16 212.164 137.73 211.557 137.522 211.266C136.032 209.175 134.434 207.134 132.734 205.15L132.748 205.15C128.526 200.261 125.664 196.192 122.902 191.349C122.446 190.582 122.009 189.777 121.517 188.872C121.397 188.65 121.273 188.423 121.145 188.189L118.481 183.22C114.761 176.299 110.522 169.564 105.787 163.053C98.2992 152.768 91.4434 142.194 85.2448 131.37C82.8953 127.29 74.4584 112.15 72.2673 108.218C71.8824 107.527 71.6901 107.182 71.7578 107.304C59.5455 85.5114 61.94 75.3598 83.1626 51.0317C91.0112 42.0395 101.934 35.9804 115.265 32.3311C127.775 28.898 138.656 28.0568 154.579 28.0568C166.367 28.0568 172.926 28.807 181.455 32.2404C193.298 36.992 204.321 46.2231 214.705 61.3201C233.817 89.1149 253.736 105.462 282.482 121.378C300.615 131.416 345.115 175.672 359.197 195.453C364.244 202.546 369.026 210.125 373.263 217.808C372.787 217.879 372.314 217.953 371.844 218.03C367.66 210.466 362.948 203.005 357.979 196.021C343.982 176.377 299.61 132.246 281.688 122.31C252.759 106.304 232.683 89.8314 213.459 61.8657C203.216 46.9505 192.392 37.8903 180.831 33.252C172.529 29.9326 166.168 29.1935 154.579 29.1935C138.811 29.1935 128.044 30.0347 115.719 33.3998C102.656 36.9807 91.9886 42.9037 84.3239 51.6911C63.3565 75.712 61.0617 85.4547 73.0613 106.827C72.6078 106.031 83.7717 126.107 86.5201 130.893C86.6744 131.156 86.8272 131.416 86.9787 131.675C87.9422 133.319 88.8604 134.886 89.7785 136.418C95.0835 145.291 100.835 153.987 107.02 162.485C111.781 169.036 116.044 175.813 119.785 182.777L122.448 187.745C123.086 188.927 123.638 189.928 124.191 190.883C126.898 195.658 130.151 200.221 133.909 204.513C135.635 206.52 137.256 208.583 138.769 210.697L142.552 216.04C149.38 225.396 156.45 229.193 177.403 232.695C213.459 238.72 225.147 242.369 241.453 253.271C245.972 256.295 250.18 259.728 256.811 265.549C267.634 275.052 268.824 276.053 272.99 278.986C278.671 282.965 283.416 284.977 287.752 284.977C292.257 284.977 294.977 284.204 304.923 280.657C309.801 278.916 313.981 277.657 317.84 276.921C317.606 277.362 317.367 277.801 317.123 278.237ZM326.891 255.011C322.753 255.871 319.08 257.343 315.123 259.694C311.388 261.966 308.086 264.662 305.319 267.697C301.14 272.165 296.663 274.598 291.874 275.155C282.51 276.257 273.372 270.755 261.146 259.046C259.297 257.271 253.573 251.597 252.976 251.005L252.957 250.986C250.89 248.873 248.631 246.886 246.199 245.04C239.639 240.38 232.669 238.39 217.765 236.173C215.703 235.863 213.639 235.56 211.574 235.264C208.925 234.889 206.899 234.582 204.873 234.263C199.518 233.422 194.701 232.558 189.813 231.535C184.458 230.398 182.021 229.966 175.122 228.852C170.844 228.17 169.158 227.795 167.373 227.079C163.902 225.692 163.831 225.635 151.194 213.153C142.339 204.4 139.619 199.17 135.227 186.233C132.861 179.276 131.048 175.865 127.124 172.239C122.448 167.919 120.72 163.747 118.481 154.209C117.745 151.083 117.49 150.037 117.036 148.457C115.28 142.227 112.885 137.68 108.692 133.564C96.607 121.719 88.7019 104.69 88.7019 92.2869C88.7019 86.2275 99.4406 73.2224 113.013 63.0251C129.248 50.8272 145.98 44.8816 159.057 48.5535C171.948 52.1688 185.365 61.5019 198.526 74.7344C208.061 84.329 216.944 95.6063 221.803 103.405C224.438 107.634 228.717 110.896 235.956 114.512C236.344 114.706 238.313 115.585 241.219 116.882C249.996 120.797 267.316 128.524 275.384 132.735C287.638 139.124 299.978 150.242 314.995 167.101C318.071 170.562 321.103 174.049 324.091 177.559C324.117 177.59 324.416 177.941 324.889 178.497C326.696 180.619 331.043 185.723 332.435 187.336C338.753 194.691 342.848 199.102 346.362 202.171C351.852 206.978 356.259 213.863 359.199 221.04C358.757 221.186 358.319 221.337 357.884 221.492C355.002 214.438 350.689 207.65 345.313 202.944C341.743 199.818 337.62 195.373 331.259 187.984L322.915 178.207C319.401 174.08 316.624 170.875 313.848 167.76C298.915 151.015 286.675 139.976 274.604 133.69C266.697 129.566 249.784 122.01 240.888 118.036C237.766 116.641 235.632 115.688 235.22 115.478C227.768 111.76 223.305 108.362 220.528 103.905C215.711 96.186 206.885 84.977 197.407 75.4505C184.402 62.3544 171.155 53.1577 158.589 49.6222C146.15 46.132 129.872 51.9186 113.976 63.855C100.659 73.8592 90.1185 86.6367 90.1185 92.2869C90.1185 104.417 97.9106 121.196 109.797 132.848C114.146 137.123 116.611 141.829 118.425 148.195C118.878 149.798 119.133 150.867 119.87 154.004C122.065 163.338 123.737 167.373 128.2 171.489C132.309 175.286 134.179 178.821 136.587 185.926C140.936 198.727 143.586 203.831 152.298 212.425C164.681 224.669 164.822 224.794 167.996 226.067C169.639 226.726 171.254 227.068 175.391 227.738C182.319 228.852 184.784 229.284 190.182 230.432C195.041 231.456 199.816 232.308 205.142 233.149C208.418 233.666 211.7 234.154 214.989 234.616L218.035 235.059C233.165 237.31 240.334 239.345 247.134 244.199C249.623 246.083 251.934 248.112 254.048 250.27C254.53 250.747 260.381 256.523 262.236 258.307C274.137 269.721 282.992 275.041 291.676 274.029C296.068 273.518 300.219 271.255 304.186 267.015C307.373 263.605 310.731 260.888 314.273 258.785C318.676 256.163 322.741 254.597 327.398 253.736C327.228 254.16 327.059 254.585 326.891 255.011ZM388.72 216.308C388.236 216.335 387.752 216.364 387.27 216.394C384.155 209.527 386.078 205.95 392.547 205.4C398.058 204.922 405.779 206.446 419.578 210.186L422.241 210.913C428.567 212.647 432.267 213.648 435.018 214.335C433.905 214.455 432.781 214.562 431.649 214.659C429.233 214.021 426.126 213.173 421.788 211.982L419.125 211.266C405.552 207.583 397.916 206.082 392.703 206.525C387.236 207 385.671 209.926 388.72 216.308ZM26.9601 149.835C26.8036 149.269 26.6474 148.703 26.4911 148.138C26.4536 148.002 26.4161 147.866 26.3785 147.73C27.5991 148.766 29.6644 150.417 33.2229 153.277C35.348 154.982 37.7281 157.244 40.8307 160.461C41.8931 161.56 44.7125 164.55 46.8446 166.811C48.067 168.108 49.0639 169.165 49.3734 169.488C54.7288 175.126 58.7237 178.958 62.6626 182.061C69.7177 187.609 75.6253 189.848 80.6546 188.382C85.854 186.858 86.9166 183.755 84.65 178.264C83.2895 175.223 81.6413 172.27 79.7198 169.431C79.0959 168.456 77.2716 165.703 75.6045 163.187C74.3565 161.304 73.1961 159.553 72.693 158.779C69.6751 154.243 66.9883 149.571 64.6457 144.785C62.5547 140.535 60.2677 136.348 57.7889 132.235C57.271 131.36 56.1046 129.41 54.7714 127.181C52.5692 123.499 49.9126 119.056 48.9768 117.456C46.0017 112.442 43.6216 108.248 41.4823 104.212C31.1403 84.7269 27.4568 70.8807 32.0611 61.3881L35.0363 55.2153C36.283 52.6007 37.3313 50.4747 38.4081 48.3717C40.9456 43.3133 43.7823 38.3552 46.9085 33.5135C60.5517 12.6643 78.2606 -0.988803 103.393 -6.03626C113.72 -8.10727 123.06 -9.37421 131.65 -9.87864C133.025 -9.56629 134.401 -9.2512 135.779 -8.93607C135.792 -8.93299 135.805 -8.93024 135.818 -8.92716C126.212 -8.62751 115.643 -7.31385 103.733 -4.92225C79.0537 0.0228237 61.6282 13.4488 48.1694 34.0365C45.1942 38.5837 42.5024 43.3583 39.7114 48.8036C38.6489 50.8953 37.6005 53.0099 36.3397 55.6246L33.3929 61.7974C28.9727 70.926 32.5712 84.5564 42.7857 103.769C44.9108 107.77 47.305 111.965 50.2521 116.967L59.0638 131.746C62.2091 137.1 64.3766 141.022 65.9775 144.376C68.2992 149.123 70.9624 153.757 73.9535 158.256C74.4158 158.962 75.4284 160.492 76.5555 162.194C78.2968 164.825 80.3095 167.866 80.9808 168.908C82.9361 171.794 84.6125 174.797 85.9957 177.889C88.475 183.914 87.2001 187.688 81.1364 189.45C75.4414 191.11 69.0942 188.7 61.6708 182.857C57.6754 179.731 53.6523 175.854 48.2403 170.181C48.0267 169.956 47.4875 169.383 46.7737 168.624C44.6426 166.361 40.953 162.441 39.7114 161.155C37.3999 158.674 34.9018 156.309 32.2311 154.073C29.9234 152.221 28.2214 150.859 26.9601 149.835ZM473.282 197.793C473.009 198.118 472.731 198.439 472.443 198.759C472.198 198.693 471.948 198.629 471.698 198.568C467.283 197.57 462.8 196.784 458.268 196.215L451.794 195.294C439.185 193.452 432.243 191.883 427.866 189.337C421.987 185.926 422.51 181.152 430.331 174.888C435.714 170.568 441.069 168.726 446.85 168.976C450.618 169.147 454.514 170.17 459.147 172.08C461.294 172.976 463.401 173.931 465.467 174.945L472.026 178.173C475.19 179.715 478.113 181.045 480.874 182.175C480.786 182.565 480.694 182.954 480.596 183.341C477.692 182.166 474.621 180.773 471.29 179.151L464.73 175.922C462.693 174.921 460.613 173.977 458.495 173.092C454.033 171.25 450.307 170.272 446.765 170.113C441.409 169.886 436.437 171.591 431.323 175.683C424.069 181.515 423.63 185.46 428.702 188.416C432.838 190.826 439.667 192.372 452.035 194.168C452.984 194.316 455.454 194.665 457.054 194.892C457.915 195.014 458.525 195.1 458.509 195.1C465.124 196.044 468.895 196.692 472.11 197.488C472.508 197.585 472.897 197.687 473.282 197.793ZM481.773 164.877C481.829 165.621 481.879 166.363 481.916 167.104C481.203 166.24 480.434 165.269 479.577 164.168C478.401 162.611 477.08 161.129 475.621 159.734C470.011 154.493 466.838 152.254 462.292 150.958C456.597 149.332 449.485 149.901 439.596 153.072C435.666 154.383 431.847 155.898 428.163 157.608L425.755 158.665C423.441 159.736 421.078 160.738 418.671 161.666C403.498 167.532 391.895 165.952 376.481 152.936C365.253 143.484 355.04 133.289 345.951 122.458C343.999 120.153 340.034 115.2 336.306 110.543C332.754 106.107 329.417 101.939 328.242 100.586C326.258 98.3233 323.566 95.663 319.316 91.7526C319.316 91.7752 310.263 83.5335 307.557 80.9869C301.522 75.3367 296.932 70.6532 293.178 66.1514C288.715 60.7857 285.697 55.9541 284.224 51.5207C279.393 36.992 278.302 33.7864 275.766 26.772C270.609 12.5052 265.99 1.80758 261.599 -5.21775C259.974 -7.95024 258.651 -10.7916 257.646 -13.7097C256.714 -16.1446 255.888 -18.2108 255.086 -20.0272C255.515 -20.1835 255.945 -20.3388 256.375 -20.4931C257.196 -18.6393 258.04 -16.5322 258.992 -14.0509C259.975 -11.1878 261.269 -8.39936 262.86 -5.71806C267.28 1.37566 271.927 12.13 277.112 26.4538C280.065 34.6849 282.885 42.9466 285.57 51.2365C287.001 55.5221 289.962 60.2514 294.339 65.5147C298.725 70.6456 303.489 75.5618 308.606 80.2364C311.326 82.783 320.364 91.0134 320.364 91.0134C323.561 93.8583 326.574 96.833 329.389 99.9263C330.607 101.323 334.085 105.673 337.732 110.234C341.384 114.801 345.206 119.58 347.098 121.821C356.145 132.604 366.31 142.754 377.487 152.163C392.476 164.815 403.413 166.293 418.048 160.655C420.431 159.733 422.77 158.739 425.061 157.676L427.469 156.608C431.199 154.88 435.065 153.35 439.044 152.027C449.244 148.752 456.696 148.161 462.746 149.878C467.603 151.265 470.919 153.606 476.687 158.995C478.039 160.272 479.202 161.594 481.773 164.877ZM466.519 99.8218C467.2 101.278 467.862 102.737 468.501 104.201C467.862 106.886 467.098 109.06 466.129 110.919C457.844 126.88 428.702 150.264 413.826 150.264C406.261 150.264 400.325 148.286 393.807 144.046C391.514 142.553 384.963 137.478 380.056 133.676C377.565 131.747 375.498 130.145 374.625 129.506C367.584 124.368 361.11 117.956 353.856 109.407C352.674 108.009 349.905 104.596 346.945 100.948C343.168 96.2918 339.079 91.2516 337.578 89.5242C335.266 86.9556 332.693 84.5451 329.885 82.3171C327.76 80.5777 319.784 74.4048 319.543 74.2227C309.201 66.0603 303.166 59.7851 299.171 51.7822C297.272 47.9625 295.218 42.5398 291.549 31.9445C289.996 27.4816 288.447 23.0176 286.902 18.5529C285.22 13.7367 283.472 8.93532 281.66 4.14971C277.303 -7.27949 273.084 -16.8308 268.847 -24.5035C269.745 -24.753 270.647 -24.9939 271.554 -25.2248C275.813 -17.4826 280.024 -7.91966 284.366 3.49028C286.183 8.28725 287.935 13.1 289.621 17.9279C291.193 22.3943 292.742 26.8655 294.269 31.3422C297.924 41.8464 299.95 47.2233 301.805 50.941C305.616 58.5917 311.439 64.6395 321.526 72.597C321.568 72.6311 321.917 72.9015 322.465 73.3276C324.683 75.0502 330.17 79.3128 331.897 80.7254C334.819 83.0442 337.497 85.554 339.901 88.2284C341.441 89.9915 345.609 95.131 349.417 99.827C352.336 103.427 355.044 106.766 356.194 108.123C363.334 116.535 369.681 122.833 376.524 127.824C377.491 128.526 379.796 130.31 382.507 132.407C387.338 136.145 393.46 140.881 395.593 142.272C401.628 146.217 406.969 147.991 413.826 147.991C427.285 147.991 455.619 125.254 463.526 110.044C464.828 107.537 465.764 104.307 466.519 99.8218ZM412.329 -7.9121C412.714 -7.63069 413.092 -7.34651 413.465 -7.05959C412.718 -5.34764 412.192 -3.5725 411.899 -1.76198C410.582 6.42311 413.557 14.7106 420.229 25.4195C420.925 26.5277 422.673 29.2282 424.048 31.3511C424.859 32.6033 425.54 33.6544 425.798 34.0592C426.809 35.6605 427.896 37.2301 429.056 38.7655L432.824 43.7676C442.628 56.9774 445.83 66.9585 441.438 81.0663C440.248 84.8406 439.455 88.16 437.698 95.9588C434.312 111.021 432.385 117.217 428.546 122.481C423.347 129.563 415.767 130.961 404.957 125.755C395.483 121.178 386.763 115.662 379.003 109.339C375.245 106.292 371.626 103.137 368.151 99.8806C368.175 99.9077 367.318 99.1098 366.093 97.97C363.71 95.7513 359.935 92.2374 358.56 90.9908C355.736 88.4016 352.743 85.935 349.592 83.6015C337.606 74.8481 330.664 69.0732 323.283 60.7744C313.224 49.4744 305.773 36.4463 301.211 20.7813C294.522 -2.2231 289.77 -17.3988 285.627 -27.8851C286.102 -27.9411 286.579 -27.994 287.057 -28.0432C291.202 -17.5132 295.944 -2.35469 302.599 20.5312C307.104 36.0484 314.485 48.9287 324.445 60.115C331.755 68.3227 338.626 74.0636 350.555 82.7603C353.74 85.1189 356.767 87.6119 359.622 90.2293C361.663 92.0769 368.897 98.8459 369.204 99.1329L369.213 99.1418C373.237 102.859 376.524 105.735 380.009 108.532C387.689 114.782 396.319 120.232 405.694 124.754C415.838 129.643 422.539 128.415 427.313 121.878C431.039 116.796 432.966 110.646 436.366 95.4585C437.377 90.5293 438.605 85.6303 440.049 80.7708C444.342 67.0039 441.239 57.3069 431.606 44.3245L427.851 39.3224C426.435 37.4356 425.401 35.9577 424.522 34.5478C424.251 34.118 423.491 32.9414 422.604 31.569C421.263 29.4956 419.634 26.9754 418.969 25.9082C412.168 15.0061 409.136 6.53682 410.496 -1.93242C410.827 -3.98143 411.443 -5.98714 412.329 -7.9121ZM393.805 -17.7448C394.248 -17.5706 394.688 -17.394 395.127 -17.215C393.423 -9.33504 394.098 1.01243 397.519 12.5849C399.597 19.9817 402.587 27.1943 406.445 34.1159C409.766 39.93 420.019 53.2752 419.774 52.891C424.92 60.5235 425.638 67.6283 421.604 81.0663C411.488 114.659 409.392 115.66 383.621 98.4144C353.969 78.5881 318.197 44.8476 318.197 34.3207C318.197 25.2783 307.285 -8.61516 298.6 -28.6905C299.092 -28.7081 299.585 -28.7249 300.079 -28.7414C308.795 -8.50142 319.614 25.1872 319.614 34.3207C319.614 44.3472 355.245 77.963 384.528 97.5501C409.349 114.148 410.326 113.682 420.229 80.7934C424.197 67.6066 423.488 60.7857 418.529 53.4078C419.026 54.1693 408.57 40.5502 405.156 34.5822C401.642 28.4321 398.653 21.395 396.131 12.8574C392.634 1.00795 391.96 -9.623 393.805 -17.7448ZM309.944 -28.9795C312.745 -22.1947 315.635 -13.8726 318.806 -3.76253C319.566 -1.32936 321.278 4.28508 322.853 9.45451C324.244 14.0181 325.529 18.2351 325.961 19.6103C328.582 28.0228 330.551 33.6953 332.407 37.9129C334.461 42.5738 336.501 46.03 338.683 48.6446C341.445 51.9413 343.925 53.5783 348.685 55.7723C354.536 58.4553 356.208 59.3645 359.494 62.0022C361.435 63.5591 362.176 64.2065 366.803 68.2499L367.329 68.7093L369.653 70.7329C375.149 75.4848 378.889 78.2699 382.36 79.9182C386.88 82.0669 390.535 81.9078 393.156 78.9747C402.096 68.9251 403.951 61.9111 398.922 47.8034C396.669 41.4598 393.439 35.1732 388.197 26.3174C388.396 26.6586 382.715 17.1547 381.298 14.6879C379.344 11.4108 377.66 8.03468 376.255 4.58162C374.781 0.727919 374.441 -1.88704 374.356 -7.36644C374.328 -7.87807 374.328 -8.11656 374.328 -8.4121C374.189 -14.9192 373.159 -18.9967 369.388 -24.6705C368.772 -24.7908 368.154 -24.9083 367.535 -25.0227C367.644 -24.8609 367.755 -24.6973 367.867 -24.5324C371.749 -18.8255 372.784 -14.8921 372.925 -8.38939L372.925 -7.35509C373.024 -1.7733 373.364 0.932387 374.908 4.9225C376.329 8.42229 378.033 11.8437 380.009 15.1652C381.425 17.6437 387.121 27.1473 386.922 26.8064C392.122 35.6051 395.338 41.8577 397.562 48.1102C402.464 61.8771 400.707 68.5389 392.008 78.3152C389.883 80.6914 387.035 80.8165 383.083 78.9406C379.768 77.3717 376.099 74.6206 370.687 69.9597L368.377 67.9475L368.12 67.7217C363.238 63.4461 362.491 62.7928 360.486 61.195C357.1 58.4666 355.344 57.5117 349.394 54.7834C344.803 52.6687 342.48 51.1341 339.859 48.0078C337.748 45.4843 335.75 42.1078 333.739 37.5264C331.911 33.3544 329.942 27.7156 327.335 19.3374C326.941 18.0842 325.842 14.4724 324.599 10.3881C322.933 4.91255 321.008 -1.41148 320.181 -4.03538C317.055 -14.0021 314.204 -22.2411 311.436 -28.9991C310.938 -28.9933 310.441 -28.9867 309.944 -28.9795ZM167.528 66.8221C162.74 64.5484 157.98 63.8663 147.269 63.8663C137.267 63.8663 123.922 68.9364 113.735 76.3827C102.628 84.5111 97.3014 93.8669 100.815 101.768C107.827 117.524 109.273 119.957 117.745 130.415C118.816 131.736 121.198 134.422 123.482 136.998C125.759 139.565 127.939 142.024 128.625 142.909C131.714 146.888 133.102 150.344 133.102 154.812C133.102 164.85 135.439 167.737 146.561 172.853C149.989 174.422 150.131 175.57 148.714 181.299C147.028 188.086 147.397 192.645 151.718 198.579C165.162 217.086 186.357 229.841 212.439 229.841C224.792 229.841 235.843 233.434 251.002 241.039C252.929 241.994 259.516 245.393 259.162 245.211C262.307 246.814 264.574 247.917 266.741 248.883C272.267 251.35 276.56 252.578 280.442 252.578C284.89 252.578 288.007 250.804 290.132 247.485C291.676 245.109 292.469 242.721 293.872 237.219L294.042 236.537C296.238 227.92 298.065 224.419 302.273 222.918C309.073 220.497 309.668 210.083 305.56 194.93C302.018 181.879 295.274 166.964 288.758 157.665C276.361 139.976 240.73 118.433 225.189 118.433C218.205 118.433 213.926 115.091 209.988 108.213C209.612 107.561 208.788 106.013 208.037 104.602C207.4 103.406 206.816 102.309 206.602 101.938C206.092 101.029 205.624 100.29 205.157 99.6648C204.448 98.7212 203.853 97.7436 203.031 96.2203C198.101 87.2051 194.786 83.374 183.538 76.5989C183.084 76.325 181.983 75.6323 180.553 74.732C176.4 72.117 169.467 67.7523 167.528 66.8221ZM115.648 78.0651C125.337 70.9724 138.057 66.1414 147.266 66.1401C157.515 66.1404 161.835 66.7548 166.098 68.7887C167.831 69.612 174.297 73.6843 178.465 76.3085C180.052 77.3081 181.306 78.0977 181.838 78.4176C192.633 84.9203 195.678 88.4445 200.425 97.1409C201.303 98.7326 201.94 99.7899 202.72 100.836C203.131 101.381 203.556 102.041 204.038 102.882C204.209 103.19 204.677 104.069 205.221 105.091C206.022 106.597 206.987 108.412 207.409 109.157C211.758 116.762 216.83 120.707 225.189 120.707C239.555 120.707 274.35 141.749 286.292 158.779C301.112 179.924 311.227 217.246 301.112 220.849C295.7 222.782 293.673 226.681 291.265 236.083L291.095 236.776C288.474 247.041 286.377 250.304 280.442 250.304C277.154 250.304 273.259 249.19 268.116 246.894C266.019 245.961 263.78 244.87 260.678 243.29L252.503 239.106C236.934 231.297 225.472 227.568 212.439 227.568C187.518 227.568 167.146 215.313 154.155 197.442C150.244 192.065 149.933 188.041 151.491 181.754C152.426 177.98 152.554 177.298 152.355 175.82C152.058 173.728 150.684 172.125 147.977 170.875C137.678 166.157 135.936 163.997 135.936 154.812C135.936 149.889 134.377 146.024 131.034 141.704C130.295 140.751 128.001 138.168 125.66 135.529C123.42 133.006 121.136 130.433 120.125 129.188C111.766 118.877 110.42 116.603 103.478 100.995C100.432 94.1624 105.277 85.6478 115.648 78.0651ZM112.928 105.053C113.395 105.679 115.393 108.236 115.535 108.407L115.52 108.407C118.334 112.025 120.752 115.833 122.745 119.786C123.823 121.878 124.942 123.754 126.117 125.459C128.029 128.279 130.412 130.876 133.201 133.178C134.731 134.429 139.435 137.748 139.18 137.555C142.636 140.147 143.94 142.375 143.94 146.854C143.94 153.709 146.107 157.051 151.775 160.871C151.945 160.989 152.581 161.407 153.339 161.904C154.41 162.607 155.721 163.468 156.294 163.861C158.022 165.035 159.632 166.316 161.111 167.692C161.847 168.374 162.471 169.067 162.995 169.761C164.992 172.398 165.517 174.592 165.899 179.992C166.508 188.507 167.401 192.997 170.9 200.489C173.875 206.843 178.976 211.016 186.668 213.812C192.874 216.074 199.759 217.302 213.09 218.917C217.299 219.395 221.502 219.907 225.699 220.451C230.729 221.088 235.106 221.725 239.427 222.441C242.871 223.018 248.961 224.211 254.73 225.341C261.11 226.591 267.098 227.764 268.682 227.943C275.157 228.67 278.571 227.397 281.872 222.827C283.285 220.761 284.516 218.619 285.556 216.416C288.729 210.049 290.004 204.524 289.65 198.909C289.14 191.121 286.873 185.801 277.055 167.101C267.181 148.275 241.099 134.804 205.78 125.857C199.461 124.254 195.268 121.458 192.406 117.331C190.182 114.125 189.063 111.01 187.235 104.144C187.134 103.761 187.047 103.433 186.972 103.147C186.614 101.794 186.506 101.383 186.272 100.586C183.282 89.9565 179.372 83.897 170.532 79.3045C148.091 67.652 127.024 72.8472 115.69 89.7403C111.129 96.5385 110.095 99.3693 111.27 102.291C111.596 103.121 112.12 103.962 112.928 105.053ZM134.207 132.382C131.508 130.155 129.2 127.642 127.35 124.913C126.203 123.242 125.112 121.401 124.049 119.354C122.028 115.342 119.577 111.477 116.725 107.804C116.706 107.78 116.654 107.713 116.577 107.616C116.079 106.98 114.539 105.015 114.146 104.473C113.381 103.45 112.899 102.677 112.616 101.938C111.61 99.4147 112.545 96.8227 116.937 90.286C127.903 73.9499 148.034 68.9822 169.767 80.2595C178.225 84.6475 181.965 90.4678 184.883 100.836C184.93 100.999 184.971 101.147 185.012 101.29C185.209 101.983 185.377 102.574 185.847 104.382C187.703 111.351 188.864 114.546 191.174 117.876C194.205 122.253 198.682 125.243 205.341 126.937C240.319 135.793 266.076 149.105 275.752 167.532C285.485 186.097 287.738 191.36 288.219 198.966C288.573 204.411 287.341 209.777 284.252 215.983C282.878 218.735 281.731 220.724 280.64 222.259C277.636 226.42 274.789 227.488 268.881 226.817C267.37 226.647 261.577 225.511 255.321 224.285C249.488 223.141 243.252 221.919 239.71 221.327C235.375 220.599 230.97 219.974 225.926 219.326L219.451 218.53L213.303 217.791C200.099 216.188 193.298 214.972 187.249 212.778C179.882 210.106 175.066 206.15 172.232 200.08C168.789 192.724 167.911 188.336 167.316 179.935C166.905 174.342 166.353 172.012 164.213 169.169C163.647 168.419 162.967 167.68 162.187 166.941C160.66 165.524 158.998 164.205 157.215 162.997C156.426 162.454 154.277 161.05 153.23 160.366C152.959 160.189 152.763 160.06 152.681 160.007C147.326 156.392 145.356 153.356 145.356 146.854C145.356 142.045 143.883 139.521 140.157 136.725C138.13 135.316 136.146 133.868 134.207 132.382ZM182.432 136.19C172.331 143.136 169.639 154.744 173.705 173.103C174.513 176.798 174.782 179.333 175.165 185.392C175.646 193.122 176.326 196.215 178.877 199.409C182.092 203.41 188.071 206.014 198.342 207.662C203.768 208.537 208.741 209.424 218.375 211.232L219.097 211.368C236.48 214.631 243.607 215.859 251.653 216.745C262.406 217.928 269.731 217.655 273.939 215.54C285.768 209.617 282.793 185.346 268.484 169.261C255.762 154.982 246.369 148.377 232.797 142.932C212.779 134.906 190.834 130.415 182.432 136.19ZM176.581 185.335C176.199 179.219 175.929 176.65 175.094 172.898C171.113 154.903 173.719 143.694 183.368 137.055C191.088 131.734 212.736 136.156 232.173 143.955C245.519 149.309 254.742 155.789 267.322 169.92C281.235 185.551 284.111 209.106 273.202 214.585C269.362 216.506 262.279 216.779 251.852 215.609C243.861 214.733 236.749 213.517 219.409 210.266L218.7 210.129C209.039 208.321 204.066 207.423 198.626 206.548C188.694 204.957 183.041 202.49 180.067 198.795C177.686 195.828 177.049 192.861 176.581 185.335ZM194.517 142.022C186.555 142.693 182.191 146.718 182.191 154.812C182.191 157.04 182.135 158.802 181.979 163.201L181.838 167.624C181.597 176.65 182.021 182.493 183.721 187.495C185.875 193.895 190.054 198.011 196.855 199.693L198.555 200.114C203.325 201.319 208.114 202.475 212.92 203.581C217.326 204.604 221.435 205.502 225.331 206.275C245.703 210.311 258.78 210.834 262.817 206.298C269.448 198.852 268.031 184.062 261.415 176.093C253.056 166.043 229.17 148.082 217.099 145.171C206.049 142.511 200.212 141.545 194.517 142.022ZM183.396 163.235C183.551 158.824 183.608 157.051 183.608 154.812C183.608 147.297 187.433 143.762 194.658 143.159C200.113 142.693 205.837 143.648 216.703 146.263C228.377 149.071 252.05 166.885 260.239 176.729C266.543 184.334 267.918 198.613 261.656 205.627C258.156 209.572 245.335 209.072 225.671 205.172C221.789 204.4 217.695 203.513 213.303 202.49C210.569 201.864 207.778 201.194 204.661 200.42C202.202 199.81 199.742 199.204 197.279 198.602C190.989 197.056 187.122 193.247 185.096 187.199C183.438 182.334 183.013 176.57 183.254 167.646L183.396 163.235ZM195.508 165.293C194.286 168.451 193.619 171.73 193.525 175.035C194.019 178.456 195.456 181.746 197.733 184.664C201.686 189.689 207.905 193.077 216.802 194.032C237.699 196.26 244.881 191.94 240.235 180.776C234.185 166.191 223.404 155.38 209.818 155.38C202.635 155.38 198.03 159.132 195.508 165.293ZM198.923 184.062C196.94 181.521 195.624 178.681 195.055 175.718C194.985 175.365 194.942 175.115 194.942 174.967C194.999 171.801 195.644 168.659 196.855 165.645C199.192 159.904 203.358 156.517 209.818 156.517C222.568 156.517 233.01 166.975 238.903 181.14C243.139 191.349 236.99 195.043 217 192.895C208.529 191.997 202.663 188.814 198.923 184.062ZM166.508 114.159C175.802 100.756 175.717 86.8755 161.833 83.7833L161.848 83.772C143.047 79.5887 129.348 81.6577 124.163 92.0708C121.215 97.9594 121.74 102.609 125.183 107.986C126.184 109.51 127.271 110.997 128.441 112.442L130.283 114.75C131.641 116.407 132.916 118.106 134.108 119.843C141.035 129.847 158.518 125.721 166.508 114.159ZM129.631 111.829C128.487 110.413 127.423 108.956 126.443 107.463L126.457 107.463C123.171 102.37 122.703 98.0618 125.466 92.4914C130.325 82.7717 143.274 80.8165 161.451 84.8746C174.102 87.6941 174.187 100.756 165.276 113.613C157.739 124.516 141.588 128.324 135.355 119.298C134.746 118.411 134.094 117.524 133.386 116.592C132.907 115.959 132.409 115.325 131.813 114.569C131.703 114.429 131.59 114.285 131.473 114.136L129.631 111.829ZM157.767 94.7197C156.407 89.9451 151.732 87.1711 143.656 87.1711C126.996 87.1711 124.304 103.2 137.14 110.93C145.583 116.012 149.253 115.944 152.625 111.317C152.993 110.805 153.389 110.226 153.871 109.464L155.203 107.316C157.697 103.314 158.844 98.4711 157.767 94.7197ZM130.679 96.6296C131.543 91.5722 136.145 88.3098 143.65 88.3081C151.097 88.3095 155.175 90.7306 156.393 94.9696C157.385 98.4484 156.294 103.018 153.928 106.815L152.61 108.941C152.128 109.691 151.76 110.248 151.406 110.749C148.53 114.682 145.838 114.739 137.99 110.021C132.719 106.849 129.872 101.438 130.679 96.6296ZM338.47 10.1521C339.164 13.8467 339.448 16.0294 339.448 18.3938C339.448 19.69 339.434 20.804 339.391 22.6795C339.179 32.2404 339.703 34.9571 343.542 38.7998C344.066 39.3341 344.662 39.8681 345.327 40.3911C345.362 40.4207 345.569 40.5997 345.913 40.8969C348.23 42.8999 356.754 50.2699 360.628 53.4079C362.753 55.1242 364.779 56.6932 366.72 58.1254C373.194 62.9227 378.507 66.0036 382.488 66.9926C387.574 68.2774 390.45 66.1174 390.45 60.4559C390.45 49.429 387.404 43.5631 379.074 34.2523L378.266 33.3431C374.144 28.7276 372.217 26.1923 370.574 22.7365L369.355 20.1446L369.213 19.8378C365.147 11.175 363.121 7.43507 360.146 3.75178C356.151 -1.19362 351.561 -3.77385 345.823 -3.77385C341.091 -3.77385 338.555 -2.33031 337.762 0.53444C337.195 2.60341 337.38 4.21773 338.47 10.1521ZM340.808 22.7025C340.851 20.8153 340.864 19.7013 340.864 18.3938C340.864 15.961 340.581 13.733 339.873 9.98131C338.81 4.2404 338.64 2.64909 339.164 0.77327C339.788 -1.5345 341.729 -2.63716 345.823 -2.63716C351.023 -2.63716 355.202 -0.272721 358.956 4.36549C361.861 7.96938 363.858 11.664 367.882 20.247L368.023 20.5312L369.242 23.1458C370.942 26.7153 372.925 29.3186 377.119 34.0138L377.926 34.9231C386.101 44.0404 389.033 49.7019 389.033 60.4559C389.033 65.4013 386.993 66.9359 382.913 65.9126C379.187 64.9807 374.016 61.9795 367.683 57.2956C365.629 55.7702 363.617 54.2085 361.648 52.612C358.359 49.9562 351.681 44.2057 348.329 41.3186C347.16 40.3124 346.396 39.654 346.319 39.5953C345.696 39.0953 345.143 38.595 344.647 38.0947C341.091 34.5252 340.61 32.0016 340.808 22.7025Z" fill="url(#paint0_radial_1098_19420)"/>
<defs>
<radialGradient id="paint0_radial_1098_19420" cx="0" cy="0" r="1" gradientUnits="userSpaceOnUse" gradientTransform="translate(221.889 119.144) rotate(2.73763) scale(561.153 389.493)">
<stop stop-color="#E37B7B"/>
<stop offset="0.317708" stop-color="#ECA5A5" stop-opacity="0.686384"/>
<stop offset="0.671875" stop-color="#F6D3D3" stop-opacity="0.330093"/>
<stop offset="0.911458" stop-color="white" stop-opacity="0"/>
</radialGradient>
</defs>
</svg>
