<svg width="679" height="820" viewBox="0 0 679 820" fill="none" xmlns="http://www.w3.org/2000/svg">
<path fill-rule="evenodd" clip-rule="evenodd" d="M678.092 506.778C678.033 505.624 677.972 504.473 677.908 503.325C653.734 516.607 627.901 536.526 586.071 571.559L580.447 576.269C552.16 599.941 536.214 612.572 518.448 624.652C505.48 633.491 492.114 641.932 475.705 651.78C471.834 654.118 461.305 660.372 451.717 666.066C444.504 670.349 437.825 674.316 434.913 676.063C396.569 699.184 373.179 716.249 352.767 738.025C344.364 747.016 337.218 756.099 331.131 765.519C321.838 779.932 315.548 793.37 309.461 811.756C310.658 811.607 311.851 811.461 313.04 811.321C318.908 793.831 325.022 780.907 333.943 767.109C340.168 757.524 347.297 748.467 355.248 740.043C375.396 718.512 398.587 701.569 436.699 678.632C440.653 676.219 451.724 669.653 461.554 663.823C468.424 659.749 474.688 656.034 477.491 654.349C493.934 644.439 507.332 635.968 520.4 627.099C538.265 614.927 554.245 602.265 582.63 578.532L588.254 573.823C629.072 539.656 654.551 519.952 678.092 506.778ZM413.917 784.671C412.578 785.198 411.238 785.723 409.898 786.244C414.378 772.885 424.756 759.336 442.158 744.049C469.664 719.811 499.335 697.764 530.855 678.142C537.564 673.929 551.979 665.368 565.531 657.319C578.441 649.652 590.569 642.45 594.507 639.913C601.091 635.631 608.832 629.821 620.213 620.646C620.147 620.646 644.132 601.103 651.543 595.261C661.076 587.708 669.663 581.203 677.751 575.49C677.649 576.847 677.54 578.202 677.424 579.556C669.31 585.296 661.406 591.289 653.726 597.525C646.315 603.397 622.363 622.909 622.363 622.909C614.085 629.81 605.427 636.312 596.426 642.39C592.359 645.019 579.701 652.528 566.426 660.402C553.136 668.285 539.229 676.534 532.707 680.62C501.328 700.149 471.79 722.094 444.408 746.221C428.473 760.224 418.628 772.589 413.917 784.671ZM507.785 751.411C503.611 752.396 499.458 753.421 495.34 754.513C496.317 753.576 497.277 752.657 498.21 751.764C503.824 746.389 508.483 741.927 510.343 740.043C525.297 724.843 543.956 710.867 568.834 695.208C572.904 692.655 582.836 686.678 593.454 680.289C607.003 672.135 621.67 663.308 626.697 660.068C634.172 655.076 641.188 649.522 647.672 643.461C652.718 638.887 670.589 621.759 671.222 621.14C670.356 625.024 669.405 628.867 668.364 632.662C662.64 638.117 655.287 645.099 652.304 647.804C645.555 654.112 638.252 659.892 630.469 665.083C625.337 668.407 610.379 677.405 596.713 685.626C586.237 691.927 576.521 697.772 572.573 700.254C548.091 715.668 529.763 729.37 515.239 744.141C513.898 745.511 511.203 748.124 507.785 751.411ZM610.488 719.003C605.563 722.064 600.435 724.769 595.144 727.19C595.615 726.815 596.086 726.44 596.558 726.066C596.48 726.118 598.802 724.268 602.119 721.625C608.575 716.48 618.801 708.331 622.429 705.361C629.965 699.266 637.143 692.804 643.933 686.002C644.604 685.321 645.268 684.648 645.927 683.982C643.773 687.264 641.489 690.454 639.068 693.545C637.143 696.005 635.145 698.337 633.08 700.55C630.321 702.97 627.509 705.339 624.646 707.655C622.036 709.794 616.051 714.573 610.488 719.003ZM283.069 815.346C288.43 798.504 290.487 787.362 289.479 778.731C287.626 762.583 273.996 759.555 247.397 771.299C237.682 775.578 227.694 779.306 217.489 782.462C197.219 788.758 177.46 792.935 157.216 795.528C158.202 796.462 159.201 797.364 160.213 798.233C179.757 795.6 198.905 791.473 218.548 785.367C228.878 782.167 238.987 778.388 248.819 774.052C273.632 763.072 284.615 765.519 286.203 779.067C287.16 787.416 285.005 798.641 279.453 815.84C280.66 815.676 281.865 815.512 283.069 815.346ZM251.38 819.043C251.506 814.077 250.043 810.615 246.57 808.427C239.27 803.814 222.879 805.639 191.175 814.942C193.066 815.513 194.979 816.028 196.911 816.491C224.34 808.726 238.847 807.248 244.717 810.966C247.16 812.502 248.241 815.155 248.064 819.302C249.168 819.221 250.274 819.135 251.38 819.043ZM140.367 770.847C195.181 761.964 262.074 736.481 318.427 706.738C375.992 676.338 504.785 580.276 533.998 541.129C568.745 494.576 604.2 458.746 653.899 426.331C653.42 425.393 652.938 424.455 652.455 423.518C602.174 456.234 566.345 492.411 531.285 539.416C502.37 578.104 373.94 673.891 316.772 704.108C260.533 733.791 193.655 759.235 139.212 767.958C139.582 768.931 139.966 769.894 140.367 770.847ZM8.92247 249.62C6.08849 256.134 3.1002 262.514 -0.000488281 268.662V275.696C5.10994 266.065 9.95471 255.768 14.368 245.199C12.5396 246.661 10.7233 248.134 8.92247 249.62ZM79.4309 191.697C77.7664 193.389 76.0747 195.051 74.3592 196.689C73.4314 199.563 72.4975 202.459 71.5943 205.259C68.3337 215.369 65.4734 224.237 64.7436 226.396C62.3442 233.545 58.928 240.664 57.4629 243.717C57.0238 244.633 56.7599 245.182 56.7513 245.258C42.0718 263.263 28.1937 281.815 15.1517 300.866L-0.000488281 323.345V329.156L17.9307 302.518C30.967 283.39 44.3711 266.401 52.4595 256.149C56.256 251.337 58.8814 248.01 59.748 246.642C62.4608 242.422 64.4128 237.712 67.8865 227.313C68.6287 225.136 71.4722 216.33 74.7165 206.284C76.2583 201.509 77.8906 196.454 79.4309 191.697ZM55.5782 562.161C54.8426 558.911 54.587 555.935 54.587 552.475C54.587 542.23 60.7736 531.373 72.849 518.62C81.4838 509.445 84.4282 506.906 112.218 483.449C129.058 469.197 138.95 460.206 147.617 450.572C178.914 415.829 189.368 391.026 206.837 313.62C217.159 267.592 228.771 251.597 256.858 236.397C258.604 235.449 263.729 232.759 267.73 230.66C269.796 229.575 271.562 228.648 272.408 228.2C278.493 224.984 284.431 221.535 290.207 217.863V217.894C304.432 208.78 316.276 202.602 330.37 196.638C332.602 195.655 334.942 194.712 337.577 193.65C338.222 193.39 338.884 193.123 339.567 192.846L354.024 187.096C374.168 179.065 393.767 169.914 412.714 159.694C442.646 143.528 473.418 128.728 504.917 115.348C516.786 110.278 560.814 92.0786 572.281 87.3388C574.302 86.5032 575.312 86.0859 574.955 86.2326C591.237 79.4644 605.286 74.7745 618.374 72.3171C619.127 73.2145 619.871 74.12 620.606 75.0335C607.32 77.3551 593.053 82.0871 576.344 89.0462C578.66 88.0676 520.235 112.167 506.307 118.1C505.538 118.435 504.776 118.766 504.019 119.095C499.238 121.174 494.684 123.154 490.228 125.135C464.407 136.587 439.099 149.003 414.368 162.354C395.303 172.633 375.583 181.835 355.314 189.91L340.857 195.66C337.416 197.036 334.505 198.229 331.726 199.421C317.83 205.265 304.551 212.289 292.059 220.402C286.219 224.127 280.215 227.626 274.062 230.892L258.513 239.057C231.285 253.799 220.235 269.06 210.046 314.292C192.511 392.127 181.892 417.358 150.165 452.56C141.365 462.316 131.373 471.399 114.435 485.712C86.7771 509.078 83.8658 511.647 75.3303 520.638C63.7511 532.902 57.8953 543.148 57.8953 552.506C57.8953 556.368 58.2501 559.622 59.3242 563.487C58.0823 563.035 56.8333 562.594 55.5782 562.161ZM648.911 133.504C636.707 126.778 625.953 122.81 618.658 122.81C582.564 122.81 533.005 139.876 498.532 165.963C486.556 175.016 473.323 180.185 455.193 183.977C450.594 184.956 447.551 185.506 438.453 187.096C410.696 191.929 398.554 195.66 385.983 205.752C375.429 214.224 365.504 218.138 345.257 223.246C307.608 232.727 292.39 238.599 266.916 257.713C230.59 284.994 230.425 285.147 226.389 292.64C224.305 296.493 223.213 300.132 221.228 309.369C217.986 324.263 216.728 329.523 213.42 341.083C210.443 351.635 207.928 362.033 205.48 373.594C204.554 377.967 203.66 382.34 202.569 388.059C201.708 392.518 200.826 396.973 199.922 401.424C193.471 433.598 187.681 448.645 174.117 462.805C168.746 468.055 162.962 472.931 156.815 477.393L156.786 477.415C155.208 478.596 138.552 491.06 133.358 495.071C99.2826 521.464 83.2703 541.19 86.4793 561.406C88.1004 571.743 95.1803 581.407 108.182 590.429C117.015 596.402 124.861 603.531 131.473 611.593C146.195 629.974 149.073 645.51 147.849 674.319C147.022 694.076 147.816 700.499 154.3 706.493C176.003 726.556 260.365 711.662 298.874 679.029C307.807 671.445 320.643 662.606 342.048 648.966C346.733 645.965 361.546 636.609 367.74 632.696C369.375 631.663 370.41 631.01 370.5 630.952C380.717 624.503 390.863 617.958 400.936 611.318C449.999 578.899 482.354 552.261 500.947 525.807C513.201 508.39 535.687 471.002 547.083 452.054C550.855 445.782 553.412 441.53 553.98 440.693C564.5 425.065 573.995 415.829 586.302 410.141C599.396 404.089 615.859 395.146 632.807 384.71C632.366 383.748 631.93 382.784 631.499 381.818C614.485 392.325 597.94 401.327 584.847 407.388C571.878 413.382 561.986 423.016 551.168 439.103C550.558 439.993 547.782 444.601 543.724 451.34C532.157 470.545 510.168 507.055 498.168 524.125C479.873 550.182 447.749 576.606 399.018 608.84C389.953 614.835 380.623 620.829 368.614 628.414L340.162 646.427C318.658 660.159 305.723 669.059 296.625 676.766C259.274 708.42 176.83 723.008 156.649 704.352C151.124 699.214 150.33 693.22 151.157 674.442C152.381 644.99 149.437 628.842 134.119 609.758C127.999 602.112 120.092 594.864 110.167 587.983C97.8269 579.419 91.2433 570.458 89.7546 560.978C86.8102 542.23 102.293 523.115 135.509 497.425C140.703 493.419 157.509 480.788 158.899 479.748C165.179 475.185 171.084 470.196 176.565 464.824C190.692 450.144 196.614 434.668 203.164 402.005L204.454 395.43C205.797 388.331 207.22 381.246 208.722 374.175C211.17 362.675 213.652 352.369 216.629 341.879C219.971 330.226 221.228 324.905 224.47 309.95C226.422 301.019 227.414 297.533 229.333 293.985C233.038 287.135 233.402 286.829 269.033 260.099C294.044 241.29 308.899 235.571 346.15 226.182C366.827 220.983 377.116 216.946 388.166 208.077C400.142 198.443 411.887 194.834 439.048 190.094C448.179 188.503 451.289 187.953 455.954 186.974C474.481 183.059 488.177 177.738 500.617 168.349C534.527 142.689 583.358 125.869 618.658 125.869C625.81 125.869 636.888 130.174 649.52 137.406C649.342 136.104 649.139 134.803 648.911 133.504ZM650.105 163.805C630.368 148.98 609.375 142.92 591.066 148.959C545.213 164.098 538.133 167.217 507.696 185.506C503.853 187.818 496.037 192.96 488.542 197.89C481.069 202.807 473.915 207.513 471.338 208.994C459.759 215.661 449.701 218.658 436.699 218.658C407.487 218.658 399.084 223.705 384.196 247.713C379.631 255.114 376.289 255.419 359.615 252.361C339.865 248.722 326.598 249.517 309.329 258.845C255.469 287.868 218.35 333.621 218.35 389.925C218.35 416.594 207.895 440.449 185.762 473.173C182.983 477.332 173.092 491.553 173.621 490.789C168.956 497.578 165.747 502.472 162.935 507.151C155.756 519.078 152.183 528.345 152.183 536.725C152.183 546.328 157.344 553.057 167.004 557.644C173.919 560.978 180.866 562.69 196.878 565.718L198.863 566.085C223.941 570.825 234.13 574.771 238.497 583.854C245.544 598.534 275.848 599.818 319.948 590.949C357.928 583.303 401.333 568.746 428.396 554.677C479.873 527.917 542.566 451 542.566 417.45C542.566 402.372 552.293 393.136 572.308 384.634C574.207 383.823 578.713 382.044 582.82 380.422C586.3 379.048 589.493 377.788 590.57 377.325C593.217 376.224 595.367 375.214 597.187 374.205C599.933 372.676 602.778 371.392 607.211 369.618C613.511 367.062 618.941 364.707 623.829 362.268C623.164 360.266 622.536 358.252 621.949 356.225C616.908 358.809 611.25 361.27 604.531 363.99C599.9 365.887 596.823 367.263 593.779 368.945C592.191 369.832 590.272 370.749 587.824 371.789C586.928 372.16 584.369 373.17 581.396 374.343C577.012 376.073 571.731 378.157 569.562 379.068C547.429 388.457 535.949 399.406 535.949 417.45C535.949 448.462 474.712 523.574 425.153 549.356C363.618 581.346 255.006 603.183 244.518 581.346C238.894 569.663 227.547 565.29 200.187 560.091L198.169 559.724C168.294 554.066 158.799 549.539 158.799 536.725C158.799 529.63 162.042 521.219 168.725 510.118C171.437 505.591 174.613 500.759 179.212 494.061L191.387 476.415C214.115 442.804 224.966 418.062 224.966 389.925C224.966 336.129 260.63 292.15 312.637 264.105C328.285 255.664 339.997 254.991 358.292 258.356C369.276 260.374 371.261 260.649 375.561 260.221C381.649 259.579 386.314 256.612 389.953 250.771C403.682 228.537 409.968 224.775 436.699 224.775C451.025 224.775 462.273 221.411 474.845 214.193C477.618 212.599 485.137 207.648 492.815 202.592C500.158 197.758 507.647 192.827 511.269 190.644C541.276 172.6 547.893 169.694 593.316 154.709C610.038 149.179 630.223 155.697 649.344 171.227C649.655 168.747 649.91 166.273 650.105 163.805ZM645.387 193.082C639.705 188.668 633.25 184.645 626.068 181.071C606.285 171.224 598.047 168.991 589.544 171.529C587.129 172.233 584.681 173.364 581.505 175.108C579.686 176.117 572.242 180.429 571.746 180.735V180.704C561.215 186.778 550.135 191.997 538.629 196.302C532.542 198.626 527.083 201.042 522.121 203.581C513.913 207.707 506.355 212.852 499.657 218.872C496.018 222.175 486.358 232.329 486.92 231.779C479.377 239.241 472.893 242.055 459.858 242.055C439.909 242.055 430.182 246.734 419.066 258.967C418.723 259.335 417.506 260.71 416.059 262.345C414.014 264.657 411.508 267.487 410.365 268.723C406.948 272.453 403.22 275.93 399.216 279.122C397.231 280.712 395.213 282.058 393.195 283.189C385.52 287.502 379.134 288.633 363.42 289.459C338.641 290.774 325.573 292.701 303.771 300.255C285.277 306.677 273.135 317.687 264.997 334.294C258.413 347.689 254.84 362.553 250.143 391.332C248.749 400.418 247.26 409.492 245.676 418.551C243.824 429.408 241.971 438.858 239.887 448.186C238.206 455.622 234.734 468.768 231.446 481.221C227.809 494.994 224.396 507.92 223.874 511.341C221.757 525.317 225.462 532.688 238.762 539.814C244.773 542.863 251.008 545.52 257.421 547.766C275.948 554.616 292.026 557.369 308.369 556.604C331.031 555.503 346.514 550.61 400.936 529.416C455.722 508.099 494.926 451.795 520.963 375.551C525.628 361.911 533.766 352.858 545.775 346.68C555.105 341.879 564.17 339.463 584.152 335.517C585.268 335.298 586.224 335.111 587.057 334.947C590.992 334.176 592.186 333.942 594.507 333.438C602.873 331.692 610.267 329.802 616.866 327.594C616.801 326.521 616.75 325.449 616.711 324.375C610.015 326.676 602.443 328.631 593.779 330.44C593.303 330.54 592.874 330.63 592.457 330.718C590.441 331.144 588.721 331.506 583.457 332.52C563.177 336.526 553.881 339.034 544.187 344.019C531.45 350.564 522.749 360.229 517.82 374.603C492.048 450.113 453.307 505.714 399.679 526.602C345.654 547.613 330.337 552.475 308.204 553.515C292.357 554.28 276.742 551.619 258.678 544.952C250.672 541.985 244.882 539.508 240.416 537.153C228.308 530.67 225.198 524.522 227.15 511.769C227.646 508.509 230.951 496.002 234.52 482.497C237.848 469.904 241.405 456.442 243.129 448.798C245.246 439.439 247.066 429.928 248.952 419.04L251.267 405.064L253.418 391.791C258.083 363.287 261.622 348.607 268.008 335.548C275.782 319.645 287.295 309.246 304.962 303.13C326.367 295.698 339.137 293.802 363.585 292.517C379.862 291.63 386.644 290.437 394.915 285.819C397.099 284.596 399.249 283.128 401.4 281.446C405.523 278.15 409.361 274.561 412.879 270.711C414.457 269.01 418.542 264.373 420.534 262.111C421.049 261.526 421.424 261.1 421.58 260.924C432.101 249.364 440.934 245.113 459.858 245.113C473.852 245.113 481.197 241.932 489.335 233.889C493.434 229.513 497.648 225.23 501.973 221.044C508.454 215.216 515.767 210.236 523.709 206.242C528.572 203.764 533.931 201.409 539.886 199.116C551.564 194.752 562.81 189.462 573.499 183.304C573.57 183.263 573.762 183.152 574.046 182.986C575.891 181.914 581.616 178.586 583.193 177.738C586.17 176.086 588.42 175.047 590.57 174.435C597.915 172.263 605.458 174.282 624.48 183.763C632.037 187.525 638.758 191.788 644.586 196.485C644.86 195.35 645.127 194.215 645.387 193.082ZM639.953 213.917C635.082 207.585 628.245 202.669 619.286 199.36C602.149 192.999 588.618 194.13 572.97 201.562C568.534 203.725 564.207 206.072 560.001 208.596L553.285 212.572C548.464 215.503 543.519 218.258 538.464 220.83C509.35 235.785 521.36 273.525 555.005 290.774C577.457 302.322 600.37 307.162 617.49 303.475C617.605 302.363 617.731 301.251 617.868 300.139C601.567 304.178 578.974 299.619 556.594 288.113C524.867 271.843 513.784 236.978 540.052 223.521C542.632 222.206 545.213 220.799 547.926 219.27C549.771 218.236 551.616 217.159 553.82 215.872C554.224 215.636 554.641 215.393 555.072 215.141L561.788 211.165C565.908 208.696 570.147 206.4 574.492 204.284V204.315C589.313 197.219 601.852 196.21 618.062 202.174C627.347 205.617 634.197 210.942 638.793 217.93C639.184 216.591 639.571 215.253 639.953 213.917ZM633.229 236.458C629.11 204.995 585.815 201 564.401 227.375C549.613 245.602 549.811 253.523 563.276 260.802C564.765 261.597 566.452 262.454 568.669 263.494L574.922 266.368C586.567 271.751 600.66 274.228 611.578 271.904C616.909 270.778 621.383 268.598 624.872 265.354C625.622 262.505 626.404 259.657 627.208 256.81C624.031 263.362 618.443 267.319 610.85 268.937C600.727 271.078 587.427 268.723 576.377 263.616L570.191 260.772C568.007 259.732 566.386 258.937 564.93 258.172C553.484 251.964 553.318 246.153 567.048 229.21C576.278 217.833 592.026 211.685 606.02 213.429C620.738 215.294 630.232 225.228 630.237 241.429C630.236 243.694 630.096 245.814 629.821 247.793C630.941 244.01 632.084 240.231 633.229 236.458ZM444.355 0.101068C443.354 1.02597 442.292 2.00643 441.166 3.0459C436.203 7.63343 429.62 12.7714 420.257 19.4691C417.062 21.7624 408.362 27.8472 401.782 32.4495C398.007 35.0896 394.93 37.242 393.989 37.9109C377.58 49.4714 366.43 58.0959 357.399 66.5981C341.254 81.8286 334.737 94.5818 339.004 105.439C343.438 116.663 352.469 118.957 368.449 114.063C377.298 111.127 385.892 107.569 394.154 103.42C396.993 102.073 405.006 98.1345 412.329 94.5347C417.809 91.8412 422.902 89.3375 425.153 88.251C438.353 81.7366 451.951 75.9363 465.879 70.8797C478.248 66.3657 490.431 61.4282 502.403 56.0774C504.946 54.9595 510.618 52.4434 517.099 49.568C527.818 44.8126 540.752 39.0748 545.411 37.0546C552.414 33.9719 558.868 31.1851 564.986 28.6097C566.11 29.2552 567.229 29.91 568.342 30.5743C561.658 33.3757 554.579 36.4225 546.834 39.807L503.826 58.8298C488.243 65.6194 476.83 70.2987 467.07 73.7545C453.256 78.7664 439.768 84.5156 426.675 90.973C424.622 91.9699 420.172 94.1553 415.22 96.5866C407.563 100.346 398.71 104.694 395.676 106.142C387.276 110.363 378.539 113.983 369.54 116.969C352.006 122.321 341.022 119.568 335.895 106.479C331.064 94.1842 338.078 80.4829 355.083 64.4572C364.181 55.8327 375.462 47.147 391.971 35.4642C392.626 35.0042 394.29 33.8427 396.493 32.3039C403.081 27.7044 414.496 19.7343 418.239 17.053C425.342 12.1435 432.119 6.8442 438.535 1.1837C440.474 0.790343 442.414 0.428529 444.355 0.101068ZM377.249 20.8704C376.953 21.1093 376.66 21.3453 376.371 21.5782C371.134 25.8005 367.149 29.0132 365.802 30.1121C358.506 36.0608 351.293 42.0964 344.165 48.2175C321.106 68.066 305.094 84.1835 295.864 97.6096C276.278 126.052 261.192 152.782 257.189 171.254C251.697 196.638 269.331 200.431 320.114 174.955C368.255 150.838 417.411 128.494 467.467 107.977C472.324 105.976 481.279 102.318 490.439 98.5749C503.118 93.3948 516.192 88.0535 519.342 86.7219C536.049 79.8406 546.801 75.1002 555.005 70.9714L561.457 67.699L568.669 64.0902C574.492 61.2154 579.851 58.7075 585.211 56.2914C589.259 54.4886 593.28 52.7834 597.278 51.1795C598.164 51.9333 599.043 52.6949 599.915 53.4644C595.531 55.2009 591.115 57.0625 586.666 59.0439C578.67 62.6049 570.793 66.3887 563.045 70.3904L556.594 73.6628C544.849 79.3708 532.876 84.6655 520.698 89.5356C518.344 90.5116 510.526 93.706 501.463 97.4089C489.511 102.292 475.395 108.06 468.79 110.791C418.825 131.271 369.757 153.573 321.702 177.646C268.934 204.131 247.694 199.544 253.947 170.643C258.049 151.681 273.235 124.706 293.052 95.958C302.48 82.2567 318.658 65.9864 341.916 45.9849C348.466 40.327 355.546 34.3938 363.618 27.8184C364.317 27.2478 365.714 26.1177 367.621 24.5786C369.726 23.7706 371.83 22.9592 373.934 22.1481C375.039 21.722 376.144 21.2959 377.249 20.8704ZM299.979 45.452C279.694 62.4274 264.76 78.5272 252.855 97.5483C238.894 119.874 227.05 153.516 215.537 199.268C212.659 210.676 209.847 222.634 206.803 236.397L202.9 254.135L199.294 270.803C193.339 298.206 190.129 311.418 186.821 320.531C164.324 383.044 129.719 449.471 97.066 477.118C80.1604 491.492 70.2685 498.741 60.3435 504.215C57.366 505.866 54.2562 507.396 50.6832 509.017C50.3442 509.173 48.4406 509.987 45.5314 511.23C35.9488 515.325 15.4561 524.083 4.03568 529.385L-0.000488281 531.281V527.825L2.58001 526.632C14.4695 521.137 36.0423 511.929 45.0991 508.064C47.4332 507.068 48.936 506.426 49.2275 506.295C52.4248 504.839 55.5591 503.268 58.6232 501.585C68.3497 496.233 78.0762 489.076 94.8163 474.886C126.94 447.666 161.314 381.576 183.711 319.553C186.92 310.622 190.129 297.472 196.051 270.222L199.691 253.523C203.532 235.143 207.745 216.83 212.328 198.596C223.908 152.537 235.818 118.651 250.01 96.0192C261.227 78.0811 275.101 62.7238 293.414 46.8739C295.603 46.407 297.791 45.9341 299.979 45.452ZM232.716 60.8922C196.515 112.151 147.22 234.901 147.22 280.284C147.22 330.257 93.2945 417.236 47.2425 446.688C40.1627 451.214 19.9818 462.346 -0.000488281 473.234V469.686V469.656C15.333 461.484 30.4562 452.979 45.3568 444.149C90.5486 415.217 143.912 329.156 143.912 280.253C143.912 235.176 191.233 116.197 227.849 62.3701C229.467 61.8631 231.089 61.3709 232.716 60.8922ZM122.711 140.497C120.989 145.305 119.204 150.321 117.346 155.565L112.086 170.367C96.4705 214.499 87.2403 238.905 76.3228 263.799C59.9796 301.08 33.5129 337.444 -0.000488281 372.034V372.064V381.148C36.325 344.601 65.0083 305.943 82.4763 266.154C93.4599 241.045 102.69 216.548 118.405 172.294L123.632 157.492C127.784 145.763 131.576 135.179 135.1 125.523C130.907 130.418 126.795 135.432 122.711 140.497ZM169.621 91.5365C171.232 90.2849 172.866 89.064 174.525 87.8762C173.269 91.1264 172.031 94.4519 170.809 97.8543C166.948 108.689 163.341 119.6 159.991 130.578C159.957 130.731 152.514 154.953 150.463 161.468C122.375 249.7 91.3095 323.406 64.0158 348.638C54.7524 357.201 47.2756 365.887 29.6091 388.274C18.3608 402.587 8.99818 413.505 -0.000488281 422.221V417.481C9.06434 408.367 18.9563 396.623 31.3625 380.872C44.6951 363.99 52.2712 355.182 61.6999 346.497C88.3982 321.785 119.397 248.202 147.286 160.55C148.659 156.254 152.429 143.98 154.795 136.277C155.966 132.465 156.793 129.773 156.815 129.722C160.818 116.755 164.126 106.693 167.666 96.8756C168.313 95.0748 168.964 93.2952 169.621 91.5365ZM490.89 325.15C470.676 303.344 436.898 297.533 383.468 306.31C372.716 308.054 365.339 308.635 347.705 309.46C325.209 310.5 316.21 311.968 306.914 317.473C295.268 324.416 287.692 337.322 282.895 359.495C280.348 371.208 277.767 381.943 272.507 402.74L272.11 404.299C262.615 441.825 259.042 457.208 256.461 474.58C253.021 497.792 253.815 513.604 259.968 522.687C277.205 548.224 347.838 541.802 394.651 510.913C436.203 483.449 455.425 463.172 471.272 433.873C494.628 390.659 507.696 343.286 490.89 325.15ZM347.871 312.519C365.67 311.693 373.146 311.112 384.064 309.307C436.435 300.713 469.055 306.341 488.376 327.168C503.859 343.836 490.989 390.567 468.294 432.528C452.712 461.337 433.854 481.247 392.732 508.405C347.242 538.438 278.693 544.646 262.747 521.097C257.156 512.809 256.362 497.517 259.77 475.008C262.317 457.759 265.857 442.406 275.319 404.972L275.716 403.443C280.976 382.585 283.59 371.85 286.137 360.106C290.769 338.667 297.948 326.465 308.7 320.042C317.335 314.904 325.97 313.528 347.871 312.519ZM473.918 351.237C471.966 334.049 460.255 324.63 436.699 324.63C430.215 324.63 425.087 324.507 412.284 324.171L399.415 323.865C373.146 323.345 356.142 324.263 341.585 327.933C322.959 332.581 310.983 341.603 306.086 356.283L304.862 359.953C301.356 370.25 297.992 380.588 294.772 390.965C291.794 400.476 289.181 409.346 286.931 417.756C275.187 461.735 273.665 489.963 286.865 498.679C308.535 512.992 351.576 509.934 374.767 495.652C404.013 477.607 456.285 426.044 464.754 399.987C472.496 376.132 475.308 363.532 473.918 351.237ZM412.185 327.229C425.021 327.566 430.182 327.688 436.699 327.688C458.568 327.688 468.856 335.945 470.61 351.543C471.966 363.318 469.187 375.673 461.578 399.131C453.407 424.331 401.565 475.436 372.915 493.113C350.782 506.723 309.229 509.689 288.817 496.172C277.337 488.617 278.793 460.94 290.14 418.49C292.39 410.11 294.97 401.271 297.948 391.791C299.768 385.888 301.719 379.863 303.969 373.135C305.746 367.827 307.51 362.516 309.263 357.201C313.762 343.622 324.845 335.273 342.445 330.899C356.605 327.321 373.378 326.403 399.348 326.923L412.185 327.229ZM406.197 353.378C397.007 350.74 387.464 349.299 377.844 349.096C367.89 350.161 358.317 353.264 349.823 358.18C335.2 366.712 325.341 380.138 322.562 399.345C316.078 444.455 328.649 459.961 361.137 449.93C403.583 436.87 435.045 413.597 435.045 384.267C435.045 368.761 424.128 358.822 406.197 353.378ZM351.576 360.749C358.972 356.468 367.235 353.627 375.859 352.399C376.885 352.246 377.613 352.155 378.043 352.155C387.257 352.278 396.4 353.67 405.171 356.283C421.878 361.33 431.737 370.321 431.737 384.267C431.737 411.792 401.3 434.332 360.078 447.055C330.37 456.199 319.618 442.926 325.87 399.773C328.484 381.484 337.747 368.823 351.576 360.749Z" fill="url(#paint0_radial_22_6)"/>
<defs>
<radialGradient id="paint0_radial_22_6" cx="0" cy="0" r="1" gradientUnits="userSpaceOnUse" gradientTransform="translate(256.5 316) rotate(24.0716) scale(426.598 623.698)">
<stop stop-color="#319795"/>
<stop offset="0.890625" stop-color="#319795" stop-opacity="0"/>
</radialGradient>
</defs>
</svg>
