<?xml version="1.0" encoding="iso-8859-1" ?>
<svg version="1.1" xmlns="http://www.w3.org/2000/svg" xmlns:xlink="http://www.w3.org/1999/xlink" 
    viewBox="0 0 800 1000" width="800" height="1000">
    
    
    <!-- ITEM 0 -->
    <g>
        <defs>
            <clipPath id="clip-path-id-viewbox-item-0">
                <rect x="0.0" y="0.0" width="506.313" height="635.393"/>
            </clipPath>
        </defs>
        <g transform="translate(0.0 0.0) rotate(0.0 400.0 502.0) scale(1.5800502851003233 1.580124426929475)">
            <g clip-path="url(#clip-path-id-viewbox-item-0)" transform="translate(-0.0 -0.0)">
                
<path fill="#37715a" d="M412.868,564.47c-3.014,22.861,9.011,44.83-2.466,69.731c-30.751,1.39-99.331,1.39-132.006,0.883  c11.327-39.205,51.955-18.237,69.983-44.667c2.747-4.027,4.989-14.492,7.224-16.6c3.375-3.185,13.606-2.746,17.715-3.385  C386.089,568.447,400.193,564.514,412.868,564.47z"></path>
<path fill="#6ba49b" d="M384.613,288.866c-15.219,8.168-6.938,80.264-8,99.993c-1.441,26.751-3.567,53.731-6.046,80.452  c-3.931,42.369-8.866,86.782-25.253,125.253c26.642,1.373,53.369-4.749,78.847,2.16c6.789-13.224,15.472-26.542,16.555-41.858  c0.97-13.702-6.997-23.505-8.096-36c-2.492-28.309,20.635-54.944,16.484-82.046c-1.839-12.008-13.47-23.322-14.595-35.961  c-1.269-14.259,7.116-27.585,12.096-40c12.179-30.361,18.859-58.201,23.762-89.691c-15.631-1.455-34.542,0.525-49.755,3.651  c-6.929,1.424-13.163,4.465-20,6.491C393.059,283.549,383.967,292.687,384.613,288.866z"></path>
<linearGradient id="SVGID_1_-i0" gradientUnits="userSpaceOnUse" x1="621.9341" y1="599.9315" x2="754.2147" y2="599.9315" gradientTransform="matrix(1 0 -0.2129 1 -172.1681 0)">
	<stop offset="0" style="stop-color:#457f76"></stop>
	<stop offset="1" style="stop-color:#37715a"></stop>
</linearGradient>
<path fill="url(#SVGID_1_-i0)" d="M442.657,564.47c-0.944,22.861,13.071,44.83,3.849,69.731c-30.625,1.39-99.205,1.39-131.926,0.883  c7.777-39.205,50.304-18.237,65.938-44.667c2.382-4.027,1.677-14.492,3.72-16.6c3.087-3.185,15.357-2.746,19.409-3.385  C416.237,568.447,429.986,564.514,442.657,564.47z"></path>
<linearGradient id="SVGID_2_-i0" gradientUnits="userSpaceOnUse" x1="355.5178" y1="396.0173" x2="479.1897" y2="396.0173">
	<stop offset="0" style="stop-color:#7ec5b9"></stop>
	<stop offset="1" style="stop-color:#6ba49b"></stop>
</linearGradient>
<path fill="url(#SVGID_2_-i0)" d="M448.553,197.911c9.015,22.782,30.413,41.659,30.635,67.07c0.189,21.657-13.061,39.114-16.095,59.954  c-3.519,24.172-6.869,48.589-5.872,72.741c0.555,13.44,2.852,26.651,2.642,40.016c-0.224,14.228-0.649,33.167-4.825,46.017  c-5.807,17.867,1.175,29.19,2.018,47.427c0.784,16.96-6.055,64.527-6.055,64.527s-59.651-0.174-73.595-1.576  c2.347-50.586,8.527-105.897,8.035-156.58c-0.225-23.184-0.722-49.31-5.491-71.962c-4.476-21.257-13.47-42.71-16.083-64.375  c-2.924-24.244,0.283-54.301-8.35-77.427c13.61-8.901,33.173-8.232,48.565-13.753C416.152,205.66,437.055,191.779,448.553,197.911z"></path>
<g>
	<path fill="#FFFFFF" d="M392.294,590.907l-0.99-0.146c5.745-39.068,14.531-111.851,8.827-160.345   c-3.83-32.555-9.093-66.35-13.736-96.166c-0.875-5.619-2.188-11.359-3.46-16.911c-1.99-8.693-4.048-17.683-4.518-26.569   c-0.347-6.556,2.422-16.718,4.254-23.442c0.829-3.043,1.484-5.447,1.569-6.464l0.996,0.084c-0.092,1.107-0.725,3.43-1.601,6.644   c-1.814,6.662-4.558,16.731-4.221,23.126c0.466,8.8,2.514,17.747,4.494,26.399c1.275,5.568,2.594,11.326,3.474,16.979   c4.645,29.825,9.909,63.63,13.741,96.203C406.841,478.908,398.046,551.79,392.294,590.907z"></path>
</g>
<g>
	<path fill="#FFFFFF" d="M380.493,311.107c-2.189,0-4.412-1.619-6.618-4.826c-7.069-10.276-12.687-36.436-9.105-42.409l0.857,0.514   c-3.184,5.312,1.619,30.495,9.072,41.329c2.226,3.234,4.378,4.7,6.397,4.34l0.174,0.984   C381.011,311.085,380.753,311.107,380.493,311.107z"></path>
</g>
<path fill="#edbc92" d="M296.596,100.016c-4.421,7.336-13.055,11.923-17.505,19.106c-5.102,8.236-7.351,19.855-8.996,29.366  c-2.438,14.097,2.157,23.197,9.601,35.789c8.746,14.793,21.23,23.958,33.483,35.623c12.13,11.548,40.776,40.784,49.424,55.066  c65.997,17.999,103.765-29.619,109.495-32.998c7.546-4.451-17.036-44.1-17.999-52.497c-5.584-48.711-34.929-74.708-78.411-100.651  c-22.228-13.262-58.983-13.721-77.848,8.102C299.281,95.542,295.465,101.677,296.596,100.016z"></path>
<path fill="#F2A19C" d="M210.323,133.028c15.627-2.745,22.985-0.531,29.389,3.78c14.783,9.951,30.755,19.532,44.413,29.757  c-2.72,4.034-5.301,8.903-7.316,13.785c-11.095-6.492-23.058-13.97-34.199-21.253c-13.399-8.759-20.787-7.267-35.998-10.46  c-8.935-1.875-30.796-5.193-32.192-9.499C171.623,130.514,201.251,134.621,210.323,133.028z"></path>
<polygon fill="#EEEEEE" points="284.903,158.043 114.078,117.84 66.758,170.266 237.582,210.469 "></polygon>
<path fill="#F2A19C" d="M173.36,235.223c-14.324-3.323-43.408-3.467-49.751-5.073c-6.93-1.755-12.745-7.24-20.218-6.215  c-1.912,12.426,26.68,19.684,35.308,25.634c13.729,9.467,30.219,4.354,47.25,8.14C185.113,249.952,172.96,243.143,173.36,235.223z"></path>
<linearGradient id="SVGID_3_-i0" gradientUnits="userSpaceOnUse" x1="201.3194" y1="144.5354" x2="238.5253" y2="144.5354">
	<stop offset="0" style="stop-color:#FFBEB6"></stop>
	<stop offset="1" style="stop-color:#F2A19C"></stop>
</linearGradient>
<path fill="url(#SVGID_3_-i0)" d="M236.448,141.472c-3.526,3.428-16.805,4.909-24.56,11.102c-5.576,4.453-9.178,2.321-10.447-0.011  c-1.406-5.399,9.7-13.195,14.611-16.234C223.586,131.666,245.274,133.892,236.448,141.472z"></path>
<linearGradient id="SVGID_4_-i0" gradientUnits="userSpaceOnUse" x1="323.189" y1="216.3" x2="270.189" y2="185.3">
	<stop offset="0" style="stop-color:#ffcc9a"></stop>
	<stop offset="1" style="stop-color:#edbc92"></stop>
</linearGradient>
<path fill="url(#SVGID_4_-i0)" d="M287.099,113.854c-20.418-4.486-21.324,45.209-22.831,58.202  c-2.769,23.882-7.615,49.255-8.494,72.835c-1.098,29.464,24.108,27.93,32.706,4.96c8.943-23.892,18.553-55.685,21.101-81.108  c1.064-10.62,1.645-23.749,0.659-34.289c-0.544-5.82-5.952-9.943-9.639-14.912C296.99,114.674,287.447,116.806,287.099,113.854z"></path>
<linearGradient id="SVGID_5_-i0" gradientUnits="userSpaceOnUse" x1="237.2682" y1="71.9539" x2="262.2682" y2="78.9539">
	<stop offset="0" style="stop-color:#FFBEB6"></stop>
	<stop offset="1" style="stop-color:#F2A19C"></stop>
</linearGradient>
<path fill="url(#SVGID_5_-i0)" d="M242.275,60.792c-2.203,4.507-1.411,9.444-2.043,14.384c-0.583,4.554-4.046,10.298-2.242,13.119  c1.769,2.766,12.407,1.617,18.558,0c-3.827-10.887-10.487-20.635-14.044-31.668C241.344,61.586,240.868,60.941,242.275,60.792z"></path>
<linearGradient id="SVGID_6_-i0" gradientUnits="userSpaceOnUse" x1="241.3636" y1="57.3272" x2="266.3636" y2="64.3272">
	<stop offset="0" style="stop-color:#FFBEB6"></stop>
	<stop offset="1" style="stop-color:#F2A19C"></stop>
</linearGradient>
<path fill="url(#SVGID_6_-i0)" d="M246.012,57.884c-1.732,2.255-6.022-1.551-6.7,1.293c-3.232,13.547,7.865,38.425,20.016,44.732  c10.015,5.198,37.254-17.547,43.276-27.839c7.911-13.52-0.536-42.138-15.433-47.537c-18.293-6.63-29.863,14.862-39.266,26.075  C248.485,53.683,245.433,58.81,246.012,57.884z"></path>
<linearGradient id="SVGID_7_-i0" gradientUnits="userSpaceOnUse" x1="232.6528" y1="52.2283" x2="319.141" y2="52.2283">
	<stop offset="0" style="stop-color:#337972"></stop>
	<stop offset="1" style="stop-color:#0e5e4e"></stop>
</linearGradient>
<path fill="url(#SVGID_7_-i0)" d="M251.204,26.044c-17.269,8.028-20.236,18.303-17.816,37.654c0.591,3.202,9.544,2.664,18.747,0  c11.043,13.899,34.653,25.581,52.115,17.347c16.212-7.645,18.779-26.831,9.686-41.056c-8.89-13.908-22.471-19.853-38.46-19.038  c-8.233,0.42-8.566-1.488-16.394,1.154L251.204,26.044z"></path>
<ellipse fill="#337972" cx="269.675" cy="14.865" rx="21.58" ry="13.834"></ellipse>
<g>
	<path fill="#457f76" d="M390.729,252.565c-14.82,0-31.334-2.858-39.071-5.326c-10.359-3.304-22.8-10.846-33.775-17.499   c-7.738-4.691-14.762-8.911-19.103-10.433l2.833-10.167c5.324,1.867,12.9,6.863,21.453,12.048   c10.5,6.365,22.401,13.58,31.631,16.523c12.978,4.14,45.784,7.519,54.702,1.798l5.398,8.418   C409.497,251.328,400.478,252.565,390.729,252.565z"></path>
</g>
<g>
	<path fill="#337972" d="M229.779,65.759c-0.005,0-0.01,0-0.015,0c-0.276-0.009-0.493-0.239-0.485-0.515   c0.041-1.357,0.054-2.726,0.067-4.099c0.049-5.081,0.099-10.335,1.584-15.28c2.263-7.534,8.719-14.868,16.849-19.141   c1.428-0.751,3.265-1.324,5.21-1.931c1.331-0.416,2.707-0.846,3.938-1.336c0.255-0.099,0.547,0.022,0.649,0.28   c0.102,0.256-0.023,0.547-0.28,0.649c-1.266,0.504-2.661,0.939-4.01,1.36c-1.9,0.593-3.695,1.153-5.043,1.861   c-7.9,4.152-14.167,11.258-16.356,18.543c-1.443,4.81-1.493,9.991-1.541,15.003c-0.014,1.38-0.026,2.755-0.067,4.118   C230.27,65.546,230.048,65.759,229.779,65.759z"></path>
</g>
<g>
	<path fill="#337972" d="M273.704,25.801c-5.623,0.001-6.704-2.502-9.866-9.812l-0.184-0.426c-0.109-0.253,0.007-0.548,0.261-0.657   c0.252-0.11,0.547,0.007,0.657,0.261l0.184,0.425c3.73,8.624,4.307,9.95,12.894,8.924c4.28-0.511,8.215-1.394,11.693-2.624   c6.097-2.154,9.689-4.871,10.678-8.074c0.533-1.73,0.315-3.327-0.647-4.745c-2.657-3.914-9.854-5.46-13.287-5.731   C277.005,2.629,262.751,5.04,256,9.776c-2.717,1.906-5.845,4.955-5.317,8.656c0.235,1.652,1.545,3.876,2.881,4.267   c0.592,0.171,1.139-0.041,1.671-0.659c0.181-0.209,0.495-0.232,0.705-0.053c0.209,0.18,0.233,0.495,0.053,0.705   c-1,1.161-2.025,1.163-2.709,0.967c-1.763-0.516-3.307-3.094-3.591-5.086c-0.599-4.203,2.787-7.549,5.733-9.615   c7.153-5.018,21.532-7.343,30.738-6.612c3.6,0.283,11.166,1.937,14.036,6.165c1.143,1.683,1.403,3.567,0.775,5.603   c-1.086,3.521-4.888,6.456-11.299,8.723c-3.549,1.254-7.556,2.154-11.908,2.673C276.187,25.698,274.85,25.801,273.704,25.801z"></path>
</g>
<g>
	<path fill="#337972" d="M280.613,24.366c-0.209,0-0.403-0.132-0.474-0.341c-0.088-0.262,0.053-0.545,0.314-0.633   c5.76-1.939,12.286-7.94,12.441-13.449c0.093-3.254-2.145-5.891-6.469-7.625c-5.711-2.292-15.053-1.561-22.714,1.777   c-5.527,2.407-9.379,5.83-10.845,9.637l-0.786,2.04l-0.179-2.179c-0.063-0.771,0.227-1.473,0.862-2.087   c0.041-0.04,0.087-0.07,0.136-0.094c1.969-3.257,5.585-6.132,10.412-8.234c7.887-3.436,17.543-4.172,23.486-1.788   c5.997,2.405,7.169,5.994,7.096,8.581c-0.17,6.009-6.923,12.28-13.123,14.368C280.719,24.357,280.666,24.366,280.613,24.366z"></path>
</g>
<g>
	<path fill="#457f76" d="M239.131,77.849c-1.29,0-2.582-0.311-3.783-1.06c-0.234-0.146-0.306-0.454-0.159-0.688   c0.147-0.235,0.457-0.305,0.688-0.159c4.086,2.545,9.623-0.883,11.323-3.359c0.157-0.227,0.468-0.285,0.695-0.129   s0.285,0.468,0.129,0.695C246.586,75.247,242.867,77.849,239.131,77.849z"></path>
</g>
<polygon fill="#D6D7D8" points="170.824,243.107 0,202.904 66.758,170.266 237.582,210.469 "></polygon>
<path fill="#F2A19C" d="M173.437,246.316c-4.798-10.944-6.494-11.364-16.177-16.102c-3.971-1.943-8.851-5.344-11.638-8.728  c-5.682-6.9-11.337-4.65-11.442-2.833c-0.518,8.994,8.411,13.052,11.658,21.981C148.715,248.542,164.718,248.552,173.437,246.316z"></path>
<g>
	<path fill="#457f76" d="M85.91,210.608l-0.295-1.979c2.647-0.395,6.967-1.044,11.899-1.805l0.305,1.977   C92.882,209.562,88.559,210.214,85.91,210.608z M109.713,206.932l-0.318-1.975c4.724-0.76,8.71-1.428,11.85-1.984l0.35,1.969   C118.443,205.502,114.446,206.171,109.713,206.932z M145.004,203.086c-3.381-0.527-8.592-0.785-11.75-0.563l-0.141-1.994   c3.343-0.239,8.64,0.026,12.199,0.581L145.004,203.086z M156.879,201.681l-0.807-1.83c4.299-1.895,9.052-4.314,10.628-5.303   l1.063,1.695C166.128,197.268,161.255,199.753,156.879,201.681z M179.178,194.524l-0.234-1.986   c2.983-0.353,7.46-0.909,11.858-1.661l0.338,1.971C186.695,193.608,182.184,194.169,179.178,194.524z M202.984,190.118   l-0.607-1.906c5.246-1.673,8.312-3.61,9.11-5.76l1.875,0.697C212.323,185.942,208.928,188.222,202.984,190.118z M204.089,176.582   c-3.013-0.982-6.897-1.906-11.546-2.748l0.355-1.969c4.738,0.858,8.712,1.806,11.81,2.814L204.089,176.582z M180.717,172.069   c-2.14-0.265-4.406-0.52-6.737-0.757c-2.084-0.211-3.891-1.253-5.085-2.934l1.631-1.158c0.854,1.203,2.153,1.95,3.656,2.102   c2.346,0.239,4.627,0.496,6.781,0.763L180.717,172.069z M169.361,157.816c-1.542-2.136-4.713-5.853-7.612-9.205l1.514-1.309   c2.927,3.387,6.134,7.145,7.72,9.344L169.361,157.816z M153.871,139.514c-6.97-8.121-7.508-9.313-7.508-10.111l0.033-0.286   l1.947,0.459l-0.974-0.229l0.993,0.057c0-0.078-0.014-0.124-0.014-0.125c0.217,0.737,2.585,3.743,7.039,8.934L153.871,139.514z"></path>
</g>
<linearGradient id="SVGID_8_-i0" gradientUnits="userSpaceOnUse" x1="284.0193" y1="283.2675" x2="231.0193" y2="252.2675">
	<stop offset="0" style="stop-color:#ffcc9a"></stop>
	<stop offset="1" style="stop-color:#edbc92"></stop>
</linearGradient>
<path fill="url(#SVGID_8_-i0)" d="M274.138,228.844c-22.584-2.073-46.674,4.265-67.611,6.383c-6.148,0.622-33.529-3.239-33.193,2.74  c0.409,7.268,0.409,19.138,0.46,30.205c18.413-0.517,57.075,2.965,77.76,2.121c11.602-0.474,18.996,0.064,28.355-7.913  C293.129,251.113,282.921,229.651,274.138,228.844z"></path>
<linearGradient id="SVGID_9_-i0" gradientUnits="userSpaceOnUse" x1="269.3004" y1="148.0873" x2="506.3127" y2="148.0873">
	<stop offset="0" style="stop-color:#457f76"></stop>
	<stop offset="1" style="stop-color:#37715a"></stop>
</linearGradient>
<path fill="url(#SVGID_9_-i0)" d="M472.124,261.711L472.124,261.711c-24.345,20.298-60.536,17.017-80.834-7.328L282.613,124.035  c-20.298-24.345-17.017-60.536,7.328-80.834l0,0c40.323-33.62,100.266-28.185,133.885,12.138l60.435,72.486  C517.882,168.149,512.448,228.091,472.124,261.711z"></path>
<g>
	<path fill="#D6D7D8" d="M302.975,145.165c-0.159,0-0.316-0.076-0.413-0.219l-6.748-9.923c-0.155-0.229-0.097-0.539,0.132-0.694   c0.227-0.153,0.538-0.098,0.694,0.132l6.748,9.923c0.155,0.229,0.097,0.539-0.132,0.694   C303.171,145.136,303.073,145.165,302.975,145.165z M290.297,124.867c-0.21,0-0.405-0.133-0.475-0.343   c-0.824-2.498-1.242-5.101-1.241-7.735c0-1.455,0.13-2.921,0.386-4.357c0.048-0.272,0.305-0.453,0.58-0.404   c0.271,0.049,0.453,0.308,0.404,0.58c-0.245,1.378-0.37,2.785-0.37,4.182c-0.001,2.528,0.399,5.025,1.19,7.421   c0.087,0.263-0.056,0.546-0.317,0.632C290.402,124.859,290.349,124.867,290.297,124.867z M370.554,113.466l-0.179-0.002   c-0.276,0-0.5-0.224-0.5-0.5s0.224-0.5,0.5-0.5l0.195,0.002c3.848,0,7.692-0.959,11.103-2.774c0.242-0.131,0.547-0.039,0.677,0.206   c0.13,0.244,0.037,0.547-0.206,0.677C378.588,112.466,374.582,113.466,370.554,113.466z M367.385,113.258   c-0.022,0-0.044-0.001-0.066-0.004c-4.064-0.536-7.961-2.083-11.267-4.474c-0.224-0.162-0.274-0.475-0.112-0.698   s0.475-0.272,0.698-0.112c3.172,2.295,6.911,3.778,10.812,4.292c0.273,0.036,0.467,0.288,0.431,0.562   C367.847,113.075,367.632,113.258,367.385,113.258z M290.167,110.106c-0.049,0-0.099-0.007-0.147-0.022   c-0.264-0.081-0.412-0.361-0.33-0.625c1.208-3.907,3.393-7.484,6.316-10.347c0.196-0.191,0.515-0.189,0.707,0.008   c0.193,0.197,0.189,0.514-0.008,0.707c-2.806,2.746-4.901,6.179-6.061,9.927C290.578,109.968,290.38,110.106,290.167,110.106z    M392.125,104.339c-0.167,0-0.33-0.084-0.425-0.235c-0.146-0.234-0.074-0.543,0.16-0.689l10.187-6.343   c0.237-0.144,0.543-0.073,0.689,0.16c0.146,0.234,0.074,0.543-0.16,0.689l-10.187,6.343   C392.306,104.314,392.215,104.339,392.125,104.339z M348.114,100.196c-0.143,0-0.284-0.061-0.383-0.179l-6.181-7.377   c-0.498-0.595-1.029-1.17-1.579-1.71c-0.197-0.193-0.199-0.51-0.006-0.707c0.193-0.196,0.51-0.2,0.707-0.006   c0.572,0.563,1.125,1.161,1.645,1.78l6.18,7.377c0.178,0.212,0.15,0.527-0.062,0.704   C348.341,100.158,348.227,100.196,348.114,100.196z M305.317,91.991c-0.138,0-0.275-0.057-0.374-0.169   c-0.184-0.206-0.164-0.522,0.043-0.705l1.975-1.749c2.414-2.139,5.167-3.761,8.181-4.821c0.261-0.093,0.547,0.046,0.638,0.306   c0.092,0.261-0.045,0.546-0.306,0.638c-2.892,1.017-5.533,2.573-7.851,4.626l-1.975,1.749   C305.553,91.95,305.435,91.991,305.317,91.991z M412.498,91.653c-0.167,0-0.33-0.084-0.425-0.235   c-0.146-0.235-0.074-0.543,0.16-0.689l2.547-1.585c0.236-0.144,0.544-0.073,0.689,0.16c0.146,0.235,0.074,0.543-0.16,0.689   l-2.547,1.585C412.679,91.629,412.588,91.653,412.498,91.653z M330.064,85.092c-0.045,0-0.092-0.006-0.138-0.02   c-0.938-0.269-1.902-0.482-2.868-0.634c-0.272-0.043-0.459-0.299-0.416-0.572c0.043-0.272,0.305-0.461,0.572-0.416   c1.005,0.158,2.011,0.381,2.987,0.661c0.266,0.076,0.419,0.353,0.343,0.618C330.482,84.95,330.282,85.092,330.064,85.092z    M425.231,83.725c-0.167,0-0.33-0.084-0.425-0.235c-0.146-0.234-0.074-0.543,0.16-0.689l7.862-4.896   c0.237-0.144,0.543-0.073,0.689,0.16c0.146,0.234,0.074,0.543-0.16,0.689l-7.862,4.896   C425.413,83.701,425.322,83.725,425.231,83.725z"></path>
</g>
<g>
	<path fill="#7ec5b9" d="M443.301,195.365c-1.075,0-2.136-0.493-2.821-1.425l-62.508-84.917c-1.146-1.557-0.813-3.748,0.743-4.894   c1.559-1.146,3.749-0.813,4.894,0.743l62.508,84.917c1.146,1.557,0.813,3.748-0.743,4.894   C444.749,195.143,444.022,195.365,443.301,195.365z"></path>
</g>
<g>
	<path fill="#7ec5b9" d="M494.329,160.922c-1.075,0-2.136-0.493-2.821-1.425L429,74.58c-1.146-1.557-0.813-3.748,0.743-4.894   c1.559-1.146,3.749-0.813,4.894,0.743l62.508,84.917c1.146,1.557,0.813,3.748-0.743,4.894   C495.776,160.7,495.049,160.922,494.329,160.922z"></path>
</g>
<g>
	
		<rect x="432.362" y="174.665" transform="matrix(0.5458 0.8379 -0.8379 0.5458 353.369 -282.0616)" fill="#D6D7D8" width="9" height="20.513"></rect>
</g>
<g>
	
		<rect x="482.79" y="143.216" transform="matrix(0.5456 0.838 -0.838 0.5456 347.5842 -339.9639)" fill="#D6D7D8" width="9" height="14.652"></rect>
</g>
<path id="texure_8_-i0" opacity="0.75" fill="#FFFFFF" enable-background="new    " d="M422.788,292.948  c0.167,0.052,0.346-0.045,0.397-0.213c0.051-0.167-0.045-0.347-0.212-0.398c-0.168-0.052-0.346,0.045-0.397,0.213l0,0  C422.527,292.72,422.621,292.897,422.788,292.948L422.788,292.948z M424.982,285.464c0.175,0.046,0.355-0.05,0.419-0.219  c0.042-0.172-0.062-0.347-0.233-0.391c-0.155-0.057-0.329,0.02-0.387,0.177c-0.005,0.011-0.007,0.022-0.01,0.037  C424.719,285.236,424.814,285.413,424.982,285.464L424.982,285.464L424.982,285.464z M455.22,289.291  c0.084,0.16,0.282,0.221,0.44,0.137l0,0c0.148-0.073,0.209-0.252,0.137-0.398c-0.004-0.012-0.012-0.025-0.022-0.036  c-0.078-0.155-0.264-0.218-0.42-0.143C455.196,288.934,455.136,289.131,455.22,289.291L455.22,289.291L455.22,289.291z   M410.268,281.62c0.133,0.108,0.329,0.089,0.44-0.043c0.108-0.134,0.089-0.329-0.043-0.441c-0.132-0.111-0.329-0.089-0.44,0.043  c-0.111,0.12-0.103,0.309,0.018,0.42C410.252,281.608,410.259,281.614,410.268,281.62z M438.678,290.085  c0.032,0.176,0.189,0.3,0.367,0.291c0.182-0.021,0.311-0.185,0.291-0.368c-0.021-0.182-0.185-0.313-0.367-0.291  C438.792,289.75,438.669,289.908,438.678,290.085z M437.849,282.325c0.024,0.175,0.187,0.295,0.361,0.271l0,0  c0.169-0.006,0.303-0.148,0.298-0.319c-0.001-0.009-0.001-0.018-0.002-0.027c-0.026-0.179-0.185-0.306-0.367-0.291  C437.965,281.99,437.839,282.149,437.849,282.325z M380.798,299.52c0.242,0.228,0.625,0.219,0.855-0.025  c0.005-0.004,0.008-0.011,0.015-0.016c0.225-0.241,0.211-0.621-0.03-0.846c0,0-0.003-0.001-0.004-0.003  c-0.242-0.228-0.625-0.219-0.855,0.025c-0.005,0.004-0.008,0.011-0.015,0.016c-0.225,0.241-0.211,0.621,0.03,0.846  c0,0.003,0,0.003,0,0.003L380.798,299.52z M390.813,288.658c0.249,0.231,0.637,0.219,0.871-0.03  c0.233-0.249,0.219-0.638-0.031-0.873c0,0-0.004-0.005-0.008-0.008c-0.241-0.225-0.621-0.211-0.844,0.03  c-0.001,0.001-0.001,0.003-0.001,0.003C390.569,288.034,390.577,288.418,390.813,288.658L390.813,288.658z M428.923,331.511  c0.02,0.337,0.305,0.596,0.642,0.583c0.326-0.003,0.588-0.265,0.588-0.589c0-0.012,0.001-0.022-0.001-0.033  c-0.02-0.337-0.305-0.596-0.643-0.583C429.176,330.9,428.914,331.178,428.923,331.511L428.923,331.511L428.923,331.511z   M427.76,301.941c0.012,0.335,0.287,0.592,0.621,0.583c0,0,0.014-0.001,0.02-0.003c0.326-0.003,0.588-0.265,0.588-0.589  c0-0.012,0.001-0.022-0.001-0.033c-0.026-0.339-0.307-0.602-0.648-0.605C428.005,301.318,427.746,301.604,427.76,301.941  L427.76,301.941z M427.171,287.167c0.015,0.338,0.305,0.6,0.642,0.583c0.339-0.015,0.598-0.304,0.582-0.642  c-0.009-0.335-0.287-0.597-0.62-0.589l0,0c-0.337,0.006-0.609,0.284-0.604,0.625C427.169,287.152,427.17,287.16,427.171,287.167  L427.171,287.167z M399.438,320.205c0.317,0.107,0.66-0.066,0.766-0.385c0.107-0.318-0.066-0.661-0.384-0.768  c-0.312-0.104-0.648,0.06-0.76,0.369C398.954,319.741,399.121,320.09,399.438,320.205L399.438,320.205z M404.548,306.318  c0.317,0.107,0.66-0.066,0.766-0.385c0.107-0.318-0.066-0.661-0.384-0.768c-0.312-0.104-0.648,0.06-0.76,0.369  C404.063,305.854,404.23,306.202,404.548,306.318L404.548,306.318z M409.663,292.45c0.325,0.109,0.676-0.068,0.785-0.393  c0.105-0.313-0.053-0.656-0.359-0.777c-0.319-0.127-0.679,0.03-0.807,0.349c-0.127,0.319,0.03,0.68,0.348,0.808  C409.643,292.445,409.652,292.448,409.663,292.45z M455.59,318.138c0.148,0.303,0.511,0.435,0.818,0.289  c0.301-0.135,0.433-0.49,0.298-0.79c0,0-0.001-0.004-0.003-0.005c-0.117-0.302-0.456-0.451-0.758-0.336  c-0.014,0.006-0.028,0.012-0.045,0.018C455.602,317.466,455.468,317.824,455.59,318.138z M443.232,291.258  c0.128,0.297,0.471,0.436,0.768,0.308c0.008-0.003,0.017-0.007,0.025-0.013c0.309-0.129,0.453-0.485,0.324-0.796  c-0.004-0.01-0.007-0.019-0.012-0.028c-0.145-0.308-0.51-0.439-0.816-0.295c-0.307,0.145-0.438,0.512-0.294,0.817  C443.23,291.254,443.232,291.257,443.232,291.258z M385.984,314.826c0.27,0.129,0.593,0.016,0.727-0.25  c0.131-0.269,0.019-0.594-0.25-0.728c-0.27-0.133-0.593-0.019-0.727,0.25l0,0C385.604,314.367,385.716,314.691,385.984,314.826  L385.984,314.826z M391.705,302.927c0.27,0.129,0.593,0.016,0.727-0.25c0.14-0.265,0.038-0.595-0.227-0.735  c-0.265-0.14-0.594-0.039-0.734,0.228c-0.006,0.009-0.01,0.021-0.016,0.031c-0.134,0.261-0.03,0.582,0.23,0.718  C391.691,302.921,391.699,302.922,391.705,302.927L391.705,302.927z M397.173,290.731c0.035,0.132,0.129,0.241,0.257,0.297  c0.27,0.129,0.593,0.016,0.727-0.25c0.136-0.277,0.026-0.608-0.25-0.747l-0.005-0.002c-0.163-0.079-0.356-0.074-0.515,0.016  l-0.022,0.006c-0.091,0.048-0.159,0.129-0.189,0.229C397.096,290.421,397.096,290.592,397.173,290.731L397.173,290.731z   M441.107,317.621c0.113,0.286,0.425,0.433,0.716,0.338c0.276-0.095,0.421-0.393,0.328-0.67c-0.003-0.008-0.006-0.014-0.009-0.023  c-0.093-0.286-0.4-0.441-0.684-0.346c-0.004,0.001-0.005,0.003-0.005,0.003C441.172,317.031,441.021,317.336,441.107,317.621z   M432.413,292.683c0.093,0.286,0.4,0.441,0.686,0.349c0,0,0.006-0.003,0.01-0.004c0.271-0.082,0.422-0.372,0.339-0.642  c-0.004-0.017-0.01-0.033-0.019-0.049c-0.093-0.286-0.4-0.441-0.686-0.349c-0.003,0.002-0.006,0.003-0.01,0.004  C432.46,292.102,432.32,292.406,432.413,292.683L432.413,292.683z M428.061,280.24c0.11,0.284,0.427,0.426,0.71,0.316  c0.275-0.105,0.418-0.411,0.321-0.692c-0.107-0.277-0.408-0.428-0.694-0.344C428.113,279.633,427.966,279.948,428.061,280.24  L428.061,280.24z M412.347,314.73c-0.007,0.301,0.227,0.552,0.526,0.566c0.297,0.017,0.552-0.208,0.569-0.505  c0.012-0.301-0.211-0.561-0.509-0.594C412.627,314.188,412.364,314.422,412.347,314.73z M413.1,301.537  c-0.027,0.287,0.185,0.545,0.472,0.571c0.009,0.001,0.022,0,0.031,0.002c0.297,0.017,0.552-0.208,0.569-0.505  c0.012-0.301-0.211-0.561-0.509-0.594C413.366,301.004,413.114,301.238,413.1,301.537z M413.835,288.351  c-0.015,0.298,0.213,0.55,0.51,0.566c0.293,0.015,0.546-0.207,0.566-0.501c0.02-0.297-0.202-0.556-0.5-0.578  c-0.298-0.021-0.555,0.202-0.577,0.5C413.835,288.343,413.835,288.345,413.835,288.351z M451.466,288.974  c0.202,0.224,0.547,0.248,0.779,0.051c0.22-0.21,0.233-0.559,0.022-0.782c-0.201-0.211-0.528-0.232-0.751-0.049  c-0.227,0.189-0.261,0.529-0.074,0.757C451.453,288.959,451.459,288.968,451.466,288.974z M414.871,290.052  c0.024,0.175,0.187,0.295,0.361,0.271c0.174-0.024,0.295-0.188,0.271-0.361c-0.024-0.174-0.187-0.295-0.361-0.271l0,0  C414.966,289.714,414.846,289.878,414.871,290.052L414.871,290.052L414.871,290.052z M413.741,282.345  c0.036,0.177,0.204,0.291,0.383,0.265c0.174-0.024,0.295-0.188,0.271-0.361l0,0c-0.017-0.168-0.168-0.29-0.337-0.273  c-0.009,0.001-0.015,0.001-0.025,0.004c-0.178,0.019-0.308,0.179-0.293,0.358C413.741,282.34,413.74,282.342,413.741,282.345z   M399.159,285.284c0.17,0.031,0.337-0.068,0.391-0.233c0.047-0.166-0.051-0.341-0.218-0.388c-0.005-0.002-0.011-0.002-0.018-0.005  c-0.162-0.049-0.333,0.042-0.384,0.204c-0.002,0.011-0.006,0.02-0.007,0.029C398.883,285.066,398.987,285.242,399.159,285.284  L399.159,285.284z M428.456,281.087c0.089,0.154,0.282,0.204,0.434,0.115c0.154-0.09,0.204-0.283,0.114-0.436  c-0.073-0.149-0.251-0.21-0.397-0.138c-0.011,0.004-0.025,0.013-0.036,0.022c-0.15,0.083-0.204,0.276-0.121,0.426  C428.451,281.082,428.454,281.084,428.456,281.087L428.456,281.087z M378.588,290.486c0.172,0.087,0.385,0.017,0.472-0.156  c0.001-0.003,0.003-0.005,0.006-0.009c0.094-0.175,0.029-0.392-0.144-0.487c-0.008-0.003-0.018-0.008-0.026-0.013  c-0.172-0.087-0.385-0.017-0.472,0.156c-0.001,0.003-0.003,0.005-0.006,0.009C378.33,290.172,378.406,290.392,378.588,290.486  L378.588,290.486z M415.694,292.78c0.051,0.182,0.24,0.287,0.42,0.236c0.014-0.003,0.027-0.009,0.041-0.016  c0.188-0.067,0.287-0.273,0.222-0.461c-0.074-0.186-0.273-0.291-0.468-0.242C415.717,292.368,415.62,292.584,415.694,292.78  C415.692,292.776,415.692,292.776,415.694,292.78L415.694,292.78z M412.829,284.361c0.072,0.194,0.286,0.291,0.482,0.216  l0.001-0.001c0.188-0.067,0.287-0.273,0.222-0.461c-0.074-0.186-0.273-0.291-0.468-0.242  C412.873,283.95,412.771,284.16,412.829,284.361L412.829,284.361z M397.173,290.731c0.046,0.026,0.096,0.044,0.148,0.052  c0.197,0.016,0.371-0.134,0.385-0.333c0-0.004,0.001-0.006,0.002-0.013c0.01-0.197-0.131-0.366-0.323-0.392l-0.022,0.006  c-0.197-0.016-0.371,0.134-0.385,0.333c0,0.004-0.001,0.009-0.002,0.012C396.964,290.54,397.043,290.672,397.173,290.731  L397.173,290.731z M429.338,280.03c0.132,0.152,0.363,0.167,0.514,0.034c0.003-0.004,0.008-0.006,0.008-0.008  c0.147-0.131,0.161-0.357,0.03-0.504c-0.118-0.154-0.335-0.185-0.491-0.068c-0.008,0.006-0.011,0.009-0.02,0.015  C429.225,279.634,429.205,279.869,429.338,280.03L429.338,280.03z M387.249,328.795c-0.002,0.348,0.267,0.638,0.618,0.659  c0.346,0.016,0.642-0.248,0.661-0.595c0.005-0.349-0.267-0.642-0.618-0.659C387.563,328.183,387.267,328.447,387.249,328.795  L387.249,328.795z M387.96,313.557c-0.018,0.347,0.248,0.643,0.594,0.662c0.346,0.02,0.642-0.248,0.661-0.595  c0.018-0.347-0.248-0.643-0.594-0.662C388.277,312.945,387.981,313.211,387.96,313.557L387.96,313.557z M388.652,298.325  c-0.006,0.349,0.267,0.642,0.616,0.659c0.346,0.005,0.63-0.273,0.635-0.618c0.006-0.344-0.272-0.631-0.617-0.637  C388.951,297.722,388.668,297.987,388.652,298.325z M437.439,296.178c0.236,0.25,0.628,0.273,0.889,0.045  c0.259-0.234,0.279-0.632,0.045-0.891c-0.233-0.259-0.631-0.279-0.889-0.045l0,0C437.231,295.521,437.21,295.916,437.439,296.178  L437.439,296.178z M427.186,284.907c0.236,0.253,0.63,0.276,0.889,0.045c0.255-0.245,0.272-0.646,0.039-0.913  c-0.247-0.252-0.65-0.254-0.899-0.01C426.976,284.269,426.963,284.654,427.186,284.907z M410.981,303.405  c0.121,0.332,0.485,0.501,0.815,0.383l0.001-0.001c0.318-0.117,0.481-0.472,0.363-0.79l0,0c-0.11-0.328-0.465-0.502-0.792-0.391  c-0.328,0.11-0.501,0.465-0.39,0.793l0.001,0.005L410.981,303.405z M405.813,289.067c0.109,0.324,0.459,0.499,0.783,0.391  c0.004-0.001,0.008-0.003,0.011-0.004c0.333-0.11,0.516-0.469,0.406-0.805c-0.11-0.334-0.468-0.517-0.804-0.407  c-0.333,0.11-0.516,0.469-0.406,0.805C405.807,289.055,405.81,289.062,405.813,289.067z M402.964,309.157  c0.11,0.334,0.468,0.515,0.801,0.407c0.321-0.11,0.502-0.455,0.411-0.782c-0.115-0.334-0.467-0.52-0.806-0.428  C403.044,308.471,402.864,308.823,402.964,309.157L402.964,309.157z M398.411,294.663c0.11,0.334,0.468,0.515,0.801,0.407  c0.329-0.102,0.514-0.453,0.411-0.782c-0.102-0.329-0.452-0.515-0.781-0.413l0,0C398.514,293.98,398.322,294.328,398.411,294.663  L398.411,294.663z M376.56,303.548c-0.025,0.342,0.23,0.639,0.568,0.669c0,0,0.003,0.002,0.004,0  c0.346,0.036,0.654-0.213,0.692-0.558c0.025-0.349-0.233-0.654-0.58-0.69C376.901,302.949,376.599,303.204,376.56,303.548  L376.56,303.548z M377.902,288.4c-0.038,0.344,0.214,0.652,0.558,0.689c0.343,0.038,0.65-0.214,0.688-0.558  c0-0.004,0.001-0.009,0-0.017c0.021-0.346-0.234-0.651-0.58-0.69c-0.341-0.028-0.638,0.23-0.668,0.569  C377.904,288.397,377.904,288.397,377.902,288.4L377.902,288.4z M430.882,302.169c0.231,0.262,0.631,0.293,0.896,0.067  c0.261-0.223,0.295-0.615,0.072-0.876c-0.206-0.268-0.592-0.318-0.858-0.111c-0.008,0.006-0.015,0.009-0.022,0.018  c-0.273,0.217-0.319,0.613-0.1,0.886C430.873,302.16,430.877,302.164,430.882,302.169z M421.142,290.521  c0.231,0.262,0.631,0.293,0.896,0.067c0.261-0.223,0.295-0.615,0.072-0.876c-0.206-0.268-0.591-0.318-0.858-0.111  c-0.008,0.006-0.015,0.009-0.022,0.018c-0.273,0.217-0.318,0.615-0.1,0.886C421.134,290.51,421.138,290.515,421.142,290.521z   M404.974,297.541c0.131,0.227,0.42,0.306,0.649,0.175c0.221-0.128,0.3-0.407,0.183-0.633c-0.114-0.222-0.387-0.312-0.61-0.2  c-0.014,0.007-0.03,0.016-0.042,0.024C404.932,297.037,404.854,297.318,404.974,297.541z M399.354,287.584  c0.131,0.229,0.425,0.306,0.652,0.175s0.305-0.426,0.174-0.653c-0.126-0.227-0.412-0.309-0.637-0.183  c-0.005,0.003-0.009,0.006-0.015,0.008C399.304,287.066,399.228,287.354,399.354,287.584L399.354,287.584z M380.747,299.058  c0.036,0.257,0.274,0.438,0.53,0.406c0.254-0.048,0.428-0.275,0.406-0.532c-0.032-0.258-0.267-0.442-0.526-0.409l-0.001,0.001  c-0.252,0.025-0.437,0.246-0.414,0.497C380.744,299.036,380.745,299.047,380.747,299.058z M379.345,287.675  c0.038,0.262,0.274,0.449,0.537,0.428c0.258-0.032,0.441-0.268,0.408-0.526c0,0-0.001-0.001,0-0.004  c-0.023-0.252-0.242-0.436-0.494-0.415c0,0-0.011,0.002-0.018,0.003c-0.261,0.022-0.454,0.247-0.434,0.508  C379.343,287.669,379.344,287.672,379.345,287.675L379.345,287.675z"></path>

            </g>
        </g>
    </g>
    
</svg>