<svg xmlns="http://www.w3.org/2000/svg" xmlns:xlink="http://www.w3.org/1999/xlink"  zoomAndPan="magnify" viewBox="132 96 124 124"  preserveAspectRatio="xMidYMid meet" version="1.0">
<defs><clipPath id="id1"><path d="M 136.136719 111.078125 L 252.386719 111.078125 L 252.386719 205.578125 L 136.136719 205.578125 Z M 136.136719 111.078125 " clip-rule="nonzero"/></clipPath><clipPath id="id2"><path d="M 238.347656 163.117188 C 238.347656 159.230469 241.492188 156.105469 245.375 156.105469 C 249.261719 156.105469 252.386719 159.25 252.386719 163.117188 C 252.386719 167.003906 249.242188 170.132812 245.375 170.132812 C 244.167969 170.132812 243.007812 169.824219 242.015625 169.28125 L 236.957031 176.730469 C 238.148438 177.777344 238.910156 179.316406 238.910156 181.050781 C 238.910156 184.214844 236.34375 186.78125 233.179688 186.78125 C 230.019531 186.78125 227.453125 184.214844 227.453125 181.050781 C 227.453125 178.882812 228.664062 176.984375 230.453125 176.023438 L 229.023438 172.410156 C 228.699219 172.480469 228.355469 172.519531 228.011719 172.519531 C 225.5 172.519531 223.476562 170.476562 223.476562 167.980469 C 223.476562 165.46875 225.519531 163.425781 228.011719 163.425781 C 228.429688 163.425781 228.84375 163.480469 229.222656 163.589844 L 232.167969 157.042969 C 231.445312 156.484375 230.976562 155.617188 230.976562 154.640625 C 230.976562 152.957031 232.332031 151.601562 234.011719 151.601562 C 234.753906 151.601562 235.421875 151.855469 235.945312 152.308594 L 241.222656 148.292969 C 240.839844 147.609375 240.625 146.792969 240.625 145.945312 C 240.625 144.535156 241.238281 143.25 242.195312 142.367188 L 238.945312 137.574219 C 238.328125 137.863281 237.644531 138.027344 236.921875 138.027344 C 235.222656 138.027344 233.742188 137.125 232.925781 135.785156 L 227.976562 137.863281 C 227.976562 137.9375 227.996094 138.007812 227.996094 138.0625 C 227.996094 139.203125 227.164062 140.140625 226.078125 140.324219 L 225.410156 145.132812 C 227.074219 145.65625 228.265625 147.210938 228.265625 149.035156 C 228.265625 151.296875 226.421875 153.140625 224.164062 153.140625 C 222.648438 153.140625 221.328125 152.308594 220.605469 151.078125 L 214.734375 153.246094 C 214.734375 153.265625 214.734375 153.285156 214.734375 153.320312 C 214.734375 154.53125 213.757812 155.507812 212.546875 155.507812 C 212.421875 155.507812 212.277344 155.488281 212.148438 155.472656 L 209.167969 160.894531 C 209.53125 161.21875 209.835938 161.617188 210.035156 162.070312 L 218.273438 160.335938 C 218.402344 159.25 219.324219 158.398438 220.441406 158.398438 C 221.652344 158.398438 222.628906 159.375 222.628906 160.585938 C 222.628906 161.707031 221.78125 162.628906 220.695312 162.757812 L 218.273438 174.324219 C 220.839844 175.15625 222.683594 177.5625 222.683594 180.398438 C 222.683594 183.925781 219.828125 186.800781 216.285156 186.800781 C 216.179688 186.800781 216.070312 186.800781 215.960938 186.800781 L 215.003906 192.726562 C 215.871094 193.125 216.484375 194.011719 216.484375 195.042969 C 216.484375 196.199219 215.726562 197.15625 214.679688 197.480469 L 214.769531 201.964844 C 215.4375 202.21875 215.925781 202.886719 215.925781 203.648438 C 215.925781 204.640625 215.113281 205.453125 214.117188 205.453125 C 213.125 205.453125 212.3125 204.640625 212.3125 203.648438 C 212.3125 203.464844 212.347656 203.285156 212.402344 203.105469 L 209.242188 200.464844 C 208.84375 200.734375 208.355469 200.898438 207.8125 200.898438 C 206.421875 200.898438 205.300781 199.777344 205.300781 198.386719 C 205.300781 197.390625 205.878906 196.542969 206.710938 196.125 L 206.167969 193.125 C 206.132812 193.125 206.078125 193.125 206.042969 193.125 C 203.511719 193.125 201.453125 191.066406 201.453125 188.535156 C 201.453125 186.003906 203.511719 183.941406 206.042969 183.941406 C 207.253906 183.941406 208.335938 184.414062 209.148438 185.171875 L 210.902344 183.78125 C 210.269531 182.785156 209.910156 181.628906 209.910156 180.363281 C 209.910156 179.152344 210.253906 178.011719 210.847656 177.039062 L 206.367188 173.601562 C 206.023438 173.835938 205.609375 173.980469 205.15625 173.980469 C 204.667969 173.980469 204.21875 173.820312 203.855469 173.546875 L 201.019531 175.519531 C 201.523438 176.441406 201.796875 177.488281 201.796875 178.609375 C 201.796875 182.1875 198.90625 185.082031 195.328125 185.082031 C 192.292969 185.082031 189.761719 183.003906 189.058594 180.183594 L 184.214844 180.851562 C 184.160156 183.148438 182.28125 184.992188 179.96875 184.992188 C 177.621094 184.992188 175.722656 183.09375 175.722656 180.742188 C 175.722656 178.394531 177.621094 176.496094 179.96875 176.496094 C 180.402344 176.496094 180.820312 176.566406 181.199219 176.675781 L 186.367188 166.210938 C 185.046875 165.324219 184.144531 163.878906 183.980469 162.214844 L 179.71875 162.070312 C 179.410156 162.863281 178.652344 163.425781 177.746094 163.425781 C 177.511719 163.425781 177.296875 163.390625 177.078125 163.316406 L 173.664062 167.746094 C 174.730469 168.792969 175.382812 170.242188 175.382812 171.847656 C 175.382812 175.03125 172.796875 177.617188 169.617188 177.617188 C 166.941406 177.617188 164.683594 175.773438 164.035156 173.296875 L 160.078125 173.820312 C 160.003906 176.078125 158.144531 177.90625 155.867188 177.90625 C 153.535156 177.90625 151.65625 176.023438 151.65625 173.691406 C 151.65625 171.488281 153.355469 169.679688 155.523438 169.5 L 155.902344 164.871094 C 155.144531 164.546875 154.621094 163.785156 154.621094 162.902344 C 154.621094 161.726562 155.578125 160.75 156.769531 160.75 C 157.042969 160.75 157.277344 160.804688 157.511719 160.875 L 165.589844 150.933594 C 165.390625 150.609375 165.261719 150.210938 165.261719 149.796875 C 165.261719 149.214844 165.496094 148.691406 165.859375 148.3125 L 164.613281 145.890625 C 163.980469 146.125 163.3125 146.253906 162.605469 146.253906 C 161.59375 146.253906 160.636719 145.980469 159.824219 145.527344 L 154.964844 152.273438 C 155.46875 152.832031 155.777344 153.589844 155.777344 154.421875 C 155.777344 156.195312 154.332031 157.640625 152.5625 157.640625 C 152.199219 157.640625 151.839844 157.585938 151.511719 157.460938 L 146.4375 165.738281 C 147.59375 166.679688 148.316406 168.105469 148.316406 169.714844 C 148.316406 172.554688 146.019531 174.851562 143.183594 174.851562 C 140.347656 174.851562 138.050781 172.554688 138.050781 169.714844 C 138.050781 167.402344 139.589844 165.449219 141.683594 164.800781 L 141.285156 162.359375 C 141.25 162.359375 141.230469 162.359375 141.195312 162.359375 C 138.558594 162.359375 136.425781 160.226562 136.425781 157.585938 C 136.425781 154.964844 138.539062 152.832031 141.160156 152.8125 L 141.449219 150.699219 C 138.394531 149.957031 136.117188 147.191406 136.117188 143.902344 C 136.117188 140.050781 139.246094 136.925781 143.09375 136.925781 C 146.292969 136.925781 149 139.074219 149.816406 142.023438 L 156.84375 140.773438 C 156.84375 140.667969 156.84375 140.574219 156.84375 140.46875 C 156.84375 139.492188 157.097656 138.570312 157.511719 137.753906 L 152.324219 134.121094 C 151.746094 134.664062 150.972656 134.988281 150.121094 134.988281 C 148.332031 134.988281 146.871094 133.527344 146.871094 131.734375 C 146.871094 129.945312 148.332031 128.480469 150.121094 128.480469 C 151.910156 128.480469 153.375 129.945312 153.375 131.734375 C 153.375 132.1875 153.285156 132.605469 153.121094 132.984375 L 158.304688 136.617188 C 159.046875 135.785156 160.042969 135.171875 161.144531 134.882812 L 161.125 129.621094 C 159.171875 129.296875 157.691406 127.613281 157.691406 125.570312 C 157.691406 123.3125 159.535156 121.46875 161.792969 121.46875 C 163.128906 121.46875 164.304688 122.101562 165.046875 123.078125 L 171.605469 119.644531 C 171.441406 119.15625 171.351562 118.648438 171.351562 118.105469 C 171.351562 115.519531 173.449219 113.40625 176.050781 113.40625 C 178.632812 113.40625 180.746094 115.503906 180.746094 118.105469 C 180.746094 119.824219 179.824219 121.34375 178.433594 122.15625 L 180.601562 127.507812 C 180.945312 127.433594 181.289062 127.378906 181.667969 127.378906 C 182.519531 127.378906 183.332031 127.613281 184.015625 128.03125 L 188.933594 122.066406 C 187.8125 120.90625 187.105469 119.335938 187.105469 117.601562 C 187.105469 114.074219 189.960938 111.199219 193.503906 111.199219 C 197.027344 111.199219 199.898438 114.058594 199.898438 117.601562 C 199.898438 119.171875 199.320312 120.617188 198.382812 121.722656 L 203.261719 126.855469 C 203.550781 126.710938 203.875 126.636719 204.21875 126.636719 C 204.308594 126.636719 204.398438 126.636719 204.46875 126.65625 L 207.074219 121.035156 C 206.007812 120.292969 205.300781 119.0625 205.300781 117.652344 C 205.300781 115.394531 207.144531 113.550781 209.402344 113.550781 C 211.660156 113.550781 213.503906 115.394531 213.503906 117.652344 C 213.503906 118.160156 213.414062 118.648438 213.25 119.082031 L 217.390625 121.488281 C 218.417969 120.128906 220.0625 119.246094 221.886719 119.246094 C 225.015625 119.246094 227.542969 121.777344 227.542969 124.902344 C 227.542969 125.664062 227.398438 126.386719 227.128906 127.035156 L 233.234375 130.453125 C 234.085938 129.351562 235.421875 128.625 236.9375 128.625 C 239.523438 128.625 241.617188 130.722656 241.617188 133.308594 C 241.617188 134.664062 241.039062 135.894531 240.117188 136.742188 L 243.371094 141.535156 C 244.003906 141.226562 244.726562 141.046875 245.484375 141.046875 C 248.160156 141.046875 250.328125 143.214844 250.328125 145.890625 C 250.328125 148.566406 248.160156 150.734375 245.484375 150.734375 C 244.167969 150.734375 242.957031 150.210938 242.089844 149.34375 L 236.8125 153.355469 C 236.976562 153.734375 237.066406 154.152344 237.066406 154.585938 C 237.066406 156.265625 235.710938 157.621094 234.03125 157.621094 C 233.832031 157.621094 233.632812 157.605469 233.453125 157.566406 L 230.507812 164.113281 C 231.753906 164.925781 232.585938 166.335938 232.585938 167.925781 C 232.585938 169.589844 231.679688 171.054688 230.34375 171.847656 L 231.769531 175.464844 C 232.242188 175.339844 232.710938 175.285156 233.214844 175.285156 C 234.15625 175.285156 235.058594 175.519531 235.835938 175.917969 L 240.894531 168.46875 C 239.359375 167.183594 238.382812 165.25 238.382812 163.082031 Z M 162.535156 134.738281 L 162.515625 129.640625 C 164.449219 129.3125 165.914062 127.613281 165.914062 125.589844 C 165.914062 125.15625 165.839844 124.722656 165.714844 124.324219 L 172.273438 120.890625 C 173.121094 122.066406 174.511719 122.824219 176.066406 122.824219 C 176.445312 122.824219 176.808594 122.789062 177.167969 122.699219 L 179.335938 128.046875 C 178 128.84375 177.097656 130.308594 177.097656 131.988281 C 177.097656 134.015625 178.417969 135.730469 180.242188 136.347656 L 179.265625 142.128906 C 179.140625 142.128906 179.011719 142.113281 178.867188 142.113281 C 175.289062 142.113281 172.398438 145.003906 172.398438 148.582031 C 172.398438 152.164062 175.289062 155.054688 178.867188 155.054688 C 182.265625 155.054688 185.046875 152.433594 185.316406 149.109375 L 189.058594 149 C 189.367188 149.8125 190.140625 150.390625 191.0625 150.390625 C 191.714844 150.390625 192.292969 150.101562 192.691406 149.632812 L 197.585938 151.585938 C 197.53125 151.875 197.496094 152.164062 197.496094 152.453125 C 197.496094 154.730469 199.355469 156.59375 201.632812 156.59375 C 203.910156 156.59375 205.769531 154.730469 205.769531 152.453125 C 205.769531 151.457031 205.410156 150.535156 204.832031 149.8125 L 210.015625 143.8125 C 210.921875 144.40625 212.003906 144.769531 213.160156 144.769531 C 216.285156 144.769531 218.816406 142.238281 218.816406 139.113281 C 218.816406 135.984375 216.285156 133.453125 213.160156 133.453125 C 211.988281 133.453125 210.882812 133.816406 209.980469 134.429688 L 206.113281 130 C 206.3125 129.675781 206.421875 129.277344 206.421875 128.863281 C 206.421875 128.230469 206.152344 127.652344 205.71875 127.234375 L 208.300781 121.613281 C 208.644531 121.703125 209.003906 121.757812 209.367188 121.757812 C 210.632812 121.757812 211.769531 121.179688 212.511719 120.273438 L 216.648438 122.679688 C 216.359375 123.367188 216.195312 124.109375 216.195312 124.902344 C 216.195312 128.03125 218.726562 130.5625 221.851562 130.5625 C 222.160156 130.5625 222.464844 130.542969 222.753906 130.488281 L 224.382812 136.109375 C 223.765625 136.527344 223.371094 137.214844 223.371094 138.007812 C 223.371094 138.929688 223.910156 139.707031 224.671875 140.085938 L 224.003906 144.894531 C 221.796875 144.96875 220.027344 146.777344 220.027344 149 C 220.027344 149.253906 220.046875 149.507812 220.097656 149.757812 L 214.226562 151.929688 C 213.828125 151.421875 213.214844 151.113281 212.527344 151.113281 C 211.316406 151.113281 210.34375 152.089844 210.34375 153.300781 C 210.34375 153.878906 210.558594 154.386719 210.921875 154.785156 L 207.941406 160.207031 C 207.632812 160.117188 207.308594 160.0625 206.980469 160.0625 C 205.140625 160.0625 203.65625 161.546875 203.65625 163.390625 C 203.65625 165.234375 205.140625 166.714844 206.980469 166.714844 C 208.824219 166.714844 210.304688 165.234375 210.304688 163.390625 L 218.546875 161.636719 C 218.746094 161.960938 218.996094 162.230469 219.324219 162.414062 L 216.902344 173.980469 C 216.703125 173.964844 216.484375 173.945312 216.269531 173.945312 C 214.460938 173.945312 212.816406 174.707031 211.644531 175.917969 L 207.164062 172.480469 C 207.234375 172.265625 207.289062 172.011719 207.289062 171.777344 C 207.289062 170.566406 206.3125 169.589844 205.101562 169.589844 C 203.890625 169.589844 202.917969 170.566406 202.917969 171.777344 C 202.917969 171.992188 202.953125 172.191406 203.007812 172.390625 L 200.171875 174.363281 C 198.976562 172.988281 197.226562 172.121094 195.273438 172.121094 C 191.695312 172.121094 188.804688 175.011719 188.804688 178.59375 C 188.804688 178.664062 188.804688 178.738281 188.804688 178.789062 L 183.964844 179.460938 C 183.691406 178.574219 183.113281 177.796875 182.375 177.273438 L 187.539062 166.804688 C 188.082031 166.988281 188.679688 167.09375 189.292969 167.09375 C 192.273438 167.09375 194.695312 164.671875 194.695312 161.691406 C 194.695312 158.707031 192.273438 156.304688 189.292969 156.304688 C 186.621094 156.304688 184.398438 158.253906 183.964844 160.820312 L 179.699219 160.675781 C 179.429688 159.808594 178.632812 159.195312 177.695312 159.195312 C 176.539062 159.195312 175.578125 160.136719 175.578125 161.308594 C 175.578125 161.742188 175.707031 162.125 175.921875 162.46875 L 172.507812 166.894531 C 171.640625 166.371094 170.628906 166.082031 169.5625 166.082031 C 166.382812 166.082031 163.800781 168.667969 163.800781 171.847656 C 163.800781 171.867188 163.800781 171.902344 163.800781 171.921875 L 159.84375 172.445312 C 159.410156 171.054688 158.269531 169.949219 156.84375 169.589844 L 157.222656 164.960938 C 158.160156 164.726562 158.847656 163.878906 158.847656 162.882812 C 158.847656 162.46875 158.722656 162.070312 158.523438 161.742188 L 166.601562 151.800781 C 166.835938 151.890625 167.085938 151.929688 167.339844 151.929688 C 168.53125 151.929688 169.492188 150.96875 169.492188 149.777344 C 169.492188 148.601562 168.53125 147.625 167.339844 147.625 C 167.230469 147.625 167.125 147.625 167.035156 147.644531 L 165.785156 145.222656 C 167.304688 144.191406 168.316406 142.4375 168.316406 140.449219 C 168.316406 137.269531 165.734375 134.683594 162.550781 134.683594 C 162.515625 134.683594 162.5 134.683594 162.480469 134.683594 Z M 180.621094 142.367188 L 181.597656 136.582031 C 181.613281 136.582031 181.652344 136.582031 181.667969 136.582031 C 183.332031 136.582031 184.777344 135.695312 185.589844 134.375 L 192.273438 137.140625 C 192.183594 137.519531 192.128906 137.902344 192.128906 138.316406 C 192.128906 140.957031 194.261719 143.089844 196.898438 143.089844 C 199.539062 143.089844 201.671875 140.957031 201.671875 138.316406 C 201.671875 137.03125 201.164062 135.875 200.351562 135.007812 L 203.476562 130.976562 C 203.710938 131.066406 203.964844 131.101562 204.21875 131.101562 C 204.523438 131.101562 204.8125 131.050781 205.085938 130.921875 L 208.953125 135.351562 C 208.046875 136.347656 207.507812 137.683594 207.507812 139.128906 C 207.507812 140.59375 208.066406 141.914062 208.96875 142.925781 L 203.785156 148.925781 C 203.152344 148.546875 202.429688 148.332031 201.632812 148.332031 C 200.132812 148.332031 198.832031 149.125 198.09375 150.320312 L 193.195312 148.367188 C 193.195312 148.332031 193.195312 148.292969 193.195312 148.257812 C 193.195312 147.066406 192.238281 146.105469 191.046875 146.105469 C 190.089844 146.105469 189.273438 146.738281 189.003906 147.625 L 185.265625 147.734375 C 184.921875 145.148438 183.058594 143.070312 180.601562 142.367188 Z M 197.371094 122.699219 L 202.25 127.832031 C 202.085938 128.140625 201.976562 128.5 201.976562 128.878906 C 201.976562 129.332031 202.121094 129.765625 202.355469 130.128906 L 199.230469 134.160156 C 198.542969 133.761719 197.730469 133.542969 196.882812 133.542969 C 195.148438 133.542969 193.628906 134.484375 192.796875 135.859375 L 186.113281 133.074219 C 186.203125 132.730469 186.238281 132.351562 186.238281 131.972656 C 186.238281 130.796875 185.789062 129.730469 185.066406 128.917969 L 189.980469 122.949219 C 190.992188 123.621094 192.183594 124 193.484375 124 C 194.949219 124 196.285156 123.511719 197.371094 122.679688 Z M 225.71875 135.765625 L 224.09375 130.128906 C 225.03125 129.730469 225.828125 129.078125 226.421875 128.265625 L 232.53125 131.683594 C 232.332031 132.1875 232.222656 132.75 232.222656 133.328125 C 232.222656 133.726562 232.277344 134.105469 232.367188 134.484375 L 227.417969 136.5625 C 227 136.074219 226.40625 135.765625 225.71875 135.75 Z M 214.625 186.546875 L 213.667969 192.476562 C 212.402344 192.621094 211.410156 193.703125 211.410156 195.003906 C 211.410156 196.199219 212.222656 197.191406 213.324219 197.480469 L 213.414062 201.964844 C 213.378906 201.984375 213.324219 202 213.289062 202.019531 L 210.125 199.378906 C 210.269531 199.074219 210.34375 198.730469 210.34375 198.367188 C 210.34375 197.066406 209.347656 196 208.085938 195.875 L 207.542969 192.871094 C 209.347656 192.257812 210.648438 190.539062 210.648438 188.535156 C 210.648438 187.703125 210.433594 186.925781 210.035156 186.257812 L 211.789062 184.863281 C 212.566406 185.640625 213.539062 186.238281 214.644531 186.527344 Z M 158.703125 144.734375 L 153.84375 151.476562 C 153.445312 151.3125 153.011719 151.207031 152.5625 151.207031 C 150.789062 151.207031 149.34375 152.652344 149.34375 154.421875 C 149.34375 155.328125 149.722656 156.160156 150.339844 156.738281 L 145.261719 165.015625 C 144.628906 164.726562 143.925781 164.582031 143.183594 164.582031 C 143.128906 164.582031 143.09375 164.582031 143.039062 164.582031 L 142.640625 162.140625 C 144.574219 161.527344 145.964844 159.71875 145.964844 157.605469 C 145.964844 155.433594 144.519531 153.609375 142.53125 153.03125 L 142.820312 150.914062 C 142.914062 150.914062 143.003906 150.914062 143.109375 150.914062 C 146.960938 150.914062 150.085938 147.789062 150.085938 143.9375 C 150.085938 143.757812 150.085938 143.59375 150.066406 143.414062 L 157.097656 142.183594 C 157.402344 143.179688 157.964844 144.066406 158.703125 144.75 Z M 163.980469 158.796875 C 163.980469 156.539062 165.824219 154.695312 168.082031 154.695312 C 170.339844 154.695312 172.183594 156.539062 172.183594 158.796875 C 172.183594 161.058594 170.339844 162.902344 168.082031 162.902344 C 165.824219 162.902344 163.980469 161.058594 163.980469 158.796875 Z M 168.371094 131.265625 C 168.371094 130.074219 169.328125 129.113281 170.519531 129.113281 C 171.714844 129.113281 172.671875 130.074219 172.671875 131.265625 C 172.671875 132.441406 171.714844 133.417969 170.519531 133.417969 C 169.347656 133.417969 168.371094 132.460938 168.371094 131.265625 Z M 168.371094 131.265625 " clip-rule="evenodd"/></clipPath><linearGradient x1="39.985145" gradientTransform="matrix(1.806808, 0, 0, 1.807704, 136.13704, 111.218747)" y1="-0.154484" x2="39.673595" gradientUnits="userSpaceOnUse" y2="52.365334" id="id3"><stop stop-opacity="1" stop-color="rgb(19.198608%, 59.199524%, 58.399963%)" offset="0"/><stop stop-opacity="1" stop-color="rgb(19.198608%, 59.138489%, 58.563232%)" offset="0.00726688"/><stop stop-opacity="1" stop-color="rgb(19.198608%, 59.078979%, 58.726501%)" offset="0.125"/><stop stop-opacity="1" stop-color="rgb(19.198608%, 59.040833%, 58.830261%)" offset="0.132812"/><stop stop-opacity="1" stop-color="rgb(19.198608%, 58.964539%, 59.040833%)" offset="0.140625"/><stop stop-opacity="1" stop-color="rgb(19.198608%, 58.886719%, 59.249878%)" offset="0.148437"/><stop stop-opacity="1" stop-color="rgb(19.198608%, 58.810425%, 59.460449%)" offset="0.15625"/><stop stop-opacity="1" stop-color="rgb(19.198608%, 58.734131%, 59.669495%)" offset="0.164062"/><stop stop-opacity="1" stop-color="rgb(19.198608%, 58.656311%, 59.880066%)" offset="0.171875"/><stop stop-opacity="1" stop-color="rgb(19.198608%, 58.580017%, 60.089111%)" offset="0.179687"/><stop stop-opacity="1" stop-color="rgb(19.198608%, 58.503723%, 60.298157%)" offset="0.1875"/><stop stop-opacity="1" stop-color="rgb(19.198608%, 58.427429%, 60.508728%)" offset="0.195312"/><stop stop-opacity="1" stop-color="rgb(19.198608%, 58.349609%, 60.717773%)" offset="0.203125"/><stop stop-opacity="1" stop-color="rgb(19.198608%, 58.273315%, 60.928345%)" offset="0.210937"/><stop stop-opacity="1" stop-color="rgb(19.198608%, 58.197021%, 61.13739%)" offset="0.21875"/><stop stop-opacity="1" stop-color="rgb(19.198608%, 58.119202%, 61.347961%)" offset="0.226562"/><stop stop-opacity="1" stop-color="rgb(19.198608%, 58.042908%, 61.557007%)" offset="0.234375"/><stop stop-opacity="1" stop-color="rgb(19.198608%, 57.966614%, 61.766052%)" offset="0.242188"/><stop stop-opacity="1" stop-color="rgb(19.198608%, 57.888794%, 61.976624%)" offset="0.25"/><stop stop-opacity="1" stop-color="rgb(19.198608%, 57.8125%, 62.185669%)" offset="0.257812"/><stop stop-opacity="1" stop-color="rgb(19.198608%, 57.736206%, 62.39624%)" offset="0.265625"/><stop stop-opacity="1" stop-color="rgb(19.198608%, 57.658386%, 62.605286%)" offset="0.273437"/><stop stop-opacity="1" stop-color="rgb(19.198608%, 57.582092%, 62.815857%)" offset="0.28125"/><stop stop-opacity="1" stop-color="rgb(19.198608%, 57.505798%, 63.024902%)" offset="0.289062"/><stop stop-opacity="1" stop-color="rgb(19.198608%, 57.429504%, 63.233948%)" offset="0.296875"/><stop stop-opacity="1" stop-color="rgb(19.198608%, 57.351685%, 63.444519%)" offset="0.304688"/><stop stop-opacity="1" stop-color="rgb(19.198608%, 57.275391%, 63.653564%)" offset="0.3125"/><stop stop-opacity="1" stop-color="rgb(19.198608%, 57.199097%, 63.864136%)" offset="0.320312"/><stop stop-opacity="1" stop-color="rgb(19.198608%, 57.121277%, 64.073181%)" offset="0.328125"/><stop stop-opacity="1" stop-color="rgb(19.198608%, 57.044983%, 64.283752%)" offset="0.335938"/><stop stop-opacity="1" stop-color="rgb(19.198608%, 56.968689%, 64.492798%)" offset="0.34375"/><stop stop-opacity="1" stop-color="rgb(19.198608%, 56.890869%, 64.701843%)" offset="0.351562"/><stop stop-opacity="1" stop-color="rgb(19.198608%, 56.814575%, 64.912415%)" offset="0.359375"/><stop stop-opacity="1" stop-color="rgb(19.198608%, 56.738281%, 65.12146%)" offset="0.367187"/><stop stop-opacity="1" stop-color="rgb(19.198608%, 56.660461%, 65.332031%)" offset="0.375"/><stop stop-opacity="1" stop-color="rgb(19.198608%, 56.584167%, 65.541077%)" offset="0.382812"/><stop stop-opacity="1" stop-color="rgb(19.198608%, 56.507874%, 65.751648%)" offset="0.390625"/><stop stop-opacity="1" stop-color="rgb(19.198608%, 56.43158%, 65.960693%)" offset="0.398437"/><stop stop-opacity="1" stop-color="rgb(19.198608%, 56.35376%, 66.169739%)" offset="0.40625"/><stop stop-opacity="1" stop-color="rgb(19.198608%, 56.277466%, 66.38031%)" offset="0.414062"/><stop stop-opacity="1" stop-color="rgb(19.198608%, 56.201172%, 66.589355%)" offset="0.421875"/><stop stop-opacity="1" stop-color="rgb(19.198608%, 56.123352%, 66.799927%)" offset="0.429687"/><stop stop-opacity="1" stop-color="rgb(19.198608%, 56.047058%, 67.008972%)" offset="0.4375"/><stop stop-opacity="1" stop-color="rgb(19.198608%, 55.970764%, 67.219543%)" offset="0.445312"/><stop stop-opacity="1" stop-color="rgb(19.198608%, 55.892944%, 67.428589%)" offset="0.453125"/><stop stop-opacity="1" stop-color="rgb(19.198608%, 55.81665%, 67.637634%)" offset="0.460937"/><stop stop-opacity="1" stop-color="rgb(19.198608%, 55.740356%, 67.848206%)" offset="0.46875"/><stop stop-opacity="1" stop-color="rgb(19.198608%, 55.662537%, 68.057251%)" offset="0.476562"/><stop stop-opacity="1" stop-color="rgb(19.198608%, 55.586243%, 68.267822%)" offset="0.484375"/><stop stop-opacity="1" stop-color="rgb(19.198608%, 55.509949%, 68.476868%)" offset="0.492187"/><stop stop-opacity="1" stop-color="rgb(19.198608%, 55.433655%, 68.687439%)" offset="0.5"/><stop stop-opacity="1" stop-color="rgb(19.198608%, 55.355835%, 68.896484%)" offset="0.507812"/><stop stop-opacity="1" stop-color="rgb(19.198608%, 55.279541%, 69.10553%)" offset="0.515625"/><stop stop-opacity="1" stop-color="rgb(19.198608%, 55.203247%, 69.316101%)" offset="0.523438"/><stop stop-opacity="1" stop-color="rgb(19.198608%, 55.125427%, 69.525146%)" offset="0.53125"/><stop stop-opacity="1" stop-color="rgb(19.198608%, 55.049133%, 69.735718%)" offset="0.539062"/><stop stop-opacity="1" stop-color="rgb(19.198608%, 54.972839%, 69.944763%)" offset="0.546875"/><stop stop-opacity="1" stop-color="rgb(19.198608%, 54.89502%, 70.153809%)" offset="0.554688"/><stop stop-opacity="1" stop-color="rgb(19.198608%, 54.818726%, 70.36438%)" offset="0.5625"/><stop stop-opacity="1" stop-color="rgb(19.198608%, 54.742432%, 70.573425%)" offset="0.570312"/><stop stop-opacity="1" stop-color="rgb(19.198608%, 54.664612%, 70.783997%)" offset="0.578125"/><stop stop-opacity="1" stop-color="rgb(19.198608%, 54.588318%, 70.993042%)" offset="0.585938"/><stop stop-opacity="1" stop-color="rgb(19.198608%, 54.512024%, 71.203613%)" offset="0.59375"/><stop stop-opacity="1" stop-color="rgb(19.198608%, 54.43573%, 71.412659%)" offset="0.601562"/><stop stop-opacity="1" stop-color="rgb(19.198608%, 54.35791%, 71.621704%)" offset="0.609375"/><stop stop-opacity="1" stop-color="rgb(19.198608%, 54.281616%, 71.832275%)" offset="0.617188"/><stop stop-opacity="1" stop-color="rgb(19.198608%, 54.205322%, 72.041321%)" offset="0.625"/><stop stop-opacity="1" stop-color="rgb(19.198608%, 54.127502%, 72.251892%)" offset="0.632812"/><stop stop-opacity="1" stop-color="rgb(19.198608%, 54.051208%, 72.460938%)" offset="0.640625"/><stop stop-opacity="1" stop-color="rgb(19.198608%, 53.974915%, 72.671509%)" offset="0.648438"/><stop stop-opacity="1" stop-color="rgb(19.198608%, 53.897095%, 72.880554%)" offset="0.65625"/><stop stop-opacity="1" stop-color="rgb(19.198608%, 53.820801%, 73.0896%)" offset="0.664062"/><stop stop-opacity="1" stop-color="rgb(19.198608%, 53.744507%, 73.300171%)" offset="0.671875"/><stop stop-opacity="1" stop-color="rgb(19.198608%, 53.666687%, 73.509216%)" offset="0.679688"/><stop stop-opacity="1" stop-color="rgb(19.198608%, 53.590393%, 73.719788%)" offset="0.6875"/><stop stop-opacity="1" stop-color="rgb(19.198608%, 53.514099%, 73.928833%)" offset="0.695312"/><stop stop-opacity="1" stop-color="rgb(19.198608%, 53.437805%, 74.139404%)" offset="0.703125"/><stop stop-opacity="1" stop-color="rgb(19.198608%, 53.359985%, 74.34845%)" offset="0.710938"/><stop stop-opacity="1" stop-color="rgb(19.198608%, 53.283691%, 74.557495%)" offset="0.71875"/><stop stop-opacity="1" stop-color="rgb(19.198608%, 53.207397%, 74.768066%)" offset="0.726562"/><stop stop-opacity="1" stop-color="rgb(19.198608%, 53.129578%, 74.977112%)" offset="0.734375"/><stop stop-opacity="1" stop-color="rgb(19.198608%, 53.053284%, 75.187683%)" offset="0.742188"/><stop stop-opacity="1" stop-color="rgb(19.198608%, 52.97699%, 75.396729%)" offset="0.75"/><stop stop-opacity="1" stop-color="rgb(19.198608%, 52.89917%, 75.6073%)" offset="0.757812"/><stop stop-opacity="1" stop-color="rgb(19.198608%, 52.822876%, 75.816345%)" offset="0.765625"/><stop stop-opacity="1" stop-color="rgb(19.198608%, 52.746582%, 76.025391%)" offset="0.773438"/><stop stop-opacity="1" stop-color="rgb(19.198608%, 52.668762%, 76.235962%)" offset="0.78125"/><stop stop-opacity="1" stop-color="rgb(19.198608%, 52.592468%, 76.445007%)" offset="0.789062"/><stop stop-opacity="1" stop-color="rgb(19.198608%, 52.516174%, 76.655579%)" offset="0.796875"/><stop stop-opacity="1" stop-color="rgb(19.198608%, 52.43988%, 76.864624%)" offset="0.804688"/><stop stop-opacity="1" stop-color="rgb(19.198608%, 52.362061%, 77.075195%)" offset="0.8125"/><stop stop-opacity="1" stop-color="rgb(19.198608%, 52.285767%, 77.284241%)" offset="0.820312"/><stop stop-opacity="1" stop-color="rgb(19.198608%, 52.209473%, 77.493286%)" offset="0.828125"/><stop stop-opacity="1" stop-color="rgb(19.198608%, 52.131653%, 77.703857%)" offset="0.835938"/><stop stop-opacity="1" stop-color="rgb(19.198608%, 52.055359%, 77.912903%)" offset="0.84375"/><stop stop-opacity="1" stop-color="rgb(19.198608%, 51.979065%, 78.123474%)" offset="0.851562"/><stop stop-opacity="1" stop-color="rgb(19.198608%, 51.901245%, 78.33252%)" offset="0.859375"/><stop stop-opacity="1" stop-color="rgb(19.198608%, 51.824951%, 78.543091%)" offset="0.867188"/><stop stop-opacity="1" stop-color="rgb(19.198608%, 51.748657%, 78.752136%)" offset="0.875"/><stop stop-opacity="1" stop-color="rgb(19.198608%, 51.670837%, 78.961182%)" offset="0.882812"/><stop stop-opacity="1" stop-color="rgb(19.198608%, 51.594543%, 79.171753%)" offset="0.890625"/><stop stop-opacity="1" stop-color="rgb(19.198608%, 51.51825%, 79.380798%)" offset="0.898438"/><stop stop-opacity="1" stop-color="rgb(19.198608%, 51.44043%, 79.59137%)" offset="0.90625"/><stop stop-opacity="1" stop-color="rgb(19.198608%, 51.364136%, 79.800415%)" offset="0.914062"/><stop stop-opacity="1" stop-color="rgb(19.198608%, 51.287842%, 80.010986%)" offset="0.921875"/><stop stop-opacity="1" stop-color="rgb(19.198608%, 51.211548%, 80.220032%)" offset="0.929688"/><stop stop-opacity="1" stop-color="rgb(19.198608%, 51.133728%, 80.429077%)" offset="0.9375"/><stop stop-opacity="1" stop-color="rgb(19.198608%, 51.046753%, 80.667114%)" offset="0.992733"/><stop stop-opacity="1" stop-color="rgb(19.198608%, 50.999451%, 80.799866%)" offset="1"/></linearGradient></defs><g clip-path="url(#id1)"><g clip-path="url(#id2)"><path fill="url(#id3)" d="M 136.136719 111.199219 L 136.136719 205.453125 L 252.386719 205.453125 L 252.386719 111.199219 Z M 136.136719 111.199219 " fill-rule="nonzero"/></g></g></svg>