<svg width="1219" height="887" viewBox="0 0 1219 887" fill="none" xmlns="http://www.w3.org/2000/svg">
<path d="M806.052 445.873C791.399 400.754 742.978 376.023 697.835 390.6L683.128 395.38L670.014 399.547L657.023 403.836L631.041 412.538C622.339 415.478 613.639 418.42 605.06 421.483L579.2 430.554C570.5 433.617 561.921 436.804 553.342 439.868C544.761 443.055 536.182 445.995 527.604 449.305L501.99 458.857C493.412 462.044 484.954 465.357 476.376 468.661C442.305 481.897 408.48 495.496 374.899 510.085L349.775 521.115C341.441 524.914 333.107 528.591 324.773 532.513L312.396 538.273L300.017 544.155L287.761 550.284L281.634 553.362L275.502 556.541L435.783 683.302L584.992 633.366L551.38 772.363L672.834 801.777L675.529 797.243L678.103 792.708L683.251 783.516C686.56 777.389 689.868 771.26 693.055 765.133C699.556 752.877 705.678 740.498 711.683 728.121C723.695 703.37 734.969 678.368 745.877 653.236C751.147 640.613 756.662 628.113 761.688 615.489L769.408 596.616L776.884 577.615C781.909 564.991 786.566 552.245 791.346 539.5L794.9 529.941L798.332 520.382L805.194 501.263C811.611 483.405 811.912 463.921 806.052 445.873Z" fill="#6185BE"/>
<path d="M873.213 309.469L719.895 498.813C703.114 519.524 674.529 526.406 650.161 515.604L646.484 513.888L444.755 424.3C412.232 409.848 397.582 371.768 412.035 339.244C426.488 306.721 464.568 292.072 497.092 306.524L698.821 396.112L625.409 411.308L791.841 253.458" fill="url(#paint0_linear)"/>
<path d="M791.713 253.462L824.926 221.96C843.564 204.291 872.998 205.074 890.669 223.712C906.716 240.638 907.741 266.832 893.067 284.963L873.213 309.464" fill="#FDC068"/>
<path d="M263.373 477.247C227.254 552.25 244.748 659.614 312.684 679.745C365.141 695.141 368.294 699.285 390.365 705.798C460.31 726.325 538.489 622.461 532.756 524.374L263.373 477.247Z" fill="#6185BE"/>
<path d="M423.186 284.713C416.445 245.863 328.695 194.875 286.167 212.283C240.21 231.155 248.299 348.808 258.592 347.217C268.765 345.5 423.186 284.713 423.186 284.713Z" fill="url(#paint1_linear)"/>
<path d="M307.37 223.925C275.869 225.273 274.157 276.134 317.174 283.855C358.843 291.33 396.836 264.245 390.219 254.441C383.723 244.759 341.319 222.331 307.37 223.925Z" fill="#6185BE"/>
<path d="M473.924 528.476C473.025 518.129 473.77 507.705 476.131 497.591C480.174 480.557 527.727 464.379 538.879 412.293C547.458 372.339 518.413 303.464 448.922 288.022L392.419 277.354C331.264 263.75 270.353 305.664 257.852 347.333H257.612C257.367 348.558 257.122 349.785 256.877 350.887C256.737 351.238 256.656 351.612 256.632 351.99H256.754C243.642 423.317 293.521 431.774 263.373 477.242L473.924 528.476Z" fill="url(#paint2_linear)"/>
<path d="M321.358 464.562C355.183 520.692 313.392 506.108 305.425 547.042L436.683 584.789L460.336 516.649L321.358 464.562Z" fill="#2B2B2B"/>
<path d="M520.252 457.76C519.79 457.785 519.341 457.605 519.025 457.27C518.181 456.584 518.053 455.342 518.74 454.499C518.753 454.484 518.766 454.467 518.78 454.452C531.209 439.64 538.098 420.965 538.266 401.631C538.256 400.491 539.173 399.557 540.313 399.547C540.324 399.547 540.338 399.547 540.349 399.547C541.453 399.501 542.386 400.358 542.433 401.461C542.435 401.518 542.435 401.574 542.433 401.631C542.241 421.947 535.007 441.568 521.967 457.147C521.448 457.477 520.862 457.687 520.252 457.76Z" fill="#2B2B2B"/>
<path d="M444.953 296.094L398.735 308.267L426.609 414.093L472.827 401.92L444.953 296.094Z" fill="white"/>
<path d="M445.492 524.676H444.879C443.395 524.331 442.465 522.856 442.795 521.367C444.389 513.768 449.169 507.15 455.173 498.939C460.06 492.496 464.521 485.74 468.532 478.718C469.277 477.365 470.977 476.87 472.33 477.615C473.684 478.36 474.179 480.06 473.434 481.413C469.332 488.619 464.745 495.539 459.708 502.126C454.071 509.847 449.659 515.975 448.187 522.471C447.889 523.729 446.785 524.631 445.492 524.676Z" fill="#2B2B2B"/>
<path d="M1038.42 609.852L1035.36 605.685L1032.17 601.641L1025.8 593.429C1021.51 588.037 1017.22 582.645 1012.8 577.375C1003.98 566.835 995.033 556.541 986.088 546.245C968.072 525.779 949.566 505.925 930.814 486.439C921.377 476.88 911.94 467.074 902.381 457.639L888.047 443.421L873.586 429.451C864.027 420.014 854.222 410.95 844.418 401.753L837.064 394.891L829.588 388.149L814.754 374.668C793.135 355.002 762.114 349.562 735.093 360.697L720.999 366.457L708.253 371.726L695.629 377.12L670.382 387.787C661.927 391.34 653.469 395.017 645.136 398.694L620.012 409.725C611.679 413.4 603.345 417.2 595.011 420.999C586.677 424.797 578.22 428.476 570.009 432.398L545.13 443.916C536.796 447.717 528.585 451.76 520.373 455.682C487.406 471.491 454.726 487.874 422.329 504.826L376.868 505.886C368.902 510.298 360.814 514.587 352.846 519.122L340.846 525.862L328.957 532.724L317.189 539.82L311.307 543.375L305.425 547.042L441.507 700.576L751.647 555.284L964.646 710.707L1038.42 609.852Z" fill="#6185BE"/>
<path d="M946.214 159.222C941.312 154.688 933.468 154.933 928.933 159.957L904.315 186.621H904.006L305.319 834.205C300.783 839.107 301.03 846.827 306.054 851.486C310.956 856.021 318.799 855.775 323.335 850.751L347.953 824.086H348.261L946.949 176.503C951.482 171.601 951.237 163.88 946.214 159.222Z" fill="#2B2B2B"/>
<path d="M707.763 455.555L469.513 568.428C445.415 579.81 416.689 573.805 399.168 553.722L396.716 550.902L272.81 408.003C249.492 381.167 252.345 340.508 279.182 317.19C306.019 293.872 346.678 296.726 369.996 323.562L494.023 466.463L421.352 448.937L675.534 363.394" fill="url(#paint3_linear)"/>
<path d="M407.376 320.132L352.471 278.953L399.901 143.896L476.621 166.814L442.305 307.631C439.462 319.53 427.509 326.87 415.61 324.025C412.627 323.312 409.822 321.985 407.376 320.132Z" fill="#FDC068"/>
<path d="M552.238 127.718C552.08 130.142 551.793 132.557 551.38 134.95L548.807 150.024L545.988 166.692L539.738 203.459C534.794 232.494 507.251 252.026 478.214 247.088L428.701 238.632C403.113 234.309 385.873 210.061 390.197 184.471C390.204 184.428 390.212 184.386 390.219 184.343L402.843 109.704C409.925 68.7035 448.904 41.2071 489.905 48.2891C527.977 54.8645 554.902 89.1746 552.24 127.718H552.238V127.718Z" fill="#FDC068"/>
<path d="M533.119 195.247C533.119 195.247 515.716 227.479 502.97 192.177L533.119 195.247Z" fill="white"/>
<path d="M457.993 243.411L424.534 233.607L449.781 277.114L457.993 243.411Z" fill="#2B2B2B"/>
<path d="M497.455 163.505C502.193 163.505 506.034 159.664 506.034 154.926C506.034 150.188 502.193 146.348 497.455 146.348C492.717 146.348 488.876 150.188 488.876 154.926C488.876 159.664 492.717 163.505 497.455 163.505Z" fill="#2B2B2B"/>
<path d="M525.03 151.008L533.364 165.342C534.986 168.109 534.056 171.667 531.289 173.287C531.204 173.337 531.117 173.384 531.031 173.431L523.432 176.372" fill="#FDC068"/>
<path d="M523.437 179.193C522.3 179.231 521.265 178.539 520.863 177.476C520.282 176.146 520.887 174.596 522.217 174.014C522.295 173.979 522.375 173.949 522.457 173.923L529.81 171.104C530.529 170.657 531.054 169.957 531.281 169.142C531.512 168.406 531.424 167.606 531.035 166.937L522.702 152.603C521.898 151.298 522.305 149.588 523.61 148.785C524.915 147.981 526.625 148.388 527.429 149.693C527.447 149.723 527.465 149.753 527.482 149.785L535.816 164.119C537.009 166.065 537.321 168.429 536.672 170.619C536.054 172.934 534.501 174.888 532.384 176.011L532.016 176.134L524.418 179.074C524.05 179.069 523.805 179.193 523.437 179.193Z" fill="#2B2B2B"/>
<path d="M534.222 55.5345L493.412 46.7007C453.037 38.0552 413.3 63.7782 404.655 104.152C404.486 104.935 404.331 105.72 404.19 106.509L394.631 159.093L412.033 147.451L427.353 137.284L445.614 140.841L459.708 87.4061C473.924 97.7017 499.294 105.907 525.644 105.667C519.883 88.9912 526.257 70.6086 534.222 55.5345Z" fill="#2B2B2B"/>
<path d="M415.71 158.235L432.5 162.035L439.608 130.415C441.287 123.04 436.683 115.696 429.314 113.993L425.883 113.258C418.507 111.579 411.163 116.183 409.46 123.551L405.293 141.812C403.653 149.221 408.31 156.561 415.71 158.235Z" fill="#FDC068"/>
<path d="M548.685 150.146L545.866 166.814C543.235 165.92 541.186 163.827 540.351 161.175C538.993 156.743 541.486 152.048 545.918 150.691C545.981 150.671 546.046 150.653 546.111 150.635C546.895 150.199 547.797 150.029 548.685 150.146Z" fill="#2B2B2B"/>
<path d="M404.803 99.6535C404.803 99.6535 429.804 0.751732 451.987 0.0166934C474.17 -0.718345 476.499 23.7913 489.366 24.773C502.234 25.7547 507.751 0.628391 531.649 6.02201C555.547 11.4156 557.019 110.684 557.019 110.684L404.803 99.6535Z" fill="#6185BE"/>
<path d="M413.137 70.3638L555.302 80.6576L556.895 110.684L404.803 99.6536L413.137 70.3638Z" fill="#2B2B2B"/>
<path d="M651.263 119.506H651.141L296.953 94.0165C295.843 93.9048 295.026 92.9214 295.12 91.8097C295.191 90.7196 296.135 89.8946 297.225 89.9663C297.258 89.9679 297.293 89.9713 297.326 89.9763L651.514 115.468C652.626 115.579 653.441 116.561 653.348 117.674C653.204 118.718 652.316 119.499 651.263 119.506Z" fill="#6185BE"/>
<path d="M258.834 346.851C258.622 346.87 258.411 346.828 258.222 346.728C257.164 346.361 256.572 345.235 256.874 344.155C263.983 322.218 280.282 307.756 293.763 297.584C294.643 296.907 295.905 297.072 296.583 297.952C297.261 298.832 297.095 300.094 296.215 300.771C283.346 310.575 267.536 324.547 260.796 345.381C260.494 346.22 259.723 346.798 258.834 346.851Z" fill="#2B2B2B"/>
<path d="M441.325 444.402C440.455 444.402 439.675 443.867 439.363 443.055C439.013 442.006 439.555 440.87 440.588 440.48L465.835 431.901C466.883 431.551 468.022 432.093 468.41 433.128C468.732 434.174 468.198 435.293 467.183 435.701L441.937 444.28C441.735 444.332 441.532 444.373 441.325 444.402Z" fill="#2B2B2B"/>
<path d="M800.452 543.735C800.2 543.755 799.948 543.713 799.717 543.613C798.673 543.253 798.118 542.113 798.48 541.07C798.483 541.06 798.487 541.05 798.49 541.04L802.045 531.479L812.339 502.811C826.192 464.151 810.006 421.147 774.102 401.213C773.163 400.656 772.853 399.442 773.412 398.504C773.957 397.587 775.13 397.267 776.064 397.781C813.767 418.622 830.793 463.731 816.261 504.286L805.967 532.964L802.412 542.523C802.005 543.232 801.267 543.687 800.452 543.735Z" fill="#2B2B2B"/>
<path d="M757.279 865.537L561.387 806.917C551.16 803.868 545.24 793.209 548.053 782.916L554.75 757.779L678.286 796.128L765.291 847.297C775.33 853.256 768.613 868.878 757.279 865.537Z" fill="#2B2B2B"/>
<path d="M1131.91 555.669L1009.1 719.151C1002.7 727.689 990.65 729.556 981.966 723.354L960.71 708.37L1039.45 605.752L1117.59 541.838C1126.64 534.483 1138.97 546.195 1131.91 555.669Z" fill="#2B2B2B"/>
<path d="M457.458 243.786L424.001 233.98L449.247 277.488L457.458 243.786Z" fill="#2B2B2B"/>
<path d="M873.213 212.159C838.407 201.007 826.765 243.661 856.178 285.57L897.847 233.852C897.969 233.845 887.92 216.94 873.213 212.159Z" fill="#FDC068"/>
<path d="M675.526 363.392L711.803 351.138C736.084 342.941 762.413 355.98 770.61 380.261C778.14 402.569 767.771 426.982 746.487 437.049L707.759 455.432" fill="#FDC068"/>
<path d="M240.977 880.56L24.9037 597.313H1206.85L1011.53 880.56H240.977Z" fill="white"/>
<path d="M1194.71 603.753L1008.24 874.119H244.139L37.9347 603.628L1194.71 603.753ZM1219 591H12L237.687 887H1014.82L1219 591Z" fill="#F9D5FF"/>
<path d="M174.014 593.732L83.0424 684.541L85.7262 687.219L176.698 596.411L174.014 593.732Z" fill="#F9D5FF"/>
<path d="M293.175 593.649L142.63 743.925L145.313 746.604L295.859 596.328L293.175 593.649Z" fill="#F9D5FF"/>
<path d="M407.303 598.526L187.969 817.467L190.652 820.146L409.987 601.205L407.303 598.526Z" fill="#F9D5FF"/>
<path d="M528.27 596.82L245.336 879.247L248.02 881.926L530.954 599.499L528.27 596.82Z" fill="#F9D5FF"/>
<path d="M648.957 595.153L364.412 879.188L367.096 881.866L651.64 597.832L648.957 595.153Z" fill="#F9D5FF"/>
<path d="M768.945 594.266L484.838 878.023L487.523 880.702L771.629 596.944L768.945 594.266Z" fill="#F9D5FF"/>
<path d="M887.24 595.299L605.379 876.654L608.063 879.333L889.924 597.978L887.24 595.299Z" fill="#F9D5FF"/>
<path d="M1004.98 596.878L721.509 879.84L724.193 882.519L1007.66 599.557L1004.98 596.878Z" fill="#F9D5FF"/>
<path d="M1126.1 594.929L843.526 876.998L846.209 879.677L1128.79 597.607L1126.1 594.929Z" fill="#F9D5FF"/>
<path d="M1106.9 735.888L965.57 876.967L968.253 879.646L1109.59 738.567L1106.9 735.888Z" fill="#F9D5FF"/>
<path d="M357 887C357 887 333.326 813.977 268.793 826.012C204.264 838.183 207.241 755.023 141.09 767.188C74.9383 779.354 71.2918 864.686 0 887H357Z" fill="url(#paint4_linear)"/>
<path d="M35.3074 768.676C45.9915 768.676 54.6528 760.018 54.6528 749.338C54.6528 738.658 45.9915 730 35.3074 730C24.6232 730 15.962 738.658 15.962 749.338C15.962 760.018 24.6232 768.676 35.3074 768.676Z" fill="url(#paint5_linear)"/>
<path d="M942.959 165.283C937.959 160.67 929.959 160.919 925.333 166.031L900.225 193.164H899.91L289.291 852.131C284.665 857.119 284.917 864.975 290.041 869.716C295.04 874.331 303.041 874.08 307.666 868.968L332.775 841.834H333.09L943.71 182.866C948.334 177.878 948.084 170.022 942.959 165.283Z" fill="#2B2B2B"/>
<path d="M1074.01 886C1074.01 886 1017.5 787.528 958.681 798.916C909.414 808.501 909.682 841.834 887.441 851.139C865.2 860.443 734.591 823.778 734.591 886H1074.01Z" fill="url(#paint6_linear)"/>
<path d="M691.193 851.278C699.032 851.278 705.386 844.811 705.386 836.834C705.386 828.857 699.032 822.39 691.193 822.39C683.354 822.39 677 828.857 677 836.834C677 844.811 683.354 851.278 691.193 851.278Z" fill="url(#paint7_linear)"/>
<defs>
<linearGradient id="paint0_linear" x1="336.866" y1="221.805" x2="751.569" y2="397.487" gradientUnits="userSpaceOnUse">
<stop stop-color="#F48B94"/>
<stop offset="0.405" stop-color="#F4A9A6"/>
<stop offset="0.499" stop-color="#FED3B5"/>
<stop offset="0.599" stop-color="#DBECC2"/>
<stop offset="1" stop-color="#ADDCC8"/>
</linearGradient>
<linearGradient id="paint1_linear" x1="299.43" y1="281.164" x2="549.051" y2="378.175" gradientUnits="userSpaceOnUse">
<stop stop-color="#F48B94"/>
<stop offset="0.405" stop-color="#F4A9A6"/>
<stop offset="0.499" stop-color="#FED3B5"/>
<stop offset="0.599" stop-color="#DBECC2"/>
<stop offset="1" stop-color="#ADDCC8"/>
</linearGradient>
<linearGradient id="paint2_linear" x1="314.294" y1="344.106" x2="680.637" y2="625.351" gradientUnits="userSpaceOnUse">
<stop stop-color="#F48B94"/>
<stop offset="0.405" stop-color="#F4A9A6"/>
<stop offset="0.499" stop-color="#FED3B5"/>
<stop offset="0.599" stop-color="#DBECC2"/>
<stop offset="1" stop-color="#ADDCC8"/>
</linearGradient>
<linearGradient id="paint3_linear" x1="278.654" y1="352.229" x2="669.361" y2="517.747" gradientUnits="userSpaceOnUse">
<stop stop-color="#F48B94"/>
<stop offset="0.405" stop-color="#F4A9A6"/>
<stop offset="0.499" stop-color="#FED3B5"/>
<stop offset="0.599" stop-color="#DBECC2"/>
<stop offset="1" stop-color="#ADDCC8"/>
</linearGradient>
<linearGradient id="paint4_linear" x1="178.5" y1="766.511" x2="178.5" y2="908.416" gradientUnits="userSpaceOnUse">
<stop stop-color="#FFE0C2"/>
<stop offset="0.401" stop-color="#7AAEFC"/>
<stop offset="0.591" stop-color="#B8C1FC"/>
<stop offset="1" stop-color="#D2D4D4"/>
</linearGradient>
<linearGradient id="paint5_linear" x1="758.476" y1="-29999.6" x2="758.476" y2="-28844.2" gradientUnits="userSpaceOnUse">
<stop stop-color="#FFE0C2"/>
<stop offset="0.401" stop-color="#7AAEFC"/>
<stop offset="0.591" stop-color="#B8C1FC"/>
<stop offset="1" stop-color="#D2D4D4"/>
</linearGradient>
<linearGradient id="paint6_linear" x1="904.295" y1="798.363" x2="904.295" y2="901.559" gradientUnits="userSpaceOnUse">
<stop stop-color="#FFE0C2"/>
<stop offset="0.401" stop-color="#7AAEFC"/>
<stop offset="0.591" stop-color="#B8C1FC"/>
<stop offset="1" stop-color="#D2D4D4"/>
</linearGradient>
<linearGradient id="paint7_linear" x1="894.069" y1="-21738.1" x2="894.069" y2="-21109" gradientUnits="userSpaceOnUse">
<stop stop-color="#FFE0C2"/>
<stop offset="0.401" stop-color="#7AAEFC"/>
<stop offset="0.591" stop-color="#B8C1FC"/>
<stop offset="1" stop-color="#D2D4D4"/>
</linearGradient>
</defs>
</svg>
