<?xml version="1.0" encoding="iso-8859-1" ?>
<svg version="1.1" xmlns="http://www.w3.org/2000/svg" xmlns:xlink="http://www.w3.org/1999/xlink" 
    viewBox="0 0 1500 1500" width="1500" height="1500">
    
    
    <!-- ITEM 0 -->
    <g>
        <defs>
            <clipPath id="clip-path-id-viewbox-item-0">
                <rect x="0.0" y="0.0" width="533.368" height="519.573"/>
            </clipPath>
        </defs>
        <g transform="translate(348.0 351.0) rotate(0.0 444.5 433.0) scale(1.666766660167089 1.666753276247996)">
            <g clip-path="url(#clip-path-id-viewbox-item-0)" transform="translate(-0.0 -0.0)">
                
<g>
	<path fill="#6185be" d="M336.611,267.51c-8.791-27.07-37.842-41.908-64.926-33.162l-8.824,2.868l-7.868,2.5l-7.794,2.573   l-15.588,5.221c-5.221,1.764-10.441,3.529-15.588,5.367l-15.515,5.442c-5.22,1.838-10.367,3.75-15.514,5.588   c-5.148,1.912-10.295,3.676-15.442,5.662l-15.367,5.731c-5.147,1.912-10.221,3.9-15.368,5.882   c-20.441,7.941-40.735,16.1-60.882,24.853l-15.074,6.618c-5,2.279-10,4.485-15,6.838l-7.426,3.456l-7.427,3.529l-7.353,3.677   L21.979,332l-3.679,1.907l96.163,76.053l89.52-29.96l-20.166,83.394l72.868,17.647l1.617-2.72l1.544-2.721l3.089-5.515   c1.985-3.676,3.97-7.353,5.882-11.029c3.9-7.353,7.573-14.78,11.176-22.206C287.2,422,293.964,407,300.508,391.921   c3.162-7.573,6.471-15.073,9.486-22.647l4.632-11.323l4.485-11.4c3.015-7.574,5.809-15.221,8.677-22.868l2.132-5.735l2.059-5.735   l4.117-11.471C339.946,290.028,340.127,278.338,336.611,267.51z"></path>
	
		<linearGradient id="SVGID_7_-i1" gradientUnits="userSpaceOnUse" x1="7080.1206" y1="22592.7383" x2="7328.9282" y2="22487.3359" gradientTransform="matrix(1 0 0 -1 -7025.0044 22725.8145)">
		<stop offset="0" style="stop-color:#F48B94"></stop>
		<stop offset="0.405" style="stop-color:#F4A9A6"></stop>
		<stop offset="0.499" style="stop-color:#FED3B5"></stop>
		<stop offset="0.599" style="stop-color:#DBECC2"></stop>
		<stop offset="1" style="stop-color:#ADDCC8"></stop>
	</linearGradient>
	<path fill="url(#SVGID_7_-i1)" d="M376.905,185.672l-91.985,113.6c-10.068,12.426-27.218,16.555-41.838,10.074l-2.206-1.029   l-121.03-53.75c-19.513-8.671-28.302-31.518-19.631-51.031s31.518-28.302,51.031-19.631l121.03,53.75l-44.044,9.117l99.853-94.705"></path>
	<path fill="#FDC068" d="M328.008,152.069l19.927-18.9c11.182-10.601,28.841-10.131,39.443,1.051   c9.628,10.155,10.243,25.871,1.439,36.749l-11.912,14.7"></path>
	<path fill="#6185be" d="M11.023,286.333c-21.67,45-11.174,109.415,29.585,121.493c31.472,9.237,33.364,11.723,46.606,15.631   c41.964,12.315,88.869-50,85.429-108.849L11.023,286.333z"></path>
	
		<linearGradient id="SVGID_18_-i1" gradientUnits="userSpaceOnUse" x1="7057.6602" y1="22557.125" x2="7207.4243" y2="22498.9219" gradientTransform="matrix(1 0 0 -1 -7025.0044 22725.8145)">
		<stop offset="0" style="stop-color:#F48B94"></stop>
		<stop offset="0.405" style="stop-color:#F4A9A6"></stop>
		<stop offset="0.499" style="stop-color:#FED3B5"></stop>
		<stop offset="0.599" style="stop-color:#DBECC2"></stop>
		<stop offset="1" style="stop-color:#ADDCC8"></stop>
	</linearGradient>
	<path fill="url(#SVGID_18_-i1)" d="M106.905,170.819c-4.044-23.309-56.691-53.9-82.206-43.456   c-27.573,11.323-22.72,81.911-16.544,80.956C14.258,207.289,106.905,170.819,106.905,170.819z"></path>
	<path fill="#6185be" d="M37.42,134.348c-18.9,0.809-19.927,31.324,5.882,35.956c25,4.485,47.794-11.765,43.824-17.647   C83.229,146.848,57.788,133.392,37.42,134.348z"></path>
	
		<linearGradient id="SVGID_34_-i1" gradientUnits="userSpaceOnUse" x1="2985.0027" y1="25131.041" x2="3240.1497" y2="25022.9531" gradientTransform="matrix(0.9679 0.2513 0.2513 -0.9679 -9163.041 23780.6563)">
		<stop offset="0" style="stop-color:#F48B94"></stop>
		<stop offset="0.405" style="stop-color:#F4A9A6"></stop>
		<stop offset="0.499" style="stop-color:#FED3B5"></stop>
		<stop offset="0.599" style="stop-color:#DBECC2"></stop>
		<stop offset="1" style="stop-color:#ADDCC8"></stop>
	</linearGradient>
	<path fill="url(#SVGID_34_-i1)" d="M137.346,317.069c-0.539-6.208-0.092-12.462,1.324-18.53c2.426-10.22,30.956-19.926,37.647-51.176   c5.147-23.971-12.279-65.294-53.971-74.559l-33.9-6.4c-36.691-8.162-73.235,16.985-80.735,41.985H7.567   c-0.147,0.735-0.294,1.471-0.441,2.132c-0.084,0.211-0.133,0.435-0.147,0.662h0.073c-7.867,42.794,22.059,47.868,3.971,75.147   L137.346,317.069z"></path>
	<path fill="#2B2B2B" d="M45.812,278.723c20.294,33.676-4.779,24.926-9.559,49.485l78.75,22.647l14.191-40.882L45.812,278.723z"></path>
	<path fill="#2B2B2B" d="M165.141,274.642c-0.277,0.015-0.546-0.093-0.736-0.294c-0.506-0.412-0.583-1.157-0.171-1.663   c0.008-0.009,0.016-0.019,0.024-0.028c7.457-8.887,11.59-20.091,11.691-31.691c-0.006-0.684,0.544-1.244,1.228-1.25   c0.007,0,0.015,0,0.022,0c0.662-0.028,1.222,0.486,1.25,1.148c0.001,0.034,0.001,0.068,0,0.102   c-0.115,12.189-4.455,23.961-12.279,33.308C165.859,274.472,165.507,274.598,165.141,274.642z"></path>
	
		<rect x="100.127" y="180.219" transform="matrix(0.967 -0.2547 0.2547 0.967 -50.4889 36.181)" fill="#FFFFFF" width="28.675" height="65.659"></rect>
	<path fill="#2B2B2B" d="M120.288,314.789h-0.368c-0.89-0.207-1.448-1.092-1.25-1.985c0.956-4.559,3.824-8.53,7.426-13.456   c2.932-3.866,5.609-7.919,8.015-12.132c0.447-0.812,1.467-1.109,2.279-0.662c0.812,0.447,1.109,1.467,0.662,2.279l0,0   c-2.461,4.323-5.213,8.475-8.235,12.427c-3.382,4.632-6.029,8.309-6.912,12.206C121.726,314.221,121.064,314.762,120.288,314.789z"></path>
	<path fill="#6185be" d="M476.023,365.892l-1.838-2.5l-1.912-2.426l-3.824-4.927c-2.573-3.235-5.147-6.47-7.794-9.632   c-5.294-6.324-10.662-12.5-16.029-18.677c-10.809-12.279-21.912-24.191-33.162-35.882c-5.662-5.735-11.324-11.618-17.059-17.279   l-8.6-8.53l-8.676-8.382c-5.735-5.662-11.618-11.1-17.5-16.618l-4.412-4.117l-4.485-4.045l-8.9-8.088   c-12.971-11.799-31.582-15.063-47.794-8.382l-8.456,3.456l-7.647,3.161l-7.574,3.236l-15.147,6.4   c-5.073,2.132-10.147,4.338-15.147,6.544l-15.073,6.618c-5,2.205-10,4.485-15,6.764s-10.074,4.486-15,6.839l-14.927,6.911   c-5,2.28-9.926,4.706-14.853,7.059c-19.779,9.485-39.386,19.314-58.823,29.485l-27.275,0.636c-4.779,2.647-9.632,5.22-14.412,7.941   l-7.2,4.044l-7.133,4.117l-7.06,4.257l-3.529,2.133l-3.529,2.2l81.644,92.116l186.073-87.171l127.792,93.249L476.023,365.892z"></path>
	<path fill="#2B2B2B" d="M420.703,95.528c-2.941-2.72-7.647-2.573-10.368,0.441l-14.77,15.998h-0.185L36.189,500.497   c-2.721,2.941-2.573,7.573,0.441,10.368c2.941,2.721,7.647,2.573,10.368-0.441l14.77-15.998h0.185l359.191-388.53   C423.864,102.955,423.717,98.323,420.703,95.528z"></path>
	
		<linearGradient id="SVGID_35_-i1" gradientUnits="userSpaceOnUse" x1="7045.1953" y1="22514.4883" x2="7279.6064" y2="22415.1836" gradientTransform="matrix(1 0 0 -1 -7025.0044 22725.8145)">
		<stop offset="0" style="stop-color:#F48B94"></stop>
		<stop offset="0.405" style="stop-color:#F4A9A6"></stop>
		<stop offset="0.499" style="stop-color:#FED3B5"></stop>
		<stop offset="0.599" style="stop-color:#DBECC2"></stop>
		<stop offset="1" style="stop-color:#ADDCC8"></stop>
	</linearGradient>
	<path fill="url(#SVGID_35_-i1)" d="M277.641,273.319L134.7,341.039c-14.458,6.829-31.693,3.226-42.205-8.823l-1.471-1.692   l-74.339-85.735c-13.99-16.101-12.278-40.495,3.823-54.485s40.495-12.278,54.485,3.823l74.412,85.736l-43.6-10.515l152.5-51.323"></path>
	<path fill="#FDC068" d="M97.42,192.069l-32.941-24.706l28.456-81.03l46.029,13.75l-20.588,84.486   c-1.706,7.139-8.877,11.543-16.016,9.836C100.57,193.977,98.887,193.181,97.42,192.069z"></path>
	<path fill="#FDC068" d="M184.332,76.627c-0.095,1.454-0.267,2.903-0.515,4.339l-1.544,9.044l-1.691,10l-3.75,22.059   c-2.966,17.42-19.491,29.139-36.912,26.176l-29.706-5.073c-15.352-2.594-25.695-17.142-23.101-32.495   c0.004-0.026,0.009-0.051,0.013-0.077L94.7,65.819c4.249-24.599,27.635-41.096,52.234-36.847   c22.842,3.945,38.996,24.53,37.399,47.655H184.332z"></path>
	<path fill="#FFFFFF" d="M172.861,117.142c0,0-10.441,19.338-18.088-1.842L172.861,117.142z"></path>
	<polygon fill="#2B2B2B" points="127.788,146.039 107.714,140.157 122.861,166.26  "></polygon>
	<circle fill="#2B2B2B" cx="151.464" cy="92.951" r="5.147"></circle>
	<path fill="#FDC068" d="M168.008,90.6l5,8.6c0.973,1.66,0.415,3.795-1.245,4.767c-0.051,0.03-0.103,0.058-0.155,0.086l-4.559,1.765   "></path>
	<path fill="#2B2B2B" d="M167.052,107.51c-0.682,0.023-1.303-0.392-1.544-1.03c-0.349-0.798,0.014-1.728,0.812-2.077   c0.047-0.021,0.095-0.039,0.144-0.055l4.412-1.691c0.431-0.268,0.746-0.688,0.882-1.177c0.139-0.442,0.086-0.922-0.147-1.323   l-5-8.6c-0.482-0.783-0.238-1.809,0.545-2.291c0.783-0.482,1.809-0.238,2.291,0.545c0.011,0.018,0.022,0.036,0.032,0.055l5,8.6   c0.716,1.168,0.903,2.586,0.514,3.9c-0.371,1.389-1.303,2.561-2.573,3.235l-0.221,0.074l-4.558,1.764   C167.42,107.436,167.273,107.51,167.052,107.51z"></path>
	<path fill="#2B2B2B" d="M173.523,33.319l-24.485-5.3c-24.223-5.187-48.064,10.246-53.251,34.469   c-0.101,0.47-0.194,0.941-0.279,1.414l-5.735,31.549l10.441-6.985l9.191-6.1l10.956,2.134l8.456-32.059   c8.529,6.177,23.75,11.1,39.559,10.956C164.92,53.392,168.744,42.363,173.523,33.319z"></path>
	<path fill="#FDC068" d="M102.42,94.936l10.073,2.28l4.265-18.971c1.007-4.425-1.755-8.831-6.176-9.853l-2.059-0.441   c-4.425-1.007-8.831,1.755-9.853,6.176l-2.5,10.956C95.186,89.528,97.98,93.932,102.42,94.936z"></path>
	<path fill="#2B2B2B" d="M182.2,90.083l-1.691,10c-1.579-0.536-2.808-1.792-3.309-3.383c-0.815-2.659,0.681-5.476,3.34-6.29   c0.038-0.012,0.077-0.023,0.116-0.034C181.126,90.115,181.667,90.013,182.2,90.083z"></path>
	<path fill="#6185be" d="M95.876,59.789c0,0,15-59.338,28.309-59.779s14.706,14.264,22.426,14.853s11.03-14.486,25.368-11.25   S187.2,66.407,187.2,66.407L95.876,59.789z"></path>
	<polygon fill="#2B2B2B" points="100.876,42.216 186.17,48.392 187.126,66.407 95.876,59.789  "></polygon>
	<path fill="#6185be" d="M243.743,71.7h-0.073L31.17,56.407c-0.666-0.067-1.156-0.657-1.1-1.324   c0.043-0.654,0.609-1.149,1.263-1.106c0.02,0.001,0.041,0.003,0.061,0.006l212.5,15.294c0.667,0.067,1.156,0.656,1.1,1.324   C244.908,71.227,244.375,71.696,243.743,71.7z"></path>
	<path fill="#2B2B2B" d="M8.3,208.1c-0.127,0.011-0.254-0.014-0.367-0.074c-0.635-0.22-0.99-0.896-0.809-1.544   c4.265-13.161,14.044-21.838,22.132-27.941c0.528-0.406,1.285-0.307,1.692,0.221s0.307,1.285-0.221,1.691l0,0   c-7.721,5.882-17.206,14.265-21.25,26.765C9.296,207.721,8.833,208.068,8.3,208.1z"></path>
	<path fill="#2B2B2B" d="M117.788,266.627c-0.522,0-0.99-0.321-1.177-0.808c-0.21-0.629,0.115-1.311,0.735-1.545l15.147-5.147   c0.629-0.21,1.312,0.115,1.545,0.736c0.193,0.628-0.127,1.299-0.736,1.544l-15.147,5.147   C118.034,266.585,117.912,266.61,117.788,266.627z"></path>
	<path fill="#2B2B2B" d="M333.251,326.224c-0.151,0.012-0.302-0.013-0.441-0.073c-0.626-0.216-0.959-0.9-0.742-1.526   c0.002-0.006,0.004-0.012,0.006-0.018l2.133-5.736l6.176-17.2c8.311-23.195-1.4-48.996-22.941-60.956   c-0.563-0.334-0.749-1.062-0.414-1.625c0.327-0.55,1.031-0.742,1.591-0.434c22.621,12.504,32.836,39.568,24.117,63.9l-6.176,17.206   l-2.133,5.735C334.183,325.922,333.74,326.195,333.251,326.224z"></path>
	<path fill="#2B2B2B" d="M307.349,519.295l-117.528-35.17c-6.136-1.829-9.688-8.224-8-14.4l4.018-15.081l74.117,23.008l52.2,30.7   C318.179,511.927,314.149,521.3,307.349,519.295z"></path>
	<path fill="#2B2B2B" d="M532.113,333.384l-73.683,98.084c-3.84,5.123-11.067,6.243-16.277,2.522L429.4,425l47.244-61.568   l46.876-38.346C528.951,320.673,536.347,327.7,532.113,333.384z"></path>
	<polygon fill="#2B2B2B" points="127.467,146.264 107.394,140.381 122.541,166.484  "></polygon>
	<path fill="#FDC068" d="M376.905,127.289c-20.882-6.691-27.867,18.9-10.22,44.044l25-31.029   C391.758,140.3,385.729,130.157,376.905,127.289z"></path>
	<path fill="#FDC068" d="M258.3,218.024l21.765-7.352c14.568-4.918,30.364,2.905,35.282,17.473   c4.518,13.384-1.703,28.031-14.473,34.071l-23.235,11.029"></path>
</g>

            </g>
        </g>
    </g>
    
    <!-- ITEM 1 -->
    <g>
        <defs>
            <clipPath id="clip-path-id-viewbox-item-1">
                <rect x="0.0" y="0.0" width="701.544" height="172.353"/>
            </clipPath>
        </defs>
        <g transform="translate(115.0 942.0) rotate(0.0 603.5 148.0) scale(1.7204908031427824 1.7174055571994684)">
            <g clip-path="url(#clip-path-id-viewbox-item-1)" transform="translate(-0.0 -0.0)">
                
<g>
	<polygon fill="#FFFFFF" points="133.088,168.603 7.5,3.676 694.485,3.676 580.956,168.603  "></polygon>
	<path fill="#F9D5FF" d="M687.426,7.426L579.044,164.853H134.926L15.074,7.353L687.426,7.426 M701.544,0H0l131.176,172.353h451.691   L701.544,0L701.544,0z"></path>
</g>
<g>
	<g>
		
			<rect x="31.121" y="27.705" transform="matrix(0.7071 -0.7071 0.7071 0.7071 -0.3039 56.8815)" fill="#F9D5FF" width="74.778" height="2.206"></rect>
	</g>
	<g>
		
			<rect x="58.584" y="44.97" transform="matrix(0.7071 -0.7071 0.7071 0.7071 2.7027 98.6706)" fill="#F9D5FF" width="123.747" height="2.206"></rect>
	</g>
	<g>
		
			<rect x="76.656" y="67.8" transform="matrix(0.7071 -0.7071 0.7071 0.7071 0.1334 138.1279)" fill="#F9D5FF" width="180.291" height="2.206"></rect>
	</g>
	<g>
		
			<rect x="102.344" y="85.29" transform="matrix(0.7071 -0.7071 0.7071 0.7071 2.9459 179.8973)" fill="#F9D5FF" width="232.569" height="2.206"></rect>
	</g>
	<g>
		
			<rect x="171.361" y="84.787" transform="matrix(0.7071 -0.7071 0.7071 0.7071 23.71 229.0205)" fill="#F9D5FF" width="233.893" height="2.206"></rect>
	</g>
	<g>
		
			<rect x="241.377" y="84.189" transform="matrix(0.7069 -0.7073 0.7073 0.7069 44.6512 278.3388)" fill="#F9D5FF" width="233.599" height="2.206"></rect>
	</g>
	<g>
		
			<rect x="311.742" y="84.091" transform="matrix(0.7071 -0.7071 0.7071 0.7071 64.996 327.3011)" fill="#F9D5FF" width="231.687" height="2.206"></rect>
	</g>
	<g>
		
			<rect x="379.047" y="85.478" transform="matrix(0.7071 -0.7071 0.7071 0.7071 83.9221 375.7668)" fill="#F9D5FF" width="233.01" height="2.206"></rect>
	</g>
	<g>
		
			<rect x="450.075" y="84.082" transform="matrix(0.7071 -0.7071 0.7071 0.7071 105.6049 425.3227)" fill="#F9D5FF" width="232.275" height="2.206"></rect>
	</g>
	<g>
		
			<rect x="538.014" y="125.111" transform="matrix(0.7071 -0.7071 0.7071 0.7071 85.3471 458.4746)" fill="#F9D5FF" width="116.174" height="2.206"></rect>
	</g>
</g>

            </g>
        </g>
    </g>
    
    <!-- ITEM 2 -->
    <g>
        <defs>
            <clipPath id="clip-path-id-viewbox-item-2">
                <rect x="0.0" y="0.0" width="194.044" height="85.368"/>
            </clipPath>
        </defs>
        <g transform="translate(103.0 1081.0) rotate(0.0 178.5 78.5) scale(1.8397889138545895 1.8390966169993441)">
            <g clip-path="url(#clip-path-id-viewbox-item-2)" transform="translate(-0.0 -0.0)">
                <defs><linearGradient id="linear-gradient-i4" x1="97.022" y1="-772.147" x2="97.022" y2="-694.987" gradientTransform="translate(0 792)" gradientUnits="userSpaceOnUse"><stop offset="0" stop-color="#ffe0c2"></stop><stop offset="0.401" stop-color="#7aaefc"></stop><stop offset="0.591" stop-color="#b8c1fc"></stop><stop offset="1" stop-color="#d2d4d4"></stop></linearGradient><linearGradient id="linear-gradient-2-i4" x1="19.191" y1="-794.536" x2="19.191" y2="-764.662" xlink:href="#linear-gradient-i4"></linearGradient></defs><title>wave_1</title><g id="Layer_2-i4" data-name="Layer 2"><g id="Layer_1-2-i4" data-name="Layer 1"><path d="M194.044,85.368S181.176,45.662,146.1,52.206c-35.074,6.618-33.456-38.6-69.412-31.985S38.75,73.235,0,85.368Z" fill="url(#linear-gradient-i4)"></path><circle cx="19.191" cy="10.515" r="10.515" fill="url(#linear-gradient-2-i4)"></circle></g></g>
            </g>
        </g>
    </g>
    
    <!-- ITEM 3 -->
    <g>
        <defs>
            <clipPath id="clip-path-id-crop-item-3">
                
          <g transform="scale(0.5882390317700454 0.5896033755274261)">
          <rect x="0.0" y="370.0" width="405.0" height="339.0" />
          </g>
        
            </clipPath>
            
            <clipPath id="clip-path-id-viewbox-item-3">
                <rect x="0.0" y="0.0" width="388.826" height="419.208"/>
            </clipPath>
        </defs>
        <g clip-path="url(#clip-path-id-crop-item-3)" transform="translate(389.0 513.0) rotate(0.0 330.5 355.5) scale(1.6999891982532032 1.6960554187897177)">
            <g clip-path="url(#clip-path-id-viewbox-item-3)" transform="translate(-0.0 -0.0)">
                
<path fill="#2B2B2B" d="M386.449,1.936c-2.941-2.72-7.647-2.573-10.368,0.441l-14.77,15.998h-0.185L1.936,406.904  c-2.721,2.941-2.573,7.573,0.441,10.368c2.941,2.721,7.647,2.573,10.368-0.441l14.77-15.998H27.7l359.191-388.53  C389.611,9.362,389.464,4.73,386.449,1.936z"></path>

            </g>
        </g>
    </g>
    
    <!-- ITEM 4 -->
    <g>
        <defs>
            <clipPath id="clip-path-id-viewbox-item-4">
                <rect x="0.0" y="0.0" width="213.897" height="46.588"/>
            </clipPath>
        </defs>
        <g transform="translate(780.0 1149.0) rotate(0.0 198.5 44.0) scale(1.8560335114564488 1.8888984287799433)">
            <g clip-path="url(#clip-path-id-viewbox-item-4)" transform="translate(-0.0 -0.0)">
                <defs><linearGradient id="linear-gradient-i6" x1="122.463" y1="-791.808" x2="122.463" y2="-737.175" gradientTransform="translate(0 792)" gradientUnits="userSpaceOnUse"><stop offset="0" stop-color="#ffe0c2"></stop><stop offset="0.401" stop-color="#7aaefc"></stop><stop offset="0.591" stop-color="#b8c1fc"></stop><stop offset="1" stop-color="#d2d4d4"></stop></linearGradient><linearGradient id="linear-gradient-2-i6" x1="7.647" y1="-780.942" x2="7.647" y2="-759.167" xlink:href="#linear-gradient-i6"></linearGradient></defs><title>wave_2</title><g id="Layer_2-i6" data-name="Layer 2"><g id="Layer_1-2-i6" data-name="Layer 1"><path d="M213.9,46.588S183.456-5.544,151.765.485c-26.544,5.074-26.4,22.721-38.383,27.647S31.029,13.647,31.029,46.588Z" fill="url(#linear-gradient-i6)"></path><circle cx="7.647" cy="20.559" r="7.647" fill="url(#linear-gradient-2-i6)"></circle></g></g>
            </g>
        </g>
    </g>
    
</svg>