<svg width="2289" height="269" viewBox="0 0 2289 269" fill="#974b31"  xmlns="http://www.w3.org/2000/svg">
<rect width="2289" height="269" />
<g clip-path="url(#clip0)">
<rect width="2337" height="3665" transform="translate(-27 -2183)" fill="white"/>
<path d="M1251.73 170.17C1251.71 170.133 1251.69 170.098 1251.66 170.061L1256.4 170.87C1256.42 170.879 1256.43 170.891 1256.44 170.9C1258.61 170.992 1260.74 170.806 1262.81 170.402L1273.27 170.107C1273.25 170.122 1273.23 170.135 1273.21 170.15C1271.24 171.56 1268.99 172.48 1266.72 173.31C1266.27 172.77 1265.38 171.69 1264.93 171.14C1264.52 172.37 1264.11 173.61 1263.68 174.85C1261.77 174.82 1259.84 174.78 1257.91 174.75C1257.88 173.84 1257.83 172.94 1257.78 172.05C1256.3 171.79 1254.81 171.53 1253.31 171.28C1254.31 172.05 1255.33 172.8 1256.32 173.58C1250.97 173.13 1245.64 174.04 1240.28 173.69C1242.71 172.98 1245.36 172.56 1247.21 170.68C1248.72 170.51 1250.23 170.33 1251.73 170.17Z" />
<path d="M1597.32 165.36C1597.13 161.85 1596.32 157.84 1598.71 154.86C1601.05 152.21 1603.7 149.73 1605.07 146.39C1608.72 139.47 1607.55 131.41 1609.25 124.01C1609.97 120.95 1611.94 118.43 1613.9 116.07C1615.72 113.77 1617.81 111.71 1620.12 109.93C1620.08 107.8 1620.07 105.67 1620.07 103.56C1623.25 101.47 1626.46 99.0601 1630.42 98.9301C1629.89 96.5701 1629.29 94.2301 1628.55 91.9301C1627.98 89.9101 1627.11 87.9101 1627.09 85.7901C1627.89 81.4001 1630.48 77.6401 1632.43 73.7001C1633.06 73.5901 1634.33 73.3802 1634.96 73.2801C1635.21 70.1901 1635.9 67.1701 1637.04 64.2901C1639.1 64.2301 1641.15 64.1801 1643.2 64.1501C1644.15 66.2701 1645.37 68.4601 1645.08 70.8801C1644.79 73.2901 1643.64 75.4701 1643.08 77.8201C1644.41 81.4201 1646.71 84.5401 1648.61 87.8401C1652.91 85.8701 1657.17 83.7501 1661.73 82.4701C1662.64 83.3401 1663.09 84.4401 1663.08 85.7701C1661.52 86.4801 1659.93 87.1301 1658.37 87.8301C1655.39 89.2801 1652.93 91.5301 1650.48 93.7201C1651.61 95.7101 1652.98 97.5401 1654.57 99.1801C1655 98.3301 1655.87 96.6301 1656.3 95.7801C1656.86 96.3201 1657.98 97.3801 1658.53 97.9101C1660.02 98.0201 1661.49 98.1601 1662.96 98.3001C1663.52 97.9801 1664.64 97.3301 1665.2 97.0001C1666.3 98.4401 1667.47 99.8301 1668.64 101.22C1668.14 101.41 1667.13 101.79 1666.63 101.98C1671.18 103.24 1675.18 105.82 1679.15 108.28C1683.04 110.63 1684.9 115.41 1689.26 117.1C1692.97 118.59 1697.68 118.58 1701.03 116.26C1703.26 113.44 1704.61 109.96 1707.51 107.68C1709.8 104.06 1712.78 100.75 1713.52 96.3801C1716.8 96.1201 1720.23 95.7101 1723.3 97.1701C1727.57 99.0201 1732.47 97.8901 1736.76 99.6401C1739.26 100.68 1740.28 103.36 1741.54 105.54C1740.86 106.51 1740.17 107.49 1739.47 108.48C1736.42 108.06 1732.97 107.55 1730.4 109.71C1728.62 110.82 1729.37 113.12 1729.25 114.86C1731.08 120.4 1730.65 127.12 1734.77 131.62C1739.79 135.9 1746.31 132.27 1750.17 128.27C1750.06 121.59 1755.76 117.53 1759.31 112.64C1760.87 110.52 1762.88 108.83 1764.98 107.29C1765.04 105.06 1765.09 102.83 1765.13 100.61C1766.06 99.7001 1767.02 98.8401 1767.98 97.9901C1768.01 97.7501 1768.06 97.2701 1768.08 97.0301C1766.86 92.9401 1765.36 88.8401 1762.9 85.3301C1760.34 85.1201 1757.7 85.9201 1755.2 85.1501C1752.88 84.2101 1754.05 81.2301 1754.77 79.5101C1756.6 76.4001 1757.58 72.9301 1758.34 69.4401C1760.28 69.3701 1762.22 69.3101 1764.16 69.2701C1764.12 69.6801 1764.05 70.5001 1764.01 70.9101C1761.88 72.8601 1760.28 75.2701 1758.83 77.7601C1762.02 75.1801 1766.94 74.6401 1769.04 70.9001C1768.54 69.1801 1767.8 67.5501 1767.09 65.9101C1768.5 64.2901 1769.91 62.6901 1771.35 61.1001C1774.93 61.2401 1777.63 63.4701 1779.22 66.5601C1777.68 68.7301 1776.44 71.1001 1775.88 73.7301C1778.49 74.4901 1781.37 74.9501 1783.45 76.8601C1786.01 79.0201 1788.18 81.9401 1791.53 82.9101C1795.98 84.0601 1800.61 84.1201 1805.17 84.3401C1804.46 87.5701 1805.33 90.7201 1806.84 93.5801C1808.82 93.9101 1810.8 94.2801 1812.8 94.3101C1813.65 94.3401 1815.37 94.3801 1816.23 94.4101C1815.21 95.2801 1814.21 96.1201 1813.18 97.0201C1816.38 98.5401 1819.76 99.6401 1823.01 101.02C1826.78 102.54 1829.25 106.04 1832.95 107.68C1840.17 111.22 1849.22 112.18 1856.6 108.66C1863.02 104.32 1868.08 98.2901 1872.92 92.3101C1878.62 91.4601 1884.04 93.2901 1889.54 94.4001C1893.13 94.6301 1895.53 97.5901 1898.16 99.6901C1898.77 101.76 1899.06 103.91 1899.3 106.06C1898.76 106.18 1897.68 106.4 1897.14 106.52C1894.65 112.09 1897.13 117.98 1897.17 123.73C1897.27 128.98 1898.34 134.12 1899.14 139.29C1898.92 146.99 1901.52 155.62 1908.31 159.97C1912.12 162.6 1916.92 159.92 1919.62 156.93C1923.01 153.15 1921.14 147.75 1921.49 143.21C1918.77 142.12 1915.09 142.71 1913.07 140.37C1911.68 135.44 1914.48 130.79 1916.63 126.56C1917.95 125.51 1919.41 124.66 1920.83 123.77C1921.19 119.65 1921.19 115.32 1923.16 111.58C1924.76 108.64 1926.83 106.01 1928.72 103.27C1928.94 100 1927.8 95.4501 1931.42 93.6801C1933.76 92.9201 1936.41 92.7301 1938.79 93.4101C1939.86 95.2401 1939.74 97.4401 1939.99 99.4901C1938.94 103.06 1936.87 106.24 1935.94 109.84C1936.02 112.45 1938.71 114.01 1940.15 115.94C1939.87 116.87 1939.59 117.81 1939.3 118.75C1939.84 124.44 1938.97 130.21 1940.51 135.8C1941.53 131.67 1941.8 127.43 1942.31 123.23C1943.11 118.05 1947.58 114.71 1951.37 111.6C1950.66 109.13 1950.85 106.65 1952.08 104.39C1954.66 104.12 1957.25 103.28 1959.85 103.66C1961.57 104.68 1963.07 106.18 1963.98 107.97C1963.84 112.8 1959.5 116.04 1955.81 118.48C1957.49 123.96 1958.6 129.58 1959.35 135.26C1960.58 139.48 1957.56 144.25 1960.32 148.02C1960.01 150.13 1959.25 152.13 1958.1 153.93C1958.02 159.57 1959.65 165.17 1958.83 170.81C1958.78 173.07 1956.52 174.08 1955.09 175.46C1955.02 176.62 1954.95 177.79 1954.87 178.97C1957.45 180.093 1960.09 180.746 1962.76 181.082H1950.84C1950.87 178.984 1951.04 176.854 1950.44 174.83C1949.97 172.9 1947.92 172.24 1946.48 171.21C1944.99 172.27 1943.2 173.08 1942.18 174.68C1940.68 176.81 1941.2 179.54 1941.02 181.99C1941.39 182.2 1941.76 182.365 1942.13 182.498H1931.83C1932.5 178.424 1933.54 174.177 1932 170.19C1930.44 170.22 1928.87 170.26 1927.31 170.29C1924.36 173.45 1922.37 177.41 1919.05 180.24C1918.98 181.209 1918.91 182.182 1918.84 183.165H1913.8C1912.55 181.914 1911.29 180.667 1910.02 179.45C1912.47 175.91 1915.36 172.7 1917.66 169.06C1918.41 166.51 1919.05 163.93 1919.76 161.37C1914.98 163.51 1909.52 163.35 1904.98 160.68C1903.01 158.51 1901.14 156.17 1900.06 153.42C1896.42 144.03 1898.46 133.51 1894.94 124.12C1893.63 124.65 1892.28 125.17 1890.94 125.67C1891.45 123.74 1891.97 121.82 1892.48 119.9C1893.35 119.11 1894.22 118.33 1895.08 117.55C1895.05 113.58 1895.59 109.38 1893.56 105.77L1892.54 105.2C1888.05 108.57 1881.84 109.02 1878.15 113.46C1874.76 116.83 1870.12 118.4 1865.69 119.89C1860.39 121.66 1855.43 124.28 1850.38 126.66C1845.6 128.92 1840.19 128 1835.08 128.25C1833.78 131.43 1831.62 134.33 1830.96 137.73C1832.61 144.12 1836.53 149.62 1840.51 154.78C1842.07 156.88 1843.93 159.01 1844.19 161.73C1844.74 165.89 1845.17 170.16 1847.13 173.96C1849.26 177.47 1850.05 182.4 1854.1 184.29C1852.27 185.4 1850.45 186.52 1848.63 187.64C1848.73 186.38 1848.82 185.13 1848.91 183.89C1848.32 184.33 1847.72 184.77 1847.12 185.23C1846.33 183.64 1845.53 182.07 1844.82 180.45C1843.01 175.09 1841.98 169.34 1838.61 164.64C1834.52 157.44 1830.09 150.29 1824.02 144.56C1820.58 151.95 1818.51 159.82 1816.46 167.68C1814.02 173.64 1814.65 180.16 1814.97 186.43C1814.25 187.18 1813.53 187.92 1812.81 188.68C1812.66 187.48 1812.5 186.28 1812.33 185.1C1811.45 185.77 1810.57 186.45 1809.68 187.14C1809.8 181.29 1811.34 175.46 1810.32 169.62C1810.04 167.29 1809.57 164.87 1810.35 162.58C1812.69 155.32 1814.25 147.8 1814.99 140.21C1812.87 140.16 1810.74 140.13 1808.61 140.11C1808.79 142.52 1808.98 144.94 1809.18 147.37C1808.6 147.41 1807.45 147.5 1806.87 147.54C1807.54 145.26 1808.97 142.8 1807.82 140.44C1805.41 139.7 1802.87 140.2 1800.41 140.33C1799.5 141.69 1798.6 143.04 1797.68 144.4C1796.92 144.33 1795.41 144.2 1794.65 144.14C1793.89 143.1 1793.19 142.01 1792.3 141.09C1785.53 138.12 1778.02 139.45 1770.88 139.38C1771.53 141.85 1772.68 144.47 1771.7 147.03C1768.41 155.89 1769.01 166.25 1773.12 174.75C1775.46 179.61 1778.78 183.94 1782.75 187.57C1782.48 187.73 1781.95 188.05 1781.68 188.21C1780.46 188.08 1779.23 187.96 1778 187.85C1777.25 186.85 1776.49 185.87 1775.74 184.87C1771.9 179.49 1767.3 174.72 1762.86 169.84C1763.46 161.97 1762.87 154.01 1760.22 146.53C1755.57 148.98 1750.91 151.93 1748.69 156.92C1742.17 166.08 1739.33 177.31 1739.14 188.45C1738.48 188.47 1737.82 188.5 1737.15 188.54C1736.73 186.86 1736.32 185.17 1735.96 183.49C1736.11 181.83 1736.26 180.18 1736.44 178.54C1737.47 173.04 1736.62 167.43 1737.12 161.91C1739.34 156.38 1743.07 151.6 1745.65 146.26C1747.57 140.89 1750.46 135.62 1750.08 129.73C1747.02 131.42 1744.04 133.71 1740.45 134.06C1737.59 133.81 1734.96 132.49 1732.22 131.74C1732.04 133.44 1731.84 135.15 1731.63 136.87C1730.91 134.79 1729.96 132.65 1730.49 130.41C1731.47 125.65 1729.98 120.94 1729.36 116.25C1728.4 115.55 1727.42 114.88 1726.43 114.22L1725.5 113.74C1725.99 112.83 1726.48 111.93 1726.96 111.03C1721.57 113.64 1719.38 119.46 1715.19 123.38C1711.1 127.42 1706.59 131.08 1701.66 134.06C1697.62 136.55 1692.71 136.39 1688.14 136.24C1687.34 137.61 1685.73 138.88 1686.17 140.67C1687.2 147.62 1688.16 154.72 1691.18 161.15C1693.62 166.28 1693.26 172.24 1695.89 177.32C1697.52 180.48 1699.43 183.49 1701.51 186.38C1701.67 186.585 1701.98 186.967 1702.15 187.18L1696.01 187.522C1695.13 185.038 1694.23 182.571 1693.23 180.14C1691.48 175.22 1688.43 170.94 1686.3 166.21C1683.01 157.44 1680.04 148.15 1673.53 141.16C1671.63 142.36 1669.21 143.13 1668.05 145.2C1665.19 150.38 1663.2 156.05 1662.23 161.89C1661.55 166.79 1658.64 170.94 1657.37 175.66C1656.73 179.49 1656.9 183.38 1657.18 187.24C1656.25 187.73 1655.32 188.21 1654.38 188.72C1653.67 187.71 1652.95 186.7 1652.27 185.68C1652.61 181.64 1653.97 177.78 1654.42 173.76C1654.88 170.08 1654.73 166.35 1655.01 162.66C1657.07 156.33 1659 149.76 1659.07 143.06C1655.93 141.33 1652.2 142.27 1648.78 141.78C1642.42 140.96 1636.61 137.82 1630.2 137.12C1629.15 140.88 1628.4 144.78 1626.66 148.31C1625.71 150.39 1624.38 152.4 1624.24 154.76C1623.82 160.87 1623.12 167.15 1624.81 173.14C1626.33 177.91 1628.91 182.25 1631.8 186.32C1631.12 188.36 1629.35 187.24 1627.98 186.68C1624.32 179.83 1619.97 173.4 1615.78 166.88C1617.03 161.52 1617.52 156.03 1617.21 150.54C1612.58 151.09 1610.08 155.32 1607.13 158.4C1601.64 164.45 1600.06 172.91 1600.1 180.83C1600.21 183.04 1599.49 185.13 1598.61 187.13C1597.44 186.56 1596.26 186 1595.08 185.47C1595.74 184.01 1596.32 182.5 1596.83 181C1597.2 175.79 1597.87 170.57 1597.32 165.36ZM1945.43 164.67C1946.4 164.22 1947.37 163.77 1948.34 163.32C1947.79 160.33 1946.44 157.36 1943.84 155.63C1943.78 158.72 1944.32 161.78 1945.43 164.67ZM1805.3 94.18C1805.17 92.84 1805.03 91.51 1804.89 90.19C1803.69 90.25 1802.49 90.32 1801.29 90.4C1801.17 89 1801 87.6 1800.78 86.21C1796.39 87.23 1792.14 89.2 1787.48 88.39C1787.63 89.15 1787.92 90.67 1788.07 91.43C1788.46 92.96 1788.9 94.48 1789.33 96C1790.89 96.16 1792.45 96.33 1794.01 96.5C1794.18 96.04 1794.53 95.12 1794.7 94.66C1794.96 93.98 1795.47 92.63 1795.73 91.95C1796.44 92 1797.85 92.1 1798.55 92.15C1799.53 91.63 1800.51 91.1 1801.48 90.59C1802.75 91.78 1804.02 92.98 1805.3 94.18Z"/>
<path d="M1543.54 120.62C1544.52 116.95 1547.92 114.8 1550.13 111.93C1549.55 110.56 1548.11 109.46 1547.96 107.97C1548.8 105.51 1550.35 103.39 1551.62 101.15C1554.71 100.76 1557.64 101.64 1560.12 103.47C1559.87 108.68 1558.95 114.19 1561.23 119.11C1563.37 123.8 1563.36 129.05 1564.74 133.96C1565.64 137.2 1565.8 140.95 1568.34 143.45C1571.86 145.95 1575.93 148.69 1576.41 153.39C1575.39 153.3 1574.37 153.22 1573.34 153.14C1572.53 149.88 1571.8 146.38 1569.1 144.1C1567.35 144.29 1565.6 144.48 1563.84 144.65C1564.74 150.71 1565.98 156.73 1566.05 162.88C1566.01 165.75 1567.04 168.44 1568.23 171C1570.04 174.69 1568.93 178.84 1568.85 182.76C1569.61 183.82 1570.73 184.52 1572 184.79C1574.75 185.472 1577.52 186.189 1580.32 186.728H1543.02C1545.3 170.052 1543.4 153.138 1544.92 136.4C1544.49 136.01 1543.63 135.23 1543.2 134.84C1542.37 130.13 1542.4 125.26 1543.54 120.62ZM1562.3 186.46C1563.73 184.47 1561.58 181.53 1560.79 179.42C1556.52 179.72 1550.12 178.44 1548.63 183.88C1552.47 187.11 1557.65 186.52 1562.3 186.46Z" />
<path d="M1025.99 158.75C1029.84 154.81 1032.8 150.1 1034.98 145.06C1036.48 138.38 1037.41 131.47 1036.95 124.61C1037.24 120.68 1036.61 116.44 1038.52 112.83C1040.74 109.44 1044.12 106.82 1045.53 102.92C1046.74 99.45 1049.36 96.79 1051.25 93.72C1052.46 93.15 1053.65 92.59 1054.82 92.04C1055.47 88.69 1056.25 85.32 1057.88 82.3C1060.59 79.58 1064.34 79.89 1067.63 81.24C1070.52 72.49 1072.16 63.18 1076.93 55.17C1078.44 52.48 1080.94 50.57 1082.72 48.11C1083.24 45.3 1083.2 42.25 1085.24 40C1087.18 40.05 1089.13 39.94 1091.02 40.32C1093.16 42.16 1093.76 45.05 1094.49 47.63C1093.61 48.98 1092.71 50.32 1091.86 51.72C1092.38 52.01 1093.44 52.61 1093.96 52.9C1094.52 55.47 1095.23 58.15 1097.19 60.04C1100.68 63.57 1104.06 67.2 1107.6 70.69C1110.12 73.3701 1112.95 76.26 1113.36 80.1C1111.85 80.08 1110.32 80.05 1108.78 79.93C1108.16 79.8 1106.92 79.54 1106.3 79.41C1104.65 80.89 1103.02 82.38 1101.39 83.91C1102.54 84.74 1103.68 85.74 1105.16 85.72C1106.59 87.62 1109.21 87.84 1111.29 88.61C1110.75 90.01 1110.2 91.42 1109.64 92.85C1110.29 93.22 1111.59 93.97 1112.24 94.35C1112.15 95.01 1111.95 96.33 1111.86 96.99C1114.76 100.53 1117.35 104.47 1121.04 107.25C1126.19 110.3 1132.5 112.55 1138.48 110.85C1141.65 109.57 1143.72 106.65 1146.17 104.41C1149.62 100.55 1154.29 97.75 1156.68 93.02C1159.78 93.03 1163.15 92.58 1165.82 94.48C1169.97 97.31 1175.26 96.6201 1179.72 98.5701C1182.27 99.7701 1182.81 102.83 1184.11 105.04C1182.84 106.35 1181.42 107.47 1179.91 108.5C1182.13 112.99 1185.19 116.97 1188.1 121.01C1192.06 126.68 1198.84 129.77 1205.5 130.8C1210.38 131.59 1214 127.56 1216.95 124.32C1219.51 121.77 1220.32 118.21 1221.4 114.91C1222.33 112.62 1224.15 110.84 1226.29 109.69C1230.18 107.46 1232.81 103.75 1235.89 100.62C1235.86 100.04 1235.8 98.8999 1235.77 98.3299C1237.3 98.2599 1238.81 98.2099 1240.31 98.1699C1243.18 95.4699 1245.41 92.2199 1247.83 89.1399C1249.54 89.1799 1251.24 89.24 1252.92 89.34C1252.99 86.48 1253.23 83.6399 1253.95 80.8699C1257.43 78.5999 1258.84 74.5299 1261.14 71.2699C1262.26 71.1499 1263.37 71.0399 1264.47 70.9399C1265.07 68.3899 1265.8 65.7999 1267.46 63.7299C1269.75 60.8299 1270.98 57.2899 1273.03 54.2599C1275.35 51.7599 1278.96 52.6299 1281.89 53.1599C1282.18 55.3299 1282.44 57.5099 1282.71 59.6899C1281.63 63.1199 1280 66.9999 1281.77 70.4999C1284 75.2799 1286.65 79.8499 1289.28 84.4199C1290.76 86.8299 1292.59 88.9999 1294.46 91.1199C1292.9 91.7799 1291.34 92.4199 1289.75 93.0699C1290.51 95.3799 1291.8 97.4599 1293.19 99.4399C1294.22 98.4699 1295.24 97.5098 1296.25 96.5599C1295.26 97.9599 1294.24 99.3499 1293.22 100.75C1294.85 103.83 1294.99 107.3 1295.52 110.67C1298.48 113.86 1303.37 114.48 1307.52 114.45C1310.5 114.58 1313.24 113.24 1315.37 111.26C1318.69 107.13 1323.2 103.46 1324.27 98.0099C1325.81 96.0399 1328 94.7099 1330.57 95.5399C1336.3 96.8599 1342.18 96.5399 1347.99 96.2399C1349.08 97.8299 1351.78 99.08 1351.12 101.34C1350.32 102.35 1349.46 103.32 1348.55 104.26C1348.95 104.55 1349.77 105.12 1350.17 105.41C1356.16 105.51 1362.9 106.57 1368.11 102.9C1368.73 103.44 1369.98 104.53 1370.6 105.07C1372.38 102.74 1374.01 100.23 1374.41 97.2699C1375.1 96.2199 1375.73 95.1199 1376.35 94.0399C1379.22 92.9199 1381.9 91.2899 1383.65 88.6899C1384.19 88.5799 1385.25 88.3599 1385.79 88.2499C1384.41 89.8699 1382.99 91.45 1381.55 93.03C1382.91 93.38 1384.27 93.7399 1385.62 94.0999C1386.55 90.8999 1387.07 87.5899 1387.05 84.2499L1387.84 83.9599C1389.04 82.6799 1390.15 81.3199 1391.27 79.9999C1392.52 80.8699 1393.74 81.7499 1394.95 82.6499C1394.78 79.9399 1395.91 77.5399 1397.52 75.4599C1397.23 75.1599 1396.64 74.5799 1396.35 74.2799C1397.72 70.8499 1398.57 67.2499 1399.15 63.6099C1400.95 57.6999 1405.11 52.8499 1410.71 50.2299C1410.8 47.3599 1411.79 44.2699 1414.68 43.1199C1416.89 41.4599 1419.55 42.5599 1421.23 44.36C1422.35 47.09 1422 50.07 1421.8 52.94C1420.88 53.57 1419.96 54.21 1419.03 54.86C1420.16 61.47 1424.1 67.02 1426.3 73.26C1427.39 76.6 1430.38 78.61 1432.78 80.95C1432.43 82.72 1431.49 84.31 1430.74 85.95C1433.51 88.64 1436.45 91.16 1439.6 93.4C1444.73 97 1448.21 102.74 1454.12 105.24C1458.12 106.87 1462.91 108.34 1466.98 106.19C1469.02 105.2 1470.08 103.09 1471.13 101.22C1473.67 96.14 1477.13 91.58 1479.39 86.35C1480.94 83.11 1485.09 83.56 1488.07 83.23C1492.12 85.82 1496.94 85.47 1501.53 85.55C1504.07 85.46 1506.01 87.29 1507.77 88.86C1508.61 91.74 1507.11 94.42 1505.89 96.93C1505.52 96.73 1504.78 96.3301 1504.4 96.1301C1503.92 95.8801 1502.95 95.3899 1502.46 95.1399C1498.7 97.57 1495.2 100.38 1491.29 102.58C1490.29 105.09 1489.49 107.87 1487.4 109.74C1484.73 112.13 1481.46 113.72 1478.73 116.06C1475.75 118.59 1472.57 120.92 1468.97 122.49C1464 124.86 1458.34 123.79 1453.02 124.12C1452.6 125 1452.16 125.88 1451.71 126.76C1450.15 127.06 1448.55 127.31 1446.99 127.75C1447.29 129.9 1448.42 131.81 1449.55 133.63C1453.54 139.77 1458.77 144.98 1464.37 149.66C1464.59 154.59 1461.27 158.47 1459.77 162.92C1458.42 166.38 1458.03 170.11 1456.92 173.65C1456.01 175.81 1454.26 177.48 1452.98 179.42C1452.76 178.96 1452.32 178.03 1452.1 177.57C1451.6 177.93 1450.61 178.65 1450.11 179.02C1448.44 179.26 1446.76 179.5 1445.07 179.72C1442.55 179.97 1440.03 180.28 1437.51 180.61C1438.19 181.32 1438.86 182.04 1439.53 182.76C1437.58 183.01 1435.72 182.45 1434.12 181.34C1435.16 180.57 1436.2 179.82 1437.23 179.07C1432.16 177.33 1427.85 180.92 1423.35 182.6C1419.26 184.27 1414.77 183.35 1410.48 183.25C1405.91 184.15 1402.59 180.92 1399.59 178.03C1394.91 172.28 1390.31 166.46 1385.17 161.1C1385.21 154.21 1384.22 147.3 1382.03 140.75C1380.73 137 1379.74 132.85 1376.61 130.15C1376.17 132.27 1375.77 134.4 1375.35 136.54L1377.08 136.28C1377.47 137.78 1377.87 139.27 1378.26 140.78C1377.1 139.85 1375.96 138.9 1374.73 138.04C1375.37 141.85 1377.76 144.96 1379.48 148.32C1378.59 148.28 1376.79 148.19 1375.89 148.15C1376.46 149.52 1377.04 150.89 1377.64 152.26L1375.75 153.24C1375.02 151.24 1374.67 149.13 1374.65 147C1375.29 147.2 1376.56 147.59 1377.2 147.78C1375.93 145.47 1374.74 143.13 1373.63 140.75C1373.25 141.05 1372.5 141.65 1372.12 141.95C1370.88 142.54 1369.62 143.11 1368.35 143.69C1368.11 144.11 1367.65 144.95 1367.42 145.37C1361 154.81 1356.51 166.05 1356.86 177.62C1356.59 177.63 1356.06 177.67 1355.79 177.68C1355.32 177.62 1354.38 177.49 1353.91 177.42C1354.54 169.59 1354.33 161.71 1353.89 153.88C1358.56 147.64 1361.48 140.32 1363.44 132.83C1365.63 126.33 1364.92 119.38 1366.18 112.72C1365.02 111.46 1363.85 110.2 1362.67 108.95C1363.71 107.67 1364.74 106.39 1365.77 105.13C1360.9 106.04 1355.92 106.24 1350.98 105.96C1349.09 105.88 1347.24 105.54 1345.39 105.16C1340.7 106.5 1337.43 110.3 1333.2 112.51C1331.05 118.61 1324.82 121.11 1319.28 123.23C1315.46 125.23 1311.45 126.85 1307.37 128.26C1304.52 128.52 1301.66 128.45 1298.79 128.39C1298.91 130.82 1299.03 133.25 1299.15 135.69C1298.68 135.65 1297.73 135.57 1297.25 135.52C1296.88 133.11 1296.47 130.7 1296.03 128.3C1295.53 128.29 1294.52 128.27 1294.02 128.26C1291.59 131.55 1288.74 134.48 1286.28 137.74C1286.95 144.45 1287.17 151.28 1289.46 157.71C1289.94 159.74 1290.29 161.79 1290.65 163.84C1289.48 164.81 1288.23 165.7 1287.05 166.68C1287.54 169.201 1287.72 171.829 1288.74 174.214L1285.56 174.84C1285.12 172.38 1284.57 169.93 1283.96 167.51C1280.11 169.221 1276.58 171.515 1273.27 174.107L1262.81 174.403C1269.52 173.096 1275.68 169.428 1280.72 164.83C1282.36 163.63 1281.52 161.49 1281.52 159.83C1280.67 152.13 1280.96 143.43 1275.65 137.16C1273.22 137.61 1270.93 136.65 1268.76 135.67C1263.49 135.6 1258.24 134.87 1253.18 133.37C1252.72 134.69 1252.27 136.01 1251.75 137.33C1248.39 142.55 1247.52 148.77 1246.8 154.82C1246.17 159.7 1248.83 164.07 1251.17 168.1C1252.69 170.507 1254.09 173.14 1256.4 174.87L1251.66 174.061C1248.42 168.267 1243.37 163.877 1239.35 158.71C1239.45 155.26 1240.27 151.9 1240.78 148.51C1241.42 140.94 1239.05 133.27 1234.22 127.41C1233.12 131.24 1232.37 135.16 1231.77 139.11C1230.66 140.51 1229.54 141.91 1228.43 143.33C1229.41 144.56 1230.38 145.78 1231.32 147.03C1229.92 146.29 1228.51 145.55 1227.11 144.8C1225.65 146.45 1224.49 148.32 1223.57 150.33C1219.68 157.61 1218.38 166.07 1219.13 174.24H1216.98C1216.32 169.15 1215.25 164.13 1214.19 159.12C1213.08 155.63 1215.97 152.79 1217.08 149.74C1218.53 146.99 1219.25 143.97 1219.73 140.93C1219.97 139.68 1220.21 138.44 1220.46 137.21L1220.8 136.48C1220.71 132.15 1220.13 127.86 1219.43 123.6C1215.77 127.53 1211.74 132.75 1205.73 132.23C1199.44 131.19 1193.3 128.31 1188.77 123.77C1185.46 119.63 1182.87 114.98 1179.63 110.79C1178.15 108.36 1175.01 108.89 1172.6 108.4C1169.88 110.47 1166.7 111.7 1163.37 112.45C1160.74 115.87 1157.75 119.27 1153.66 120.95C1148.13 123.09 1143.34 126.89 1137.47 128.21C1133.53 129.58 1129.33 129.38 1125.22 129.1C1124.43 130.93 1123.62 132.77 1122.77 134.59C1122.76 132.62 1122.74 130.64 1122.72 128.68C1121.89 129.64 1121.05 130.62 1120.21 131.6C1120.61 133.57 1120.97 135.54 1121.25 137.54C1122.28 145.07 1124.95 152.26 1128.48 158.96C1129.26 163.75 1128.36 168.85 1130.24 173.51C1130.74 175.12 1131.28 176.73 1131.84 178.33L1127.1 178.97C1126.88 174.08 1125.73 169.23 1123.61 164.81C1121.5 160.38 1120.78 155.42 1118.4 151.1C1116.07 146.77 1114.21 142.21 1111.87 137.89C1110.4 136.93 1109.02 135.85 1107.48 134.99C1102.09 136.13 1101.82 142.36 1100.19 146.59C1098.61 151.2 1097.45 155.97 1097.12 160.85C1096.99 163.74 1095.49 166.27 1094.62 168.97C1093.28 172.93 1093.2 177.15 1093.08 181.29C1092.65 181.32 1091.79 181.38 1091.36 181.42C1090.64 182.69 1089.9 183.97 1089.16 185.25C1079.21 185.19 1069.41 187.55 1059.45 187.01C1057.2 187.13 1055.27 185.78 1053.11 185.4C1050.01 186.37 1047.15 188.29 1043.79 188.35C1040.19 188.51 1036.69 189.41 1033.14 190.02C1029.91 190.1 1027.17 187.96 1024.57 186.3C1027.95 177.55 1027.48 167.85 1025.99 158.75ZM1433.86 177.34C1438.71 177.52 1443.56 177.21 1448.41 177.07C1448.59 176.53 1448.96 175.44 1449.14 174.9L1449.35 174.32C1450.3 173.86 1451.25 173.43 1452.19 173.03C1454.55 168.91 1456.02 164.34 1456.99 159.72C1457.8 155.04 1455.81 150.17 1452.24 147.11C1447.83 143.18 1443.53 138.79 1437.96 136.54C1436.41 143.89 1434.86 151.4 1435.57 158.95C1435.85 161.92 1434.41 164.64 1433.64 167.43C1433.1 170.72 1433.41 174.05 1433.86 177.34ZM1419.8 85.48C1421.68 84.7 1423.55 83.95 1425.49 83.42C1424.73 82.91 1423.96 82.41 1423.19 81.91C1422.09 83.12 1420.93 84.28 1419.8 85.48ZM1425.16 76.97C1423.3 76.24 1422.75 79.31 1424.59 79.6C1426.42 80.2 1426.92 77.3 1425.16 76.97ZM1391.11 145.71C1392.08 151.97 1392.36 158.44 1394.99 164.31C1397.56 170.06 1400.58 175.81 1405.07 180.31C1406.15 180.61 1407.21 180.91 1408.28 181.19C1413.29 181.52 1418.32 181.48 1423.34 181.22C1425.48 179.9 1427.75 178.82 1430.01 177.74C1430.07 176.31 1430.11 174.89 1430.13 173.47C1430.56 167.77 1427.44 162.39 1428.5 156.71C1429.65 149.37 1429.49 141.89 1428.83 134.51C1425.89 134.36 1422.91 134.2 1420.08 133.27C1414.81 131.63 1409.21 131.67 1403.9 130.16C1399.29 129.19 1395.32 126.21 1390.53 125.91C1391.42 127.86 1392.77 129.68 1393.09 131.85C1393.17 136.57 1390.28 140.95 1391.11 145.71ZM1367.49 108.09C1368.95 108.52 1370.12 105.27 1368.35 105.03C1367.04 105.23 1366.62 107.19 1367.49 108.09ZM1288.73 93.93C1287.54 93.05 1286.86 93.32 1286.7 94.74C1287.9 95.61 1288.58 95.34 1288.73 93.93ZM1243.88 100.47C1244.54 98.07 1245.15 95.63 1245.53 93.17C1243.56 95.39 1241.05 97.46 1240.39 100.52C1241.56 100.5 1242.73 100.49 1243.88 100.47ZM1100.4 83.61C1102.5 81.79 1104.58 79.96 1106.7 78.19C1103.41 77.67 1100.11 77.11 1096.76 77.13C1097.87 79.34 1099.07 81.52 1100.4 83.61ZM1053.39 181.48C1053.59 182.01 1054 183.08 1054.2 183.61C1065.8 183.84 1077.32 182.39 1088.84 181.28C1090.69 173.82 1089.78 166.19 1089.83 158.63C1091.12 155 1092.19 151.28 1092.69 147.46C1093.15 144.19 1093.31 140.89 1093.2 137.6C1085.5 137.18 1077.9 135.7 1070.21 135.17C1067.15 133.19 1061.33 129.91 1059.26 134.71C1059.85 137.48 1060.51 140.45 1058.34 142.75C1056.46 146.03 1053.19 148.51 1052.31 152.32C1051.23 156.46 1049.67 160.52 1049.29 164.81C1049.4 170.58 1051.29 176.16 1053.39 181.48ZM1029.73 186.79C1036.91 186.21 1044.02 184.96 1051.19 184.33C1048.61 177.71 1044.49 171.91 1041.01 165.78C1041.55 162.43 1042.99 159.31 1043.85 156.05C1044.5 153.64 1044.92 151.17 1045.22 148.71C1042.48 149.71 1040.31 151.7 1038.67 154.09C1031.37 163.1 1027.99 175.31 1029.73 186.79Z" />
<path d="M1243.95 172.849C1551.93 183.883 1844.51 199.846 2106.5 167.22L2300.5 152.29V834.79H-18V246.29C254.662 246.29 791.213 198.863 1152.16 174.321C1182.7 172.244 1213.35 171.753 1243.95 172.849Z" />
</g>
<defs>
<clipPath id="clip0">
<rect width="2337" height="3665" fill="white" transform="translate(-27 -2183)"/>
</clipPath>
</defs>
</svg>
