<svg width="2319" height="795" viewBox="0 0 2319 795" fill="#974b31" xmlns="http://www.w3.org/2000/svg">
<path d="M1269.73 130.17C1269.71 130.133 1269.69 130.098 1269.66 130.061L1274.4 130.87C1274.42 130.879 1274.43 130.891 1274.44 130.9C1276.61 130.992 1278.74 130.806 1280.81 130.402L1291.27 130.107C1291.25 130.122 1291.23 130.135 1291.21 130.15C1289.24 131.56 1286.99 132.48 1284.72 133.31C1284.27 132.77 1283.38 131.69 1282.93 131.14C1282.52 132.37 1282.11 133.61 1281.68 134.85C1279.77 134.82 1277.84 134.78 1275.91 134.75C1275.88 133.84 1275.83 132.94 1275.78 132.05C1274.3 131.79 1272.81 131.53 1271.31 131.28C1272.31 132.05 1273.33 132.8 1274.32 133.58C1268.97 133.13 1263.64 134.04 1258.28 133.69C1260.71 132.98 1263.36 132.56 1265.21 130.68C1266.72 130.51 1268.23 130.33 1269.73 130.17Z"/>
<path d="M1615.32 125.36C1615.13 121.85 1614.32 117.84 1616.71 114.86C1619.05 112.21 1621.7 109.73 1623.07 106.39C1626.72 99.47 1625.55 91.41 1627.25 84.01C1627.97 80.95 1629.94 78.43 1631.9 76.0701C1633.72 73.7701 1635.81 71.7101 1638.12 69.9301C1638.08 67.8001 1638.07 65.6701 1638.07 63.5601C1641.25 61.4701 1644.46 59.0601 1648.42 58.9301C1647.89 56.5701 1647.29 54.2301 1646.55 51.9301C1645.98 49.9101 1645.11 47.9101 1645.09 45.7901C1645.89 41.4001 1648.48 37.6401 1650.43 33.7001C1651.06 33.5901 1652.33 33.3802 1652.96 33.2801C1653.21 30.1901 1653.9 27.1701 1655.04 24.2901C1657.1 24.2301 1659.15 24.1801 1661.2 24.1501C1662.15 26.2701 1663.37 28.4601 1663.08 30.8801C1662.79 33.2901 1661.64 35.4701 1661.08 37.8201C1662.41 41.4201 1664.71 44.5401 1666.61 47.8401C1670.91 45.8701 1675.17 43.7501 1679.73 42.4701C1680.64 43.3401 1681.09 44.4401 1681.08 45.7701C1679.52 46.4801 1677.93 47.1301 1676.37 47.8301C1673.39 49.2801 1670.93 51.5301 1668.48 53.7201C1669.61 55.7101 1670.98 57.5401 1672.57 59.1801C1673 58.3301 1673.87 56.6301 1674.3 55.7801C1674.86 56.3201 1675.98 57.3801 1676.53 57.9101C1678.02 58.0201 1679.49 58.1601 1680.96 58.3001C1681.52 57.9801 1682.64 57.3301 1683.2 57.0001C1684.3 58.4401 1685.47 59.8301 1686.64 61.2201C1686.14 61.4101 1685.13 61.7901 1684.63 61.9801C1689.18 63.2401 1693.18 65.8201 1697.15 68.2801C1701.04 70.6301 1702.9 75.4101 1707.26 77.1001C1710.97 78.5901 1715.68 78.5801 1719.03 76.2601C1721.26 73.4402 1722.61 69.9601 1725.51 67.6801C1727.8 64.0601 1730.78 60.7501 1731.52 56.3801C1734.8 56.1201 1738.23 55.7101 1741.3 57.1701C1745.57 59.0201 1750.47 57.8901 1754.76 59.6401C1757.26 60.6801 1758.28 63.3601 1759.54 65.5401C1758.86 66.5101 1758.17 67.4901 1757.47 68.4801C1754.42 68.0601 1750.97 67.5501 1748.4 69.7101C1746.62 70.8201 1747.37 73.1202 1747.25 74.8602C1749.08 80.4002 1748.65 87.1201 1752.77 91.6201C1757.79 95.9001 1764.31 92.2701 1768.17 88.2701C1768.06 81.5901 1773.76 77.5301 1777.31 72.6401C1778.87 70.5201 1780.88 68.8301 1782.98 67.2901C1783.04 65.0601 1783.09 62.8301 1783.13 60.6101C1784.06 59.7001 1785.02 58.8401 1785.98 57.9901C1786.01 57.7501 1786.06 57.2701 1786.08 57.0301C1784.86 52.9401 1783.36 48.8401 1780.9 45.3301C1778.34 45.1201 1775.7 45.9201 1773.2 45.1501C1770.88 44.2101 1772.05 41.2301 1772.77 39.5101C1774.6 36.4001 1775.58 32.9301 1776.34 29.4401C1778.28 29.3701 1780.22 29.3101 1782.16 29.2701C1782.12 29.6801 1782.05 30.5001 1782.01 30.9101C1779.88 32.8601 1778.28 35.2701 1776.83 37.7601C1780.02 35.1801 1784.94 34.6401 1787.04 30.9001C1786.54 29.1801 1785.8 27.5501 1785.09 25.9101C1786.5 24.2901 1787.91 22.6901 1789.35 21.1001C1792.93 21.2401 1795.63 23.4701 1797.22 26.5601C1795.68 28.7301 1794.44 31.1001 1793.88 33.7301C1796.49 34.4901 1799.37 34.9501 1801.45 36.8601C1804.01 39.0201 1806.18 41.9401 1809.53 42.9101C1813.98 44.0601 1818.61 44.1201 1823.17 44.3401C1822.46 47.5701 1823.33 50.7201 1824.84 53.5801C1826.82 53.9101 1828.8 54.2801 1830.8 54.3101C1831.65 54.3401 1833.37 54.3801 1834.23 54.4101C1833.21 55.2801 1832.21 56.1201 1831.18 57.0201C1834.38 58.5401 1837.76 59.6401 1841.01 61.0201C1844.78 62.5401 1847.25 66.0401 1850.95 67.6801C1858.17 71.2201 1867.22 72.1801 1874.6 68.6601C1881.02 64.3201 1886.08 58.2901 1890.92 52.3101C1896.62 51.4601 1902.04 53.2901 1907.54 54.4001C1911.13 54.6301 1913.53 57.5901 1916.16 59.6901C1916.77 61.76 1917.06 63.9101 1917.3 66.0601C1916.76 66.1801 1915.68 66.4001 1915.14 66.5201C1912.65 72.0901 1915.13 77.9801 1915.17 83.7301C1915.27 88.9801 1916.34 94.1201 1917.14 99.2901C1916.92 106.99 1919.52 115.62 1926.31 119.97C1930.12 122.6 1934.92 119.92 1937.62 116.93C1941.01 113.15 1939.14 107.75 1939.49 103.21C1936.77 102.12 1933.09 102.71 1931.07 100.37C1929.68 95.4401 1932.48 90.7901 1934.63 86.5601C1935.95 85.5101 1937.41 84.6601 1938.83 83.7701C1939.19 79.6501 1939.19 75.3201 1941.16 71.5801C1942.76 68.6401 1944.83 66.0101 1946.72 63.2701C1946.94 60.0001 1945.8 55.4501 1949.42 53.6801C1951.76 52.9201 1954.41 52.7301 1956.79 53.4101C1957.86 55.2401 1957.74 57.4401 1957.99 59.4901C1956.94 63.0601 1954.87 66.2401 1953.94 69.8401C1954.02 72.4501 1956.71 74.0101 1958.15 75.9401C1957.87 76.8701 1957.59 77.8101 1957.3 78.7501C1957.84 84.4401 1956.97 90.2101 1958.51 95.8001C1959.53 91.6701 1959.8 87.4301 1960.31 83.2301C1961.11 78.0501 1965.58 74.7101 1969.37 71.6001C1968.66 69.1301 1968.85 66.6501 1970.08 64.3901C1972.66 64.1201 1975.25 63.2801 1977.85 63.6601C1979.57 64.6801 1981.07 66.1801 1981.98 67.9701C1981.84 72.8001 1977.5 76.0401 1973.81 78.4801C1975.49 83.9601 1976.6 89.5801 1977.35 95.2601C1978.58 99.4801 1975.56 104.25 1978.32 108.02C1978.01 110.13 1977.25 112.13 1976.1 113.93C1976.02 119.57 1977.65 125.17 1976.83 130.81C1976.78 133.07 1974.52 134.08 1973.09 135.46C1973.02 136.62 1972.95 137.79 1972.87 138.97C1975.45 140.093 1978.09 140.746 1980.76 141.082H1968.84C1968.87 138.984 1969.04 136.854 1968.44 134.83C1967.97 132.9 1965.92 132.24 1964.48 131.21C1962.99 132.27 1961.2 133.08 1960.18 134.68C1958.68 136.81 1959.2 139.54 1959.02 141.99C1959.39 142.2 1959.76 142.365 1960.13 142.498H1949.83C1950.5 138.424 1951.54 134.177 1950 130.19C1948.44 130.22 1946.87 130.26 1945.31 130.29C1942.36 133.45 1940.37 137.41 1937.05 140.24C1936.98 141.209 1936.91 142.182 1936.84 143.165H1931.8C1930.55 141.914 1929.29 140.667 1928.02 139.45C1930.47 135.91 1933.36 132.7 1935.66 129.06C1936.41 126.51 1937.05 123.93 1937.76 121.37C1932.98 123.51 1927.52 123.35 1922.98 120.68C1921.01 118.51 1919.14 116.17 1918.06 113.42C1914.42 104.03 1916.46 93.5101 1912.94 84.1201C1911.63 84.6501 1910.28 85.1702 1908.94 85.6702C1909.45 83.7402 1909.97 81.8201 1910.48 79.9001C1911.35 79.1101 1912.22 78.3301 1913.08 77.5501C1913.05 73.5801 1913.59 69.3801 1911.56 65.7701L1910.54 65.2001C1906.05 68.5702 1899.84 69.0201 1896.15 73.4601C1892.76 76.8301 1888.12 78.4001 1883.69 79.8901C1878.39 81.6601 1873.43 84.2801 1868.38 86.6601C1863.6 88.9201 1858.19 88.0001 1853.08 88.2501C1851.78 91.4301 1849.62 94.3301 1848.96 97.7301C1850.61 104.12 1854.53 109.62 1858.51 114.78C1860.07 116.88 1861.93 119.01 1862.19 121.73C1862.74 125.89 1863.17 130.16 1865.13 133.96C1867.26 137.47 1868.05 142.4 1872.1 144.29C1870.27 145.4 1868.45 146.52 1866.63 147.64C1866.73 146.38 1866.82 145.13 1866.91 143.89C1866.32 144.33 1865.72 144.77 1865.12 145.23C1864.33 143.64 1863.53 142.07 1862.82 140.45C1861.01 135.09 1859.98 129.34 1856.61 124.64C1852.52 117.44 1848.09 110.29 1842.02 104.56C1838.58 111.95 1836.51 119.82 1834.46 127.68C1832.02 133.64 1832.65 140.16 1832.97 146.43C1832.25 147.18 1831.53 147.92 1830.81 148.68C1830.66 147.48 1830.5 146.28 1830.33 145.1C1829.45 145.77 1828.57 146.45 1827.68 147.14C1827.8 141.29 1829.34 135.46 1828.32 129.62C1828.04 127.29 1827.57 124.87 1828.35 122.58C1830.69 115.32 1832.25 107.8 1832.99 100.21C1830.87 100.16 1828.74 100.13 1826.61 100.11C1826.79 102.52 1826.98 104.94 1827.18 107.37C1826.6 107.41 1825.45 107.5 1824.87 107.54C1825.54 105.26 1826.97 102.8 1825.82 100.44C1823.41 99.7 1820.87 100.2 1818.41 100.33C1817.5 101.69 1816.6 103.04 1815.68 104.4C1814.92 104.33 1813.41 104.2 1812.65 104.14C1811.89 103.1 1811.19 102.01 1810.3 101.09C1803.53 98.1201 1796.02 99.4501 1788.88 99.3801C1789.53 101.85 1790.68 104.47 1789.7 107.03C1786.41 115.89 1787.01 126.25 1791.12 134.75C1793.46 139.61 1796.78 143.94 1800.75 147.57C1800.48 147.73 1799.95 148.05 1799.68 148.21C1798.46 148.08 1797.23 147.96 1796 147.85C1795.25 146.85 1794.49 145.87 1793.74 144.87C1789.9 139.49 1785.3 134.72 1780.86 129.84C1781.46 121.97 1780.87 114.01 1778.22 106.53C1773.57 108.98 1768.91 111.93 1766.69 116.92C1760.17 126.08 1757.33 137.31 1757.14 148.45C1756.48 148.47 1755.82 148.5 1755.15 148.54C1754.73 146.86 1754.32 145.17 1753.96 143.49C1754.11 141.83 1754.26 140.18 1754.44 138.54C1755.47 133.04 1754.62 127.43 1755.12 121.91C1757.34 116.38 1761.07 111.6 1763.65 106.26C1765.57 100.89 1768.46 95.6201 1768.08 89.7301C1765.02 91.4201 1762.04 93.7101 1758.45 94.0601C1755.59 93.8101 1752.96 92.4901 1750.22 91.7401C1750.04 93.4401 1749.84 95.1501 1749.63 96.8701C1748.91 94.7901 1747.96 92.6501 1748.49 90.4101C1749.47 85.6501 1747.98 80.9401 1747.36 76.2501C1746.4 75.5501 1745.42 74.8801 1744.43 74.2201L1743.5 73.7401C1743.99 72.8301 1744.48 71.9301 1744.96 71.0301C1739.57 73.6401 1737.38 79.4601 1733.19 83.3801C1729.1 87.4201 1724.59 91.0801 1719.66 94.0601C1715.62 96.5501 1710.71 96.3901 1706.14 96.2401C1705.34 97.6101 1703.73 98.8802 1704.17 100.67C1705.2 107.62 1706.16 114.72 1709.18 121.15C1711.62 126.28 1711.26 132.24 1713.89 137.32C1715.52 140.48 1717.43 143.49 1719.51 146.38C1719.67 146.585 1719.98 146.967 1720.15 147.18L1714.01 147.522C1713.13 145.038 1712.23 142.571 1711.23 140.14C1709.48 135.22 1706.43 130.94 1704.3 126.21C1701.01 117.44 1698.04 108.15 1691.53 101.16C1689.63 102.36 1687.21 103.13 1686.05 105.2C1683.19 110.38 1681.2 116.05 1680.23 121.89C1679.55 126.79 1676.64 130.94 1675.37 135.66C1674.73 139.49 1674.9 143.38 1675.18 147.24C1674.25 147.73 1673.32 148.21 1672.38 148.72C1671.67 147.71 1670.95 146.7 1670.27 145.68C1670.61 141.64 1671.97 137.78 1672.42 133.76C1672.88 130.08 1672.73 126.35 1673.01 122.66C1675.07 116.33 1677 109.76 1677.07 103.06C1673.93 101.33 1670.2 102.27 1666.78 101.78C1660.42 100.96 1654.61 97.82 1648.2 97.12C1647.15 100.88 1646.4 104.78 1644.66 108.31C1643.71 110.39 1642.38 112.4 1642.24 114.76C1641.82 120.87 1641.12 127.15 1642.81 133.14C1644.33 137.91 1646.91 142.25 1649.8 146.32C1649.12 148.36 1647.35 147.24 1645.98 146.68C1642.32 139.83 1637.97 133.4 1633.78 126.88C1635.03 121.52 1635.52 116.03 1635.21 110.54C1630.58 111.09 1628.08 115.32 1625.13 118.4C1619.64 124.45 1618.06 132.91 1618.1 140.83C1618.21 143.04 1617.49 145.13 1616.61 147.13C1615.44 146.56 1614.26 146 1613.08 145.47C1613.74 144.01 1614.32 142.5 1614.83 141C1615.2 135.79 1615.87 130.57 1615.32 125.36ZM1963.43 124.67C1964.4 124.22 1965.37 123.77 1966.34 123.32C1965.79 120.33 1964.44 117.36 1961.84 115.63C1961.78 118.72 1962.32 121.78 1963.43 124.67ZM1823.3 54.18C1823.17 52.84 1823.03 51.51 1822.89 50.19C1821.69 50.25 1820.49 50.32 1819.29 50.4C1819.17 49 1819 47.6 1818.78 46.21C1814.39 47.23 1810.14 49.2 1805.48 48.39C1805.63 49.15 1805.92 50.67 1806.07 51.43C1806.46 52.96 1806.9 54.48 1807.33 56C1808.89 56.16 1810.45 56.33 1812.01 56.5C1812.18 56.04 1812.53 55.12 1812.7 54.66C1812.96 53.98 1813.47 52.63 1813.73 51.95C1814.44 52 1815.85 52.1 1816.55 52.15C1817.53 51.63 1818.51 51.1 1819.48 50.59C1820.75 51.78 1822.02 52.98 1823.3 54.18Z" />
<path d="M1561.54 80.6201C1562.52 76.9501 1565.92 74.8001 1568.13 71.9301C1567.55 70.5601 1566.11 69.4601 1565.96 67.9701C1566.8 65.5101 1568.35 63.3901 1569.62 61.1501C1572.71 60.7601 1575.64 61.6401 1578.12 63.4701C1577.87 68.6801 1576.95 74.1901 1579.23 79.1101C1581.37 83.8001 1581.36 89.0501 1582.74 93.9601C1583.64 97.2001 1583.8 100.95 1586.34 103.45C1589.86 105.95 1593.93 108.69 1594.41 113.39C1593.39 113.3 1592.37 113.22 1591.34 113.14C1590.53 109.88 1589.8 106.38 1587.1 104.1C1585.35 104.29 1583.6 104.48 1581.84 104.65C1582.74 110.71 1583.98 116.73 1584.05 122.88C1584.01 125.75 1585.04 128.44 1586.23 131C1588.04 134.69 1586.93 138.84 1586.85 142.76C1587.61 143.82 1588.73 144.52 1590 144.79C1592.75 145.472 1595.52 146.189 1598.32 146.728H1561.02C1563.3 130.052 1561.4 113.138 1562.92 96.4001C1562.49 96.0101 1561.63 95.2301 1561.2 94.8401C1560.37 90.1302 1560.4 85.2601 1561.54 80.6201ZM1580.3 146.46C1581.73 144.47 1579.58 141.53 1578.79 139.42C1574.52 139.72 1568.12 138.44 1566.63 143.88C1570.47 147.11 1575.65 146.52 1580.3 146.46Z" />
<path d="M1043.99 118.75C1047.84 114.81 1050.8 110.1 1052.98 105.06C1054.48 98.3801 1055.41 91.47 1054.95 84.61C1055.24 80.68 1054.61 76.44 1056.52 72.83C1058.74 69.44 1062.12 66.8201 1063.53 62.92C1064.74 59.45 1067.36 56.79 1069.25 53.72C1070.46 53.15 1071.65 52.59 1072.82 52.04C1073.47 48.69 1074.25 45.32 1075.88 42.3C1078.59 39.58 1082.34 39.89 1085.63 41.24C1088.52 32.49 1090.16 23.18 1094.93 15.17C1096.44 12.48 1098.94 10.57 1100.72 8.11002C1101.24 5.30002 1101.2 2.25 1103.24 0C1105.18 0.05 1107.13 -0.0599927 1109.02 0.320007C1111.16 2.16001 1111.76 5.05001 1112.49 7.63001C1111.61 8.98001 1110.71 10.32 1109.86 11.72C1110.38 12.01 1111.44 12.61 1111.96 12.9C1112.52 15.47 1113.23 18.15 1115.19 20.04C1118.68 23.57 1122.06 27.2 1125.6 30.69C1128.12 33.3701 1130.95 36.26 1131.36 40.1C1129.85 40.08 1128.32 40.05 1126.78 39.93C1126.16 39.8 1124.92 39.54 1124.3 39.41C1122.65 40.89 1121.02 42.38 1119.39 43.91C1120.54 44.74 1121.68 45.74 1123.16 45.72C1124.59 47.62 1127.21 47.84 1129.29 48.61C1128.75 50.01 1128.2 51.42 1127.64 52.85C1128.29 53.22 1129.59 53.97 1130.24 54.35C1130.15 55.01 1129.95 56.33 1129.86 56.99C1132.76 60.53 1135.35 64.4701 1139.04 67.2501C1144.19 70.3001 1150.5 72.55 1156.48 70.85C1159.65 69.57 1161.72 66.65 1164.17 64.41C1167.62 60.55 1172.29 57.75 1174.68 53.02C1177.78 53.03 1181.15 52.58 1183.82 54.48C1187.97 57.31 1193.26 56.6201 1197.72 58.5701C1200.27 59.7701 1200.81 62.8299 1202.11 65.04C1200.84 66.35 1199.42 67.4701 1197.91 68.5001C1200.13 72.9901 1203.19 76.97 1206.1 81.0099C1210.06 86.68 1216.84 89.7699 1223.5 90.7999C1228.38 91.5899 1232 87.5599 1234.95 84.3199C1237.51 81.7699 1238.32 78.2099 1239.4 74.9099C1240.33 72.6199 1242.15 70.8399 1244.29 69.6899C1248.18 67.4599 1250.81 63.7499 1253.89 60.6199C1253.86 60.0399 1253.8 58.8999 1253.77 58.3299C1255.3 58.2599 1256.81 58.2099 1258.31 58.1699C1261.18 55.4699 1263.41 52.2199 1265.83 49.1399C1267.54 49.1799 1269.24 49.24 1270.92 49.34C1270.99 46.48 1271.23 43.6399 1271.95 40.8699C1275.43 38.5999 1276.84 34.5299 1279.14 31.2699C1280.26 31.1499 1281.37 31.0399 1282.47 30.9399C1283.07 28.3899 1283.8 25.7999 1285.46 23.7299C1287.75 20.8299 1288.98 17.2899 1291.03 14.2599C1293.35 11.7599 1296.96 12.6299 1299.89 13.1599C1300.18 15.3299 1300.44 17.5099 1300.71 19.6899C1299.63 23.1199 1298 26.9999 1299.77 30.4999C1302 35.2799 1304.65 39.8499 1307.28 44.4199C1308.76 46.8299 1310.59 48.9999 1312.46 51.1199C1310.9 51.7799 1309.34 52.4199 1307.75 53.0699C1308.51 55.3799 1309.8 57.4599 1311.19 59.4399C1312.22 58.4699 1313.24 57.5098 1314.25 56.5599C1313.26 57.9599 1312.24 59.3499 1311.22 60.7499C1312.85 63.8299 1312.99 67.2999 1313.52 70.6699C1316.48 73.8599 1321.37 74.4799 1325.52 74.4499C1328.5 74.5799 1331.24 73.2399 1333.37 71.2599C1336.69 67.13 1341.2 63.4599 1342.27 58.0099C1343.81 56.0399 1346 54.7099 1348.57 55.5399C1354.3 56.8599 1360.18 56.5399 1365.99 56.2399C1367.08 57.8299 1369.78 59.08 1369.12 61.34C1368.32 62.35 1367.46 63.3199 1366.55 64.2599C1366.95 64.5499 1367.77 65.1199 1368.17 65.4099C1374.16 65.5099 1380.9 66.57 1386.11 62.9C1386.73 63.44 1387.98 64.5299 1388.6 65.0699C1390.38 62.7399 1392.01 60.2299 1392.41 57.2699C1393.1 56.2199 1393.73 55.1199 1394.35 54.0399C1397.22 52.9199 1399.9 51.2899 1401.65 48.6899C1402.19 48.5799 1403.25 48.3599 1403.79 48.2499C1402.41 49.8699 1400.99 51.45 1399.55 53.03C1400.91 53.38 1402.27 53.7399 1403.62 54.0999C1404.55 50.8999 1405.07 47.5899 1405.05 44.2499L1405.84 43.9599C1407.04 42.6799 1408.15 41.3199 1409.27 39.9999C1410.52 40.8699 1411.74 41.7499 1412.95 42.6499C1412.78 39.9399 1413.91 37.5399 1415.52 35.4599C1415.23 35.1599 1414.64 34.5799 1414.35 34.2799C1415.72 30.8499 1416.57 27.2499 1417.15 23.6099C1418.95 17.6999 1423.11 12.8499 1428.71 10.2299C1428.8 7.35992 1429.79 4.26991 1432.68 3.1199C1434.89 1.4599 1437.55 2.55992 1439.23 4.36002C1440.35 7.09002 1440 10.07 1439.8 12.94C1438.88 13.57 1437.96 14.21 1437.03 14.86C1438.16 21.47 1442.1 27.02 1444.3 33.26C1445.39 36.6 1448.38 38.61 1450.78 40.95C1450.43 42.72 1449.49 44.31 1448.74 45.95C1451.51 48.64 1454.45 51.16 1457.6 53.4C1462.73 57 1466.21 62.74 1472.12 65.24C1476.12 66.87 1480.91 68.3401 1484.98 66.1901C1487.02 65.2 1488.08 63.09 1489.13 61.22C1491.67 56.14 1495.13 51.58 1497.39 46.35C1498.94 43.11 1503.09 43.56 1506.07 43.23C1510.12 45.82 1514.94 45.47 1519.53 45.55C1522.07 45.46 1524.01 47.29 1525.77 48.86C1526.61 51.74 1525.11 54.42 1523.89 56.93C1523.52 56.73 1522.78 56.3301 1522.4 56.1301C1521.92 55.8801 1520.95 55.3899 1520.46 55.1399C1516.7 57.57 1513.2 60.38 1509.29 62.5799C1508.29 65.0899 1507.49 67.8699 1505.4 69.7399C1502.73 72.1299 1499.46 73.7199 1496.73 76.0599C1493.75 78.5899 1490.57 80.9199 1486.97 82.4899C1482 84.8599 1476.34 83.7899 1471.02 84.1199C1470.6 84.9999 1470.16 85.8799 1469.71 86.7599C1468.15 87.0599 1466.55 87.31 1464.99 87.7501C1465.29 89.9001 1466.42 91.8101 1467.55 93.6301C1471.54 99.7701 1476.77 104.98 1482.37 109.66C1482.59 114.59 1479.27 118.47 1477.77 122.92C1476.42 126.38 1476.03 130.11 1474.92 133.65C1474.01 135.81 1472.26 137.48 1470.98 139.42C1470.76 138.96 1470.32 138.03 1470.1 137.57C1469.6 137.93 1468.61 138.65 1468.11 139.02C1466.44 139.26 1464.76 139.5 1463.07 139.72C1460.55 139.97 1458.03 140.28 1455.51 140.61C1456.19 141.32 1456.86 142.04 1457.53 142.76C1455.58 143.01 1453.72 142.45 1452.12 141.34C1453.16 140.57 1454.2 139.82 1455.23 139.07C1450.16 137.33 1445.85 140.92 1441.35 142.6C1437.26 144.27 1432.77 143.35 1428.48 143.25C1423.91 144.15 1420.59 140.92 1417.59 138.03C1412.91 132.28 1408.31 126.46 1403.17 121.1C1403.21 114.21 1402.22 107.3 1400.03 100.75C1398.73 97.0001 1397.74 92.85 1394.61 90.15C1394.17 92.27 1393.77 94.4 1393.35 96.54L1395.08 96.28C1395.47 97.78 1395.87 99.27 1396.26 100.78C1395.1 99.85 1393.96 98.9 1392.73 98.04C1393.37 101.85 1395.76 104.96 1397.48 108.32C1396.59 108.28 1394.79 108.19 1393.89 108.15C1394.46 109.52 1395.04 110.89 1395.64 112.26L1393.75 113.24C1393.02 111.24 1392.67 109.13 1392.65 107C1393.29 107.2 1394.56 107.59 1395.2 107.78C1393.93 105.47 1392.74 103.13 1391.63 100.75C1391.25 101.05 1390.5 101.65 1390.12 101.95C1388.88 102.54 1387.62 103.11 1386.35 103.69C1386.11 104.11 1385.65 104.95 1385.42 105.37C1379 114.81 1374.51 126.05 1374.86 137.62C1374.59 137.63 1374.06 137.67 1373.79 137.68C1373.32 137.62 1372.38 137.49 1371.91 137.42C1372.54 129.59 1372.33 121.71 1371.89 113.88C1376.56 107.64 1379.48 100.32 1381.44 92.8301C1383.63 86.3301 1382.92 79.3801 1384.18 72.7201C1383.02 71.4601 1381.85 70.2001 1380.67 68.9501C1381.71 67.6701 1382.74 66.3901 1383.77 65.1302C1378.9 66.0402 1373.92 66.2403 1368.98 65.9603C1367.09 65.8803 1365.24 65.5402 1363.39 65.1602C1358.7 66.5002 1355.43 70.3002 1351.2 72.5102C1349.05 78.6102 1342.82 81.1102 1337.28 83.2302C1333.46 85.2302 1329.45 86.8503 1325.37 88.2603C1322.52 88.5203 1319.66 88.4503 1316.79 88.3903C1316.91 90.8204 1317.03 93.2502 1317.15 95.6902C1316.68 95.6502 1315.73 95.5703 1315.25 95.5203C1314.88 93.1103 1314.47 90.7002 1314.03 88.3002C1313.53 88.2902 1312.52 88.2703 1312.02 88.2603C1309.59 91.5503 1306.74 94.4802 1304.28 97.7402C1304.95 104.45 1305.17 111.28 1307.46 117.71C1307.94 119.74 1308.29 121.79 1308.65 123.84C1307.48 124.81 1306.23 125.7 1305.05 126.68C1305.54 129.201 1305.72 131.829 1306.74 134.214L1303.56 134.84C1303.12 132.38 1302.57 129.93 1301.96 127.51C1298.11 129.221 1294.58 131.515 1291.27 134.107L1280.81 134.403C1287.52 133.096 1293.68 129.428 1298.72 124.83C1300.36 123.63 1299.52 121.49 1299.52 119.83C1298.67 112.13 1298.96 103.43 1293.65 97.1602C1291.22 97.6102 1288.93 96.6502 1286.76 95.6702C1281.49 95.6002 1276.24 94.8702 1271.18 93.3702C1270.72 94.6902 1270.27 96.0103 1269.75 97.3303C1266.39 102.55 1265.52 108.77 1264.8 114.82C1264.17 119.7 1266.83 124.07 1269.17 128.1C1270.69 130.507 1272.09 133.14 1274.4 134.87L1269.66 134.061C1266.42 128.267 1261.37 123.877 1257.35 118.71C1257.45 115.26 1258.27 111.9 1258.78 108.51C1259.42 100.94 1257.05 93.2703 1252.22 87.4103C1251.12 91.2403 1250.37 95.1604 1249.77 99.1104C1248.66 100.51 1247.54 101.91 1246.43 103.33C1247.41 104.56 1248.38 105.78 1249.32 107.03C1247.92 106.29 1246.51 105.55 1245.11 104.8C1243.65 106.45 1242.49 108.32 1241.57 110.33C1237.68 117.61 1236.38 126.07 1237.13 134.24H1234.98C1234.32 129.15 1233.25 124.13 1232.19 119.12C1231.08 115.63 1233.97 112.79 1235.08 109.74C1236.53 106.99 1237.25 103.97 1237.73 100.93C1237.97 99.6804 1238.21 98.4403 1238.46 97.2103L1238.8 96.4804C1238.71 92.1504 1238.13 87.8603 1237.43 83.6003C1233.77 87.5303 1229.74 92.7503 1223.73 92.2303C1217.44 91.1903 1211.3 88.3103 1206.77 83.7703C1203.46 79.6303 1200.87 74.9803 1197.63 70.7903C1196.15 68.3603 1193.01 68.8903 1190.6 68.4003C1187.88 70.4703 1184.7 71.7003 1181.37 72.4503C1178.74 75.8703 1175.75 79.2703 1171.66 80.9503C1166.13 83.0903 1161.34 86.8903 1155.47 88.2103C1151.53 89.5803 1147.33 89.3803 1143.22 89.1003C1142.43 90.9303 1141.62 92.7703 1140.77 94.5903C1140.76 92.6203 1140.74 90.6404 1140.72 88.6804C1139.89 89.6404 1139.05 90.6203 1138.21 91.6003C1138.61 93.5703 1138.97 95.5404 1139.25 97.5404C1140.28 105.07 1142.95 112.26 1146.48 118.96C1147.26 123.75 1146.36 128.85 1148.24 133.51C1148.74 135.12 1149.28 136.73 1149.84 138.33L1145.1 138.97C1144.88 134.08 1143.73 129.23 1141.61 124.81C1139.5 120.38 1138.78 115.42 1136.4 111.1C1134.07 106.77 1132.21 102.21 1129.87 97.8903C1128.4 96.9303 1127.02 95.8504 1125.48 94.9904C1120.09 96.1304 1119.82 102.36 1118.19 106.59C1116.61 111.2 1115.45 115.97 1115.12 120.85C1114.99 123.74 1113.49 126.27 1112.62 128.97C1111.28 132.93 1111.2 137.15 1111.08 141.29C1110.65 141.32 1109.79 141.38 1109.36 141.42C1108.64 142.69 1107.9 143.97 1107.16 145.25C1097.21 145.19 1087.41 147.55 1077.45 147.01C1075.2 147.13 1073.27 145.78 1071.11 145.4C1068.01 146.37 1065.15 148.29 1061.79 148.35C1058.19 148.51 1054.69 149.41 1051.14 150.02C1047.91 150.1 1045.17 147.96 1042.57 146.3C1045.95 137.55 1045.48 127.85 1043.99 118.75ZM1451.86 137.34C1456.71 137.52 1461.56 137.21 1466.41 137.07C1466.59 136.53 1466.96 135.44 1467.14 134.9L1467.35 134.32C1468.3 133.86 1469.25 133.43 1470.19 133.03C1472.55 128.91 1474.02 124.34 1474.99 119.72C1475.8 115.04 1473.81 110.17 1470.24 107.11C1465.83 103.18 1461.53 98.79 1455.96 96.54C1454.41 103.89 1452.86 111.4 1453.57 118.95C1453.85 121.92 1452.41 124.64 1451.64 127.43C1451.1 130.72 1451.41 134.05 1451.86 137.34ZM1437.8 45.48C1439.68 44.7 1441.55 43.95 1443.49 43.42C1442.73 42.91 1441.96 42.41 1441.19 41.91C1440.09 43.12 1438.93 44.28 1437.8 45.48ZM1443.16 36.97C1441.3 36.24 1440.75 39.31 1442.59 39.6C1444.42 40.2 1444.92 37.3 1443.16 36.97ZM1409.11 105.71C1410.08 111.97 1410.36 118.44 1412.99 124.31C1415.56 130.06 1418.58 135.81 1423.07 140.31C1424.15 140.61 1425.21 140.91 1426.28 141.19C1431.29 141.52 1436.32 141.48 1441.34 141.22C1443.48 139.9 1445.75 138.82 1448.01 137.74C1448.07 136.31 1448.11 134.89 1448.13 133.47C1448.56 127.77 1445.44 122.39 1446.5 116.71C1447.65 109.37 1447.49 101.89 1446.83 94.51C1443.89 94.36 1440.91 94.2 1438.08 93.27C1432.81 91.63 1427.21 91.67 1421.9 90.16C1417.29 89.19 1413.32 86.21 1408.53 85.91C1409.42 87.86 1410.77 89.68 1411.09 91.85C1411.17 96.57 1408.28 100.95 1409.11 105.71ZM1385.49 68.09C1386.95 68.52 1388.12 65.27 1386.35 65.03C1385.04 65.23 1384.62 67.19 1385.49 68.09ZM1306.73 53.93C1305.54 53.05 1304.86 53.32 1304.7 54.74C1305.9 55.61 1306.58 55.34 1306.73 53.93ZM1261.88 60.47C1262.54 58.07 1263.15 55.63 1263.53 53.17C1261.56 55.39 1259.05 57.46 1258.39 60.52C1259.56 60.5 1260.73 60.49 1261.88 60.47ZM1118.4 43.61C1120.5 41.79 1122.58 39.96 1124.7 38.19C1121.41 37.67 1118.11 37.11 1114.76 37.13C1115.87 39.34 1117.07 41.52 1118.4 43.61ZM1071.39 141.48C1071.59 142.01 1072 143.08 1072.2 143.61C1083.8 143.84 1095.32 142.39 1106.84 141.28C1108.69 133.82 1107.78 126.19 1107.83 118.63C1109.12 115 1110.19 111.28 1110.69 107.46C1111.15 104.19 1111.31 100.89 1111.2 97.6C1103.5 97.18 1095.9 95.7 1088.21 95.17C1085.15 93.19 1079.33 89.91 1077.26 94.71C1077.85 97.48 1078.51 100.45 1076.34 102.75C1074.46 106.03 1071.19 108.51 1070.31 112.32C1069.23 116.46 1067.67 120.52 1067.29 124.81C1067.4 130.58 1069.29 136.16 1071.39 141.48ZM1047.73 146.79C1054.91 146.21 1062.02 144.96 1069.19 144.33C1066.61 137.71 1062.49 131.91 1059.01 125.78C1059.55 122.43 1060.99 119.31 1061.85 116.05C1062.5 113.64 1062.92 111.17 1063.22 108.71C1060.48 109.71 1058.31 111.7 1056.67 114.09C1049.37 123.1 1045.99 135.31 1047.73 146.79Z" />
<path d="M1261.95 132.849C1569.93 143.883 1862.51 159.846 2124.5 127.22L2318.5 112.29V794.79H0V206.29C272.662 206.29 809.213 158.863 1170.16 134.321C1200.7 132.244 1231.35 131.753 1261.95 132.849Z" />
</svg>
