<?xml version="1.0" encoding="iso-8859-1" ?>
<svg version="1.1" xmlns="http://www.w3.org/2000/svg" xmlns:xlink="http://www.w3.org/1999/xlink" 
    viewBox="0 0 1200 800" width="1200" height="800">
    
    
    <!-- ITEM 0 -->
    <g>
        <defs>
            <clipPath id="clip-path-id-viewbox-item-0">
                <rect x="0.0" y="0.0" width="497.051" height="389.547"/>
            </clipPath>
        </defs>
        <g transform="translate(351.0 205.0) rotate(0.0 248.5 194.5) scale(0.9998973948347353 0.9985958048707857)">
            <g clip-path="url(#clip-path-id-viewbox-item-0)" transform="translate(-0.0 -0.0)">
                <defs><linearGradient id="linear-gradient-i0" x1="147.247" y1="-534.189" x2="147.247" y2="-684.749" gradientTransform="translate(0 792)" gradientUnits="userSpaceOnUse"><stop offset="0" stop-color="#77879d"></stop><stop offset="0.089" stop-color="#a1978e"></stop><stop offset="0.188" stop-color="#d1d697"></stop><stop offset="0.279" stop-color="#ede18c"></stop><stop offset="0.358" stop-color="#f7b96f"></stop><stop offset="0.415" stop-color="#fdbb6d"></stop><stop offset="0.499" stop-color="#fdbb9f"></stop><stop offset="0.599" stop-color="#d1d2d1"></stop><stop offset="1" stop-color="#feceaa"></stop></linearGradient><linearGradient id="linear-gradient-2-i0" x1="346.065" y1="-533.646" x2="346.065" y2="-679.989" xlink:href="#linear-gradient-i0"></linearGradient><linearGradient id="linear-gradient-3-i0" x1="329.482" y1="-572.986" x2="329.482" y2="-235.572" gradientTransform="translate(0 792)" gradientUnits="userSpaceOnUse"><stop offset="0" stop-color="#6b9c83"></stop><stop offset="0.401" stop-color="#aed5bb"></stop><stop offset="0.501" stop-color="#9f9fc8"></stop><stop offset="0.591" stop-color="#9fccec"></stop><stop offset="1" stop-color="#ffe7b0"></stop></linearGradient><linearGradient id="linear-gradient-4-i0" x1="162.259" y1="-573.175" x2="162.259" y2="-242.506" xlink:href="#linear-gradient-3-i0"></linearGradient><linearGradient id="linear-gradient-5-i0" x1="248.305" y1="-572.986" x2="248.305" y2="-235.572" xlink:href="#linear-gradient-3-i0"></linearGradient><linearGradient id="linear-gradient-6-i0" x1="247.358" y1="-533.646" x2="247.358" y2="-679.989" xlink:href="#linear-gradient-i0"></linearGradient></defs><title>man_meditation</title><g id="Layer_2-i0" data-name="Layer 2"><g id="Layer_1-2-i0" data-name="Layer 1"><path d="M58.783,368.2l71.4,20.39,16.93-31.579s-51.233-5.888-63.747-1.177A166.5,166.5,0,0,0,58.783,368.2Z" fill="#2b2b2b"></path><path d="M365.96,388.664l82.812-15.753s-32.167-23.776-47.626-24.954-61.612,20.39-61.612,20.39Z" fill="#2b2b2b"></path><path d="M62.243,277.218l-28.193,5a23.987,23.987,0,0,1-12.808-46.007l28.266-10.894" fill="#f29f7f"></path><path d="M49.582,225.4l68.311-30.7,85.241-69.341c14.059-11.7,22.3-3.313,34.082,10.747a33.14,33.14,0,0,1-4.2,46.669l-90.983,75.966-1.987,1.693a22.443,22.443,0,0,1-10.38,4.859L62.317,277.217Z" fill="url(#linear-gradient-i0)"></path><path d="M443.693,225.4l-65.808-27.825L302.8,131.91a33.133,33.133,0,1,0-42.474,50.865l90.983,76.04,1.987,1.693a22.442,22.442,0,0,0,10.379,4.858l67.354,11.925Z" fill="url(#linear-gradient-2-i0)"></path><path d="M430.959,277.218l28.192,5a23.987,23.987,0,0,0,12.809-46.007L443.693,225.4" fill="#f29f7f"></path><path d="M275.714,206.7s126.021,33.86,141.553,39.97q23.187,9.274,46.08,19.065l5.889,2.5a46,46,0,0,1-15.605,88.186c-23.114,1.251-251.086,31.873-274.568,33.051l-17.151-63.453,280.53-63.084-9.864,91.792-203.46-70.3Z" fill="url(#linear-gradient-3-i0)"></path><polyline points="178.99 389.474 174.573 352.595 248.331 381.377" fill="#2b2b2b"></polyline><path d="M171.408,325.653,105.821,368.2a6.3,6.3,0,0,0-2.8,5.815l.884,9.791a6.312,6.312,0,0,0,6.257,5.741h68.9Z" fill="#f29f7f"></path><path d="M266.954,268.163l-20.243,20.1-2.8,1.325-5.594,2.65-11.336,5.006c-3.754,1.693-7.582,3.238-11.41,4.858l-11.483,4.711c-15.311,6.183-30.769,11.851-46.3,17.372s-31.211,10.6-46.964,15.605q-23.63,7.4-47.479,14.134L52.821,263.452q34.119,6.184,68.237,13.029l17,3.46,17,3.607c11.336,2.356,22.672,4.932,34.008,7.361,22.672,5.079,45.271,10.379,67.869,16.121,22.6,5.815,45.123,11.63,67.575,18.55l-31.506,60.287L41.779,357.011a47.337,47.337,0,0,1-10.6-91.5l188.3-55.87Z" fill="url(#linear-gradient-4-i0)"></path><path d="M200.337,213.986c-8.1,23.408,3.754,55.355,30.106,54.177,20.317-.883,21.789-.073,30.328-.441,27.089-1.178,44.534-29.518,35.7-55.135Z" fill="url(#linear-gradient-5-i0)"></path><path d="M296.4,212.587a43.714,43.714,0,0,1-2.5-13.544c-.148-7.729,18.476-20.022,17.445-43.577-.809-18.109-20.905-44.388-52.484-43.357L233.388,113.8c-27.751.957-49.246,25.764-49.982,45.05h-.073c0,.515.073,1.1.073,1.619v.515h0c2.356,32.1,24.66,30.107,16.783,53.074Z" fill="url(#linear-gradient-6-i0)"></path><rect x="236.259" y="120.206" width="25.028" height="63.011" fill="#fff"></rect><rect x="247.153" y="124.181" width="2.282" height="59.036" fill="#2b2b2b"></rect><circle cx="279.983" cy="49.025" r="13.029" fill="#f29f7f"></circle><path d="M261.433,132.278l22.378-14.795s-9.275-5.889-24.954-5.374Z" fill="#2b2b2b"></path><path d="M226.763,116.746l.589-61.464,37.026-1.325,4.122,61.317a20.1,20.1,0,0,1-19.654,21.715h-1.619A20.006,20.006,0,0,1,226.763,116.746Z" fill="#f29f7f"></path><polygon points="235.007 91.572 267.838 105.926 266.218 82.665 235.007 91.572" fill="#2b2b2b"></polygon><path d="M256.281,91.572,236.774,91.5a21.044,21.044,0,0,1-20.906-18.771L211.82,34.744A34.777,34.777,0,0,1,246.638,0h0a34.777,34.777,0,0,1,34.744,34.818l-4.2,37.983A20.984,20.984,0,0,1,256.281,91.572Z" fill="#f29f7f"></path><path d="M245.607,55.944a1.135,1.135,0,0,1-.662-2.061l3.091-2.061a1.547,1.547,0,0,0,.516-1.031,1.413,1.413,0,0,0-.442-1.251,13.348,13.348,0,0,1-3.386-8.833V39.75a1.1,1.1,0,1,1,2.208,0v.957a11.169,11.169,0,0,0,2.8,7.361,3.834,3.834,0,0,1-.441,5.521l-.074.073-3.165,2.061C246.049,55.87,245.828,55.944,245.607,55.944Z" fill="#2b2b2b"></path><path d="M228.014,48.509a9.225,9.225,0,0,1-5.741-2.429,1.1,1.1,0,1,1,1.4-1.693c1.84,1.546,3.607,2.135,5.079,1.84a5.6,5.6,0,0,0,3.239-2.5,1.137,1.137,0,0,1,1.988,1.1,7.361,7.361,0,0,1-4.711,3.607A7.642,7.642,0,0,1,228.014,48.509Z" fill="#2b2b2b"></path><path d="M264.672,48.509a5.693,5.693,0,0,1-1.177-.147,7.6,7.6,0,0,1-4.712-3.607,1.137,1.137,0,1,1,1.988-1.1,5.325,5.325,0,0,0,3.239,2.5c1.472.294,3.239-.368,5.079-1.84a1.1,1.1,0,1,1,1.4,1.693A9.125,9.125,0,0,1,264.672,48.509Z" fill="#2b2b2b"></path><circle cx="209.391" cy="49.025" r="13.029" fill="#f29f7f"></circle><path d="M273.506,54.03l-3.9,8.539a4.58,4.58,0,0,1-7.8.883l-.588-.809a15.48,15.48,0,0,0-12.367-6.184h-4.417a15.373,15.373,0,0,0-12.366,6.184l-.589.809a4.554,4.554,0,0,1-7.8-.883l-3.9-8.539h-5.889l2.208,22.3a18.616,18.616,0,0,0,18.55,16.783h24a18.674,18.674,0,0,0,18.55-16.783l2.208-22.3Z" fill="#5d5d5d"></path><path d="M246.858,69.12A8.791,8.791,0,0,1,240.97,66.4a1.146,1.146,0,1,1,1.545-1.693c1.767,1.619,3.46,2.282,4.932,2.061a5.322,5.322,0,0,0,3.313-2.356,1.124,1.124,0,1,1,1.914,1.178,7.6,7.6,0,0,1-4.932,3.46A3.618,3.618,0,0,1,246.858,69.12Z" fill="#2b2b2b"></path><path d="M200.337,215.09h-.221a1.212,1.212,0,0,1-.884-1.325c2.43-10.968,1.325-17-3.827-21.494a1.15,1.15,0,1,1,1.472-1.767c7.214,6.257,6.478,15.09,4.564,23.7A1.172,1.172,0,0,1,200.337,215.09Z" fill="#2b2b2b"></path><path d="M296.4,212.587a87.054,87.054,0,0,1-1.987-8.906c-.294-1.694-1.031-7.8,1.987-9.938l21.421,24.439Z" fill="#2b2b2b"></path><path d="M324.518,325.653,390.105,368.2a6.3,6.3,0,0,1,2.8,5.815l-.883,9.791a6.312,6.312,0,0,1-6.257,5.741l-92.823-3.607Z" fill="#f29f7f"></path><path d="M275.567,301.583a1.173,1.173,0,0,1-1.105-.884,1.092,1.092,0,0,1,.884-1.325L340.2,284.8a1.126,1.126,0,0,1,.441,2.209l-64.851,14.575Z" fill="#2b2b2b"></path><path d="M223.377,299.963h-.221l-53.809-12.219a1.1,1.1,0,1,1,.515-2.135l53.809,12.219a1.1,1.1,0,0,1,.81,1.325A1.2,1.2,0,0,1,223.377,299.963Z" fill="#2b2b2b"></path><path d="M392.607,378.874h-.22l-14.207-2.356a1.156,1.156,0,0,1,.368-2.282l14.207,2.356a1.174,1.174,0,0,1,.957,1.325A1.107,1.107,0,0,1,392.607,378.874Z" fill="#2b2b2b"></path><path d="M389.737,389.253h-.221l-12.293-2.282a1.126,1.126,0,0,1,.442-2.208l12.293,2.282a1.147,1.147,0,0,1,.883,1.325A1.11,1.11,0,0,1,389.737,389.253Z" fill="#2b2b2b"></path><path d="M324.518,326.757a.447.447,0,0,1-.295-.073l-29.3-8.539a1.118,1.118,0,0,1,.663-2.135l29.3,8.539a1.076,1.076,0,0,1,.736,1.4A1.105,1.105,0,0,1,324.518,326.757Z" fill="#2b2b2b"></path><path d="M246.638,289.363a1.181,1.181,0,0,1-.81-.368,1.154,1.154,0,0,1,0-1.619l7.361-7.288a1.145,1.145,0,0,1,1.619,1.62L247.447,289A.935.935,0,0,1,246.638,289.363Z" fill="#2b2b2b"></path><path d="M125.769,199.779a1.356,1.356,0,0,1-.515-.147l-7.877-4.049a1.152,1.152,0,0,1,1.031-2.061l7.876,4.049a1.267,1.267,0,0,1,.516,1.546A1.111,1.111,0,0,1,125.769,199.779Z" fill="#2b2b2b"></path></g></g>
            </g>
        </g>
    </g>
    
</svg>