<?xml version="1.0" encoding="iso-8859-1" ?>
<svg version="1.1" xmlns="http://www.w3.org/2000/svg" xmlns:xlink="http://www.w3.org/1999/xlink" 
    viewBox="0 0 1200 800" width="1200" height="800">
    
    
    <!-- ITEM 0 -->
    <g>
        <defs>
            <clipPath id="clip-path-id-viewbox-item-0">
                <rect x="0.0" y="0.0" width="645.16" height="597.631"/>
            </clipPath>
        </defs>
        <g transform="translate(224.0 74.0) rotate(0.0 351.0 325.0) scale(1.0881021762043526 1.0876276498374415)">
            <g clip-path="url(#clip-path-id-viewbox-item-0)" transform="translate(-0.0 -0.0)">
                
<g>
	<path fill="#8670BD" d="M192.672,116.21l42.413,102.443l-4.145-7.032l60.548,88.305c6.514,9.474,4.071,22.502-5.403,29.016   c-8.66,5.922-20.133,4.441-27.017-2.961l-73.205-78.164c-1.554-1.628-2.665-3.479-3.479-5.403l-0.666-1.628l-42.413-102.443   c-6.144-14.73,0.888-31.68,15.618-37.75C169.652,94.449,186.603,101.48,192.672,116.21z"></path>
	<g>
		
			<linearGradient id="SVGID_7_-i0" gradientUnits="userSpaceOnUse" x1="233.1312" y1="-1066.8655" x2="233.1312" y2="-899.3858" gradientTransform="matrix(1 0 0 1 242.4 1199.04)">
			<stop offset="0" style="stop-color:#F48B94"></stop>
			<stop offset="0.405" style="stop-color:#F4A9A6"></stop>
			<stop offset="0.4989" style="stop-color:#FED3B5"></stop>
			<stop offset="0.599" style="stop-color:#DBECC2"></stop>
			<stop offset="1" style="stop-color:#98c5ad"></stop>
		</linearGradient>
		<path fill="url(#SVGID_7_-i0)" d="M548.039,133.753c-11.917-9.104-29.016-6.81-38.12,5.107l-42.191,55.144l-53.59-5.773    c-9.03-0.962-17.839,4.441-20.799,13.397c-3.405,10.363,2.221,21.466,12.509,24.87l68.542,22.65    c9.178,3.035,19.615,0.148,25.759-7.92l1.628-2.073l51.369-67.209C562.25,160.03,559.956,142.931,548.039,133.753z"></path>
		<path fill="#2B2B2B" d="M495.707,209.104c3.775-23.242,20.355-21.54,15.026-39.6l-35.159,25.537v37.75l4.663,20.799l20.577-8.586    L495.707,209.104z"></path>
	</g>
	<g>
		<g>
			<path fill="#FFFFFF" d="M492.598,198.816c0,25.537-15.174,71.947-35.529,122.798c-3.109,7.772-6.366,15.766-9.697,23.686     c-33.013,78.534-74.463,161.584-89.933,191.932c-2.591,5.033-9.771,5.033-12.287,0     c-20.873-41.081-89.489-178.608-120.133-270.984c-4.885-14.73-8.808-28.349-11.399-40.192     c-2.295-10.585-3.627-19.763-3.627-27.165c0-78.016,63.286-141.303,141.303-141.303S492.598,120.799,492.598,198.816z"></path>
			<path fill="#43bcaf" d="M351.295,544.708C351.221,544.708,351.221,544.708,351.295,544.708c-4.071,0-7.624-2.221-9.4-5.848     c-20.429-40.266-89.637-178.905-120.355-271.503c-5.107-15.47-8.956-29.09-11.473-40.563     c-2.517-11.547-3.701-20.651-3.701-27.979c0-79.941,65.063-145.004,145.004-145.004s145.004,64.989,145.004,144.93     c0,23.094-12.065,64.841-35.825,124.204c-3.479,8.734-6.662,16.506-9.697,23.76c-34.567,82.161-77.646,167.876-90.081,192.154     C358.919,542.487,355.292,544.708,351.295,544.708z M351.295,61.288c-75.87,0-137.602,61.732-137.602,137.602     c0,6.736,1.184,15.396,3.553,26.351c2.443,11.251,6.218,24.648,11.325,39.822c30.57,92.08,99.482,230.348,119.911,270.466     c0.814,1.554,2.221,1.776,2.813,1.776c1.258,0,2.295-0.666,2.887-1.776c12.361-24.278,55.366-109.771,89.785-191.71     c3.035-7.254,6.218-14.952,9.697-23.612c23.39-58.475,35.233-99.334,35.233-121.392     C488.897,122.946,427.165,61.288,351.295,61.288z"></path>
		</g>
		<path fill="#2B2B2B" d="M460.992,321.984c-3.109,7.772-6.07,13.99-9.474,21.984c-9.919,3.849-20.281,0.888-25.315-5.773    c-5.922-7.846-5.033-18.727,1.702-25.537l13.397-13.62L460.992,321.984z"></path>
		<path fill="#2B2B2B" d="M255.959,246.114c-0.814,10.363-9.104,18.357-19.171,19.171l-15.84,0.962    c-4.885-14.73-7.402-28.127-7.402-40.192v-4.219l23.242,1.85C248.261,224.5,256.847,234.567,255.959,246.114z"></path>
		<ellipse fill="#43bcaf" cx="351.308" cy="195.631" rx="90.75" ry="90.75"></ellipse>
		<g>
			<path fill="#FFFFFF" d="M351.295,229.164c-2.147,0-4.219-0.962-5.625-2.591l-28.423-32.939c-2.665-3.109-2.295-7.772,0.74-10.437     c3.109-2.665,7.772-2.295,10.437,0.74l22.206,25.759l27.757-39.6c2.369-3.331,6.958-4.145,10.289-1.776s4.145,6.958,1.776,10.289     l-33.235,47.372c-1.332,1.85-3.405,3.035-5.699,3.109C351.517,229.164,351.443,229.164,351.295,229.164z"></path>
		</g>
	</g>
	<g>
		
			<linearGradient id="SVGID_18_-i0" gradientUnits="userSpaceOnUse" x1="300.1878" y1="-1378.8655" x2="300.1878" y2="-1211.3857" gradientTransform="matrix(1 0 0 1 242.4 1511.04)">
			<stop offset="0" style="stop-color:#F48B94"></stop>
			<stop offset="0.405" style="stop-color:#F4A9A6"></stop>
			<stop offset="0.4989" style="stop-color:#FED3B5"></stop>
			<stop offset="0.599" style="stop-color:#DBECC2"></stop>
			<stop offset="1" style="stop-color:#98c5ad"></stop>
		</linearGradient>
		<path fill="url(#SVGID_18_-i0)" d="M495.189,213.027c2.443-27.387,21.169-24.5,15.544-43.523s4.959-44.115,25.981-42.265    c16.21,1.406,17.395,0.888,24.278,1.48c16.654,1.48,28.201,15.692,28.941,31.31c0.592,13.397-3.923,53.96-4.441,60.326    L495.189,213.027z"></path>
		<g>
			<g>
				
					<linearGradient id="XMLID_22_-i0" gradientUnits="userSpaceOnUse" x1="280.4259" y1="-1281.6543" x2="280.4259" y2="-923.8878" gradientTransform="matrix(1 0 0 1 242.4 1511.04)">
					<stop offset="0" style="stop-color:#77879D"></stop>
					<stop offset="0.0893" style="stop-color:#A1978E"></stop>
					<stop offset="0.1883" style="stop-color:#C9A780"></stop>
					<stop offset="0.2791" style="stop-color:#E5B275"></stop>
					<stop offset="0.3578" style="stop-color:#F7B96F"></stop>
					<stop offset="0.4155" style="stop-color:#FDBB6D"></stop>
					<stop offset="0.4989" style="stop-color:#FDBB9F"></stop>
					<stop offset="0.599" style="stop-color:#D1D2D1"></stop>
					<stop offset="1" style="stop-color:#FECEAA"></stop>
				</linearGradient>
				<path id="XMLID_21_-i0" fill="url(#XMLID_22_-i0)" d="M572.613,237.75l-10.733,86.825l-5.329,43.449      c-1.776,14.508-3.479,28.941-5.477,43.375L528.127,584.9l-52.258-6.884c-0.37-3.701-0.518-7.402-0.814-11.103      c-0.222-3.701-0.37-7.402-0.592-11.103l-0.296-5.551c-0.074-1.85-0.148-3.701-0.222-5.551l-0.37-11.029      c-0.444-14.73-0.592-29.46-0.518-44.115c0.074-29.386,1.036-58.623,2.517-87.787c0.37-7.254,0.814-14.582,1.184-21.836      l0.666-10.955l0.296-5.477l0.37-5.477l0.814-10.881c0.296-3.627,0.592-7.254,0.888-10.881      c0.592-7.254,1.332-14.508,2.073-21.762c1.554-14.508,3.405-28.942,5.551-43.301c2.221-14.36,5.477-36.714,8.882-50.999      L572.613,237.75z"></path>
			</g>
			<g>
				<g opacity="0.3">
					<g>
						<g>
							<g>
								<g>
									<path fill="#FFFFFF" d="M492.524,549.889c-1.48,0-2.961-0.962-3.479-2.443c-0.74-1.924,0.296-4.071,2.221-4.737l5.033-1.85           c1.924-0.74,4.071,0.296,4.737,2.221c0.74,1.924-0.296,4.071-2.221,4.737l-5.033,1.85           C493.412,549.815,492.968,549.889,492.524,549.889z"></path>
								</g>
								<g>
									<path fill="#FFFFFF" d="M512.213,579.127c-0.518,0-1.036-0.074-1.554-0.37c-1.85-0.888-2.665-3.035-1.776-4.885           l2.295-4.959c0.888-1.851,3.035-2.665,4.885-1.776c1.85,0.888,2.665,3.035,1.776,4.885l-2.295,4.959           C514.952,578.312,513.62,579.127,512.213,579.127z"></path>
								</g>
								<g>
									<path fill="#FFFFFF" d="M482.754,575.278c-1.48,0-2.961-0.962-3.479-2.443l-1.85-5.033           c-0.74-1.924,0.296-4.071,2.221-4.737c1.924-0.74,4.071,0.296,4.737,2.221l1.85,5.033c0.74,1.924-0.296,4.071-2.221,4.737           C483.642,575.204,483.198,575.278,482.754,575.278z"></path>
								</g>
							</g>
						</g>
						<g>
							<g>
								<g>
									<path fill="#FFFFFF" d="M533.161,546.558l-0.888,6.81c-0.296,0.074-0.592,0.148-0.888,0.148           c-0.518,0-1.036-0.148-1.554-0.37l-4.959-2.295c-1.85-0.888-2.665-3.035-1.776-4.885c0.888-1.851,3.035-2.665,4.885-1.776           l4.959,2.295C533.013,546.484,533.087,546.558,533.161,546.558z"></path>
								</g>
							</g>
						</g>
					</g>
					<g>
						<g>
							<g>
								<g>
									<path fill="#FFFFFF" d="M494.967,434.567c-1.48,0-2.961-0.962-3.479-2.443c-0.74-1.924,0.296-4.071,2.221-4.737l5.033-1.85           c1.924-0.74,4.071,0.296,4.737,2.221c0.74,1.924-0.296,4.071-2.221,4.737l-5.033,1.85           C495.855,434.493,495.411,434.567,494.967,434.567z"></path>
								</g>
								<g>
									<path fill="#FFFFFF" d="M514.656,463.805c-0.518,0-1.036-0.074-1.554-0.37c-1.85-0.888-2.665-3.035-1.776-4.885           l2.295-4.959c0.888-1.85,3.035-2.665,4.885-1.776c1.85,0.888,2.665,3.035,1.776,4.885l-2.295,4.959           C517.395,462.99,516.062,463.805,514.656,463.805z"></path>
								</g>
								<g>
									<path fill="#FFFFFF" d="M485.196,459.956c-1.48,0-2.961-0.962-3.479-2.443l-1.85-5.033           c-0.74-1.924,0.296-4.071,2.221-4.737c1.924-0.74,4.071,0.296,4.737,2.221l1.85,5.033c0.74,1.924-0.296,4.071-2.221,4.737           C486.084,459.882,485.64,459.956,485.196,459.956z"></path>
								</g>
							</g>
							<g>
								<g>
									<path fill="#FFFFFF" d="M492.746,490.007c-1.48,0-2.961-0.962-3.479-2.443c-0.666-1.924,0.296-4.071,2.221-4.737           l5.107-1.85c1.924-0.666,4.071,0.296,4.737,2.221c0.666,1.924-0.296,4.071-2.221,4.737l-5.107,1.85           C493.56,489.933,493.19,490.007,492.746,490.007z"></path>
								</g>
								<g>
									<path fill="#FFFFFF" d="M512.435,519.171c-0.518,0-1.036-0.148-1.554-0.37c-1.85-0.888-2.665-3.109-1.776-4.959           l2.295-4.885c0.888-1.85,3.109-2.665,4.959-1.776c1.85,0.888,2.665,3.109,1.776,4.959l-2.295,4.885           C515.174,518.357,513.842,519.171,512.435,519.171z"></path>
								</g>
								<g>
									<path fill="#FFFFFF" d="M483.05,515.396c-1.48,0-2.961-0.962-3.479-2.443l-1.85-5.107           c-0.666-1.924,0.296-4.071,2.221-4.737c1.924-0.666,4.071,0.296,4.737,2.221l1.85,5.107           c0.666,1.924-0.296,4.071-2.221,4.737C483.864,515.322,483.494,515.396,483.05,515.396z"></path>
								</g>
							</g>
						</g>
						<g>
							<g>
								<g>
									<path fill="#FFFFFF" d="M533.827,438.194c-0.518,0-1.036-0.148-1.554-0.37l-4.885-2.295           c-1.85-0.888-2.665-3.109-1.776-4.959c0.888-1.85,3.109-2.665,4.959-1.776l4.885,2.295c1.85,0.888,2.665,3.109,1.776,4.959           C536.566,437.38,535.233,438.194,533.827,438.194z"></path>
								</g>
								<g>
									<path fill="#FFFFFF" d="M543.745,413.175c-0.518,0-1.036-0.148-1.554-0.37c-1.85-0.888-2.665-3.109-1.776-4.959           l2.295-4.885c0.888-1.85,3.109-2.665,4.959-1.776c1.85,0.888,2.665,3.109,1.776,4.959l-2.295,4.885           C546.484,412.361,545.152,413.175,543.745,413.175z"></path>
								</g>
							</g>
							<g>
								<g>
									<path fill="#FFFFFF" d="M531.606,493.634c-0.518,0-1.036-0.148-1.554-0.37l-4.885-2.295           c-1.85-0.888-2.665-3.109-1.776-4.959c0.888-1.85,3.109-2.665,4.959-1.776l4.885,2.295c1.85,0.888,2.665,3.109,1.776,4.959           C534.345,492.82,533.013,493.634,531.606,493.634z"></path>
								</g>
								<g>
									<path fill="#FFFFFF" d="M545.078,456.551l-1.48,11.399c-0.592,0.444-1.332,0.666-2.073,0.666           c-0.518,0-1.036-0.148-1.554-0.37c-1.85-0.888-2.665-3.109-1.776-4.959l2.295-4.885           C541.303,456.699,543.301,455.885,545.078,456.551z"></path>
								</g>
							</g>
						</g>
					</g>
					<g>
						<g>
							<g>
								<g>
									<path fill="#FFFFFF" d="M497.409,319.245c-1.48,0-2.961-0.962-3.479-2.443c-0.666-1.924,0.296-4.071,2.221-4.737           l5.107-1.85c1.924-0.666,4.071,0.296,4.737,2.221c0.666,1.924-0.296,4.071-2.221,4.737l-5.107,1.85           C498.224,319.171,497.853,319.245,497.409,319.245z"></path>
								</g>
								<g>
									<path fill="#FFFFFF" d="M517.098,348.483c-0.518,0-1.036-0.074-1.554-0.37c-1.85-0.888-2.665-3.035-1.776-4.885           l2.295-4.959c0.888-1.85,3.035-2.665,4.885-1.776c1.85,0.888,2.665,3.035,1.776,4.885l-2.295,4.959           C519.837,347.668,518.505,348.483,517.098,348.483z"></path>
								</g>
								<g>
									<path fill="#FFFFFF" d="M487.639,344.634c-1.48,0-2.961-0.962-3.479-2.443l-1.85-5.033           c-0.74-1.924,0.296-4.071,2.221-4.737c1.924-0.74,4.071,0.296,4.737,2.221l1.85,5.033c0.74,1.924-0.296,4.071-2.221,4.737           C488.527,344.56,488.083,344.634,487.639,344.634z"></path>
								</g>
							</g>
							<g>
								<g>
									<path fill="#FFFFFF" d="M495.189,374.685c-1.48,0-2.961-0.962-3.479-2.443c-0.666-1.924,0.296-4.071,2.221-4.737           l5.107-1.85c1.924-0.666,4.071,0.296,4.737,2.221c0.666,1.924-0.296,4.071-2.221,4.737l-5.107,1.85           C496.003,374.611,495.633,374.685,495.189,374.685z"></path>
								</g>
								<g>
									<path fill="#FFFFFF" d="M514.878,403.849c-0.518,0-1.036-0.148-1.554-0.37c-1.85-0.888-2.665-3.109-1.776-4.959           l2.295-4.885c0.888-1.85,3.109-2.665,4.959-1.776c1.85,0.888,2.665,3.109,1.776,4.959l-2.295,4.885           C517.617,403.035,516.284,403.849,514.878,403.849z"></path>
								</g>
								<g>
									<path fill="#FFFFFF" d="M485.492,400.074c-1.48,0-2.961-0.962-3.479-2.443l-1.85-5.107           c-0.666-1.924,0.296-4.071,2.221-4.737c1.924-0.666,4.071,0.296,4.737,2.221l1.85,5.107           c0.666,1.924-0.296,4.071-2.221,4.737C486.306,400,485.936,400.074,485.492,400.074z"></path>
								</g>
							</g>
						</g>
						<g>
							<g>
								<g>
									<path fill="#FFFFFF" d="M536.269,322.872c-0.518,0-1.036-0.148-1.554-0.37l-4.885-2.295           c-1.85-0.888-2.665-3.109-1.776-4.959c0.888-1.85,3.109-2.665,4.959-1.776l4.885,2.295c1.85,0.888,2.665,3.109,1.776,4.959           C539.008,322.058,537.676,322.872,536.269,322.872z"></path>
								</g>
								<g>
									<path fill="#FFFFFF" d="M546.188,297.853c-0.518,0-1.036-0.148-1.554-0.37c-1.85-0.888-2.665-3.109-1.776-4.959           l2.295-4.885c0.888-1.85,3.109-2.665,4.959-1.776c1.85,0.888,2.665,3.109,1.776,4.959l-2.295,4.885           C548.927,297.039,547.594,297.853,546.188,297.853z"></path>
								</g>
								<g>
									<path fill="#FFFFFF" d="M562.176,321.91l-0.296,2.665l-0.592,5.033l-1.11-3.035           C559.512,324.722,560.4,322.65,562.176,321.91z"></path>
								</g>
							</g>
							<g>
								<g>
									<path fill="#FFFFFF" d="M534.049,378.312c-0.518,0-1.036-0.148-1.554-0.37l-4.885-2.295           c-1.85-0.888-2.665-3.109-1.776-4.959c0.888-1.85,3.109-2.665,4.959-1.776l4.885,2.295c1.85,0.888,2.665,3.109,1.776,4.959           C536.788,377.498,535.455,378.312,534.049,378.312z"></path>
								</g>
								<g>
									<path fill="#FFFFFF" d="M543.967,353.294c-0.518,0-1.036-0.148-1.554-0.37c-1.85-0.888-2.665-3.109-1.776-4.959           l2.295-4.885c0.888-1.85,3.109-2.665,4.959-1.776c1.85,0.888,2.665,3.109,1.776,4.959l-2.295,4.885           C546.706,352.48,545.374,353.294,543.967,353.294z"></path>
								</g>
							</g>
						</g>
					</g>
					<g>
						<g>
							<g>
								<g>
									<path fill="#FFFFFF" d="M524.87,226.795l-1.999,4.219c-0.592,1.332-1.999,2.147-3.331,2.147           c-0.518,0-1.036-0.074-1.554-0.37c-1.85-0.888-2.665-3.035-1.776-4.885l1.332-2.813L524.87,226.795z"></path>
								</g>
							</g>
							<g>
								<g>
									<path fill="#FFFFFF" d="M497.631,259.363c-1.48,0-2.961-0.962-3.479-2.443c-0.666-1.925,0.296-4.071,2.221-4.737           l5.107-1.85c1.924-0.666,4.071,0.296,4.737,2.221c0.666,1.925-0.296,4.071-2.221,4.737l-5.107,1.85           C498.446,259.289,498.076,259.363,497.631,259.363z"></path>
								</g>
								<g>
									<path fill="#FFFFFF" d="M517.321,288.527c-0.518,0-1.036-0.148-1.554-0.37c-1.85-0.888-2.665-3.109-1.776-4.959           l2.295-4.885c0.888-1.85,3.109-2.665,4.959-1.776c1.85,0.888,2.665,3.109,1.776,4.959l-2.295,4.885           C520.059,287.713,518.727,288.527,517.321,288.527z"></path>
								</g>
								<g>
									<path fill="#FFFFFF" d="M489.193,284.53c-0.444,0.148-0.814,0.222-1.258,0.222c-0.888,0-1.702-0.296-2.369-0.814           c0.518-3.849,1.036-7.698,1.628-11.473c1.036,0.37,1.924,1.11,2.295,2.221l1.85,5.107           C492.08,281.717,491.118,283.864,489.193,284.53z"></path>
								</g>
							</g>
						</g>
						<g>
							<g>
								<g>
									<path fill="#FFFFFF" d="M536.492,262.99c-0.518,0-1.036-0.148-1.554-0.37l-4.885-2.295           c-1.85-0.888-2.665-3.109-1.776-4.959c0.888-1.85,3.109-2.665,4.959-1.776l4.885,2.295c1.85,0.888,2.665,3.109,1.776,4.959           C539.23,262.176,537.898,262.99,536.492,262.99z"></path>
								</g>
								<g>
									<path fill="#FFFFFF" d="M551.221,232.865l-1.332,2.961c-0.592,1.332-1.924,2.147-3.331,2.147           c-0.518,0-1.036-0.074-1.554-0.296c-1.851-0.814-2.665-3.035-1.851-4.885l0.74-1.628L551.221,232.865z"></path>
								</g>
								<g>
									<path fill="#FFFFFF" d="M568.838,268.246l-0.592,4.959c-0.37,0.296-0.74,0.592-1.184,0.74           c-0.444,0.148-0.888,0.222-1.258,0.222c-1.48,0-2.961-0.888-3.479-2.443l-1.85-5.033c-0.74-1.924,0.296-4.071,2.221-4.737           c1.924-0.74,4.071,0.296,4.737,2.221L568.838,268.246z"></path>
								</g>
							</g>
						</g>
					</g>
				</g>
			</g>
		</g>
		<path fill="#2B2B2B" d="M528.571,290.822c3.627,23.464,9.919,61.066-2.813,80.607s8.734,63.953,1.332,86.158    s10.067,59.289,7.772,76.684l20.059-152.702L528.571,290.822z"></path>
		<g>
			<g>
				
					<linearGradient id="XMLID_23_-i0" gradientUnits="userSpaceOnUse" x1="325.1794" y1="-1281.6543" x2="325.1794" y2="-923.8878" gradientTransform="matrix(1 0 0 1 242.4 1511.04)">
					<stop offset="0" style="stop-color:#77879D"></stop>
					<stop offset="0.0893" style="stop-color:#A1978E"></stop>
					<stop offset="0.1883" style="stop-color:#C9A780"></stop>
					<stop offset="0.2791" style="stop-color:#E5B275"></stop>
					<stop offset="0.3578" style="stop-color:#F7B96F"></stop>
					<stop offset="0.4155" style="stop-color:#FDBB6D"></stop>
					<stop offset="0.4989" style="stop-color:#FDBB9F"></stop>
					<stop offset="0.599" style="stop-color:#D1D2D1"></stop>
					<stop offset="1" style="stop-color:#FECEAA"></stop>
				</linearGradient>
				<path id="XMLID_20_-i0" fill="url(#XMLID_23_-i0)" d="M618.579,394.967c-1.184-7.032-2.221-14.064-3.257-21.095l-3.257-21.095      c0,0-27.979-118.135-26.647-132.42l-90.081-9.104c-0.962,11.325,7.476,25.981,20.947,33.901l0.222,3.627l0.888,10.659      c0.296,3.553,0.666,7.106,1.036,10.659c0.444,3.553,0.74,7.106,1.258,10.585c1.702,14.138,3.775,28.275,6.144,42.265      l0.888,5.255l0.962,5.255l1.85,10.511c1.332,7.032,2.591,13.99,4.071,21.021l2.147,10.511l2.295,10.437      c1.48,6.958,3.035,13.916,4.811,20.873c6.884,27.757,14.434,55.366,22.724,82.902c4.219,13.768,8.586,27.461,13.249,41.155      l3.553,10.215l1.776,5.107l1.924,5.107c1.258,3.405,2.517,6.81,3.775,10.215c1.332,3.405,2.591,6.81,4.071,10.141l45.966-24.13      L618.579,394.967z"></path>
			</g>
			<g>
				<g opacity="0.3">
					<g>
						<g>
							<g>
								<g>
									<path fill="#FFFFFF" d="M597.261,537.972c-0.518,0-1.036-0.074-1.554-0.37l-4.959-2.295           c-1.851-0.888-2.665-3.035-1.776-4.885c0.888-1.85,3.035-2.665,4.885-1.776l4.959,2.295           c1.85,0.888,2.665,3.035,1.776,4.885C600,537.158,598.668,537.972,597.261,537.972z"></path>
								</g>
								<g>
									<path fill="#FFFFFF" d="M636.566,523.76c-0.148,0-0.222,0-0.37,0c-1.48,0-2.961-0.962-3.479-2.443           c-0.666-1.924,0.296-4.071,2.221-4.737l0.592-0.222L636.566,523.76z"></path>
								</g>
								<g>
									<path fill="#FFFFFF" d="M607.18,512.953c-0.518,0-1.036-0.148-1.554-0.37c-1.85-0.888-2.665-3.109-1.776-4.959l2.295-4.885           c0.888-1.85,3.109-2.665,4.959-1.776c1.85,0.888,2.665,3.109,1.776,4.959l-2.295,4.885           C609.919,512.139,608.586,512.953,607.18,512.953z"></path>
								</g>
								<g>
									<path fill="#FFFFFF" d="M626.499,549.223c-1.48,0-2.961-0.962-3.479-2.443l-1.85-5.107           c-0.666-1.924,0.296-4.071,2.221-4.737s4.071,0.296,4.737,2.221l1.85,5.107c0.666,1.924-0.296,4.071-2.221,4.737           C627.313,549.149,626.943,549.223,626.499,549.223z"></path>
								</g>
							</g>
							<g>
								<g>
									<path fill="#FFFFFF" d="M610.585,561.362l-0.962,1.999l-7.402,3.849c-1.036-1.036-1.332-2.739-0.666-4.145l2.295-4.885           c0.888-1.85,3.109-2.665,4.959-1.776C610.659,557.291,611.473,559.512,610.585,561.362z"></path>
								</g>
							</g>
						</g>
					</g>
					<g>
						<g>
							<g>
								<g>
									<path fill="#FFFFFF" d="M560.844,419.023c-1.48,0-2.961-0.962-3.479-2.443c-0.74-1.924,0.296-4.071,2.221-4.737l5.033-1.85           c1.924-0.74,4.071,0.296,4.737,2.221c0.74,1.924-0.296,4.071-2.221,4.737l-5.033,1.85           C561.732,418.949,561.288,419.023,560.844,419.023z"></path>
								</g>
								<g>
									<path fill="#FFFFFF" d="M580.533,448.261c-0.518,0-1.036-0.074-1.554-0.37c-1.85-0.888-2.665-3.035-1.776-4.885           l2.295-4.959c0.888-1.85,3.035-2.665,4.885-1.776c1.85,0.888,2.665,3.035,1.776,4.885l-2.295,4.959           C583.272,447.446,581.939,448.261,580.533,448.261z"></path>
								</g>
								<g>
									<path fill="#FFFFFF" d="M552.554,444.115c-1.11-4.071-2.147-8.068-3.257-12.139c1.48,0,2.887,0.962,3.405,2.443l1.85,5.033           C555.218,441.303,554.33,443.301,552.554,444.115z"></path>
								</g>
							</g>
							<g>
								<g>
									<path fill="#FFFFFF" d="M564.989,472.391l-4.071,1.48c-0.666-2.369-1.406-4.737-2.073-7.106l3.627-1.332           c1.924-0.666,4.071,0.296,4.737,2.221C567.876,469.578,566.913,471.725,564.989,472.391z"></path>
								</g>
								<g>
									<path fill="#FFFFFF" d="M578.312,503.627c-0.518,0-1.036-0.148-1.554-0.37c-1.85-0.888-2.665-3.109-1.776-4.959           l2.295-4.885c0.888-1.85,3.109-2.665,4.959-1.776c1.85,0.888,2.665,3.109,1.776,4.959l-2.295,4.885           C581.051,502.813,579.719,503.627,578.312,503.627z"></path>
								</g>
							</g>
						</g>
						<g>
							<g>
								<g>
									<path fill="#FFFFFF" d="M599.704,422.65c-0.518,0-1.036-0.148-1.554-0.37l-4.885-2.295           c-1.851-0.888-2.665-3.109-1.776-4.959c0.888-1.85,3.109-2.665,4.959-1.776l4.885,2.295           c1.85,0.888,2.665,3.109,1.776,4.959C602.443,421.836,601.11,422.65,599.704,422.65z"></path>
								</g>
								<g>
									<path fill="#FFFFFF" d="M609.622,397.631c-0.518,0-1.036-0.148-1.554-0.37c-1.85-0.888-2.665-3.109-1.776-4.959           l2.295-4.885c0.888-1.85,3.109-2.665,4.959-1.776s2.665,3.109,1.776,4.959l-2.295,4.885           C612.361,396.817,611.029,397.631,609.622,397.631z"></path>
								</g>
							</g>
							<g>
								<g>
									<path fill="#FFFFFF" d="M597.483,478.09c-0.518,0-1.036-0.148-1.554-0.37l-4.885-2.295           c-1.85-0.888-2.665-3.109-1.776-4.959c0.888-1.85,3.109-2.665,4.959-1.776l4.885,2.295c1.85,0.888,2.665,3.109,1.776,4.959           C600.222,477.276,598.89,478.09,597.483,478.09z"></path>
								</g>
								<g>
									<path fill="#FFFFFF" d="M607.402,453.072c-0.518,0-1.036-0.148-1.554-0.37c-1.85-0.888-2.665-3.109-1.776-4.959           l2.295-4.885c0.888-1.85,3.109-2.665,4.959-1.776c1.85,0.888,2.665,3.109,1.776,4.959l-2.295,4.885           C610.141,452.258,608.808,453.072,607.402,453.072z"></path>
								</g>
								<g>
									<path fill="#FFFFFF" d="M626.721,489.267c-1.48,0-2.961-0.962-3.479-2.443l-1.85-5.033           c-0.74-1.924,0.296-4.071,2.221-4.737c1.924-0.74,4.071,0.296,4.737,2.221l1.85,5.033c0.74,1.924-0.296,4.071-2.221,4.737           C627.609,489.193,627.165,489.267,626.721,489.267z"></path>
								</g>
							</g>
						</g>
					</g>
					<g>
						<g>
							<g>
								<g>
									<path fill="#FFFFFF" d="M527.683,315.766c-0.518,1.11-1.554,1.85-2.739,2.073c-0.444-2.665-0.888-5.329-1.258-7.994           l2.221,1.036C527.757,311.695,528.571,313.916,527.683,315.766z"></path>
								</g>
								<g>
									<path fill="#FFFFFF" d="M563.286,303.701c-1.48,0-2.961-0.962-3.479-2.443c-0.666-1.924,0.296-4.071,2.221-4.737           l5.107-1.85c1.924-0.666,4.071,0.296,4.737,2.221c0.666,1.924-0.296,4.071-2.221,4.737l-5.107,1.85           C564.101,303.627,563.731,303.701,563.286,303.701z"></path>
								</g>
								<g>
									<path fill="#FFFFFF" d="M534.271,292.894c-0.518,0-1.036-0.148-1.554-0.37c-1.85-0.888-2.665-3.109-1.776-4.959           l2.295-4.885c0.888-1.85,3.109-2.665,4.959-1.776c1.85,0.888,2.665,3.109,1.776,4.959l-2.295,4.885           C537.01,292.08,535.677,292.894,534.271,292.894z"></path>
								</g>
								<g>
									<path fill="#FFFFFF" d="M582.976,332.939c-0.518,0-1.036-0.074-1.554-0.37c-1.85-0.888-2.665-3.035-1.776-4.885           l2.295-4.959c0.888-1.85,3.035-2.665,4.885-1.776c1.851,0.888,2.665,3.035,1.776,4.885l-2.295,4.959           C585.714,332.124,584.382,332.939,582.976,332.939z"></path>
								</g>
								<g>
									<path fill="#FFFFFF" d="M553.516,329.09c-1.48,0-2.961-0.962-3.479-2.443l-1.851-5.033           c-0.74-1.924,0.296-4.071,2.221-4.737c1.924-0.74,4.071,0.296,4.737,2.221l1.851,5.033c0.74,1.924-0.296,4.071-2.221,4.737           C554.404,329.016,553.96,329.09,553.516,329.09z"></path>
								</g>
							</g>
							<g>
								<g>
									<path fill="#FFFFFF" d="M561.066,359.141c-1.48,0-2.961-0.962-3.479-2.443c-0.666-1.924,0.296-4.071,2.221-4.737           l5.107-1.85c1.924-0.666,4.071,0.296,4.737,2.221c0.666,1.924-0.296,4.071-2.221,4.737l-5.107,1.85           C561.88,359.067,561.51,359.141,561.066,359.141z"></path>
								</g>
								<g>
									<path fill="#FFFFFF" d="M537.676,341.303l-2.295,4.885c-0.666,1.332-1.999,2.147-3.331,2.147           c-0.518,0-1.036-0.148-1.554-0.37c-0.074,0-0.148-0.074-0.222-0.074c-0.222-1.332-0.518-2.591-0.74-3.923l-0.37-1.924l0,0           l1.85-3.849c0.888-1.85,3.109-2.665,4.959-1.776C537.75,337.306,538.564,339.452,537.676,341.303z"></path>
								</g>
								<g>
									<path fill="#FFFFFF" d="M580.755,388.305c-0.518,0-1.036-0.148-1.554-0.37c-1.85-0.888-2.665-3.109-1.776-4.959           l2.295-4.885c0.888-1.85,3.109-2.665,4.959-1.776c1.85,0.888,2.665,3.109,1.776,4.959l-2.295,4.885           C583.494,387.491,582.161,388.305,580.755,388.305z"></path>
								</g>
								<g>
									<path fill="#FFFFFF" d="M551.369,384.53c-1.48,0-2.961-0.962-3.479-2.443l-1.85-5.107           c-0.666-1.924,0.296-4.071,2.221-4.737c1.924-0.666,4.071,0.296,4.737,2.221l1.85,5.107           c0.666,1.924-0.296,4.071-2.221,4.737C552.184,384.456,551.813,384.53,551.369,384.53z"></path>
								</g>
							</g>
						</g>
						<g>
							<g>
								<g>
									<path fill="#FFFFFF" d="M601.628,307.254c-0.37,0-0.74-0.148-1.036-0.296l-4.885-2.295           c-1.85-0.888-2.665-3.109-1.776-4.959c0.888-1.85,3.109-2.665,4.959-1.776l0.814,0.37           C600.296,301.406,600.962,304.367,601.628,307.254z"></path>
								</g>
							</g>
							<g>
								<g>
									<path fill="#FFFFFF" d="M599.926,362.768c-0.518,0-1.036-0.148-1.554-0.37l-4.885-2.295           c-1.85-0.888-2.665-3.109-1.776-4.959c0.888-1.85,3.109-2.665,4.959-1.776l4.885,2.295c1.85,0.888,2.665,3.109,1.776,4.959           C602.665,361.954,601.332,362.768,599.926,362.768z"></path>
								</g>
								<g>
									<path fill="#FFFFFF" d="M608.512,337.454c-0.074,0-0.148-0.074-0.222-0.074c-1.85-0.888-2.665-3.109-1.776-4.959           l0.592-1.184C607.55,333.457,608.068,335.529,608.512,337.454z"></path>
								</g>
							</g>
						</g>
					</g>
					<g>
						<g>
							<g>
								<g>
									<path fill="#FFFFFF" d="M527.905,255.885c-0.592,1.332-1.924,2.147-3.331,2.147c-0.518,0-1.036-0.148-1.554-0.37           l-4.885-2.295c-0.444-0.222-0.814-0.518-1.11-0.814l-0.37-4.589c1.036-1.48,2.961-2.073,4.663-1.332l4.885,2.295           C527.979,251.813,528.794,254.034,527.905,255.885z"></path>
								</g>
								<g>
									<path fill="#FFFFFF" d="M563.509,243.819c-1.48,0-2.961-0.962-3.479-2.443c-0.666-1.924,0.296-4.071,2.221-4.737           l5.107-1.85c1.924-0.666,4.071,0.296,4.737,2.221c0.666,1.924-0.296,4.071-2.221,4.737l-5.107,1.85           C564.323,243.745,563.953,243.819,563.509,243.819z"></path>
								</g>
								<g>
									<path fill="#FFFFFF" d="M534.493,233.013c-0.518,0-1.036-0.074-1.554-0.37c-1.85-0.888-2.665-3.035-1.776-4.885           l2.295-4.959c0.888-1.85,3.035-2.665,4.885-1.776c1.851,0.888,2.665,3.035,1.776,4.885l-2.295,4.959           C537.232,232.198,535.899,233.013,534.493,233.013z"></path>
								</g>
								<g>
									<path fill="#FFFFFF" d="M583.198,272.983c-0.518,0-1.036-0.148-1.554-0.37c-1.851-0.888-2.665-3.109-1.776-4.959           l2.295-4.885c0.888-1.85,3.109-2.665,4.959-1.776c1.851,0.888,2.665,3.109,1.776,4.959l-2.295,4.885           C585.936,272.169,584.604,272.983,583.198,272.983z"></path>
								</g>
								<g>
									<path fill="#FFFFFF" d="M553.812,269.208c-1.48,0-2.961-0.962-3.479-2.443l-1.85-5.107           c-0.666-1.924,0.296-4.071,2.221-4.737c1.924-0.666,4.071,0.296,4.737,2.221l1.85,5.107           c0.666,1.925-0.296,4.071-2.221,4.737C554.626,269.134,554.256,269.208,553.812,269.208z"></path>
								</g>
							</g>
						</g>
					</g>
				</g>
			</g>
		</g>
		<circle fill="#EA7068" cx="572.613" cy="34.789" r="23.612"></circle>
		<circle fill="#2B2B2B" cx="550.037" cy="55.44" r="19.911"></circle>
		<g>
			<g>
				<g>
					<path id="SVGID_32_-i0" fill="#FDC068" d="M529.386,111.325l19.023,0.666c9.845,0.37,18.135-7.328,18.431-17.172l1.036-28.645       c0.518-15.766-11.769-28.942-27.535-29.534l0,0c-15.766-0.518-28.942,11.769-29.534,27.535l-0.888,26.277       C509.474,101.554,518.209,110.881,529.386,111.325z"></path>
				</g>
				<g>
					<path fill="#2B2B2B" d="M513.101,72.317c0,1.628-1.184,2.961-2.665,3.183l0.222-6.366       C512.065,69.504,513.101,70.762,513.101,72.317z"></path>
				</g>
			</g>
			<path fill="#FDC068" d="M543.227,144.338l22.724-7.476c1.184-0.37,1.998-1.554,1.998-2.813l-0.666-52.184l-30.348-1.036     l-4.811,54.774C531.606,141.599,537.454,146.262,543.227,144.338z"></path>
			<g>
				<path fill="#2B2B2B" d="M517.395,82.309c-0.148,0-0.37-0.074-0.518-0.148l-2.665-1.702c-0.666-0.518-1.036-1.332-1.11-2.147      c-0.074-0.814,0.222-1.628,0.74-2.295l4.219-4.663c0.37-0.37,0.888-0.37,1.332-0.074c0.37,0.37,0.37,0.888,0.074,1.332      l-4.219,4.663c-0.222,0.296-0.37,0.592-0.296,0.962c0,0.296,0.148,0.666,0.444,0.888l2.517,1.554      c0.444,0.296,0.592,0.814,0.296,1.258C517.987,82.161,517.691,82.309,517.395,82.309z"></path>
			</g>
			<g>
				<path fill="#2B2B2B" d="M520.281,93.042c-0.296,0-0.666,0-0.962-0.074c-2.591-0.518-3.849-2.887-3.923-2.961      c-0.222-0.444-0.074-1.036,0.37-1.258s1.036-0.074,1.258,0.37c0,0,0.962,1.702,2.665,1.999c1.258,0.222,2.665-0.296,4.145-1.554      c0.37-0.296,0.962-0.296,1.332,0.148c0.296,0.37,0.296,0.962-0.148,1.332C523.39,92.376,521.762,93.042,520.281,93.042z"></path>
			</g>
			<polygon fill="#2B2B2B" points="534.271,111.473 546.632,111.917 533.235,123.686    "></polygon>
			<circle fill="#2B2B2B" cx="528.349" cy="73.131" r="3.257"></circle>
		</g>
		<g>
			<g>
				<path fill="#2B2B2B" d="M435.973,597.557l84.308-0.296c4.441,0,7.994-3.553,8.068-7.994l0.222-10.659l-53.294,0.74      l-40.34,10.141C430.2,590.674,431.088,597.631,435.973,597.557z"></path>
			</g>
		</g>
		<g>
			<g>
				<path fill="#2B2B2B" d="M563.286,597.557l17.765-0.074l59.586-29.534c3.923-1.924,5.625-6.736,3.775-10.733l-4.515-9.696      l-47.52,24.13l-14.434,13.842l-15.692,3.923C557.587,590.674,558.475,597.631,563.286,597.557z"></path>
			</g>
		</g>
		<path fill="#FDC068" d="M465.285,322.576l-11.547,8.66c-8.66,6.514-20.947,4.811-27.461-3.849    c-5.922-7.846-5.033-18.727,1.702-25.537l13.397-13.62"></path>
		
			<linearGradient id="SVGID_34_-i0" gradientUnits="userSpaceOnUse" x1="272.7313" y1="-1378.8655" x2="272.7313" y2="-1211.3857" gradientTransform="matrix(1 0 0 1 242.4 1511.04)">
			<stop offset="0" style="stop-color:#F48B94"></stop>
			<stop offset="0.405" style="stop-color:#F4A9A6"></stop>
			<stop offset="0.4989" style="stop-color:#FED3B5"></stop>
			<stop offset="0.599" style="stop-color:#DBECC2"></stop>
			<stop offset="1" style="stop-color:#98c5ad"></stop>
		</linearGradient>
		<path fill="url(#SVGID_34_-i0)" d="M441.303,288.231l58.031-59.141l-5.773,7.18l44.486-79.423    c7.328-13.101,23.908-17.765,37.01-10.437c13.101,7.328,17.765,23.908,10.437,37.01l-44.486,79.423l-0.814,1.48    c-1.258,2.295-3.035,4.219-4.959,5.699l-69.874,52.628L441.303,288.231z"></path>
		<g>
			<path fill="#2B2B2B" d="M566.321,218.653c-0.148,0-0.37-0.074-0.518-0.148c-0.518-0.296-0.74-0.962-0.444-1.48l19.171-34.197     c0.296-0.518,0.962-0.74,1.48-0.444c0.518,0.296,0.74,0.962,0.444,1.48l-19.171,34.197     C567.061,218.431,566.691,218.653,566.321,218.653z"></path>
		</g>
		<g>
			<path fill="#2B2B2B" d="M506.958,212.731c-0.222,0-0.37-0.074-0.518-0.148c-0.518-0.296-0.74-0.962-0.444-1.48l25.833-44.93     c0.296-0.518,0.962-0.74,1.48-0.444c0.518,0.296,0.74,0.962,0.444,1.48l-25.833,44.93     C507.698,212.509,507.328,212.731,506.958,212.731z"></path>
		</g>
		<path fill="#EA7068" d="M510.807,64.101l10.733-11.843l6.292,5.774c5.329,4.959,9.252,11.251,11.177,18.283    c2.147,7.698,4.663,16.876,4.811,17.246c5.181,14.582,13.62,19.393,26.425,19.393h6.588l-8.66-48.779    c0-15.396-13.175-27.831-28.571-27.831h-0.888C523.316,36.269,510.807,48.705,510.807,64.101L510.807,64.101z"></path>
		<g>
			<path fill="#2B2B2B" d="M548.631,430.94c-0.518,0-0.962-0.296-1.036-0.814c-6.292-23.538-22.058-102.369-25.759-125.611     c-0.074-0.592,0.296-1.184,0.888-1.258c0.592-0.074,1.184,0.296,1.258,0.888c3.701,23.242,19.467,101.999,25.759,125.463     c0.148,0.592-0.222,1.184-0.814,1.332C548.853,430.94,548.705,430.94,548.631,430.94z"></path>
		</g>
	</g>
	<g>
		<path fill="#8670BD" d="M204.663,188.527c-2.591-29.164-22.502-26.055-16.506-46.336c5.996-20.207-5.329-46.928-27.683-45.004    c-17.246,1.554-18.505,0.888-25.759,1.554c-6.958,0.592-20.947,9.178-26.203,12.657c-12.287,8.068-7.994,20.577-2.073,35.603    c0,0-11.769-6.958-11.325-0.37s2.369,32.42,4.145,52.406L204.663,188.527z"></path>
		
			<linearGradient id="SVGID_35_-i0" gradientUnits="userSpaceOnUse" x1="-69.6374" y1="-935.2443" x2="-69.6374" y2="-1289.078" gradientTransform="matrix(1 0 0 1 242.4 1511.04)">
			<stop offset="0" style="stop-color:#D96359"></stop>
			<stop offset="0.3215" style="stop-color:#90979D"></stop>
			<stop offset="0.5011" style="stop-color:#7E9DAE"></stop>
			<stop offset="0.6828" style="stop-color:#a3aae1"></stop>
			<stop offset="1" style="stop-color:#D2D4D4"></stop>
		</linearGradient>
		<path fill="url(#SVGID_35_-i0)" d="M204.293,192.302c3.479,15.248,5.996,43.375,8.216,58.771c2.221,15.396,3.997,30.792,5.551,46.262    l1.036,11.621l0.518,5.773l0.444,5.773l0.888,11.621l0.74,11.621l0.37,5.848l0.296,5.848l0.592,11.621    c0.518,7.772,0.222,15.544,0.148,23.316c-0.518,31.162-1.628,62.398-3.627,93.634l-0.74,11.695l-0.888,11.695    c-0.296,3.923-0.666,7.846-0.962,11.695l-0.518,5.848l-0.592,5.848l-1.184,11.695c-0.222,1.924-0.37,3.923-0.592,5.848    l-0.666,5.848c-0.444,3.923-0.888,7.846-1.406,11.695c-0.518,3.923-1.036,7.846-1.702,11.695l-55.959,3.553l-11.769-183.864    c-0.666-15.396-2.813-30.57-4.515-45.818l-5.255-45.744l-10.437-91.414L204.293,192.302z"></path>
		<path fill="#2B2B2B" d="M164.249,298.372c8.512,63.212-4.589,75.056,3.183,120.947c8.142,47.89-14.952,74.315-15.544,127.239    L137.01,332.494L164.249,298.372z"></path>
		
			<linearGradient id="SVGID_36_-i0" gradientUnits="userSpaceOnUse" x1="-284.937" y1="-937.606" x2="-284.937" y2="-1292.6219" gradientTransform="matrix(1.0003 0 -0.0171 0.9997 359.8185 1513.0298)">
			<stop offset="0" style="stop-color:#D96359"></stop>
			<stop offset="0.3215" style="stop-color:#90979D"></stop>
			<stop offset="0.5011" style="stop-color:#7E9DAE"></stop>
			<stop offset="0.6828" style="stop-color:#a3aae1"></stop>
			<stop offset="1" style="stop-color:#D2D4D4"></stop>
		</linearGradient>
		<path fill="url(#SVGID_36_-i0)" d="M187.491,222.502c-2.813,15.914-6.662,31.532-10.733,47.15    c-4.145,15.544-8.66,31.014-13.472,46.336c-4.811,15.396-10.067,30.644-15.396,45.818l-16.58,45.522    c-11.103,30.348-72.169,172.391-75.944,179.719l-55.218-7.772l53.664-192.968c2.221-7.772,4.367-15.544,6.588-23.316l6.81-23.242    l26.425-85.196l5.551-55.44L187.491,222.502z"></path>
		
			<linearGradient id="SVGID_37_-i0" gradientUnits="userSpaceOnUse" x1="-90.5434" y1="-935.0667" x2="-90.5434" y2="-1289.0619" gradientTransform="matrix(1 0 0 1 242.4 1511.04)">
			<stop offset="0" style="stop-color:#D96359"></stop>
			<stop offset="0.3215" style="stop-color:#90979D"></stop>
			<stop offset="0.5011" style="stop-color:#7E9DAE"></stop>
			<stop offset="0.6828" style="stop-color:#a3aae1"></stop>
			<stop offset="1" style="stop-color:#D2D4D4"></stop>
		</linearGradient>
		<path fill="url(#SVGID_37_-i0)" d="M99.186,199.112c1.332,15.396,16.136,34.123,42.931,31.976l21.614-2.443    c24.426-1.924,42.191-25.463,40.711-42.043L99.186,199.112z"></path>
		<g>
			<g>
				<g>
					<path id="SVGID_31_-i0" fill="#EA7068" d="M168.32,80.311l-20.207,0.74c-10.437,0.37-19.245-7.846-19.615-18.283l-1.036-30.496       c-0.666-16.802,12.435-30.866,29.164-31.458l0,0c16.728-0.592,30.792,12.509,31.384,29.238l0.962,27.979       C189.415,69.948,180.163,79.941,168.32,80.311z"></path>
				</g>
				<g>
					<path fill="#2B2B2B" d="M188.453,42.191c-1.554-0.296-2.813-1.702-2.813-3.331c0-1.554,1.11-2.887,2.591-3.257L188.453,42.191z       "></path>
				</g>
			</g>
			<polygon fill="#FFFFFF" points="127.239,106.81 175.574,136.492 165.359,98.372    "></polygon>
			<path fill="#EA7068" d="M153.59,115.47l-26.277-8.66l0.666-57.809l32.272-1.11l5.107,58.253     C165.877,112.583,159.66,117.469,153.59,115.47z"></path>
			<g>
				<path fill="#2B2B2B" d="M181.051,49.593c-0.296,0-0.666-0.148-0.814-0.444c-0.296-0.444-0.148-1.036,0.296-1.332l2.665-1.702      c0.296-0.222,0.444-0.592,0.444-0.962c0-0.37-0.074-0.74-0.37-1.036l-4.515-4.959c-0.37-0.37-0.37-1.036,0.074-1.406      c0.37-0.37,1.036-0.37,1.406,0.074l4.515,4.959c0.592,0.666,0.888,1.554,0.888,2.443c-0.074,0.888-0.444,1.776-1.184,2.369      l-0.074,0.074l-2.739,1.776C181.421,49.593,181.199,49.593,181.051,49.593z M183.79,46.854L183.79,46.854L183.79,46.854z"></path>
			</g>
			<polygon fill="#2B2B2B" points="163.064,80.533 150.185,78.756 164.249,93.56    "></polygon>
			<circle fill="#2B2B2B" cx="169.356" cy="39.674" r="3.405"></circle>
		</g>
		<g>
			<g>
				<path fill="#2B2B2B" d="M252.554,597.631l-89.711-0.37c-4.663,0-8.512-3.775-8.586-8.438l-0.222-11.325l56.699,0.814      l42.931,10.733C258.623,590.229,257.661,597.631,252.554,597.631z"></path>
			</g>
		</g>
		<g>
			<g>
				<path fill="#2B2B2B" d="M98.52,597.631l-89.637-0.37c-4.663,0-8.512-3.775-8.586-8.438L0,577.424l56.699,0.814l42.931,10.733      C104.589,590.229,103.701,597.631,98.52,597.631z"></path>
			</g>
		</g>
		<path fill="#EA7068" d="M213.546,212.657l23.242,1.85c11.473,0.888,20.059,10.955,19.171,22.502    c-0.814,10.363-9.104,18.357-19.171,19.171l-23.316,1.85"></path>
		<path fill="#2B2B2B" d="M98.15,176.758c5.181,14.064,7.18,76.684,7.18,76.684c0,13.398,11.917,23.612,25.167,21.54l79.497-16.95    c0,0-68.912-32.42-69.282-31.976C140.34,226.499,106.588,192.302,98.15,176.758z"></path>
		<path fill="#8670BD" d="M213.472,258.031l-78.534,6.218c-14.138,1.11-26.499-9.03-28.349-22.872l-0.296-2.221l-12.879-98.372    c-2.073-15.84,9.104-30.348,24.87-32.42c15.84-2.073,30.348,9.104,32.42,24.87l12.953,98.372l-28.645-25.167l78.608,6.218"></path>
		<path fill="#2B2B2B" d="M157.439,29.608l30.57-1.702l2.443-5.403C195.189,11.917,187.491,0,175.87,0h-40.859    c-9.697,0-17.172,8.586-15.766,18.209l8.364,58.771l17.543-31.754l1.11,17.617h0.074l0.222,8.956    c0.148,4.959,4.219,8.882,9.178,8.882l12.509-0.074c11.325,0,20.429-9.178,20.429-20.429V54.7c0-2.665-2.147-4.885-4.811-4.885    c-2.443,0-5.477,0-7.994,0c-3.183,0-6.218,1.702-7.846,4.441l-0.074,0.148c-1.628,2.665-4.515,4.293-7.624,4.293l-3.627,0.074    c-2.887,0-5.255-2.221-5.329-5.033l-0.74-16.358C150.407,33.235,153.442,29.83,157.439,29.608z"></path>
		<path fill="#FFFFFF" d="M175.13,58.771c0,5.774,8.734,5.181,8.734-0.814L175.13,58.771z"></path>
		<path fill="#EA7068" d="M146.336,58.179l-4.959,0.37c-2.739,0.222-5.181-1.85-5.329-4.663l-0.518-7.772    c-0.222-2.739,1.85-5.181,4.663-5.329l0,0c2.739-0.222,5.181,1.85,5.329,4.663L146.336,58.179z"></path>
		<g>
			<path fill="#2B2B2B" d="M204.515,187.861c-0.592,0-1.036-0.444-1.11-0.962c-1.406-13.546-17.024-39.304-17.172-39.6     c-0.296-0.518-0.148-1.184,0.37-1.554c0.518-0.296,1.184-0.148,1.554,0.37c0.666,1.036,15.988,26.425,17.469,40.489     c0.074,0.592-0.37,1.184-0.962,1.184C204.589,187.861,204.589,187.861,204.515,187.861z"></path>
		</g>
		<g>
			<path fill="#2B2B2B" d="M158.031,191.932c-0.518,0-1.036-0.444-1.11-0.962l-3.479-28.127c-0.074-0.592,0.37-1.184,0.962-1.258     c0.592-0.074,1.184,0.37,1.258,0.962l3.479,28.127c0.074,0.592-0.37,1.184-0.962,1.258     C158.105,191.932,158.105,191.932,158.031,191.932z"></path>
		</g>
		<g>
			<path fill="#2B2B2B" d="M140.711,382.605c-0.148,0-0.296,0-0.37-0.074c-0.592-0.222-0.888-0.888-0.666-1.406     c18.579-48.853,34.641-106.736,34.863-107.328c0.148-0.592,0.74-0.962,1.332-0.74c0.592,0.148,0.962,0.74,0.74,1.332     c-0.148,0.592-16.284,58.549-34.863,107.476C141.599,382.309,141.155,382.605,140.711,382.605z"></path>
		</g>
	</g>
</g>

            </g>
        </g>
    </g>
    
</svg>