<svg width="702" height="650" viewBox="0 0 702 650" fill="none" xmlns="http://www.w3.org/2000/svg">
<path d="M209.647 126.393L255.796 237.813L251.286 230.165L317.169 326.208C324.257 336.512 321.598 350.681 311.29 357.766C301.867 364.207 289.383 362.596 281.892 354.546L202.238 269.532C200.547 267.762 199.338 265.749 198.452 263.656L197.728 261.885L151.578 150.465C144.893 134.445 152.544 116.009 168.572 109.408C184.599 102.725 203.043 110.372 209.647 126.393Z" fill="#8670BD"/>
<path d="M596.322 145.473C583.356 135.572 564.75 138.067 554.844 151.028L508.936 211.004L450.624 204.725C440.799 203.679 431.214 209.555 427.993 219.296C424.288 230.567 430.41 242.643 441.604 246.345L516.185 270.98C526.171 274.281 537.528 271.141 544.213 262.366L545.985 260.111L601.879 187.013C611.785 174.053 609.289 155.456 596.322 145.473Z" fill="url(#paint0_linear)"/>
<path d="M539.38 227.427C543.487 202.148 561.528 203.999 555.73 184.357L517.473 212.132V253.19L522.547 275.811L544.937 266.473L539.38 227.427Z" fill="#2B2B2B"/>
<path d="M535.997 216.238C535.997 244.012 519.486 294.489 497.338 349.796C493.955 358.249 490.411 366.944 486.786 375.558C450.865 460.974 405.763 551.301 388.93 584.308C386.111 589.782 378.298 589.782 375.561 584.308C352.849 539.628 278.187 390.049 244.844 289.579C239.528 273.558 235.26 258.746 232.44 245.865C229.943 234.352 228.494 224.37 228.494 216.319C228.494 131.467 297.355 62.6343 382.246 62.6343C467.136 62.6343 535.997 131.384 535.997 216.238Z" fill="white"/>
<path d="M382.245 592.44C382.164 592.44 382.164 592.44 382.245 592.44C377.815 592.44 373.949 590.024 372.017 586.079C349.788 542.285 274.482 391.497 241.058 290.785C235.501 273.959 231.313 259.146 228.574 246.667C225.836 234.109 224.547 224.207 224.547 216.237C224.547 129.291 295.342 58.5264 382.326 58.5264C469.31 58.5264 540.106 129.21 540.106 216.156C540.106 241.274 526.978 286.679 501.124 351.244C497.339 360.743 493.875 369.196 490.573 377.086C452.961 466.447 406.086 559.673 392.556 586.078C390.541 590.024 386.594 592.44 382.245 592.44ZM382.245 66.6586C299.691 66.6586 232.52 133.8 232.52 216.318C232.52 223.645 233.808 233.063 236.386 244.978C239.044 257.215 243.152 271.786 248.709 288.29C281.972 388.439 356.955 538.823 379.184 582.456C380.07 584.146 381.601 584.388 382.245 584.388C383.614 584.388 384.742 583.663 385.386 582.456C398.836 556.051 445.63 463.066 483.081 373.947C486.384 366.057 489.847 357.685 493.633 348.266C519.083 284.667 531.97 240.228 531.97 216.237C531.97 133.719 464.799 66.6586 382.245 66.6586Z" fill="#43BCAF"/>
<path d="M501.606 350.199C498.223 358.652 495.002 365.415 491.298 374.109C480.505 378.296 469.23 375.075 463.752 367.83C457.309 359.297 458.276 347.462 465.604 340.056L480.182 325.242L501.606 350.199Z" fill="#2B2B2B"/>
<path d="M278.51 267.68C277.624 278.951 268.603 287.646 257.65 288.531L240.414 289.578C235.099 273.557 232.36 258.986 232.36 245.864V241.275L257.65 243.287C270.133 244.172 279.476 255.121 278.51 267.68Z" fill="#2B2B2B"/>
<path d="M382.259 311.476C436.795 311.476 481.004 267.285 481.004 212.773C481.004 158.262 436.795 114.071 382.259 114.071C327.723 114.071 283.514 158.262 283.514 212.773C283.514 267.285 327.723 311.476 382.259 311.476Z" fill="#43BCAF"/>
<path d="M382.245 249.245C379.909 249.245 377.654 248.199 376.124 246.427L345.197 210.602C342.297 207.221 342.7 202.149 346.002 199.25C349.385 196.352 354.459 196.754 357.359 200.055L381.521 228.071L411.724 185.001C414.301 181.378 419.295 180.493 422.919 183.07C426.544 185.646 427.429 190.637 424.852 194.26L388.689 245.783C387.239 247.796 384.984 249.084 382.488 249.165C382.486 249.245 382.406 249.245 382.245 249.245Z" fill="white"/>
<path d="M538.816 231.694C541.474 201.907 561.85 205.047 555.73 184.357C549.609 163.667 561.126 136.376 584 138.388C601.638 139.918 602.927 139.354 610.417 139.998C628.538 141.608 641.102 157.065 641.907 174.052C642.552 188.623 637.639 232.74 637.075 239.664L538.816 231.694Z" fill="url(#paint1_linear)"/>
<path d="M623.061 258.583L611.383 353.016L605.584 400.273C603.652 416.052 601.799 431.75 599.625 447.449L574.656 636.153L517.794 628.666C517.391 624.64 517.23 620.615 516.908 616.59C516.667 612.565 516.506 608.539 516.264 604.514L515.942 598.476C515.862 596.464 515.781 594.451 515.701 592.439L515.298 580.444C514.815 564.423 514.654 548.402 514.734 532.463C514.815 500.502 515.862 468.703 517.473 436.983C517.876 429.094 518.359 421.124 518.761 413.234L519.486 401.319L519.808 395.362L520.211 389.405L521.096 377.571C521.419 373.626 521.741 369.681 522.063 365.736C522.707 357.846 523.512 349.957 524.318 342.067C526.009 326.288 528.023 310.589 530.358 294.972C532.775 279.354 536.318 255.041 540.023 239.504L623.061 258.583Z" fill="url(#paint2_linear)"/>
<g opacity="0.3">
<g opacity="0.3">
<g opacity="0.3">
<g opacity="0.3">
<g opacity="0.3">
<path opacity="0.3" d="M535.916 598.074C534.306 598.074 532.695 597.028 532.131 595.417C531.326 593.324 532.453 590.989 534.548 590.265L540.024 588.253C542.118 587.448 544.454 588.575 545.178 590.668C545.984 592.761 544.856 595.096 542.762 595.82L537.285 597.833C536.883 597.993 536.4 598.074 535.916 598.074Z" fill="white"/>
</g>
<g opacity="0.3">
<path opacity="0.3" d="M557.34 629.874C556.776 629.874 556.213 629.794 555.649 629.472C553.636 628.506 552.749 626.171 553.717 624.159L556.214 618.765C557.18 616.752 559.516 615.867 561.529 616.833C563.542 617.799 564.429 620.134 563.462 622.146L560.965 627.54C560.32 628.988 558.871 629.874 557.34 629.874Z" fill="white"/>
</g>
<g opacity="0.3">
<path opacity="0.3" d="M525.286 625.688C523.675 625.688 522.064 624.641 521.5 623.031L519.487 617.557C518.682 615.464 519.809 613.129 521.904 612.405C523.997 611.6 526.334 612.726 527.058 614.82L529.071 620.294C529.876 622.387 528.749 624.722 526.655 625.446C526.252 625.607 525.769 625.688 525.286 625.688Z" fill="white"/>
</g>
</g>
</g>
<g opacity="0.3">
<g opacity="0.3">
<g opacity="0.3">
<path opacity="0.3" d="M580.134 594.451L579.167 601.858C578.845 601.938 578.523 602.019 578.201 602.019C577.638 602.019 577.074 601.858 576.51 601.616L571.114 599.12C569.101 598.154 568.215 595.819 569.182 593.807C570.148 591.794 572.484 590.909 574.497 591.875L579.893 594.372C579.973 594.37 580.053 594.451 580.134 594.451Z" fill="white"/>
</g>
</g>
</g>
</g>
<g opacity="0.3">
<g opacity="0.3">
<g opacity="0.3">
<g opacity="0.3">
<path opacity="0.3" d="M538.575 472.647C536.964 472.647 535.353 471.6 534.789 469.99C533.984 467.897 535.111 465.562 537.206 464.838L542.682 462.825C544.776 462.021 547.112 463.147 547.837 465.241C548.642 467.334 547.515 469.669 545.42 470.393L539.944 472.405C539.541 472.566 539.058 472.647 538.575 472.647Z" fill="white"/>
</g>
<g opacity="0.3">
<path opacity="0.3" d="M559.998 504.447C559.435 504.447 558.871 504.366 558.307 504.044C556.294 503.078 555.408 500.743 556.375 498.731L558.872 493.338C559.838 491.326 562.174 490.439 564.187 491.406C566.2 492.372 567.087 494.707 566.12 496.719L563.623 502.113C562.979 503.56 561.528 504.447 559.998 504.447Z" fill="white"/>
</g>
<g opacity="0.3">
<path opacity="0.3" d="M527.943 500.26C526.332 500.26 524.721 499.214 524.157 497.603L522.144 492.129C521.339 490.037 522.466 487.702 524.561 486.977C526.655 486.172 528.991 487.299 529.715 489.393L531.728 494.867C532.534 496.96 531.406 499.295 529.312 500.019C528.909 500.18 528.426 500.26 527.943 500.26Z" fill="white"/>
</g>
</g>
<g opacity="0.3">
<g opacity="0.3">
<path opacity="0.3" d="M536.158 532.945C534.548 532.945 532.936 531.898 532.373 530.288C531.648 528.195 532.695 525.86 534.789 525.136L540.346 523.123C542.44 522.399 544.776 523.445 545.5 525.539C546.225 527.632 545.178 529.967 543.084 530.691L537.527 532.703C537.044 532.864 536.641 532.945 536.158 532.945Z" fill="white"/>
</g>
<g opacity="0.3">
<path opacity="0.3" d="M557.582 564.664C557.018 564.664 556.454 564.504 555.891 564.262C553.878 563.296 552.991 560.881 553.958 558.868L556.455 553.555C557.422 551.543 559.838 550.657 561.851 551.624C563.864 552.59 564.751 555.005 563.784 557.017L561.287 562.33C560.562 563.779 559.113 564.664 557.582 564.664Z" fill="white"/>
</g>
<g opacity="0.3">
<path opacity="0.3" d="M525.608 560.558C523.997 560.558 522.386 559.512 521.822 557.901L519.809 552.347C519.085 550.254 520.131 547.919 522.226 547.195C524.319 546.47 526.656 547.517 527.38 549.61L529.393 555.165C530.118 557.257 529.071 559.593 526.977 560.317C526.494 560.478 526.091 560.558 525.608 560.558Z" fill="white"/>
</g>
</g>
</g>
<g opacity="0.3">
<g opacity="0.3">
<g opacity="0.3">
<path opacity="0.3" d="M580.858 476.592C580.295 476.592 579.731 476.431 579.167 476.189L573.852 473.693C571.839 472.727 570.952 470.312 571.92 468.3C572.886 466.287 575.302 465.401 577.315 466.368L582.631 468.864C584.644 469.83 585.531 472.245 584.563 474.258C583.839 475.706 582.388 476.592 580.858 476.592Z" fill="white"/>
</g>
<g opacity="0.3">
<path opacity="0.3" d="M591.65 449.38C591.087 449.38 590.523 449.219 589.959 448.978C587.946 448.012 587.059 445.596 588.027 443.584L590.524 438.271C591.49 436.259 593.907 435.373 595.92 436.34C597.933 437.305 598.82 439.721 597.852 441.733L595.355 447.046C594.63 448.495 593.181 449.38 591.65 449.38Z" fill="white"/>
</g>
</g>
<g opacity="0.3">
<g opacity="0.3">
<path opacity="0.3" d="M578.442 536.889C577.878 536.889 577.314 536.729 576.751 536.487L571.435 533.991C569.422 533.025 568.536 530.61 569.503 528.597C570.469 526.585 572.886 525.699 574.899 526.666L580.214 529.162C582.227 530.128 583.114 532.543 582.147 534.555C581.422 536.004 579.973 536.889 578.442 536.889Z" fill="white"/>
</g>
<g opacity="0.3">
<path opacity="0.3" d="M593.101 496.557L591.49 508.955C590.846 509.438 590.041 509.679 589.235 509.679C588.671 509.679 588.107 509.518 587.544 509.277C585.531 508.311 584.644 505.895 585.611 503.883L588.108 498.57C588.993 496.718 591.167 495.833 593.101 496.557Z" fill="white"/>
</g>
</g>
</g>
</g>
<g opacity="0.3">
<g opacity="0.3">
<g opacity="0.3">
<g opacity="0.3">
<path opacity="0.3" d="M541.232 347.219C539.621 347.219 538.01 346.173 537.446 344.562C536.722 342.469 537.768 340.134 539.863 339.41L545.42 337.398C547.513 336.673 549.85 337.72 550.574 339.813C551.299 341.906 550.252 344.241 548.158 344.966L542.601 346.978C542.119 347.139 541.715 347.219 541.232 347.219Z" fill="white"/>
</g>
<g opacity="0.3">
<path opacity="0.3" d="M562.656 379.019C562.092 379.019 561.528 378.938 560.965 378.617C558.952 377.651 558.065 375.316 559.032 373.303L561.529 367.91C562.496 365.898 564.832 365.011 566.845 365.978C568.858 366.944 569.744 369.279 568.777 371.291L566.28 376.685C565.636 378.133 564.186 379.019 562.656 379.019Z" fill="white"/>
</g>
<g opacity="0.3">
<path opacity="0.3" d="M530.601 374.833C528.991 374.833 527.379 373.786 526.816 372.176L524.803 366.702C523.997 364.609 525.125 362.274 527.219 361.55C529.313 360.745 531.649 361.872 532.374 363.965L534.387 369.439C535.192 371.532 534.064 373.867 531.97 374.591C531.567 374.752 531.084 374.833 530.601 374.833Z" fill="white"/>
</g>
</g>
<g opacity="0.3">
<g opacity="0.3">
<path opacity="0.3" d="M538.816 407.517C537.206 407.517 535.594 406.471 535.031 404.86C534.306 402.767 535.353 400.432 537.447 399.708L543.004 397.696C545.098 396.971 547.434 398.018 548.159 400.111C548.883 402.204 547.837 404.539 545.742 405.263L540.185 407.275C539.702 407.436 539.299 407.517 538.816 407.517Z" fill="white"/>
</g>
<g opacity="0.3">
<path opacity="0.3" d="M560.24 439.237C559.676 439.237 559.113 439.076 558.549 438.834C556.536 437.868 555.649 435.453 556.616 433.441L559.114 428.128C560.08 426.116 562.497 425.229 564.51 426.196C566.523 427.162 567.409 429.577 566.442 431.59L563.945 436.903C563.22 438.351 561.77 439.237 560.24 439.237Z" fill="white"/>
</g>
<g opacity="0.3">
<path opacity="0.3" d="M528.265 435.131C526.655 435.131 525.043 434.084 524.479 432.474L522.466 426.919C521.742 424.826 522.788 422.491 524.883 421.767C526.977 421.043 529.313 422.089 530.037 424.183L532.05 429.737C532.775 431.83 531.728 434.165 529.634 434.889C529.151 435.05 528.748 435.131 528.265 435.131Z" fill="white"/>
</g>
</g>
</g>
<g opacity="0.3">
<g opacity="0.3">
<g opacity="0.3">
<path opacity="0.3" d="M583.515 351.164C582.952 351.164 582.388 351.003 581.825 350.762L576.509 348.265C574.496 347.3 573.609 344.884 574.577 342.872C575.543 340.86 577.96 339.973 579.973 340.94L585.288 343.436C587.301 344.402 588.188 346.818 587.22 348.83C586.496 350.279 585.046 351.164 583.515 351.164Z" fill="white"/>
</g>
<g opacity="0.3">
<path opacity="0.3" d="M594.308 323.953C593.745 323.953 593.181 323.792 592.617 323.55C590.604 322.584 589.718 320.169 590.685 318.157L593.182 312.844C594.148 310.831 596.565 309.945 598.578 310.912C600.591 311.878 601.478 314.293 600.511 316.305L598.013 321.618C597.289 323.067 595.838 323.953 594.308 323.953Z" fill="white"/>
</g>
<g opacity="0.3">
<path opacity="0.3" d="M611.705 350.118L611.383 353.016L610.739 358.49L609.531 355.189C608.806 353.176 609.772 350.923 611.705 350.118Z" fill="white"/>
</g>
</g>
<g opacity="0.3">
<g opacity="0.3">
<path opacity="0.3" d="M581.1 411.462C580.536 411.462 579.973 411.301 579.409 411.06L574.094 408.564C572.081 407.598 571.194 405.182 572.161 403.17C573.127 401.158 575.544 400.272 577.557 401.239L582.872 403.735C584.885 404.7 585.772 407.116 584.805 409.128C584.08 410.577 582.63 411.462 581.1 411.462Z" fill="white"/>
</g>
<g opacity="0.3">
<path opacity="0.3" d="M591.892 384.252C591.328 384.252 590.764 384.091 590.201 383.849C588.188 382.884 587.301 380.468 588.268 378.456L590.766 373.143C591.732 371.131 594.148 370.244 596.161 371.211C598.174 372.177 599.061 374.593 598.094 376.605L595.597 381.918C594.872 383.367 593.423 384.252 591.892 384.252Z" fill="white"/>
</g>
</g>
</g>
</g>
<g opacity="0.3">
<g opacity="0.3">
<g opacity="0.3">
<g opacity="0.3">
<path opacity="0.3" d="M571.112 246.668L568.937 251.257C568.293 252.705 566.762 253.592 565.313 253.592C564.749 253.592 564.185 253.511 563.622 253.189C561.609 252.224 560.722 249.889 561.689 247.876L563.139 244.817L571.112 246.668Z" fill="white"/>
</g>
</g>
<g opacity="0.3">
<g opacity="0.3">
<path opacity="0.3" d="M541.473 282.09C539.863 282.09 538.252 281.043 537.688 279.433C536.963 277.339 538.01 275.005 540.105 274.281L545.662 272.268C547.755 271.544 550.091 272.59 550.816 274.684C551.541 276.778 550.494 279.112 548.399 279.836L542.842 281.848C542.36 282.009 541.958 282.09 541.473 282.09Z" fill="white"/>
</g>
<g opacity="0.3">
<path opacity="0.3" d="M562.898 313.809C562.334 313.809 561.771 313.649 561.207 313.407C559.194 312.441 558.307 310.026 559.275 308.014L561.772 302.7C562.738 300.688 565.155 299.802 567.168 300.769C569.181 301.735 570.068 304.15 569.1 306.162L566.603 311.475C565.877 312.924 564.428 313.809 562.898 313.809Z" fill="white"/>
</g>
<g opacity="0.3">
<path opacity="0.3" d="M532.292 309.462C531.809 309.623 531.406 309.704 530.923 309.704C529.957 309.704 529.071 309.382 528.345 308.818C528.909 304.632 529.473 300.446 530.117 296.34C531.244 296.742 532.21 297.547 532.614 298.755L534.627 304.31C535.433 306.403 534.387 308.738 532.292 309.462Z" fill="white"/>
</g>
</g>
</g>
<g opacity="0.3">
<g opacity="0.3">
<g opacity="0.3">
<path opacity="0.3" d="M583.758 286.035C583.194 286.035 582.631 285.874 582.067 285.632L576.752 283.136C574.739 282.17 573.852 279.755 574.819 277.742C575.786 275.73 578.202 274.844 580.215 275.811L585.531 278.307C587.544 279.273 588.43 281.688 587.463 283.7C586.737 285.149 585.288 286.035 583.758 286.035Z" fill="white"/>
</g>
<g opacity="0.3">
<path opacity="0.3" d="M599.785 253.27L598.335 256.49C597.691 257.939 596.242 258.826 594.711 258.826C594.147 258.826 593.584 258.745 593.02 258.504C591.006 257.618 590.12 255.203 591.006 253.191L591.811 251.42L599.785 253.27Z" fill="white"/>
</g>
<g opacity="0.3">
<path opacity="0.3" d="M618.954 291.751L618.31 297.145C617.907 297.467 617.504 297.789 617.021 297.95C616.538 298.111 616.055 298.191 615.653 298.191C614.042 298.191 612.431 297.225 611.867 295.534L609.854 290.06C609.049 287.967 610.176 285.632 612.271 284.908C614.364 284.103 616.7 285.23 617.425 287.324L618.954 291.751Z" fill="white"/>
</g>
</g>
</g>
</g>
</g>
<path d="M575.139 316.306C579.086 341.826 585.932 382.723 572.078 403.976C558.225 425.229 581.582 473.533 573.528 497.684C565.474 521.835 584.482 562.168 581.985 581.088L603.811 415.005L575.139 316.306Z" fill="#2B2B2B"/>
<path d="M673.077 429.577C671.789 421.929 670.661 414.281 669.533 406.634L665.989 383.69C665.989 383.69 635.545 255.203 636.995 239.666L538.977 229.765C537.931 242.082 547.112 258.022 561.77 266.636L562.011 270.581L562.978 282.174C563.3 286.038 563.702 289.903 564.105 293.767C564.588 297.632 564.91 301.496 565.474 305.28C567.326 320.657 569.581 336.032 572.159 351.248L573.125 356.964L574.172 362.679L576.185 374.111C577.634 381.76 579.004 389.327 580.615 396.974L582.951 408.406L585.448 419.758C587.058 427.326 588.75 434.893 590.683 442.46C598.173 472.649 606.389 502.678 615.409 532.627C620 547.601 624.751 562.494 629.825 577.388L633.691 588.498L635.624 594.052L637.717 599.607C639.086 603.31 640.456 607.014 641.825 610.717C643.274 614.42 644.644 618.124 646.254 621.747L696.27 595.502L673.077 429.577Z" fill="url(#paint3_linear)"/>
<g opacity="0.3">
<g opacity="0.3">
<g opacity="0.3">
<g opacity="0.3">
<g opacity="0.3">
<path opacity="0.3" d="M649.881 585.114C649.317 585.114 648.754 585.033 648.19 584.711L642.794 582.215C640.78 581.249 639.894 578.914 640.862 576.902C641.828 574.89 644.164 574.004 646.177 574.97L651.573 577.467C653.586 578.432 654.473 580.768 653.505 582.78C652.861 584.228 651.412 585.114 649.881 585.114Z" fill="white"/>
</g>
<g opacity="0.3">
<path opacity="0.3" d="M692.649 569.656C692.488 569.656 692.407 569.656 692.246 569.656C690.636 569.656 689.024 568.61 688.461 566.999C687.736 564.906 688.783 562.571 690.877 561.847L691.522 561.605L692.649 569.656Z" fill="white"/>
</g>
<g opacity="0.3">
<path opacity="0.3" d="M660.674 557.902C660.11 557.902 659.547 557.741 658.983 557.5C656.97 556.534 656.083 554.118 657.05 552.106L659.548 546.793C660.514 544.781 662.931 543.895 664.944 544.862C666.957 545.827 667.843 548.243 666.876 550.255L664.379 555.568C663.654 557.017 662.204 557.902 660.674 557.902Z" fill="white"/>
</g>
<g opacity="0.3">
<path opacity="0.3" d="M681.695 597.35C680.085 597.35 678.473 596.304 677.909 594.693L675.896 589.139C675.172 587.046 676.218 584.711 678.313 583.987C680.408 583.262 682.743 584.309 683.467 586.402L685.48 591.957C686.205 594.049 685.158 596.385 683.064 597.109C682.581 597.27 682.178 597.35 681.695 597.35Z" fill="white"/>
</g>
</g>
<g opacity="0.3">
<g opacity="0.3">
<path opacity="0.3" d="M664.379 610.553L663.332 612.728L655.278 616.914C654.151 615.787 653.829 613.935 654.553 612.406L657.05 607.093C658.017 605.08 660.433 604.194 662.446 605.161C664.459 606.126 665.345 608.541 664.379 610.553Z" fill="white"/>
</g>
</g>
</g>
</g>
<g opacity="0.3">
<g opacity="0.3">
<g opacity="0.3">
<g opacity="0.3">
<path opacity="0.3" d="M610.256 455.741C608.645 455.741 607.034 454.695 606.47 453.084C605.665 450.991 606.792 448.656 608.887 447.932L614.363 445.92C616.457 445.115 618.793 446.242 619.517 448.335C620.323 450.428 619.195 452.763 617.101 453.487L611.624 455.499C611.222 455.66 610.739 455.741 610.256 455.741Z" fill="white"/>
</g>
<g opacity="0.3">
<path opacity="0.3" d="M631.679 487.541C631.116 487.541 630.552 487.46 629.988 487.138C627.975 486.173 627.089 483.838 628.056 481.825L630.553 476.432C631.519 474.42 633.855 473.533 635.868 474.5C637.881 475.466 638.768 477.801 637.801 479.813L635.304 485.207C634.66 486.654 633.209 487.541 631.679 487.541Z" fill="white"/>
</g>
<g opacity="0.3">
<path opacity="0.3" d="M601.235 483.032C600.027 478.604 598.899 474.257 597.691 469.829C599.302 469.829 600.833 470.875 601.396 472.486L603.409 477.96C604.134 479.973 603.168 482.146 601.235 483.032Z" fill="white"/>
</g>
</g>
<g opacity="0.3">
<g opacity="0.3">
<path opacity="0.3" d="M614.766 513.785L610.336 515.395C609.611 512.818 608.806 510.243 608.08 507.666L612.027 506.218C614.121 505.493 616.457 506.54 617.181 508.633C617.907 510.726 616.859 513.061 614.766 513.785Z" fill="white"/>
</g>
<g opacity="0.3">
<path opacity="0.3" d="M629.263 547.758C628.699 547.758 628.135 547.597 627.572 547.356C625.559 546.39 624.672 543.974 625.639 541.962L628.136 536.649C629.103 534.637 631.519 533.751 633.532 534.718C635.545 535.683 636.432 538.099 635.465 540.111L632.968 545.424C632.243 546.873 630.794 547.758 629.263 547.758Z" fill="white"/>
</g>
</g>
</g>
<g opacity="0.3">
<g opacity="0.3">
<g opacity="0.3">
<path opacity="0.3" d="M652.539 459.686C651.976 459.686 651.412 459.525 650.848 459.283L645.533 456.787C643.519 455.822 642.633 453.406 643.6 451.394C644.567 449.382 646.983 448.495 648.996 449.462L654.312 451.958C656.325 452.924 657.212 455.34 656.244 457.352C655.52 458.801 654.069 459.686 652.539 459.686Z" fill="white"/>
</g>
<g opacity="0.3">
<path opacity="0.3" d="M663.331 432.475C662.767 432.475 662.204 432.314 661.64 432.072C659.627 431.106 658.74 428.691 659.708 426.679L662.205 421.365C663.171 419.353 665.588 418.467 667.601 419.434C669.614 420.401 670.501 422.815 669.533 424.827L667.036 430.14C666.311 431.589 664.862 432.475 663.331 432.475Z" fill="white"/>
</g>
</g>
<g opacity="0.3">
<g opacity="0.3">
<path opacity="0.3" d="M650.123 519.984C649.559 519.984 648.995 519.823 648.432 519.582L643.116 517.086C641.103 516.12 640.217 513.704 641.184 511.692C642.15 509.68 644.567 508.794 646.58 509.761L651.895 512.257C653.908 513.222 654.795 515.638 653.828 517.65C653.103 519.099 651.654 519.984 650.123 519.984Z" fill="white"/>
</g>
<g opacity="0.3">
<path opacity="0.3" d="M660.915 492.774C660.352 492.774 659.788 492.613 659.225 492.371C657.212 491.406 656.325 488.99 657.292 486.978L659.789 481.665C660.756 479.653 663.172 478.766 665.185 479.733C667.198 480.699 668.085 483.115 667.118 485.127L664.62 490.44C663.896 491.888 662.445 492.774 660.915 492.774Z" fill="white"/>
</g>
<g opacity="0.3">
<path opacity="0.3" d="M681.936 532.14C680.326 532.14 678.715 531.094 678.151 529.483L676.138 524.009C675.333 521.917 676.46 519.582 678.555 518.857C680.648 518.052 682.984 519.179 683.709 521.273L685.722 526.747C686.527 528.839 685.4 531.175 683.305 531.899C682.903 532.06 682.42 532.14 681.936 532.14Z" fill="white"/>
</g>
</g>
</g>
</g>
<g opacity="0.3">
<g opacity="0.3">
<g opacity="0.3">
<g opacity="0.3">
<path opacity="0.3" d="M574.173 343.436C573.609 344.644 572.482 345.449 571.193 345.691C570.71 342.793 570.226 339.895 569.824 336.997L572.241 338.123C574.254 339.009 575.139 341.424 574.173 343.436Z" fill="white"/>
</g>
<g opacity="0.3">
<path opacity="0.3" d="M612.913 330.314C611.302 330.314 609.691 329.268 609.127 327.657C608.403 325.564 609.449 323.229 611.544 322.505L617.101 320.493C619.194 319.768 621.53 320.814 622.255 322.908C622.98 325.001 621.933 327.336 619.838 328.06L614.282 330.072C613.8 330.233 613.397 330.314 612.913 330.314Z" fill="white"/>
</g>
<g opacity="0.3">
<path opacity="0.3" d="M581.341 318.56C580.778 318.56 580.214 318.399 579.651 318.158C577.638 317.192 576.751 314.776 577.718 312.764L580.215 307.451C581.182 305.439 583.598 304.552 585.611 305.519C587.624 306.485 588.511 308.901 587.544 310.913L585.047 316.226C584.322 317.675 582.871 318.56 581.341 318.56Z" fill="white"/>
</g>
<g opacity="0.3">
<path opacity="0.3" d="M634.338 362.114C633.774 362.114 633.21 362.034 632.647 361.712C630.634 360.746 629.747 358.411 630.714 356.399L633.211 351.005C634.178 348.993 636.514 348.107 638.527 349.074C640.541 350.039 641.426 352.374 640.459 354.387L637.962 359.78C637.317 361.228 635.867 362.114 634.338 362.114Z" fill="white"/>
</g>
<g opacity="0.3">
<path opacity="0.3" d="M602.282 357.928C600.672 357.928 599.06 356.882 598.496 355.271L596.482 349.797C595.677 347.704 596.804 345.369 598.899 344.645C600.992 343.84 603.329 344.967 604.053 347.06L606.067 352.534C606.873 354.627 605.745 356.962 603.651 357.687C603.248 357.847 602.765 357.928 602.282 357.928Z" fill="white"/>
</g>
</g>
<g opacity="0.3">
<g opacity="0.3">
<path opacity="0.3" d="M610.497 390.612C608.887 390.612 607.275 389.566 606.712 387.955C605.987 385.862 607.034 383.527 609.128 382.803L614.685 380.791C616.779 380.067 619.115 381.113 619.84 383.207C620.564 385.299 619.517 387.634 617.423 388.359L611.866 390.371C611.383 390.532 610.98 390.612 610.497 390.612Z" fill="white"/>
</g>
<g opacity="0.3">
<path opacity="0.3" d="M585.046 371.211L582.549 376.524C581.825 377.973 580.374 378.859 578.925 378.859C578.361 378.859 577.797 378.698 577.234 378.457C577.153 378.457 577.073 378.376 576.992 378.376C576.751 376.928 576.429 375.558 576.187 374.11L575.784 372.017L577.797 367.831C578.764 365.819 581.18 364.932 583.193 365.899C585.127 366.864 586.013 369.198 585.046 371.211Z" fill="white"/>
</g>
<g opacity="0.3">
<path opacity="0.3" d="M631.921 422.332C631.357 422.332 630.794 422.171 630.23 421.93C628.217 420.964 627.33 418.548 628.297 416.536L630.795 411.223C631.761 409.211 634.178 408.324 636.191 409.291C638.204 410.257 639.09 412.673 638.123 414.685L635.626 419.998C634.901 421.447 633.451 422.332 631.921 422.332Z" fill="white"/>
</g>
<g opacity="0.3">
<path opacity="0.3" d="M599.946 418.226C598.335 418.226 596.724 417.18 596.16 415.569L594.147 410.014C593.423 407.922 594.469 405.587 596.564 404.862C598.657 404.138 600.994 405.184 601.718 407.278L603.731 412.832C604.456 414.925 603.409 417.26 601.315 417.984C600.833 418.145 600.429 418.226 599.946 418.226Z" fill="white"/>
</g>
</g>
</g>
<g opacity="0.3">
<g opacity="0.3">
<g opacity="0.3">
<path opacity="0.3" d="M654.633 334.178C654.23 334.178 653.828 334.017 653.505 333.856L648.19 331.36C646.177 330.394 645.29 327.979 646.258 325.967C647.224 323.954 649.641 323.068 651.654 324.035L652.539 324.437C653.183 327.818 653.908 331.038 654.633 334.178Z" fill="white"/>
</g>
</g>
<g opacity="0.3">
<g opacity="0.3">
<path opacity="0.3" d="M652.781 394.556C652.217 394.556 651.654 394.396 651.09 394.154L645.775 391.658C643.762 390.692 642.875 388.277 643.842 386.264C644.808 384.252 647.225 383.366 649.238 384.333L654.553 386.829C656.566 387.795 657.453 390.21 656.486 392.222C655.761 393.671 654.311 394.556 652.781 394.556Z" fill="white"/>
</g>
<g opacity="0.3">
<path opacity="0.3" d="M662.123 367.024C662.043 367.024 661.962 366.944 661.882 366.944C659.869 365.978 658.982 363.563 659.949 361.55L660.593 360.263C661.077 362.677 661.64 364.931 662.123 367.024Z" fill="white"/>
</g>
</g>
</g>
</g>
<g opacity="0.3">
<g opacity="0.3">
<g opacity="0.3">
<g opacity="0.3">
<path opacity="0.3" d="M574.415 278.308C573.77 279.757 572.321 280.643 570.79 280.643C570.226 280.643 569.663 280.482 569.099 280.24L563.784 277.744C563.301 277.503 562.898 277.181 562.576 276.859L562.173 271.868C563.301 270.258 565.395 269.613 567.247 270.419L572.563 272.915C574.495 273.879 575.382 276.295 574.415 278.308Z" fill="white"/>
</g>
<g opacity="0.3">
<path opacity="0.3" d="M613.155 265.184C611.545 265.184 609.934 264.138 609.37 262.527C608.645 260.435 609.692 258.1 611.787 257.375L617.343 255.363C619.437 254.639 621.773 255.685 622.498 257.779C623.222 259.871 622.176 262.206 620.081 262.931L614.524 264.943C614.041 265.104 613.638 265.184 613.155 265.184Z" fill="white"/>
</g>
<g opacity="0.3">
<path opacity="0.3" d="M581.583 253.432C581.019 253.432 580.456 253.351 579.892 253.029C577.879 252.063 576.992 249.728 577.96 247.716L580.457 242.323C581.423 240.31 583.759 239.424 585.772 240.391C587.786 241.357 588.672 243.692 587.705 245.704L585.207 251.098C584.563 252.545 583.113 253.432 581.583 253.432Z" fill="white"/>
</g>
<g opacity="0.3">
<path opacity="0.3" d="M634.579 296.904C634.015 296.904 633.452 296.743 632.888 296.502C630.874 295.536 629.988 293.12 630.956 291.108L633.453 285.795C634.419 283.783 636.836 282.897 638.849 283.864C640.863 284.829 641.749 287.245 640.781 289.257L638.284 294.57C637.558 296.019 636.109 296.904 634.579 296.904Z" fill="white"/>
</g>
<g opacity="0.3">
<path opacity="0.3" d="M602.604 292.798C600.994 292.798 599.382 291.752 598.819 290.141L596.805 284.587C596.081 282.494 597.128 280.159 599.222 279.434C601.316 278.71 603.652 279.756 604.377 281.85L606.39 287.405C607.114 289.498 606.067 291.832 603.973 292.557C603.49 292.718 603.087 292.798 602.604 292.798Z" fill="white"/>
</g>
</g>
</g>
</g>
</g>
<path d="M623.061 63.5184C637.251 63.5184 648.754 52.0206 648.754 37.8373C648.754 23.6541 637.251 12.1562 623.061 12.1562C608.872 12.1562 597.369 23.6541 597.369 37.8373C597.369 52.0206 608.872 63.5184 623.061 63.5184Z" fill="#EA7068"/>
<path d="M598.496 81.9536C610.462 81.9536 620.162 72.258 620.162 60.2978C620.162 48.3377 610.462 38.6421 598.496 38.6421C586.531 38.6421 576.831 48.3377 576.831 60.2978C576.831 72.258 586.531 81.9536 598.496 81.9536Z" fill="#2B2B2B"/>
<path d="M576.026 121.08L596.725 121.805C607.437 122.207 616.458 113.834 616.78 103.128L617.907 71.9727C618.471 54.8251 605.101 40.4945 587.946 39.8507C570.791 39.2873 556.454 52.651 555.81 69.7985L554.844 98.3781C554.36 110.453 563.864 120.597 576.026 121.08Z" fill="#FDC068"/>
<path d="M558.306 78.6538C558.306 80.4245 557.018 81.8743 555.407 82.1157L555.648 75.1919C557.179 75.5943 558.306 76.9626 558.306 78.6538Z" fill="#2B2B2B"/>
<path d="M591.087 156.986L615.813 148.855C617.101 148.452 617.987 147.164 617.987 145.795L617.262 89.0384L584.24 87.9116L579.005 147.485C578.442 154.007 584.805 159.078 591.087 156.986Z" fill="#FDC068"/>
<path d="M562.979 89.5216C562.818 89.5216 562.576 89.4411 562.415 89.3607L559.515 87.5095C558.791 86.9461 558.388 86.0608 558.307 85.1744C558.227 84.289 558.549 83.4037 559.113 82.6783L563.703 77.6067C564.106 77.2042 564.67 77.2042 565.153 77.5262C565.555 77.9286 565.555 78.492 565.233 78.9749L560.642 84.0465C560.401 84.3684 560.24 84.6904 560.32 85.0928C560.32 85.4147 560.481 85.8172 560.804 86.0586L563.542 87.7488C564.025 88.0707 564.186 88.6341 563.864 89.117C563.623 89.3607 563.301 89.5216 562.979 89.5216Z" fill="#2B2B2B"/>
<path d="M566.119 101.195C565.797 101.195 565.394 101.195 565.072 101.115C562.253 100.551 560.884 97.9747 560.803 97.8942C560.562 97.4113 560.723 96.7674 561.206 96.526C561.689 96.2845 562.333 96.4455 562.575 96.9284C562.575 96.9284 563.622 98.7795 565.475 99.1026C566.844 99.344 568.374 98.7806 569.985 97.4124C570.387 97.0905 571.032 97.0904 571.434 97.5734C571.756 97.9758 571.756 98.6197 571.273 99.0221C569.502 100.471 567.73 101.195 566.119 101.195Z" fill="#2B2B2B"/>
<path d="M581.341 121.241L594.792 121.724L580.214 134.524L581.341 121.241Z" fill="#2B2B2B"/>
<path d="M574.898 83.0819C576.855 83.0819 578.442 81.4959 578.442 79.5395C578.442 77.5831 576.855 75.9971 574.898 75.9971C572.94 75.9971 571.354 77.5831 571.354 79.5395C571.354 81.4959 572.94 83.0819 574.898 83.0819Z" fill="#2B2B2B"/>
<path d="M474.383 649.919L566.119 649.597C570.951 649.597 574.817 645.733 574.898 640.903L575.139 629.31L517.15 630.114L473.256 641.144C468.102 642.433 469.068 650 474.383 649.919Z" fill="#2B2B2B"/>
<path d="M612.913 649.919L632.243 649.839L697.079 617.717C701.347 615.624 703.199 610.39 701.186 606.043L696.273 595.498L644.567 621.742L628.861 636.797L611.787 641.064C606.712 642.433 607.678 650 612.913 649.919Z" fill="#2B2B2B"/>
<path d="M506.278 350.842L493.713 360.261C484.29 367.346 470.921 365.494 463.833 356.075C457.389 347.542 458.357 335.707 465.685 328.3L480.262 313.487" fill="#FDC068"/>
<path d="M480.183 313.488L543.326 249.165L537.045 256.974L585.45 170.591C593.424 156.342 611.464 151.269 625.721 159.24C639.976 167.21 645.051 185.243 637.077 199.493L588.672 285.875L587.786 287.485C586.417 289.981 584.484 292.074 582.39 293.683L506.36 350.923L480.183 313.488Z" fill="url(#paint4_linear)"/>
<path d="M616.215 237.813C616.054 237.813 615.812 237.733 615.651 237.652C615.088 237.33 614.846 236.606 615.168 236.042L636.028 198.849C636.35 198.285 637.075 198.044 637.639 198.366C638.202 198.688 638.444 199.412 638.122 199.976L617.262 237.169C617.02 237.572 616.618 237.813 616.215 237.813Z" fill="#2B2B2B"/>
<path d="M551.622 231.372C551.381 231.372 551.22 231.291 551.058 231.211C550.495 230.889 550.253 230.165 550.575 229.601L578.684 180.734C579.006 180.171 579.731 179.929 580.295 180.251C580.858 180.573 581.1 181.297 580.778 181.861L552.669 230.728C552.427 231.13 552.025 231.372 551.622 231.372Z" fill="#2B2B2B"/>
<path d="M555.81 69.718L567.489 56.8372L574.335 63.1172C580.134 68.5107 584.402 75.3541 586.497 83.0023C588.833 91.3748 591.571 101.357 591.732 101.759C597.369 117.619 606.552 122.852 620.485 122.852H627.653L618.23 69.7985C618.23 53.0533 603.895 39.5287 587.142 39.5287H586.176C569.421 39.4471 555.81 52.9728 555.81 69.718Z" fill="#EA7068"/>
<path d="M596.967 468.702C596.403 468.702 595.92 468.38 595.839 467.817C588.993 442.216 571.838 356.477 567.811 331.199C567.73 330.555 568.133 329.911 568.777 329.831C569.421 329.75 570.065 330.152 570.146 330.796C574.173 356.075 591.328 441.733 598.174 467.253C598.335 467.897 597.933 468.541 597.289 468.702C597.208 468.702 597.047 468.702 596.967 468.702Z" fill="#2B2B2B"/>
<path d="M222.694 205.047C219.875 173.327 198.21 176.709 204.734 154.651C211.258 132.673 198.936 103.611 174.612 105.703C155.847 107.393 154.477 106.669 146.584 107.393C139.013 108.037 123.791 117.376 118.072 121.159C104.703 129.934 109.374 143.54 115.817 159.882C115.817 159.882 103.011 152.314 103.494 159.48C103.977 166.645 106.071 194.741 108.004 216.478L222.694 205.047Z" fill="#8670BD"/>
<path d="M222.292 209.153C226.077 225.737 228.816 256.329 231.232 273.074C233.648 289.819 235.581 306.564 237.272 323.39L238.399 336.029L238.962 342.308L239.446 348.587L240.412 361.226L241.217 373.865L241.62 380.226L241.942 386.586L242.586 399.226C243.149 407.679 242.827 416.132 242.747 424.585C242.183 458.477 240.975 492.45 238.8 526.424L237.995 539.143L237.029 551.863C236.707 556.13 236.304 560.397 235.982 564.583L235.419 570.943L234.774 577.304L233.486 590.024C233.244 592.116 233.083 594.291 232.842 596.384L232.117 602.745C231.634 607.011 231.151 611.278 230.587 615.464C230.024 619.731 229.46 623.998 228.735 628.184L167.846 632.049L155.04 432.073C154.316 415.328 151.98 398.824 150.128 382.24L144.41 332.488L133.053 233.063L222.292 209.153Z" fill="url(#paint5_linear)"/>
<path d="M178.72 324.518C187.982 393.269 173.726 406.151 182.183 456.063C191.042 508.149 165.914 536.89 165.27 594.452L149.081 361.63L178.72 324.518Z" fill="#2B2B2B"/>
<path d="M204.009 242C200.949 259.308 196.76 276.295 192.331 293.281C187.821 310.187 182.908 327.013 177.672 343.678C172.437 360.423 166.718 377.007 160.919 393.51L142.879 443.021C130.798 476.029 64.3515 630.519 60.2439 638.489L0.161039 630.036L58.553 420.158C60.9696 411.705 63.3047 403.252 65.7214 394.799L73.1313 369.521L101.884 276.859L107.925 216.561L204.009 242Z" fill="url(#paint6_linear)"/>
<path d="M107.924 216.56C109.374 233.305 125.482 253.673 154.638 251.338L178.156 248.681C204.734 246.588 224.064 220.986 222.454 202.954L107.924 216.56Z" fill="url(#paint7_linear)"/>
<path d="M183.149 87.3484L161.162 88.1532C149.806 88.5557 140.222 79.6197 139.819 68.2681L138.692 35.0998C137.967 16.8255 152.222 1.52912 170.425 0.885248C188.627 0.241372 203.93 14.4904 204.574 32.6853L205.621 63.116C206.103 76.0773 196.036 86.946 183.149 87.3484Z" fill="#EA7068"/>
<path d="M205.056 45.8879C203.365 45.566 201.995 44.0368 201.995 42.2651C201.995 40.5749 203.203 39.1251 204.815 38.7227L205.056 45.8879Z" fill="#2B2B2B"/>
<path d="M138.449 116.17L191.042 148.453L179.927 106.992L138.449 116.17Z" fill="white"/>
<path d="M167.122 125.588L138.53 116.169L139.254 53.2947L174.369 52.0874L179.926 115.445C180.491 122.448 173.726 127.762 167.122 125.588Z" fill="#EA7068"/>
<path d="M197.002 53.9386C196.68 53.9386 196.277 53.7776 196.116 53.4557C195.794 52.9728 195.955 52.3289 196.438 52.007L199.338 50.1559C199.66 49.9144 199.821 49.512 199.821 49.1096C199.821 48.7071 199.741 48.3047 199.419 47.9828L194.506 42.5892C194.103 42.1868 194.103 41.4624 194.586 41.06C194.989 40.6576 195.714 40.6576 196.116 41.1405L201.029 46.5341C201.673 47.2584 201.995 48.2242 201.995 49.1911C201.915 50.1569 201.512 51.1228 200.707 51.7677L200.626 51.8482L197.646 53.7798C197.405 53.9386 197.163 53.9386 197.002 53.9386Z" fill="#2B2B2B"/>
<path d="M177.43 87.5899L163.417 85.6572L178.72 101.758L177.43 87.5899Z" fill="#2B2B2B"/>
<path d="M184.277 46.854C186.323 46.854 187.982 45.196 187.982 43.1506C187.982 41.1053 186.323 39.4473 184.277 39.4473C182.23 39.4473 180.572 41.1053 180.572 43.1506C180.572 45.196 182.23 46.854 184.277 46.854Z" fill="#2B2B2B"/>
<path d="M274.805 650L177.19 649.597C172.116 649.597 167.928 645.492 167.847 640.42L167.606 628.103L229.3 628.988L276.013 640.661C281.408 641.949 280.361 650 274.805 650Z" fill="#2B2B2B"/>
<path d="M107.2 650L9.66561 649.598C4.59179 649.598 0.403686 645.492 0.323166 640.42L0 628.022L61.6943 628.908L108.408 640.581C113.804 641.95 112.837 650 107.2 650Z" fill="#2B2B2B"/>
<path d="M232.36 231.292L257.65 233.304C270.133 234.269 279.476 245.219 278.51 257.777C277.624 269.049 268.603 277.743 257.65 278.628L232.279 280.64" fill="#EA7068"/>
<path d="M106.797 192.247C112.435 207.543 114.61 275.651 114.61 275.651C114.61 290.223 127.577 301.332 141.994 299.078L228.495 280.643C228.495 280.643 153.512 245.382 153.109 245.865C152.704 246.347 115.979 209.153 106.797 192.247Z" fill="#2B2B2B"/>
<path d="M232.279 280.642L146.826 287.404C131.443 288.612 117.993 277.583 115.98 262.528L115.658 260.113L101.644 153.12C99.3883 135.892 111.55 120.113 128.705 117.86C145.941 115.605 161.727 127.761 163.981 144.909L178.076 251.901L146.907 224.529L232.44 231.292" fill="#8670BD"/>
<path d="M171.31 32.2025L204.573 30.3513L207.231 24.4749C212.386 12.9613 204.009 0 191.365 0H146.906C136.354 0 128.221 9.33837 129.751 19.8046L138.852 83.7256L157.94 49.189L159.148 68.3498H159.229L159.47 78.0906C159.631 83.4841 164.061 87.7509 169.457 87.7509L183.068 87.6704C195.391 87.6704 205.297 77.6882 205.297 65.4513V59.4932C205.297 56.5947 202.96 54.1802 200.062 54.1802C197.404 54.1802 194.102 54.1802 191.363 54.1802C187.9 54.1802 184.598 56.0313 182.826 59.0103L182.746 59.1713C180.974 62.0698 177.833 63.8405 174.45 63.8405L170.503 63.921C167.362 63.921 164.785 61.5053 164.705 58.4469L163.9 40.6555C163.658 36.1473 166.961 32.4439 171.31 32.2025Z" fill="#2B2B2B"/>
<path d="M190.559 63.921C190.559 70.2009 200.063 69.556 200.063 63.0356L190.559 63.921Z" fill="white"/>
<path d="M159.229 63.2772L153.833 63.6796C150.852 63.9211 148.195 61.6675 148.034 58.608L147.47 50.155C147.229 47.176 149.483 44.52 152.544 44.359C155.525 44.1176 158.182 46.3711 158.343 49.4306L159.229 63.2772Z" fill="#EA7068"/>
<path d="M222.533 204.323C221.889 204.323 221.406 203.84 221.325 203.276C219.796 188.543 202.802 160.528 202.641 160.206C202.318 159.643 202.479 158.919 203.043 158.516C203.607 158.194 204.331 158.355 204.734 158.919C205.459 160.045 222.131 187.659 223.742 202.956C223.823 203.599 223.34 204.243 222.695 204.243C222.614 204.323 222.614 204.323 222.533 204.323Z" fill="#2B2B2B"/>
<path d="M171.954 208.75C171.39 208.75 170.827 208.267 170.746 207.704L166.961 177.112C166.88 176.468 167.363 175.825 168.007 175.744C168.651 175.664 169.296 176.147 169.376 176.79L173.162 207.382C173.242 208.026 172.759 208.67 172.115 208.75C172.034 208.75 172.034 208.75 171.954 208.75Z" fill="#2B2B2B"/>
<path d="M153.108 416.132C152.947 416.132 152.786 416.132 152.705 416.051C152.061 415.81 151.739 415.086 151.981 414.522C172.197 361.388 189.674 298.433 189.915 297.789C190.076 297.145 190.72 296.743 191.365 296.984C192.009 297.145 192.411 297.789 192.17 298.433C192.009 299.077 174.451 362.113 154.235 415.327C154.074 415.81 153.591 416.132 153.108 416.132Z" fill="#2B2B2B"/>
<defs>
<linearGradient id="paint0_linear" x1="517.427" y1="143.757" x2="517.427" y2="325.912" gradientUnits="userSpaceOnUse">
<stop stop-color="#F48B94"/>
<stop offset="0.405" stop-color="#F4A9A6"/>
<stop offset="0.4989" stop-color="#FED3B5"/>
<stop offset="0.599" stop-color="#DBECC2"/>
<stop offset="1" stop-color="#98C5AD"/>
</linearGradient>
<linearGradient id="paint1_linear" x1="590.391" y1="143.756" x2="590.391" y2="325.912" gradientUnits="userSpaceOnUse">
<stop stop-color="#F48B94"/>
<stop offset="0.405" stop-color="#F4A9A6"/>
<stop offset="0.4989" stop-color="#FED3B5"/>
<stop offset="0.599" stop-color="#DBECC2"/>
<stop offset="1" stop-color="#98C5AD"/>
</linearGradient>
<linearGradient id="paint2_linear" x1="568.888" y1="249.486" x2="568.888" y2="638.603" gradientUnits="userSpaceOnUse">
<stop stop-color="#77879D"/>
<stop offset="0.0893" stop-color="#A1978E"/>
<stop offset="0.1883" stop-color="#C9A780"/>
<stop offset="0.2791" stop-color="#E5B275"/>
<stop offset="0.3578" stop-color="#F7B96F"/>
<stop offset="0.4155" stop-color="#FDBB6D"/>
<stop offset="0.4989" stop-color="#FDBB9F"/>
<stop offset="0.599" stop-color="#D1D2D1"/>
<stop offset="1" stop-color="#FECEAA"/>
</linearGradient>
<linearGradient id="paint3_linear" x1="617.584" y1="249.486" x2="617.584" y2="638.603" gradientUnits="userSpaceOnUse">
<stop stop-color="#77879D"/>
<stop offset="0.0893" stop-color="#A1978E"/>
<stop offset="0.1883" stop-color="#C9A780"/>
<stop offset="0.2791" stop-color="#E5B275"/>
<stop offset="0.3578" stop-color="#F7B96F"/>
<stop offset="0.4155" stop-color="#FDBB6D"/>
<stop offset="0.4989" stop-color="#FDBB9F"/>
<stop offset="0.599" stop-color="#D1D2D1"/>
<stop offset="1" stop-color="#FECEAA"/>
</linearGradient>
<linearGradient id="paint4_linear" x1="560.516" y1="143.757" x2="560.516" y2="325.912" gradientUnits="userSpaceOnUse">
<stop stop-color="#F48B94"/>
<stop offset="0.405" stop-color="#F4A9A6"/>
<stop offset="0.4989" stop-color="#FED3B5"/>
<stop offset="0.599" stop-color="#DBECC2"/>
<stop offset="1" stop-color="#98C5AD"/>
</linearGradient>
<linearGradient id="paint5_linear" x1="187.983" y1="626.251" x2="187.983" y2="241.412" gradientUnits="userSpaceOnUse">
<stop stop-color="#D96359"/>
<stop offset="0.3215" stop-color="#90979D"/>
<stop offset="0.5011" stop-color="#7E9DAE"/>
<stop offset="0.6828" stop-color="#A3AAE1"/>
<stop offset="1" stop-color="#D2D4D4"/>
</linearGradient>
<linearGradient id="paint6_linear" x1="98.8313" y1="626.153" x2="98.8313" y2="240.144" gradientUnits="userSpaceOnUse">
<stop stop-color="#D96359"/>
<stop offset="0.3215" stop-color="#90979D"/>
<stop offset="0.5011" stop-color="#7E9DAE"/>
<stop offset="0.6828" stop-color="#A3AAE1"/>
<stop offset="1" stop-color="#D2D4D4"/>
</linearGradient>
<linearGradient id="paint7_linear" x1="165.235" y1="626.445" x2="165.235" y2="241.43" gradientUnits="userSpaceOnUse">
<stop stop-color="#D96359"/>
<stop offset="0.3215" stop-color="#90979D"/>
<stop offset="0.5011" stop-color="#7E9DAE"/>
<stop offset="0.6828" stop-color="#A3AAE1"/>
<stop offset="1" stop-color="#D2D4D4"/>
</linearGradient>
</defs>
</svg>
