<svg width="973" height="1040" viewBox="0 0 973 1040" fill="none" xmlns="http://www.w3.org/2000/svg">
<path fill-rule="evenodd" clip-rule="evenodd" d="M892.063 385.245C892.163 384.045 892.274 382.845 892.395 381.645C879.626 390.894 864.376 398.523 844.957 406.125C840.848 407.749 836.57 409.373 831.272 411.268L817.813 416.194C790.103 426.344 775.88 433.165 764.037 443.531C752.052 454.033 736.695 461.395 716.522 467.458C710.997 469.082 705.217 470.625 698.19 472.33L680.793 476.471C665.805 480.125 657.277 482.886 650.93 486.703C642.203 491.899 632.145 495.526 614.833 500.317C610.29 501.572 605.737 502.8 601.177 503.998C595.397 505.568 590.977 506.813 586.528 508.112C575.751 511.216 565.158 514.876 554.795 519.074C547.145 522.187 539.212 529.712 529.918 541.81C523.807 549.913 517.995 558.219 512.493 566.712C496.202 591.261 491.017 598.488 483.48 605.985C479.384 610.044 475.031 613.858 470.447 617.408C466.968 620.117 458.982 625.638 451.616 630.73C445.002 635.301 438.888 639.527 436.985 641.064C432.804 644.144 429.275 647.956 426.587 652.296C423.073 658.522 421.203 664.666 418.71 676.305C412.562 705.022 408.737 716.39 395.477 736.122C383.945 753.255 376.21 762.864 367.625 771.281C366.293 772.581 364.933 773.88 363.375 775.287L352.75 784.923C348.018 789.254 343.74 793.368 338.98 798.186C326.02 811.169 316.423 826.872 310.958 844.037C303.875 866.042 303.252 885.909 305.972 917.712C307.303 933.465 307.417 934.927 307.417 939.853C307.417 968.3 307.757 987.301 309.202 1009.63C309.41 1012.99 309.64 1016.28 309.892 1019.49C310.802 1020.09 311.719 1020.67 312.642 1021.24C310.877 998.628 310.25 971.603 310.25 939.853C310.25 934.818 310.137 933.357 308.777 917.496C306.113 886.017 306.737 866.421 313.678 844.822C319.004 828.055 328.369 812.713 341.02 800.026C345.752 795.263 350.03 791.175 354.705 786.899C355.191 786.457 356.068 785.663 357.124 784.707C359.95 782.15 364.051 778.438 365.33 777.236C366.787 775.903 368.222 774.55 369.637 773.176C378.392 764.623 386.24 754.879 397.857 737.583C411.372 717.5 415.282 705.888 421.487 676.846C423.923 665.451 425.737 659.523 429.08 653.569C431.007 650.185 434.152 646.856 438.798 643.121C440.606 641.682 446.45 637.641 452.877 633.198C460.355 628.028 468.62 622.313 472.232 619.519C477.077 615.729 481.468 611.913 485.548 607.88C493.255 600.166 498.468 592.885 514.902 568.173C520.358 559.728 526.123 551.467 532.185 543.407C541.252 531.687 548.902 524.434 555.9 521.564C565.817 517.504 575.903 514.067 587.35 510.684C594.492 508.583 601.671 506.598 608.883 504.729L615.627 502.916C633.165 498.071 643.422 494.362 652.403 488.976C658.467 485.376 666.797 482.67 681.502 479.097L698.898 474.956C705.982 473.25 711.79 471.708 717.372 470.03C737.885 463.885 753.61 456.334 765.963 445.534C777.438 435.465 791.463 428.753 818.833 418.738L832.292 413.812C837.59 411.863 841.897 410.266 846.033 408.642C864.648 401.336 879.511 394.006 892.063 385.245ZM360.384 1037.75C359.384 1037.6 358.388 1037.44 357.395 1037.28L354.818 1024.3C346.092 980.29 343.343 953.386 347.055 923.45C349.038 907.752 349.237 897.25 348.613 882.038C348.103 869.994 348.132 866.664 349.152 861.386C351.362 849.748 358.898 838.298 378.59 817.159C404.288 789.551 413.327 775.45 434.69 735.553C438.515 728.408 441.292 723.455 444.267 718.501C446.817 714.225 449.423 710.219 452.115 706.322C461.012 693.6 472.033 683.531 499.828 660.822C531.618 634.838 543.745 623.308 551.197 609.044C553.18 605.255 554.88 601.465 556.665 597.135C558.112 593.495 559.52 589.84 560.887 586.173C571.172 559.268 583.582 548.469 625.77 537.967C636.916 535.193 666.675 528.163 679.925 525.033C683.482 524.193 685.849 523.634 686.347 523.513C732.218 512.416 758.115 503.592 781.207 489.409L781.318 489.341C797.81 479.205 797.892 479.155 859.577 444.668L866.943 440.554C876.714 435.08 885.403 430.159 893.24 425.652C893.391 426.623 893.551 427.592 893.72 428.558C886.142 432.907 877.775 437.64 868.417 442.882L861.05 447.023C799.423 481.455 799.34 481.506 782.877 491.614L782.765 491.683C759.333 506.082 733.21 514.987 687.055 526.139C686.542 526.263 684.04 526.853 680.297 527.738C666.889 530.905 637.543 537.836 626.535 540.565C603.783 546.249 589.277 552.745 579.927 560.865C572.39 567.415 568.593 574.02 563.578 587.12L559.328 598.136C557.68 602.251 555.827 606.289 553.775 610.235C546.068 624.986 533.828 636.625 501.698 662.88C474.13 685.399 463.165 695.414 454.523 707.81C451.794 711.74 449.205 715.757 446.76 719.855C443.785 724.754 441.065 729.68 437.268 736.772C415.792 776.857 406.612 791.121 380.715 818.946C361.363 839.787 354.082 850.83 351.957 861.874C350.993 866.881 350.993 870.102 351.475 881.903C352.098 897.277 351.872 907.887 349.917 923.775C346.233 953.332 348.953 980.047 357.652 1023.79L360.384 1037.75ZM397.451 1039.68C396.473 1039.71 395.497 1039.73 394.522 1039.74C384.819 1006.79 383.917 1001.72 383.917 988.573C383.917 979.559 383.548 971.602 382.698 957.879C380.913 929.919 380.857 921.339 383.435 911.676C386.863 898.847 395.363 892.459 410.833 892.459H484.5C496.06 892.459 499.205 897.466 501.302 911.703C501.585 913.842 501.67 914.329 501.84 915.276C504.22 929.757 509.773 935.793 527 935.793C537.313 935.793 542.697 936.875 545.218 939.501C547.372 941.747 547.372 943.398 546.238 950.138C543.83 964.375 547.655 974.092 567.488 987.49C585.395 999.535 600.44 1002 614.38 996.611C625.147 992.443 633.448 985.352 648.153 969.545L651.27 966.216L654.358 962.886C656.838 960.243 659.388 957.662 662.008 955.145C669.94 947.695 679.101 941.54 689.123 936.929L689.124 936.929C693.43 934.872 693.997 934.601 705.16 929.811C722.443 922.422 730.688 917.631 738.423 909.186C745.875 901.066 751.655 896.059 757.407 892.838C766.417 887.831 772.877 887.073 796.167 887.073C813.11 887.073 826.087 875.38 847.167 846.5L855.157 835.592C858.16 831.532 860.653 828.284 863.062 825.334C885.212 798.124 917.54 797.196 949.518 827.325C949.155 828.239 948.787 829.149 948.414 830.057C948.334 829.979 948.255 829.903 948.175 829.827C917.15 800.189 886.522 800.919 865.272 827.012C862.92 829.908 860.455 833.129 857.48 837.162L849.518 848.043C827.843 877.681 814.442 889.779 796.167 889.779C773.387 889.779 767.238 890.483 758.852 895.193C753.412 898.224 747.802 903.042 740.577 910.973C732.473 919.796 723.945 924.75 706.322 932.301C700.942 934.494 695.631 936.841 690.398 939.338C680.64 943.816 671.718 949.796 663.992 957.04C660.31 960.568 656.766 964.224 653.367 968.002L650.25 971.358C635.29 987.463 626.762 994.744 615.457 999.102C600.553 1004.87 584.517 1002.27 565.873 989.682C545.105 975.689 540.883 964.916 543.433 949.705C544.397 943.967 544.397 942.668 543.15 941.314C541.337 939.447 536.52 938.499 527 938.499C508.215 938.499 501.613 931.381 499.035 915.709L498.468 912.082C496.57 899.036 494.133 895.193 484.5 895.193H410.833C396.667 895.193 389.3 900.714 386.183 912.353C383.69 921.637 383.775 930.136 385.532 957.717C386.285 967.987 386.691 978.277 386.75 988.573C386.75 1001.47 387.651 1006.49 397.451 1039.68ZM435.592 1036.81C434.652 1036.92 433.712 1037.02 432.773 1037.13C429.558 1020.96 428.836 1010.4 429.505 999.832C429.618 997.938 429.788 995.935 430.015 993.391L430.667 986.461C431.63 976.149 432.083 967.596 432.083 956.093C432.083 942.722 436.22 935.089 444.012 933.303C450.755 931.733 459.765 934.764 470.078 941.423C488.892 953.657 509.717 976.799 516.97 993.472C522.525 1006.2 530.273 1015.64 541.293 1022.34C540.006 1022.62 538.716 1022.88 537.425 1023.14C527.172 1016.28 519.77 1006.9 514.363 994.527C507.308 978.369 486.852 955.605 468.463 943.669C458.773 937.39 450.443 934.602 444.663 935.928C438.43 937.363 434.917 943.831 434.917 956.093C434.917 967.677 434.463 976.311 433.5 986.705L432.848 993.634C432.607 996.016 432.467 997.888 432.333 999.688L432.31 999.995C431.671 1010.37 432.382 1020.78 435.592 1036.81ZM909.722 890.387C899.141 880.244 884.734 883.39 865.215 902.907C849.207 918.876 835.352 928.62 822.007 934.033C811.863 938.174 804.638 939.42 789.14 940.638C769.616 942.164 757.788 944.918 744.011 953.735C741.45 954.354 738.897 954.988 736.354 955.639C753.38 943.197 766.081 939.724 788.488 937.958C804.128 936.74 811.098 935.522 820.902 931.57C833.878 926.292 847.422 916.738 863.118 901.012C883.617 880.56 899.791 877.046 911.665 888.421C911.022 889.084 910.375 889.74 909.722 890.387ZM970.499 729.051C970.422 730.017 970.343 730.982 970.261 731.946C968.813 731.281 967.27 730.625 965.628 729.978C951.235 724.321 947.155 716.877 951.773 707.133C953.643 703.209 956.845 698.959 961.747 693.573C963.484 691.658 968.57 686.394 972.22 682.634C972.22 683.965 972.217 685.297 972.209 686.629C968.933 690.012 965.281 693.803 963.872 695.332C959.14 700.556 956.08 704.616 954.352 708.243C950.47 716.471 953.7 722.372 966.705 727.461C968.027 727.984 969.292 728.514 970.499 729.051ZM965.064 598.143C960.773 598.915 955.868 601.404 950.498 605.688C941.035 613.212 924.007 614.024 878.872 611.669C867.478 610.93 856.064 610.524 844.645 610.451C821.043 610.451 808.633 605.255 794.297 591.721C792.905 590.419 789.129 586.631 785.262 582.752C781.495 578.972 777.641 575.107 775.823 573.37C769.222 567.064 762.648 564.005 755.48 563.653C748.595 563.274 745.45 564.14 730.093 569.608C718.902 573.587 711.705 575.292 702.978 575.292C688.812 575.292 680.227 580.028 670.367 591.261C668.525 593.372 662.065 601.113 661.3 602.034C657.892 606.119 654.221 609.997 650.307 613.645C645.974 617.652 641.27 621.276 636.253 624.472C617.412 636.435 609.337 647.424 600.27 669.132L598.683 673.03L597.833 675.032C596.43 678.516 594.975 681.981 593.47 685.426C590.58 692.003 587.718 697.904 584.318 703.913C576.158 718.393 563.862 726.161 537.228 736.528L526.122 740.777C521.532 742.537 518.018 743.944 514.505 745.379C505.523 749.06 497.788 752.633 490.422 756.693C482.847 760.818 475.636 765.525 468.86 770.767C423.413 806.035 416.5 816.699 416.5 851.345C416.5 868.397 425.793 875.001 442.878 872.727C454.693 871.158 458.887 869.669 497.93 854.674L500.027 853.889C509.462 850.262 513.598 850.479 514.845 852.806C516.063 855.161 515.837 858.599 514.137 868.505L513.457 872.727C511.048 888.913 513.797 897.764 526.83 900.038C538.588 902.068 546.068 899.171 552.33 892.405C552.554 892.149 553 891.627 553.531 891.005C554.742 889.585 556.399 887.643 556.892 887.154C559.187 884.907 561 885.557 567.573 893.623C574.6 902.23 575.223 909.186 572.758 925.02C571.2 934.954 570.888 939.257 571.937 944.779C573.325 952.222 577.405 958.61 585.055 964.429C598.032 974.39 615.882 967.244 642.317 946.782C646.663 943.403 650.952 939.956 655.18 936.442L669.12 924.831C674.277 920.608 678.272 917.469 681.87 914.816C690.342 908.591 696.377 905.478 700.145 905.478C710.77 905.478 719.893 899.767 733.635 887.127C749.983 872.105 752.278 870.291 756.812 870.291C759.358 870.325 761.889 870.661 764.348 871.293L767.182 871.915C777.807 873.945 786.562 870.075 804.157 853.266C810.702 847.041 816.113 840.193 824.897 827.824L829.203 821.734C840.678 805.602 847.818 797.076 857.112 789.741C868.629 780.353 883.34 775.309 898.478 775.558C951.972 775.558 958.658 750.034 920.125 719.368C905.108 707.404 900.008 697.471 903.182 690.758C906.072 684.695 916.045 680.825 929.645 680.825C946.65 680.825 961.957 672.468 971.862 659.818C971.766 656.633 971.652 653.457 971.522 650.293C963.166 665.077 947.378 675.411 929.645 675.411C914.09 675.411 902.048 680.067 898.025 688.512C893.492 698.039 899.782 710.192 916.498 723.509C951.235 751.171 946.277 770.145 898.478 770.145C882.016 769.891 866.021 775.376 853.485 785.573C843.682 793.341 836.287 802.165 824.528 818.702L820.222 824.792C811.637 836.864 806.367 843.495 800.133 849.45C783.757 865.094 776.702 868.207 768.315 866.583C767.816 866.507 767.655 866.471 766.911 866.305C766.598 866.236 766.182 866.143 765.595 866.015C761.94 865.23 759.73 864.878 756.812 864.878C752.732 864.878 748.51 866.962 743.382 870.995C741.398 872.538 739.33 874.351 736.667 876.76L729.697 883.229C717.003 894.922 708.758 900.065 700.145 900.065C694.677 900.065 687.877 903.583 678.413 910.512C674.702 913.246 670.65 916.44 665.437 920.717L651.468 932.355C646.538 936.415 642.572 939.609 638.747 942.586C614.38 961.425 598.485 967.786 588.597 960.207C576.867 951.248 575.507 944.075 578.34 925.805C581.032 908.618 580.267 900.417 572.05 890.294C563.663 880.008 558.223 878.087 552.84 883.392C552.172 884.03 550.416 886.085 549.212 887.493C548.679 888.117 548.254 888.614 548.08 888.805C543.065 894.245 537.54 896.384 527.822 894.705C518.897 893.163 517.027 887.127 519.067 873.485L519.747 869.344C521.673 857.868 521.928 854.268 519.917 850.397C516.913 844.659 509.745 844.334 497.93 848.827L495.805 849.639C457.498 864.391 453.192 865.879 442.113 867.368C428.233 869.208 422.169 864.88 422.167 851.353C422.169 818.617 428.182 809.33 472.43 774.962C478.975 769.901 485.939 765.357 493.255 761.375C500.862 757.26 508.714 753.572 516.772 750.332C520.2 748.924 523.713 747.544 528.247 745.812L539.353 741.535C567.148 730.736 580.352 722.372 589.305 706.457C592.769 700.295 595.909 693.972 598.712 687.51C600.199 684.015 601.673 680.514 603.132 677.008L603.925 675.005L605.54 671.135C614.182 650.375 621.662 640.252 639.398 628.965C644.699 625.585 649.668 621.752 654.245 617.516C658.32 613.723 662.143 609.691 665.692 605.444C665.974 605.119 666.913 603.994 668.097 602.576C670.364 599.86 673.529 596.068 674.702 594.753C683.598 584.63 690.71 580.678 702.978 580.678C712.527 580.678 720.318 578.865 732.077 574.669C746.498 569.554 749.417 568.742 755.168 569.066C760.863 569.337 766.162 571.8 771.8 577.186C773.623 578.914 777.618 582.925 781.486 586.809C785.255 590.593 788.903 594.256 790.302 595.565C805.658 610.072 819.485 615.865 844.645 615.865C853.032 615.865 861.248 616.189 875.67 616.92L878.56 617.083C925.848 619.546 942.962 618.707 954.125 609.829C958.934 606.006 963.037 603.847 966.409 603.408C965.987 601.645 965.538 599.89 965.064 598.143ZM949.401 556.921C949.785 557.737 950.165 558.553 950.543 559.371C948.196 560.351 946.013 561.281 944.067 562.137C917.575 573.83 896.75 578.107 878.815 576.347C864.422 574.913 853.258 570.257 836.967 560.324L827.9 554.721C822.891 551.571 817.749 548.618 812.487 545.87C801.012 539.97 803.278 530.172 816.652 517.532C827.163 507.571 843.852 496.068 869.72 480.18L882.357 472.547L882.451 472.49C890.194 467.821 896.774 463.853 902.406 460.451C902.722 461.323 903.044 462.193 903.37 463.062C897.832 466.404 891.394 470.282 883.858 474.82C879.645 477.357 875.442 479.911 871.25 482.48C845.552 498.26 828.977 509.682 818.635 519.453C806.423 531.038 804.61 538.752 813.818 543.488C818.635 545.952 823.14 548.577 829.402 552.42L838.468 558.05C854.448 567.767 865.243 572.26 879.098 573.641C896.467 575.373 916.838 571.205 942.905 559.701C944.86 558.84 947.049 557.905 949.401 556.921ZM939.695 537.399C940.116 538.211 940.536 539.023 940.954 539.836C918.296 547.488 894.397 549.953 869.607 546.006C852.437 543.299 845.098 537.101 847.365 527.952C849.178 520.536 857.367 511.577 870.91 501.156C877.568 496.014 885.36 490.654 894.257 484.997C898.873 482.058 903.61 479.147 908.679 476.121C909.045 476.963 909.415 477.804 909.789 478.644C904.887 481.582 900.293 484.413 895.815 487.244C887.862 492.253 880.147 497.599 872.695 503.267C859.633 513.336 851.728 521.943 850.113 528.575C848.328 535.801 854.307 540.836 870.088 543.353C894.255 547.194 917.558 544.825 939.695 537.399ZM272.412 972.722C271.288 962.513 269.296 950.213 266.22 932.924L265.313 927.916C263.305 916.525 261.768 906.903 260.698 898.425C261.162 909.735 261.844 920.884 263.113 931.652L263.415 933.384C264.88 941.648 266.099 948.764 267.096 955.051C268.523 961.159 270.267 967.065 272.412 972.722ZM258.753 845.937C259.032 850.63 259.251 855.354 259.435 860.093C259.531 859.063 259.64 858.033 259.76 857.002C262.593 832.642 272.822 813.154 292.74 797.455C355.782 747.679 378.25 714.631 378.25 674.599C378.25 667.373 377.4 661.201 375.417 651.945C372.725 639.304 372.357 636.95 372.725 632.186C373.207 625.961 375.898 620.872 381.848 615.838C389.073 609.748 401.2 603.766 419.815 597.378C448.035 587.661 464.808 571.963 490.025 538.021L495.04 531.254C520.937 496.311 536.577 482.21 564.173 475.605C601.998 466.592 622.143 460.719 636.423 454.764C641.665 452.577 646.765 450.091 651.695 447.321C655.751 445.032 659.766 442.677 663.737 440.256C670.82 436.034 677.648 435.032 694.592 434.491C710.26 434.004 717.4 433.273 726.467 430.566C737.367 427.234 747.125 421.156 754.715 412.973C768.003 399.115 782.057 393.106 803.477 389.696C806.48 389.236 808.775 388.911 814.357 388.153C834.247 385.5 843.087 383.47 853.513 378.057C864.312 372.418 870.54 367.834 899.27 342.938C899.646 341.382 900.032 339.826 900.425 338.271C869.368 365.254 863.045 370.01 852.153 375.675C842.123 380.899 833.51 382.848 813.96 385.473C808.35 386.231 806.055 386.556 803.023 387.043C781.037 390.535 766.417 396.787 752.618 411.132C745.359 418.966 736.021 424.783 725.588 427.968C716.89 430.62 709.92 431.297 694.507 431.784C677.053 432.326 669.913 433.408 662.263 437.956C655.208 442.178 653.367 443.234 650.25 444.993C645.421 447.712 640.425 450.153 635.29 452.301C621.208 458.174 601.177 463.994 563.493 472.98C547.74 476.769 534.508 484.077 522.297 495.093C512.862 503.619 505.438 512.551 492.745 529.684L487.702 536.451C462.825 569.987 446.392 585.361 418.852 594.834C399.953 601.357 387.543 607.447 379.978 613.808C373.49 619.275 370.458 625.067 369.892 631.996C369.523 637.112 369.892 639.521 372.64 652.486C374.567 661.58 375.417 667.562 375.417 674.599C375.417 713.657 353.402 746.082 290.955 795.344C273.445 809.164 263.203 825.816 258.753 845.937ZM915.609 286.29C914.99 288.306 914.367 290.323 913.745 292.342C913.497 293.144 913.25 293.946 913.003 294.748C905.427 300.116 898.483 305.695 888.703 313.936C861.9 336.537 854.675 341.869 845.098 345.198C837.335 347.905 833.227 348.067 811.07 347.418C803.25 347.201 797.385 347.093 790.5 347.093C767.068 347.093 751.542 354.401 735.448 369.342C735.135 369.634 734.172 370.571 732.853 371.855C728.918 375.684 721.816 382.594 719.355 384.661C712.64 390.318 706.718 393.106 699.833 393.106C685.383 393.106 681.133 393.377 675.58 394.892C668.015 397.004 660.592 401.307 642.005 414.245C614.238 433.544 591.43 439.119 555.333 439.119C529.21 439.119 484.613 477.554 458.632 521.646C436.418 559.377 406.952 578.54 360.74 593.264C345.695 598.055 340.312 616.298 341.615 646.802C341.898 653.839 342.493 660.85 343.542 670.729C345.247 687.279 345.584 690.479 345.65 693.684C345.667 694.474 345.667 695.263 345.667 696.253C345.667 699.988 344.477 703.642 342.153 707.323C338.385 713.278 332.917 718.339 319.657 728.976C301.948 743.159 295.97 748.248 286.592 757.748C273.254 771.093 262.07 786.253 253.403 802.729C252.815 799.999 252.169 797.301 251.458 794.639C259.881 779.876 270.31 766.223 282.483 754.04C292.06 744.296 298.152 739.153 316.002 724.835C328.752 714.604 333.993 709.786 337.308 704.535C339.122 701.639 340 698.959 340 696.253C340 695.354 340 694.627 339.986 693.9C339.924 690.795 339.597 687.696 337.875 671.27C336.855 661.255 336.26 654.218 335.948 647.018C334.532 614.268 340.538 593.968 358.927 588.121C403.977 573.776 432.282 555.371 453.702 518.993C480.533 473.359 526.575 433.706 555.333 433.706C590.353 433.706 612 428.401 638.662 409.887C657.815 396.571 665.578 392.023 673.993 389.696C680.283 387.963 684.76 387.693 699.833 387.693C705.103 387.693 709.835 385.446 715.615 380.601C717.846 378.707 724.519 372.21 728.509 368.324C729.993 366.879 731.106 365.796 731.482 365.444C748.595 349.61 765.425 341.679 790.5 341.679C797.442 341.679 803.363 341.788 811.24 342.004C832.518 342.627 836.372 342.464 843.172 340.11C851.757 337.132 858.84 331.908 884.963 309.876C897.385 299.404 905.314 293.159 915.609 286.29ZM924.759 255.134C919.436 258.233 914.142 261.378 908.877 264.566C887.06 277.829 874.14 287.627 868.19 296.397C859.69 308.929 849.207 316.399 835.663 320.351C825.237 323.382 816.113 324.194 794.495 324.763C759.078 325.683 742.248 327.957 720.262 337.484C712.003 341.073 703.911 345.001 696.008 349.258C688.262 353.44 671.649 363.487 659.259 370.981C652.163 375.273 646.451 378.727 644.583 379.762C623.05 391.753 604.832 397.166 580.833 397.166C527.368 397.166 494.983 417.195 423.215 491.466C409.388 505.758 395.817 515.745 381.565 522.918C375.898 525.76 370.232 528.115 363.913 530.361C361.477 531.227 359.097 532.039 348.698 535.423C334.305 540.186 327.618 544.219 322.405 552.664C316.087 562.895 313.083 579.568 313.083 606.933C313.083 655.382 307.785 672.082 290.983 687.835C289.732 688.996 286.286 692.064 283.656 694.406C282.177 695.723 280.957 696.81 280.528 697.2C276.262 701.042 272.214 705.098 268.402 709.353C258.4 720.559 248.965 734.579 239.275 753.688C238.265 755.681 237.281 757.686 236.325 759.703C235.731 758.801 235.12 757.909 234.494 757.026C235.221 755.519 235.965 754.018 236.725 752.524C246.528 733.199 256.077 718.989 266.248 707.594C270.124 703.273 274.238 699.153 278.573 695.251C279.792 694.169 287.073 687.673 288.972 685.913C305.178 670.756 310.25 654.732 310.25 606.933C310.25 555.939 318.467 542.595 355.073 530.496C358.162 529.495 360.513 528.683 362.922 527.844C368.843 525.769 374.616 523.327 380.205 520.536C394.23 513.499 407.518 503.7 421.118 489.626C493.368 414.841 526.377 394.459 580.833 394.459C604.293 394.459 622.03 389.181 643.167 377.407C644.999 376.395 650.666 372.968 657.73 368.697C670.114 361.209 686.79 351.126 694.62 346.903C702.638 342.6 710.657 338.702 719.072 335.021C741.512 325.277 758.653 322.976 794.438 322.029C815.773 321.488 824.755 320.703 834.842 317.752C847.733 313.963 857.678 306.926 865.81 294.935C872.043 285.706 885.218 275.772 907.347 262.293C911.908 259.505 916.612 256.744 923.355 252.82C924.173 252.34 924.972 251.871 925.752 251.414C925.426 252.653 925.095 253.893 924.759 255.134ZM934.38 206.659C930.708 209.473 927.033 212.283 923.355 215.089C901.963 231.329 886.805 242.291 873.46 250.79C864.677 256.365 862.523 258.314 850.623 270.088C834.077 286.517 817.417 293.42 768.032 299.726C736.015 303.786 711.252 313.016 680.907 329.689C676.232 332.233 660.308 341.246 661.158 340.786C653.508 345.063 647.87 348.067 642.345 350.693C626.393 358.271 612.68 361.979 597.833 361.979C549.298 361.979 480.42 393.133 451.548 423.773C417.407 460.042 362.525 498.747 323.34 508.112C302.373 513.12 289.765 527.194 283.56 547.873C279.99 559.783 279.083 570.284 279.083 585.279C279.083 587.499 279.112 587.932 279.763 595.105C281.038 609.125 280.755 618.707 277.582 630.995C273.247 647.776 263.727 665.099 247.577 683.586C235.029 697.975 223.884 716.03 214.527 736.154C213.772 735.559 213.011 734.975 212.242 734.4C221.645 714.317 232.828 696.283 245.423 681.853C261.29 663.664 270.583 646.694 274.833 630.345C277.922 618.436 278.177 609.098 276.93 595.348C276.278 588.04 276.25 587.607 276.25 585.279C276.25 570.068 277.157 559.377 280.84 547.115C287.3 525.597 300.588 510.738 322.66 505.46C361.193 496.257 415.65 457.85 449.452 421.986C478.833 390.778 548.477 359.273 597.833 359.273C612.198 359.273 625.515 355.673 641.07 348.257C646.538 345.658 652.12 342.708 659.713 338.458C659.515 338.572 660.235 338.165 661.514 337.442C665.707 335.071 675.908 329.304 679.49 327.334C710.147 310.526 735.193 301.161 767.635 297.019C816.453 290.794 832.518 284.163 848.583 268.22C860.625 256.284 862.863 254.254 871.873 248.516C885.133 240.098 900.235 229.19 921.598 212.95C925.984 209.616 930.36 206.271 934.726 202.915C934.623 204.162 934.507 205.41 934.38 206.659ZM935.027 178.691C935.087 179.609 935.138 180.528 935.18 181.448C929.923 182.572 924.945 182.312 920.295 180.524C912.248 177.466 908.395 168.777 902.87 147.097C902.074 143.976 901.281 140.854 900.49 137.732C898.223 129.071 896.325 122.981 894.03 117.54C885.07 96.2252 878.512 79.0593 874.793 66.0806C876.18 67.356 877.55 68.6473 878.905 69.9544C882.736 82.1841 888.757 97.7598 896.637 116.512C899.333 123.215 901.539 130.088 903.238 137.082C904.054 140.199 904.848 143.321 905.618 146.448C910.888 167.072 914.6 175.436 921.372 178.034C925.567 179.63 930.119 179.817 935.027 178.691ZM900.934 94.6519C902.22 98.8279 903.413 103.03 904.513 107.255C904.891 108.661 905.772 112.097 906.695 115.702C907.781 119.94 908.927 124.412 909.387 126.093C913.665 142.09 917.122 150.21 922.448 154.459C925.194 156.645 928.314 157.573 931.893 157.212C931.686 156.322 931.468 155.433 931.241 154.544C928.552 154.714 926.256 153.965 924.262 152.375C919.558 148.64 916.272 140.845 912.135 125.417L907.262 106.578C906.814 104.861 906.351 103.148 905.873 101.439C904.274 99.1406 902.627 96.8784 900.934 94.6519ZM754.108 0.17041C755.72 0.64984 757.333 1.14196 758.946 1.64679C753.497 2.84855 750.167 4.47807 749.332 6.53988C748.255 9.16535 751.032 13.4419 757.917 19.7214C760.778 22.3468 764.207 25.2159 769.363 29.33C773.88 32.9647 778.404 36.5916 782.935 40.2108C786.873 43.4588 791.718 45.4076 798.518 46.9775L798.795 47.0379C800.556 47.4229 801.198 47.5632 805.998 48.4391C816 50.3338 820.25 51.8224 823.423 55.5576C827.418 60.3213 827.39 67.8459 822.998 79.5928C816.085 98.0794 806.792 106.795 794.127 107.553C783.842 108.175 772.593 104.061 752.987 93.857C740.152 87.1715 733.663 74.0983 729.413 52.5532C728.96 50.3385 728.557 48.0281 728.087 45.3291L727.997 44.8122L726.778 37.3418C723.803 19.5319 721.395 12.4404 716.21 9.97736C713.915 8.89469 711.705 7.97443 709.523 7.27069C703.092 5.18656 696.49 4.5099 686.573 4.78057C680.698 4.95214 651.31 7.03251 647.767 7.28328C647.398 7.30943 647.309 7.31568 647.558 7.29779C626.256 8.65445 609.619 10.848 595.934 14.4021C601.897 12.1938 607.86 10.0385 613.822 7.98458C623.255 6.54089 633.85 5.48761 645.915 4.72642C644.668 4.78055 679.915 2.29043 686.488 2.0739C696.745 1.80323 703.63 2.50695 710.458 4.72642C712.725 5.45722 715.048 6.40458 717.457 7.54138C723.888 10.627 726.438 18.0162 729.555 36.9087L730.802 44.3791C731.283 47.2752 731.737 49.7112 732.218 52.039C736.298 72.8532 742.475 85.3039 754.318 91.4751C773.472 101.436 784.352 105.414 793.957 104.846C805.29 104.169 813.762 96.2659 820.307 78.6726C824.415 67.7376 824.443 61.1063 821.213 57.2358C818.663 54.2043 814.753 52.851 805.432 51.0916C802.898 50.6543 800.375 50.158 797.867 49.603C790.67 47.979 785.428 45.8136 781.065 42.2679C776.597 38.5969 772.083 34.9787 767.522 31.4142C763.56 28.2858 759.704 25.0361 755.962 21.6702C748.227 14.6328 745.025 9.67966 746.668 5.56552C747.576 3.32134 750.099 1.54169 754.108 0.17041ZM559.382 28.1743C552.645 33.1445 546.477 39.0725 540.317 46.1384C536.775 50.1443 533.262 54.502 528.162 60.9709L521.617 69.3346C519.273 72.3422 516.912 75.3376 514.533 78.3207C503.058 92.639 494.842 100.894 485.605 107.932C483.792 109.312 481.893 110.665 479.655 112.235L467.982 120.193C462.938 123.739 458.32 127.122 453.248 131.101C440.272 141.278 425.482 154.513 406.98 172.919C382.982 196.792 372.782 210.487 373.065 218.093C373.32 224.833 378.59 226.321 394.938 227.133L395.037 227.138C399.522 227.378 401.046 227.459 403.297 227.648C411.287 228.297 417.038 229.515 421.487 231.897C442.17 242.859 453.645 251.06 459.878 262.13C468.492 277.45 461.89 294.313 435.455 313.557C411.4 331.042 402.928 342.681 402.305 356.052C402.193 360.197 402.449 364.344 403.07 368.448C404.968 385.527 403.778 396.381 395.363 414.191C391.453 422.5 387.685 428.996 383.86 434.139C376.21 444.37 369.155 448.89 355.13 453.979C354.676 454.144 353.189 454.669 351.376 455.308C348.44 456.343 344.65 457.68 343.003 458.283C337.875 460.177 333.313 462.018 328.61 464.183C315.247 470.405 302.622 477.982 290.955 486.784C266.532 504.81 252.62 527.113 244.687 556.074C241.542 567.578 240.238 574.696 236.725 597.541C233.183 620.52 230.633 631.266 225.392 641.524C220.844 650.42 203.467 687.828 194.226 707.72C191.378 713.852 189.303 718.319 188.615 719.774C188.533 719.947 188.45 720.119 188.368 720.292C189.216 720.691 190.059 721.096 190.898 721.508C190.997 721.3 191.095 721.092 191.193 720.883C191.949 719.294 194.342 714.143 197.582 707.165C206.982 686.928 223.517 651.329 227.942 642.715C233.353 632.132 235.932 621.197 239.502 597.92C243.043 575.184 244.318 568.119 247.435 556.751C255.227 528.331 268.798 506.542 292.712 488.922C306.028 479.07 317.985 472.032 329.828 466.619C334.447 464.508 338.923 462.667 344.023 460.827C346.095 460.061 351.634 458.107 354.5 457.096C355.279 456.821 355.861 456.616 356.122 456.523C370.657 451.245 378.165 446.454 386.155 435.709C390.768 429.297 394.715 422.471 397.942 415.328C406.583 397.004 407.83 385.69 405.875 368.178C405.138 361.411 404.968 359.354 405.138 356.187C405.733 343.763 413.723 332.747 437.183 315.695C464.638 295.72 471.722 277.504 462.372 260.858C455.798 249.166 444.04 240.748 422.847 229.515C417.973 226.944 411.91 225.618 403.552 224.968C401.212 224.753 399.686 224.671 395.18 224.43L395.108 224.427C380.517 223.696 376.068 222.451 375.87 217.985C375.643 211.462 385.645 198.037 409.02 174.813C427.465 156.462 442.17 143.308 455.062 133.185C459.819 129.444 464.694 125.842 469.682 122.385L481.327 114.428C483.593 112.858 485.52 111.45 487.362 110.043C496.797 102.897 505.183 94.4524 516.8 79.9447L523.912 70.9585L530.428 62.595C534.308 57.5882 538.323 52.6785 542.47 47.8707C551.723 37.2719 560.959 29.3027 572.314 23.3093C568.006 24.9427 563.696 26.5704 559.382 28.1743ZM483.284 50.8292C478.007 59.182 473.427 66.4315 471.382 69.3616C455.175 92.5578 438.232 109.42 417.18 120.897C392.898 134.159 367.993 159.413 341.728 194.626C330.553 209.606 309.665 241.16 297.229 259.945C291.757 268.212 287.921 274.006 287.272 274.825C251.572 320.297 209.298 365.011 181.928 378.084C155.13 390.884 72.5287 413.657 24.3601 422.887C24.7192 421.897 25.081 420.911 25.4453 419.928C73.4491 410.568 154.403 388.2 180.682 375.648C207.485 362.845 249.588 318.321 285.005 273.201C285.593 272.45 289.101 267.148 294.177 259.479C306.475 240.895 327.973 208.411 339.405 193.083C365.897 157.545 391.028 132.048 415.763 118.569C436.418 107.282 453.05 90.7443 469.03 67.873C470.858 65.2492 474.794 59.0419 479.459 51.6608C480.734 51.386 482.009 51.1089 483.284 50.8292ZM452.24 57.319C452.097 57.6167 451.969 57.8796 451.86 58.1019C449.602 63.063 446.647 67.7071 443.077 71.9059C437.807 77.6711 431.545 81.8123 410.21 94.5065C387.685 107.932 375.218 116.025 360.797 127.393C335.977 146.962 316.228 169.156 301.608 196.142C257.38 277.883 221.255 329.635 196.322 345.523C174.28 359.561 136.055 370.383 36.4957 392.684C36.9622 391.638 37.4379 390.601 37.9228 389.572C135.484 367.688 173.26 356.952 194.735 343.249C219.102 327.74 255.085 276.205 299.115 194.897C313.905 167.559 333.88 145.094 358.983 125.308C373.518 113.832 386.07 105.685 408.708 92.2059C429.732 79.7011 435.965 75.587 440.952 70.1195C444.086 66.4147 446.722 62.352 448.801 58.0261C449.947 57.7899 451.093 57.5543 452.24 57.319ZM391.102 71.8327C384.796 75.1459 377.587 78.4074 369.41 81.6228C328.978 97.538 275.457 155.271 248.993 202.205C243.61 211.814 240.635 219.203 235.025 235.768C223.55 269.52 214.54 285.543 188.927 308.469C168.867 326.441 129.795 342.491 71.145 359.598C64.8326 361.431 58.5091 363.229 52.1751 364.993C53.851 362.583 55.5797 360.223 57.3572 357.907C61.4098 356.762 65.458 355.602 69.5017 354.428C127.302 337.538 165.835 321.731 185.073 304.517C209.837 282.322 218.45 267.057 229.642 234.089C235.365 217.254 238.397 209.621 244.007 199.661C264.91 162.591 302.131 119.127 337.311 93.7167C354.586 84.2252 372.623 77.334 391.102 71.8327ZM220.346 210.336C220.037 210.978 219.726 211.624 219.413 212.274C201.535 249.517 183.43 273.661 163.88 288.737C149.487 299.834 139.712 303.813 114.863 311.121C108.981 312.669 103.226 314.621 97.642 316.961C99.8088 315.14 101.997 313.337 104.202 311.548C107.428 310.425 110.701 309.424 114.013 308.55C138.55 301.35 148.07 297.452 162.095 286.626C179.982 272.865 196.666 251.289 213.198 218.621C215.604 215.884 217.985 213.12 220.346 210.336ZM118.547 697.277C119.399 694.625 120.35 691.728 121.408 688.539C122.882 684.1 123.76 681.339 124.667 678.443C134.98 645.34 133.28 626.691 112.512 613.483C104.051 608.011 94.3674 604.507 84.2351 603.252C63.8351 600.734 43.1801 606.418 16.4901 619.167C15.7198 619.537 14.641 620.064 13.3708 620.688C13.0317 619.85 12.6998 619.009 12.375 618.164C13.5468 617.59 14.5446 617.105 15.2717 616.758C42.4434 603.766 63.5517 597.974 84.6601 600.572C95.2159 601.875 105.307 605.518 114.127 611.209C136.283 625.311 138.068 645.097 127.443 679.228C126.537 682.124 125.63 684.912 124.157 689.351C123.103 692.532 122.158 695.418 121.312 698.057C120.389 697.797 119.468 697.538 118.547 697.277ZM154.654 707.617C153.747 707.336 152.838 707.057 151.928 706.781C155.282 689.447 157.222 672.502 157.222 658.359C157.222 653.217 157.703 649.942 160.112 635.975C161.16 630.021 161.755 626.231 162.208 622.252C163.993 607.339 162.803 596.647 157.448 588.717C144.415 569.499 101.632 563.734 48.4783 575.779C33.325 579.042 18.4819 583.482 4.0965 589.053C3.91728 588.133 3.74463 587.21 3.57848 586.285C16.4841 581.305 30.9718 576.936 47.7984 573.126C102 560.865 145.973 566.766 159.828 587.255C165.637 595.835 166.855 607.068 165.042 622.55C164.464 627.196 163.755 631.826 162.917 636.435C160.537 650.185 160.055 653.46 160.055 658.359C160.055 672.767 158.079 690.003 154.654 707.617ZM0.81669 563.925C5.04161 562.105 9.49815 560.126 14.2517 557.969C13.4017 558.348 37.0884 547.494 43.2367 544.788C51.4044 541.056 59.8184 537.837 68.425 535.152C78.03 532.337 84.5467 531.687 98.2034 531.525C99.4784 531.471 100.073 531.471 100.81 531.471C117.413 531.2 127.67 529.143 142.347 521.51C173.57 505.243 181.787 502.726 204 502.726C214.228 502.726 220.603 497.854 228.197 487.244C228.622 486.621 231.54 482.453 232.362 481.343C236.668 475.443 239.757 472.953 243.667 472.953C265.795 472.953 286.903 467.404 301.325 453.6C306.142 449.026 312.177 446.265 325.918 441.528L328.808 440.527C340.907 436.304 347.197 433.544 352.807 429.267C360.202 423.637 364.083 416.356 364.083 406.639C364.083 362.602 373.858 329.256 397.375 315.777C412.052 307.359 424.858 294.232 428.825 283.242C433.528 270.142 425.567 261.833 405.167 261.833C393.068 261.833 382.868 258.855 369.325 252.522L365.755 250.817C362.475 249.16 359.129 247.625 355.725 246.215C350.88 244.185 347.055 243.13 343.485 242.967C334.9 242.615 328.1 247.704 321.725 259.884C302.005 297.561 239.842 362.331 197.54 389.263C178.613 401.307 144.727 412.053 89.2217 425.397C83.1573 426.848 69.1646 430.117 56.2807 433.128C44.9062 435.785 34.3959 438.24 30.9684 439.065C26.2435 440.194 21.8655 441.259 17.7975 442.273C17.481 443.281 17.1677 444.291 16.8577 445.303C21.3734 444.168 26.2857 442.97 31.6484 441.691C34.7715 440.939 43.7752 438.839 53.9549 436.464C67.6016 433.28 83.3618 429.603 89.9017 428.022C145.747 414.597 179.832 403.824 199.127 391.536C241.825 364.334 304.328 299.185 324.275 261.102C330.197 249.788 336.062 245.403 343.372 245.674C344.686 245.732 345.566 245.725 346.436 245.817C349.204 246.109 351.866 247.399 368.078 254.958C381.962 261.454 392.558 264.539 405.167 264.539C423.782 264.539 430.157 271.198 426.133 282.376C422.422 292.689 410.097 305.329 395.93 313.449C371.252 327.605 361.25 361.709 361.25 406.639C361.25 422.636 352.212 429.511 327.845 437.983L324.955 438.984C310.788 443.856 304.527 446.725 299.342 451.705C285.543 464.833 265.115 470.246 243.667 470.246C238.538 470.246 234.855 473.196 230.038 479.773L225.845 485.728C218.733 495.689 213.038 500.019 204 500.019C181.22 500.019 172.607 502.672 140.987 519.128C126.763 526.545 116.96 528.521 100.753 528.791H98.175C84.2634 528.981 77.5201 529.63 67.5751 532.581C58.8525 535.294 50.3248 538.549 42.0467 542.325C35.87 545.031 12.1834 555.912 13.0334 555.533C8.66364 557.512 4.54587 559.341 0.629874 561.035C0.686195 562 0.748442 562.963 0.81669 563.925ZM0.417969 536.504C9.68736 530.302 15.5269 527.087 23.1767 524.298L29.6367 521.97L30.4017 521.7C51.9917 513.932 61.3134 510.061 70.4934 504.377C82.8184 496.744 89.25 487.975 89.25 477.013C89.25 467.972 85.6517 463.128 78.5117 461.612C73.355 460.529 69.3317 460.881 54.5417 462.965C45.3334 464.291 39.8934 464.833 34 464.833C30.77 464.833 27.9934 464.806 23.3184 464.724C18.7728 464.647 14.848 464.621 11.406 464.68C11.1735 465.588 10.9439 466.497 10.7175 467.407C14.2749 467.329 18.3962 467.352 23.2617 467.431C27.9651 467.512 30.7417 467.539 34 467.539C40.0634 467.539 45.6167 466.998 54.9667 465.645C69.275 463.615 73.2417 463.29 77.9167 464.291C83.6684 465.482 86.4167 469.19 86.4167 477.013C86.4167 486.946 80.5234 494.931 68.9634 502.103C59.9817 507.652 50.7734 511.469 29.3817 519.156L28.6734 519.426L22.1567 521.754C14.7567 524.456 9.02281 527.532 0.569135 533.101C0.511806 534.236 0.461379 535.371 0.417969 536.504ZM760.127 143.524C747.547 136.352 737.46 129.883 727.713 122.548H727.742C725.617 120.924 723.548 119.3 721.508 117.676C717.712 114.59 714.085 108.771 709.495 98.8914C708.506 96.7894 706.048 91.2445 704.069 86.7799C702.761 83.8281 701.662 81.3486 701.335 80.6484C693.033 62.216 686.233 51.3894 677.025 44.5145C655.69 28.5722 633.647 29.1947 599.477 44.1896C577.348 53.9336 533.63 94.1547 502.123 131.561C496.06 138.761 488.382 145.23 475.717 154.432C474.661 155.224 470.974 157.896 468.022 160.035C466.536 161.112 465.237 162.054 464.553 162.552C460.303 165.638 457.045 168.101 454.127 170.537C441.972 180.524 436.022 188.942 436.333 198.307C437.042 219.122 488.693 260.615 534.14 284.515C539.136 287.145 544.049 289.916 548.873 292.824C548.873 292.851 587.52 317.834 597.607 322.624C622.71 334.588 645.348 332.883 676.827 313.747C683.902 309.461 691.298 305.68 698.955 302.433C713.518 296.234 718.363 294.773 752.278 285.435C774.973 279.21 786.987 274.798 797.838 267.679C811.608 258.639 820.335 246.242 824.443 228.595C831.952 196.169 821.383 178.982 789.452 160.035C785.891 157.92 775.808 152.294 768.377 148.147C764.395 145.926 761.175 144.129 760.127 143.524ZM704.31 101.084C709.24 111.667 713.207 118.028 717.825 121.79C719.922 123.495 722.047 125.146 724.228 126.77C734.173 134.295 744.458 140.872 757.208 148.153C758.338 148.806 761.836 150.758 766.08 153.125C773.436 157.229 783.035 162.584 786.448 164.609C816.538 182.473 825.803 197.576 818.89 227.404C815.122 243.752 807.217 254.958 794.637 263.186C784.437 269.899 772.82 274.175 750.72 280.238C716.493 289.657 711.535 291.146 696.66 297.507C688.749 300.853 681.106 304.753 673.795 309.172C643.932 327.307 623.418 328.877 600.128 317.78C590.826 313.362 555.232 290.388 552.096 288.364C551.965 288.279 551.89 288.231 551.877 288.223C546.777 285.164 541.847 282.376 536.86 279.751C493.397 256.934 442.595 216.117 442 198.145C441.745 190.864 446.845 183.637 457.81 174.624C461.122 171.933 464.514 169.333 467.982 166.829L479.145 158.763C492.15 149.317 500.112 142.604 506.543 134.971C537.54 98.1606 580.748 58.3726 601.857 49.1158C634.298 34.8516 654.188 34.3103 673.54 48.7909C681.757 54.908 688.188 65.1934 696.15 82.7867C696.434 83.407 697.35 85.4779 698.485 88.0425C700.519 92.6403 703.255 98.825 704.31 101.084ZM829.883 640.062C818.153 640.928 808.293 639.602 799.623 635.461C792.632 632.196 786.27 627.821 780.81 622.523C778.402 620.222 776.277 617.814 773.868 614.863C772.933 613.645 769.165 608.8 768.202 607.636C760.722 598.407 754.29 594.726 742.333 594.726C727.09 594.726 714.482 600.843 692.24 616.325L688.33 619.059C675.722 627.855 669.715 631.753 662.348 635.488C650.307 641.551 641.212 650.835 631.04 666.182C629.362 668.724 624.449 676.909 618.703 686.481C610.867 699.536 601.482 715.171 596.643 722.589C586.33 738.287 577.518 743.132 556.863 747.788C539.24 751.712 533.007 753.553 522.41 758.885C507.79 766.247 493.283 777.832 477.757 795.506C461.238 814.29 457.527 824.684 465.772 828.555C471.438 831.234 479.23 830.503 501.812 826.579L503.767 826.254C518.047 823.764 525.583 822.87 531.93 823.222C539.637 823.682 543.037 826.146 542.583 831.451C541.138 847.988 543.292 856.704 550.007 860.493C555.758 863.714 563.55 863.308 581.117 859.952C586.245 858.977 589.758 861.522 592.507 867.747C594.745 872.754 595.963 878.168 598.343 891.918C601.092 907.643 602.848 914.437 606.475 919.932C611.49 927.537 619.112 928.566 629.765 922.016C641.41 914.87 671.273 898.332 671.698 898.116C680.643 893.104 688.88 887.019 696.207 880.008C700.655 875.678 704.99 870.724 709.467 864.851C721.112 849.558 730.207 846.364 751.91 845.634C765.453 845.173 771.687 844.334 779.762 840.924C782.623 839.706 785.542 837.757 788.545 835.105C793.478 830.551 797.955 825.567 801.918 820.218C804.309 817.189 811.907 806.998 814.879 803.012C815.359 802.369 815.718 801.887 815.915 801.623C836.683 774.367 852.323 761.889 872.667 761.889C894.342 761.889 906.27 757.099 908.395 748.302C910.237 740.777 904.372 731.196 893.435 722.264C874.905 707.106 871.25 699.744 871.25 679.986C871.25 673.869 875.5 668.726 885.502 660.795C896.835 651.782 897.94 650.808 899.81 647.073C901.793 643.013 900.717 639.196 896.24 635.65C892.075 632.321 886.295 631.239 878.418 631.861C872.752 632.294 870.003 632.808 854.817 636.029C843.795 638.384 837.052 639.521 829.883 640.062ZM778.77 624.445C784.21 629.696 790.443 634.108 798.377 637.897V637.87C807.528 642.255 817.927 643.662 830.11 642.742C837.448 642.201 844.305 641.037 855.44 638.682C881.053 633.242 888.108 632.7 894.427 637.707C897.94 640.522 898.648 643.04 897.232 645.909C895.673 649.075 894.455 650.131 883.688 658.711C873.063 667.156 868.417 672.759 868.417 679.986C868.417 700.529 872.44 708.649 891.565 724.321C901.793 732.684 907.177 741.427 905.647 747.706C903.89 754.852 893.18 759.183 872.667 759.183C851.105 759.183 834.898 772.121 813.648 800.026C812.959 800.909 810.53 804.161 807.841 807.761C804.676 811.999 801.151 816.718 799.68 818.621C795.816 823.833 791.453 828.69 786.647 833.129C783.842 835.565 781.15 837.351 778.6 838.434C770.95 841.682 765 842.494 751.797 842.954C729.328 843.685 719.44 847.149 707.2 863.254C703.249 868.502 698.892 873.46 694.167 878.087C687.001 884.941 678.945 890.89 670.197 895.788C670.14 895.824 669.246 896.323 667.743 897.161C660.312 901.305 637.991 913.754 628.235 919.742C618.828 925.534 612.992 924.722 608.855 918.497C605.54 913.436 603.812 906.777 601.148 891.485L600.978 890.51C598.712 877.518 597.465 871.969 595.113 866.691C591.883 859.41 587.208 856.027 580.55 857.299C563.748 860.52 556.353 860.899 551.452 858.138C545.983 855.053 544.057 847.258 545.417 831.667C546.04 824.549 541.195 821.084 532.1 820.543C525.442 820.137 517.792 821.057 503.285 823.574L501.302 823.926C479.712 827.661 471.835 828.392 467.018 826.118C461.408 823.493 464.525 814.751 479.91 797.266C495.238 779.835 509.433 768.467 523.713 761.267C534.055 756.07 540.118 754.311 557.487 750.386C578.822 745.595 588.285 740.426 599.023 723.996C603.931 716.516 613.385 700.779 621.236 687.709C626.936 678.22 631.792 670.137 633.448 667.643C643.365 652.621 652.148 643.689 663.652 637.87C671.217 634.053 677.28 630.129 690.002 621.224L693.912 618.49C715.7 603.387 727.912 597.432 742.333 597.432C753.327 597.432 758.965 600.68 765.963 609.288C766.546 609.995 768.227 612.142 769.652 613.961C770.515 615.063 771.284 616.045 771.658 616.514C774.095 619.546 776.305 622.009 778.77 624.445ZM755.593 631.049C744.43 621.386 735.052 619.708 719.043 627.341V627.368C682.635 644.745 669.517 656.817 653.253 684.749C650.732 689.107 648.437 693.275 645.858 698.229L639.852 709.867C636.877 715.524 634.468 719.692 631.692 723.752C627.358 730.095 622.323 735.976 616.675 741.292C611.292 746.38 603.953 750.44 585.225 759.372C566.185 768.494 558.733 772.554 553.067 777.967C545.162 785.546 546.125 793.043 557.373 800.216C569.982 808.255 573.212 813.912 575.932 826.389C578.425 837.703 583.355 841.032 603.5 841.032C617.44 841.032 622.257 846.797 623.787 859.6C623.967 861.23 624.119 862.864 624.24 864.499C625.062 873.783 625.997 877.22 629.737 879.386C634.355 882.065 642.203 880.225 655.18 873.35C664.029 868.644 672.504 863.325 680.538 857.435C686.295 853.233 697.631 843.695 707.351 835.516C714.852 829.203 721.391 823.701 723.662 822.086C733.975 814.723 743.013 811.259 753.667 811.259C773.953 811.259 788.772 800.947 809.172 777.832C810.077 776.825 812.665 773.855 815.008 771.166C816.699 769.226 818.263 767.431 818.975 766.626C822.63 762.485 825.52 759.426 828.353 756.72C831.895 753.309 836.145 751.09 841.387 749.52C844.362 748.654 845.722 748.383 852.295 747.219C861.56 745.568 865.328 744.025 867.51 739.668C870.117 734.471 868.672 725.945 862.637 711.951C859.633 704.995 857.253 698.499 854.987 691.381C854.592 690.14 853.751 687.395 852.877 684.545C851.807 681.054 850.689 677.406 850.283 676.169C844.333 658.089 836.882 654.272 804.667 654.272C787.015 654.272 776.05 649.346 764.15 638.817C763.879 638.57 763.368 638.102 762.723 637.51C760.54 635.508 756.818 632.094 755.593 631.049ZM648.38 699.447C650.958 694.52 653.225 690.379 655.747 686.076C671.698 658.603 684.392 646.91 720.29 629.777C735.222 622.631 743.353 624.12 753.695 633.052C754.576 633.802 756.788 635.831 758.769 637.65C760.293 639.049 761.681 640.322 762.223 640.793C774.605 651.755 786.25 656.979 804.667 656.979C835.777 656.979 842.038 660.2 847.563 676.981C848.022 678.345 849.39 682.809 850.57 686.66C851.287 688.999 851.935 691.112 852.267 692.166C854.502 699.219 857.092 706.165 860.03 712.98C865.753 726.324 867.113 734.2 864.96 738.504C863.317 741.779 860.143 743.051 851.785 744.54C845.07 745.731 843.653 746.028 840.537 746.949C835.189 748.398 830.309 751.106 826.342 754.825C823.013 758.053 819.828 761.412 816.793 764.894L807.018 776.072C787.1 798.619 772.848 808.552 753.667 808.552C742.333 808.552 732.728 812.233 721.99 819.893C719.647 821.566 713.068 827.101 705.556 833.421C695.809 841.62 684.49 851.142 678.81 855.269C670.893 861.079 662.54 866.326 653.82 870.968C641.665 877.41 634.61 879.061 631.21 877.058C628.632 875.569 627.782 872.565 627.073 864.283C626.847 861.522 626.762 860.656 626.592 859.302C624.948 845.282 619.083 838.326 603.5 838.326C584.63 838.326 580.918 835.835 578.708 825.821C575.847 812.721 572.277 806.441 558.96 797.942C549.157 791.717 548.448 786.222 555.05 779.889C560.433 774.773 567.8 770.713 586.5 761.781C605.568 752.687 612.992 748.6 618.658 743.186C624.453 737.748 629.621 731.732 634.072 725.241C637.126 720.677 639.908 715.951 642.402 711.085L648.38 699.447ZM738.253 759.67C766.473 759.67 805.573 735.824 814.017 718.366C822.092 701.693 803.137 675.926 777.467 675.926C761.118 675.926 749.247 683.098 738.877 696.09C737.008 698.463 735.232 700.901 733.55 703.398L729.243 709.678C724.058 716.986 719.015 728.976 718.108 738.396C716.833 751.604 723.152 759.67 738.253 759.67ZM777.467 678.632C801.125 678.632 818.607 702.424 811.467 717.229H811.438C803.477 733.74 765.368 756.963 738.253 756.963C724.965 756.963 719.78 750.359 720.913 738.639C721.792 729.734 726.665 718.15 731.595 711.193C732.502 709.948 735.902 704.887 735.902 704.887C737.828 702.072 739.443 699.907 741.143 697.741C751.032 685.345 762.167 678.632 777.467 678.632ZM630.728 778.238C626.648 775.558 619.962 773.853 614.068 773.366C602.48 772.445 593.583 778.346 593.583 790.959C593.583 806.36 615.428 808.552 629.992 794.613C636.962 787.982 636.735 782.216 630.728 778.238ZM596.417 790.959C596.417 780.132 603.727 775.26 613.813 776.072H613.842C619.282 776.505 625.543 778.102 629.142 780.484C633.618 783.434 633.76 787.197 628.008 792.718C614.918 805.196 596.417 803.355 596.417 790.959ZM725.25 177.276C714.666 172.439 703.735 167.444 697.652 164.501L697.623 164.528C684.193 158.032 672.123 149.127 657.39 135.837C656.208 134.774 653.013 131.808 649.339 128.398C643.85 123.304 637.292 117.217 634.78 114.996C626.563 107.769 620.075 103.033 613.728 100.055C599.08 93.0991 585.707 95.9682 571.313 110.665C567.01 115.017 562.55 119.224 557.94 123.278C549.732 130.466 541.334 137.451 532.752 144.228C493.283 175.788 490.733 177.926 481.468 188.428C468.378 203.288 467.33 214.222 480.987 221.26C489.472 225.901 497.639 231.054 505.438 236.688C507.01 237.763 512.253 241.452 518.063 245.538C524.826 250.295 532.356 255.591 535.755 257.935C549.752 267.517 561.283 274.906 572.418 281.05C601.573 297.182 624.977 303.218 643.648 296.911C644.987 296.459 650.225 294.77 657.173 292.531C671.84 287.803 694.126 280.619 703.432 277.423C731.113 267.896 751.542 259.397 765.623 250.844C783.303 240.098 789.99 229.596 783.19 219.365C780.003 214.438 776.452 209.735 772.565 205.29C766.971 199.047 760.194 193.868 752.59 190.025C749.363 188.294 737.54 182.892 725.25 177.276ZM655.435 137.813C670.338 151.265 682.607 160.306 696.348 166.937C702.333 169.808 712.888 174.63 723.211 179.346C735.761 185.08 747.968 190.657 751.202 192.38C758.516 196.069 765.033 201.047 770.412 207.05C774.215 211.392 777.69 215.987 780.81 220.8C786.477 229.353 780.64 238.528 764.093 248.57C750.238 256.988 729.952 265.406 702.468 274.879C693.043 278.104 670.233 285.463 655.575 290.191C648.95 292.329 643.99 293.929 642.685 294.367C625.033 300.322 602.338 294.475 573.835 278.722C561.307 271.644 549.156 263.975 537.427 255.743C533.595 253.1 524.511 246.714 517.197 241.572C512.45 238.235 508.448 235.422 507.11 234.495C496.23 226.971 488.665 222.126 482.347 218.878C470.673 212.896 471.523 203.91 483.65 190.16C492.745 179.848 495.323 177.682 534.593 146.285C545.247 137.759 552.84 131.48 559.867 125.254C564.516 121.156 569.014 116.904 573.353 112.506C586.953 98.6748 598.995 96.0764 612.453 102.464C618.517 105.36 624.835 109.935 632.853 116.999C635.604 119.412 643.274 126.537 649.022 131.876C651.977 134.621 654.425 136.894 655.435 137.813ZM610.13 190.62C602.48 188.374 595.142 187.724 586.33 188.726V188.753C571.228 190.458 558.79 194.843 551.763 201.474C543.575 209.215 543.093 219.473 551.31 231.41C562.133 247.108 572.56 257.8 585.735 264.702C602.593 273.498 622.512 274.771 646.453 267.138C674.22 258.314 691.107 250.248 697 242.291C704.055 232.736 695.725 223.912 671.982 215.874C658.382 211.272 648.068 207.023 634.61 200.824C617.893 193.138 616.222 192.407 610.13 190.62ZM553.747 203.396C560.235 197.279 572.135 193.056 586.67 191.432H586.642C594.243 190.429 601.982 191.039 609.308 193.219C615.202 194.951 616.845 195.655 633.392 203.26C646.935 209.486 657.305 213.762 671.018 218.418C693.26 225.969 700.173 233.277 694.677 240.721C689.293 248.029 672.718 255.932 645.547 264.594C622.342 271.983 603.273 270.738 587.123 262.32C574.373 255.661 564.258 245.295 553.69 229.921C546.153 219.013 546.578 210.162 553.747 203.396ZM349.888 379.356C347.055 363.116 347.338 359.543 352.665 344.819C356.263 334.94 362.355 328.714 392.388 301.377C396.078 298.028 399.724 294.636 403.325 291.2C409.955 284.866 411.117 280.346 406.555 277.937C403.58 276.368 398.99 276.016 390.037 276.151L387.997 276.178C379.638 276.34 376.522 276.205 374.538 275.474C371.484 274.278 368.545 272.829 365.755 271.144L361.817 268.87C357.907 266.651 354.988 265.378 351.673 264.566C338.81 261.508 329.545 270.684 316.965 292.716C317.009 292.632 316.625 293.314 316.003 294.42C314.224 297.584 310.497 304.211 309.258 306.276C307.251 309.886 304.858 313.287 302.118 316.426C285.147 334.398 279.083 350.07 279.083 387.693C279.083 410.158 290.02 421.201 308.578 424.07C314.557 424.991 320.138 425.018 328.242 424.53L330.055 424.422C331.477 424.298 332.905 424.235 334.333 424.233C345.978 424.233 353.232 398.465 349.888 379.356ZM390.433 299.401C359.805 327.253 353.798 333.397 350.002 343.953C344.505 359.11 344.193 363.116 347.083 379.789C350.2 397.437 343.4 421.526 334.333 421.526C333.597 421.526 332.718 421.553 331.528 421.634C330.731 421.679 329.934 421.723 329.137 421.766C328.772 421.785 328.408 421.805 328.043 421.824C320.138 422.311 314.727 422.284 309.032 421.391C291.777 418.738 281.917 408.778 281.917 387.693C281.917 350.693 287.753 335.725 304.215 318.213C307.098 314.935 309.614 311.379 311.723 307.602C313.395 304.788 319.657 293.663 319.458 294.015C331.387 273.092 340 264.594 350.993 267.219C354.311 268.088 357.472 269.43 360.372 271.198L364.282 273.444C367.908 275.528 370.487 276.855 373.49 277.964C375.983 278.939 379.157 279.047 388.053 278.885L390.093 278.858C398.452 278.722 402.843 279.074 405.167 280.292C407.49 281.51 406.838 284.027 401.342 289.305C398.168 292.31 394.825 295.422 390.433 299.401ZM330.99 382.794C330.848 382.712 325.408 378.977 323.765 377.57C317.532 372.211 315.208 370.695 311.865 371.399C307.445 372.346 306 377.38 306 387.693C306 408.372 320.422 415.274 331.018 400.008C336.77 391.753 336.543 387.043 330.99 382.794ZM313.083 376.704C313.65 376.568 315.718 377.922 319.968 381.576V381.603C321.923 383.227 327.533 387.097 327.448 387.016C330.48 389.344 330.565 390.914 326.315 397.031C319.232 407.208 311.667 403.581 311.667 387.693C311.667 380.033 312.602 376.785 313.083 376.704Z" fill="url(#paint0_linear)"/>
<defs>
<linearGradient id="paint0_linear" x1="904.695" y1="479.411" x2="112.85" y2="345.87" gradientUnits="userSpaceOnUse">
<stop offset="0.171875" stop-color="#974B31" stop-opacity="0.7"/>
<stop offset="0.828125" stop-color="#28140D" stop-opacity="0.184906"/>
<stop offset="1" stop-opacity="0"/>
</linearGradient>
</defs>
</svg>
