<svg width="727" height="774" viewBox="0 0 727 774" fill="none" xmlns="http://www.w3.org/2000/svg">
<path fill-rule="evenodd" clip-rule="evenodd" d="M703.126 631.654C703.895 630.185 704.64 628.702 705.363 627.205C694.173 634.184 681.102 640.268 665.197 646.336C661.142 647.898 656.919 649.46 651.689 651.282L638.405 656.02C611.054 665.782 597.015 672.342 585.325 682.313C573.496 692.414 558.338 699.495 538.426 705.326C532.973 706.888 527.267 708.372 520.332 710.012L503.161 713.995C488.366 717.51 479.949 720.165 473.684 723.835C465.071 728.834 455.143 732.322 438.055 736.93C433.57 738.137 429.077 739.318 424.576 740.47C418.87 741.98 414.508 743.178 410.117 744.428C399.48 747.413 389.024 750.933 378.795 754.971C373.671 757.002 368.419 760.987 362.706 766.975C364.174 766.785 365.636 766.598 367.092 766.417C371.67 761.976 375.886 758.964 379.886 757.366C389.674 753.461 399.63 750.155 410.928 746.901C417.978 744.88 425.063 742.971 432.182 741.173L438.838 739.429C456.149 734.769 466.273 731.203 475.138 726.022C481.123 722.56 489.345 719.957 503.86 716.52L521.031 712.537C528.023 710.897 533.756 709.413 539.265 707.799C559.512 701.89 575.034 694.627 587.227 684.239C598.553 674.555 612.397 668.099 639.412 658.467L652.696 653.729C657.926 651.855 662.176 650.319 666.259 648.757C680.571 643.283 692.636 637.795 703.126 631.654ZM315.107 772.875L319.814 766.686C345.375 733.077 360.813 719.514 388.052 713.162C425.387 704.493 445.271 698.844 459.366 693.117C464.539 691.013 469.573 688.622 474.439 685.958C478.443 683.757 482.406 681.492 486.325 679.163C493.317 675.102 500.056 674.139 516.78 673.618C532.246 673.15 539.293 672.447 548.242 669.843C559.001 666.638 568.633 660.793 576.124 652.922C589.241 639.593 603.112 633.814 624.254 630.534C627.219 630.091 629.484 629.779 634.993 629.05C654.626 626.499 663.351 624.546 673.642 619.34C684.417 613.857 690.582 609.41 719.744 584.77C720.063 583.341 720.37 581.906 720.664 580.465C689.388 606.954 683.134 611.558 672.3 617.049C662.4 622.073 653.899 623.947 634.602 626.472C629.065 627.201 626.799 627.514 623.807 627.982C602.105 631.341 587.675 637.354 574.055 651.152C566.89 658.686 557.672 664.281 547.375 667.344C538.79 669.895 531.91 670.546 516.696 671.015C499.469 671.535 492.422 672.577 484.871 676.95C477.907 681.011 476.089 682.027 473.013 683.719C468.246 686.334 463.315 688.682 458.247 690.748C444.348 696.397 424.576 701.994 387.381 710.637C371.831 714.281 358.771 721.31 346.718 731.906C337.405 740.106 330.078 748.697 317.549 765.176L312.571 771.684C312.188 772.187 311.807 772.686 311.428 773.181C312.653 773.085 313.88 772.983 315.107 772.875ZM273.198 772.997C276.951 768.204 280.499 763.036 283.878 757.444C309.523 715.036 353.541 678.07 379.326 678.07C414.955 678.07 437.468 672.707 464.875 654.145C483.221 641.702 490.548 637.563 498.015 635.532C503.496 634.074 507.691 633.814 521.954 633.814C528.75 633.814 534.595 631.132 541.223 625.692C543.652 623.703 550.661 617.058 554.545 613.375C555.847 612.14 556.798 611.238 557.107 610.957C572.992 596.587 588.318 589.558 611.446 589.558C618.242 589.558 624.031 589.662 631.749 589.87C653.619 590.495 657.674 590.339 665.337 587.736C674.789 584.533 681.921 579.405 708.376 557.668C715.131 552.121 720.515 547.828 725.702 543.981C725.888 541.664 726.052 539.342 726.195 537.016C719.65 541.675 713.25 546.727 704.685 553.763C678.9 574.953 671.909 579.978 663.435 582.841C656.723 585.106 652.92 585.262 631.917 584.664C624.142 584.455 618.298 584.351 611.446 584.351C586.696 584.351 570.084 591.979 553.192 607.208C552.821 607.547 551.724 608.588 550.261 609.976C546.322 613.713 539.733 619.964 537.531 621.787C531.826 626.447 527.156 628.607 521.954 628.607C507.076 628.607 502.657 628.867 496.449 630.534C488.143 632.772 480.48 637.146 461.575 649.954C435.259 667.761 413.893 672.863 379.326 672.863C350.941 672.863 305.496 711.001 279.012 754.893C275.221 761.165 271.213 766.882 266.93 772.121C269 772.464 271.09 772.754 273.198 772.997ZM221.375 751.014C230.631 745.071 239.718 737.685 248.92 728.417C319.758 656.983 351.724 637.719 404.496 637.719C428.183 637.719 446.166 632.512 467.42 620.98C469.263 619.984 474.901 616.661 481.906 612.533C494.136 605.326 510.533 595.663 518.178 591.64C525.979 587.546 533.966 583.768 542.118 580.316C563.819 571.153 580.431 568.966 615.389 568.081C636.727 567.534 645.732 566.753 656.024 563.837C669.392 560.036 679.739 552.851 688.129 540.798C693.884 532.533 706.244 523.319 726.998 510.95C727.001 509.922 727 508.894 726.997 507.867C726.924 507.91 726.851 507.953 726.778 507.997C704.937 520.961 691.933 530.515 685.78 539.392C677.754 550.925 667.938 557.694 655.213 561.338C645.257 564.176 636.392 564.931 615.333 565.451C580.012 566.362 563.092 568.575 540.943 577.947C532.637 581.488 524.723 585.236 516.808 589.376C509.079 593.437 492.619 603.135 480.396 610.337C473.423 614.445 467.83 617.741 466.022 618.715C445.159 630.039 427.652 635.115 404.496 635.115C350.745 635.115 318.164 654.718 246.85 726.647C237.664 735.911 228.621 743.249 219.391 749.128C219.4 749.136 219.408 749.144 219.416 749.152C220.063 749.787 220.716 750.408 221.375 751.014ZM202.591 721.613C229.553 705.637 256.841 684.059 276.886 663.309C305.384 633.84 373.369 603.876 421.276 603.876C435.93 603.876 449.465 600.309 465.21 593.02C470.664 590.495 476.229 587.605 483.78 583.492C482.941 583.935 498.658 575.266 503.273 572.819C533.224 556.782 557.667 547.905 589.269 544C638.014 537.935 654.458 531.296 670.79 515.494C682.536 504.17 684.661 502.296 693.331 496.933C702.754 491.085 713.094 484.024 725.947 474.76C725.887 473.703 725.825 472.648 725.761 471.595C712.229 481.385 701.495 488.727 691.765 494.746C682.871 500.265 680.662 502.217 668.777 513.698C652.92 529.031 637.063 535.409 588.877 541.397C556.856 545.38 532.134 554.387 501.874 570.554C498.334 572.451 488.245 578.009 484.116 580.284C482.862 580.975 482.158 581.363 482.354 581.253C474.859 585.341 469.35 588.178 463.952 590.677C448.599 597.81 435.454 601.273 421.276 601.273C372.558 601.273 303.818 631.575 274.817 661.591C255.094 681.981 228.247 703.227 201.734 719.02C202.009 719.891 202.294 720.756 202.591 721.613ZM196.107 689.075C202.572 685.556 207.361 681.314 212.34 674.79C216.893 668.623 220.79 662.057 223.974 655.187C232.504 637.562 233.734 626.681 231.805 609.837C231.077 603.329 230.91 601.351 231.077 598.305C231.665 586.356 239.551 575.76 262.707 559.36C289.806 540.147 296.798 522.627 287.569 506.617C281.081 495.371 269.475 487.275 248.556 476.471C243.746 473.998 237.761 472.722 229.511 472.097C227.202 471.89 225.696 471.812 221.248 471.58L221.177 471.577C206.775 470.874 202.384 469.676 202.188 465.381C201.965 459.107 211.837 446.195 234.909 423.858C253.115 406.208 267.629 393.556 280.354 383.82C285.049 380.222 289.862 376.758 294.784 373.433L306.279 365.779C308.516 364.269 310.418 362.915 312.235 361.562C321.548 354.689 329.826 346.567 341.292 332.613L348.312 323.97L354.744 315.926C358.574 311.11 362.537 306.388 366.63 301.764C389.814 275.887 412.886 266.307 470.356 262.741C470.109 262.758 470.199 262.752 470.568 262.727C474.088 262.484 503.069 260.485 508.866 260.32C518.654 260.059 525.17 260.71 531.518 262.715C533.672 263.392 535.853 264.277 538.118 265.318C543.236 267.687 545.613 274.508 548.55 291.637L549.752 298.822L549.841 299.32C550.306 301.915 550.703 304.138 551.151 306.268C555.346 326.99 561.75 339.564 574.418 345.994C593.771 355.808 604.874 359.765 615.025 359.167C627.526 358.438 636.699 350.055 643.523 332.275C647.858 320.976 647.886 313.739 643.943 309.157C640.81 305.565 636.615 304.133 626.743 302.311C622.005 301.468 621.371 301.333 619.633 300.963L619.36 300.905C612.648 299.395 607.866 297.521 603.979 294.397C599.507 290.916 595.041 287.427 590.583 283.932C585.493 279.975 582.109 277.215 579.285 274.69C572.489 268.65 569.748 264.537 570.811 262.012C572.964 256.831 591.925 254.488 621.066 254.905C636.618 255.227 652.156 255.991 667.658 257.196C669.263 257.349 670.863 257.543 672.456 257.778C672.659 256.95 672.864 256.122 673.074 255.294C671.776 255.109 670.105 254.881 667.91 254.593C652.349 253.301 636.743 252.537 621.122 252.302C590.052 251.859 571.035 254.202 568.182 261.075C566.56 265.032 569.72 269.796 577.355 276.564C581.049 279.802 584.855 282.927 588.765 285.936C593.267 289.364 597.723 292.844 602.133 296.375C606.44 299.786 611.613 301.868 618.717 303.43C621.193 303.964 623.683 304.441 626.184 304.862C635.385 306.554 639.244 307.856 641.761 310.771C644.949 314.494 644.921 320.872 640.866 331.39C634.406 348.311 626.044 355.913 614.858 356.563C605.377 357.11 594.638 353.283 575.733 343.703C564.043 337.768 557.946 325.793 553.919 305.773C553.444 303.534 552.996 301.191 552.521 298.406L551.29 291.221C548.214 273.05 545.697 265.943 539.349 262.975C536.972 261.882 534.678 260.971 532.441 260.268C525.701 258.133 518.906 257.456 508.782 257.716C502.294 257.925 467.504 260.32 468.734 260.268C411.991 263.756 388.192 273.623 364.504 300.098C361.008 303.951 357.541 308.142 352.507 314.364L346.046 322.408C343.733 325.301 341.402 328.182 339.055 331.051C327.729 344.823 319.619 352.763 310.502 359.531C308.712 360.859 306.838 362.16 304.629 363.67L293.107 371.324C288.129 374.734 283.57 377.989 278.564 381.815C265.756 391.604 251.157 404.334 232.895 422.036C209.208 444.997 199.14 458.17 199.42 465.485C199.671 471.967 204.873 473.399 221.01 474.18L221.101 474.185C225.533 474.415 227.038 474.494 229.26 474.675C237.146 475.299 242.823 476.471 247.214 478.762C267.629 489.305 278.956 497.193 285.108 507.841C293.61 522.575 287.094 538.794 261.001 557.303C237.258 574.12 228.896 585.314 228.281 598.175C228.17 602.162 228.423 606.15 229.036 610.098C230.91 626.525 229.735 636.964 221.429 654.093C217.57 662.085 213.85 668.333 210.075 673.28C205.634 679.067 201.396 682.954 195.843 686.171C195.926 687.142 196.014 688.11 196.107 689.075ZM130.268 532.975C138.042 523.048 144.425 513.722 148.745 505.68C155.037 493.965 161.749 489.071 170.223 489.409C173.747 489.565 177.522 490.581 182.304 492.533C185.664 493.889 188.967 495.365 192.204 496.959L195.728 498.599C209.096 504.691 219.164 507.554 231.105 507.554C251.241 507.554 259.1 515.546 254.457 528.146C250.542 538.716 237.901 551.341 223.415 559.438C205.888 569.227 196.095 589.909 192.349 617.687C192.009 614.4 191.603 611.148 191.114 607.942C195.802 584.144 205.628 566.344 221.988 557.199C235.972 549.389 248.137 537.232 251.8 527.313C255.772 516.562 249.479 510.158 231.105 510.158C218.661 510.158 208.201 507.19 194.498 500.942C178.501 493.675 175.869 492.432 173.139 492.151C172.279 492.062 171.41 492.069 170.111 492.013C162.896 491.752 157.107 495.97 151.262 506.851C146.95 514.874 140.623 524.145 132.928 534.007C132.046 533.656 131.159 533.312 130.268 532.975ZM106.855 525.421C107.806 525.692 108.755 525.965 109.703 526.241C111.394 524.181 113.073 522.116 114.738 520.05C115.379 519.262 119.165 513.69 124.567 505.739C136.841 487.671 157.459 457.322 168.489 442.915C194.414 409.046 218.996 384.757 242.963 372.001C263.742 360.963 280.466 344.744 296.462 322.434C298.486 319.609 303.023 312.61 308.247 304.552C317.177 290.778 328.112 273.911 331.924 269.509C335.979 264.771 339.754 261.699 343.502 260.138C382.542 243.971 410.592 236.812 452.01 236.812H533.112C544.634 236.812 553.863 235.797 597.603 230.304L609.628 228.794C637.258 225.436 655.744 223.796 670.147 223.796C673.818 223.796 676.824 223.812 682.18 223.857C682.45 222.991 682.719 222.126 682.988 221.261C677.128 221.21 673.993 221.192 670.147 221.192C655.604 221.192 637.007 222.832 609.264 226.217L597.239 227.701C553.695 233.167 544.439 234.209 533.112 234.209H452.01C410.117 234.209 381.731 241.472 342.383 257.742C338.132 259.513 334.049 262.845 329.742 267.869C325.817 272.432 314.695 289.585 305.719 303.43C300.561 311.385 296.111 318.248 294.141 321.002C278.368 343 261.952 358.906 241.565 369.762C217.15 382.726 192.344 407.249 166.196 441.431C154.912 456.173 133.693 487.415 121.554 505.289C116.544 512.666 113.081 517.766 112.501 518.488C110.637 520.802 108.754 523.115 106.855 525.421ZM696.481 171.757C696.316 172.622 696.144 173.488 695.968 174.354C694.833 174.34 693.706 174.333 692.576 174.333C635.804 174.333 585.745 184.017 528.107 205.468C508.502 212.758 495.386 215.361 480.648 215.569C476.453 215.621 473.964 215.543 464.819 215.205C437.524 214.163 417.836 215.179 382.403 221.192C340.285 228.299 314.389 246.132 296.518 274.065C292.467 280.481 288.825 287.114 285.612 293.928C285.276 294.657 278.928 308.168 277.194 311.605C274.965 316.376 272.048 320.843 268.524 324.881C263.322 330.426 257.142 334.409 236.083 346.619C213.85 359.531 201.545 367.315 187.31 378.249C162.812 397.071 143.32 418.418 128.889 444.372C112.847 473.263 97.8844 498.259 84.1535 519.079C83.2302 518.814 82.3088 518.546 81.3896 518.276C95.1814 497.415 110.255 472.278 126.428 443.175C141.026 416.882 160.743 395.274 185.521 376.244C199.867 365.206 212.256 357.37 234.601 344.406C255.352 332.379 261.505 328.422 266.427 323.163C269.778 319.303 272.553 315.038 274.677 310.485C276.383 307.101 282.703 293.642 283.067 292.861C286.87 285.051 290.226 278.803 294.113 272.737C312.375 244.179 338.943 225.878 381.927 218.589C417.528 212.601 437.44 211.56 464.931 212.601C474.02 212.94 476.481 213.018 480.592 212.966C494.995 212.784 507.747 210.258 527.044 203.073C585.046 181.466 635.413 171.73 692.576 171.73C693.877 171.73 695.174 171.739 696.481 171.757ZM698.884 132.6C699.059 134.342 699.189 136.087 699.277 137.837C698.424 138.001 697.552 138.174 696.659 138.356C687.919 140.188 679.22 142.184 670.566 144.343L659.66 146.92C620.898 155.928 559.932 162.618 530.344 162.618C521.982 162.618 519.409 163.66 494.911 175.348C475.754 184.486 462.442 188.651 446.445 188.651C408.271 188.651 350.381 199.741 316.179 214.424C300.014 221.374 284.241 234.261 271.433 249.776C260.666 262.845 253.478 276.33 253.478 282.37C253.478 301.296 237.258 318.347 195.812 334.227C155.904 349.534 103.076 405.063 76.9557 450.204C71.6421 459.445 68.7057 466.552 63.1684 482.485C59.719 492.371 56.4953 500.676 52.9656 508.069C51.2861 507.296 49.6322 506.49 48.0068 505.649C51.3983 498.512 54.5099 490.472 57.8548 480.871C63.504 464.678 66.4964 457.337 72.0337 447.757C98.7135 401.652 152.325 345.265 193.687 329.437C233.259 314.26 247.885 298.874 247.885 282.37C247.885 274.846 255.52 260.502 266.986 246.626C280.298 230.486 296.77 217.053 313.829 209.712C348.787 194.691 407.516 183.445 446.445 183.445C461.323 183.445 473.936 179.54 492.366 170.714C518.095 158.453 520.611 157.412 530.344 157.412C559.485 157.412 620.004 150.773 658.317 141.87L669.168 139.319L678.872 137.002C686.143 135.284 690.982 134.19 695.456 133.279C696.631 133.038 697.773 132.812 698.884 132.6ZM692.654 107.103C692.873 107.656 693.09 108.21 693.303 108.767C693.44 109.127 693.575 109.487 693.708 109.847C690.708 109.432 688.569 109.225 686.926 109.225C677.977 109.225 663.659 112.401 631.721 120.888C597.183 130.077 586.136 132.654 577.858 132.654L571.258 132.602C549.053 132.342 535.322 133.045 519.605 136.299C505.706 139.189 493.596 143.849 483.584 150.617C480.309 152.871 476.795 154.807 473.097 156.396C463.812 160.301 456.317 161.265 436.629 161.837C396.777 162.983 371.943 165.742 326.526 176.858C315.221 179.55 304.068 182.765 293.107 186.49C273.055 193.519 260.973 200.704 254.15 209.087C248.836 215.647 246.934 221.479 244.837 234.599C242.32 250.427 240.558 257.196 235.133 267.297C228.92 279.163 219.636 289.405 208.117 297.104C199.392 302.988 191.477 306.814 174.754 313.765L168.293 316.473C154.282 322.382 145.417 326.86 136.831 332.847C100.755 358.047 92.2812 369.736 47.759 459.888C41.6314 472.327 35.4768 483.246 29.2449 492.808C28.5665 492.187 27.8988 491.552 27.2424 490.903C33.2861 481.578 39.269 470.944 45.2421 458.847C89.9041 368.33 98.6016 356.303 135.153 330.791C143.935 324.647 152.968 320.117 167.119 314.13L173.635 311.422C206.999 297.495 220.814 288.175 232.644 266.177C237.901 256.363 239.579 249.802 242.068 234.235C244.25 220.724 246.207 214.554 251.94 207.551C259.128 198.7 271.6 191.228 292.1 184.095C301.524 180.815 312.683 177.587 325.799 174.385C371.468 163.191 396.497 160.432 436.545 159.26C455.842 158.687 463.113 157.802 471.95 154.053C475.278 152.648 478.55 150.851 481.962 148.561C492.31 141.532 504.727 136.742 518.989 133.8C534.958 130.494 548.885 129.791 571.286 130.025L577.858 130.077C585.745 130.077 596.875 127.474 632.952 117.868C663.239 109.85 677.558 106.648 686.926 106.648C688.437 106.648 690.264 106.794 692.654 107.103ZM680.612 83.7801C681.185 84.6694 681.748 85.5656 682.301 86.4686C681.652 86.4357 680.994 86.4021 680.327 86.3679C652.612 84.9361 637.482 85.2225 622.94 88.3985C609.163 91.4011 595.123 93.2395 580.991 93.8914L574.698 94.2559C539.768 96.2084 520.528 98.8897 483.193 109.199C470.608 112.661 457.268 115.681 443.201 118.258C413.092 123.588 382.634 127.04 352.031 128.593C330.889 129.765 315.088 130.077 295.428 130.077C280.326 130.077 262.148 134.268 245.089 143.562C221.877 156.24 202.971 177.067 190.471 207.343C186.947 216.146 182.683 224.677 177.718 232.855C167.65 248.995 158.365 256.259 140.299 264.563L129.029 269.666C113.606 276.639 99.3296 285.624 86.632 296.349C63.6997 315.431 48.2624 339.642 23.5962 389.026L17.7793 400.715C11.7183 412.849 6.42149 423.125 1.54119 432.023C1.32692 430.477 1.13599 428.923 0.967773 427.363C5.30354 419.315 9.99192 410.166 15.2623 399.596L21.1072 387.881C45.9132 338.236 61.4904 313.791 84.7863 294.423C97.6694 283.542 112.152 274.426 127.798 267.349L139.097 262.22C156.715 254.15 165.581 247.199 175.341 231.579C180.222 223.508 184.412 215.091 187.87 206.406C200.622 175.583 219.947 154.288 243.718 141.323C261.197 131.795 279.879 127.474 295.456 127.474C315.06 127.474 330.833 127.161 351.863 125.99C382.345 124.438 412.681 120.994 442.67 115.681C456.653 113.13 469.937 110.136 482.438 106.7C519.996 96.3385 539.433 93.6311 574.558 91.6526L580.823 91.2882C596.931 90.3249 608.23 88.9452 622.353 85.8473C636.441 82.76 650.957 82.3674 680.612 83.7801ZM659.233 57.6223C660.084 58.4628 660.926 59.3119 661.758 60.1696C606.536 61.4041 549.28 65.6319 516.668 72.7787C505.873 75.1217 458.806 86.3159 462.414 85.4828C448.501 88.7837 434.525 91.8473 420.493 94.6724C389.618 100.79 364.252 104.044 342.97 104.044C283.123 104.044 231.777 113.598 203.978 132.42C195.588 138.121 188.205 147.259 178.529 162.827C177.262 164.887 174.061 170.223 170.949 175.412C168.084 180.188 165.294 184.84 164.154 186.699C146.004 216.116 130.595 232.803 108.614 241.888C70.5726 257.645 35.8413 292.43 14.399 327.564C15.6269 323.848 16.9123 320.174 18.2468 316.551C40.1296 284.438 72.3309 254.072 107.495 239.519C128.777 230.72 143.851 214.398 161.749 185.397C162.741 183.771 165.016 179.977 167.501 175.833C170.905 170.157 174.701 163.827 176.124 161.525C185.968 145.645 193.519 136.273 202.328 130.337C230.714 111.073 282.591 101.441 342.97 101.441C364.001 101.441 389.226 98.2129 419.905 92.1212C433.91 89.3044 447.858 86.2493 461.743 82.9576C458.107 83.8167 505.202 72.5965 516.053 70.2275C548.397 63.142 604.598 58.9261 659.233 57.6223ZM637.699 39.4531C638.88 40.3088 640.052 41.1769 641.213 42.0573C634.58 42.0727 627.128 41.9869 618.074 41.8257C606.943 41.5914 604.538 41.5653 600.259 41.5653C583.731 41.5653 557.807 45.9128 512.334 55.4148L504.083 57.159C442.11 70.2275 428.435 72.8048 415.682 72.8048C408.691 72.8048 400.441 73.7419 389.31 75.6423C384.892 76.3973 380.221 77.2564 373.537 78.532C367.757 79.648 361.977 80.7674 356.198 81.8903C323.534 88.0601 299.427 91.0278 273.055 91.0278C252.693 91.0278 235.14 92.7752 219.99 96.5607C221.312 95.3395 222.648 94.1372 224.001 92.9555C238.292 89.8632 254.55 88.4245 273.055 88.4245C299.231 88.4245 323.142 85.4828 355.639 79.339C361.425 78.2556 367.204 77.1448 372.978 76.0068C379.69 74.7052 384.36 73.8201 388.807 73.0651C400.077 71.1387 408.495 70.2015 415.682 70.2015C428.099 70.2015 441.943 67.5982 503.468 54.6078L511.718 52.8896C557.415 43.3356 583.424 38.962 600.259 38.962C604.566 38.962 606.971 38.9881 618.158 39.2224C625.613 39.3558 631.981 39.4376 637.699 39.4531ZM551.032 0.525879C552.661 0.919021 554.293 1.32947 555.929 1.7573C554.464 2.2107 552.913 2.68771 551.263 3.19284C540.714 6.42308 530.161 9.64247 519.605 12.851C508.139 16.4175 498.686 19.2551 477.152 25.6592C459.198 30.9699 451.311 33.3389 441.635 36.2806C411.627 45.4702 390.541 52.6813 374.32 59.6582C358.212 66.5829 329.658 70.4358 291.065 72.0759C278.442 72.5888 266.537 72.8511 252.714 72.9349C254.409 72.0215 256.113 71.1409 257.827 70.2911C269.488 70.1774 279.943 69.9206 290.953 69.4726C329.155 67.8585 357.457 64.0317 373.146 57.3152C389.506 50.2863 410.676 43.0231 440.768 33.8335C450.444 30.8658 458.359 28.4968 476.285 23.1601C497.819 16.782 507.272 13.9444 518.71 10.4039C529.252 7.12056 539.814 3.89241 550.396 0.719694C550.609 0.654641 550.821 0.590039 551.032 0.525879ZM309.603 52.4659C318.798 55.0237 327.391 55.6196 335.951 53.983C338.524 53.5144 341.013 52.8115 343.502 51.8744L349.263 49.8437C350.018 49.6094 362.826 45.4182 366.741 44.0645C375.059 41.1373 381.813 38.2673 387.424 35.0517C384.784 35.8166 382.141 36.5414 379.495 37.219C377.558 37.7151 375.618 38.196 373.676 38.664C371.214 39.6535 368.582 40.6332 365.763 41.6174C362.597 42.7278 353.409 45.7301 349.777 46.917C348.982 47.177 348.453 47.3499 348.312 47.3967C346.342 48.0603 344.384 48.7546 342.439 49.4793C340.146 50.3384 337.796 50.9892 335.391 51.4317C328.859 52.6827 322.254 52.5422 315.295 51.1341C313.394 51.5675 311.496 52.0107 309.603 52.4659ZM143.277 538.586C143.784 537.707 144.086 537.185 144.047 537.258C156.464 516.067 165.609 507.242 178.305 510.184C181.577 510.965 184.458 512.188 188.317 514.323L192.204 516.51C194.958 518.13 197.859 519.524 200.874 520.675C202.832 521.378 205.908 521.508 214.158 521.352L216.171 521.326C225.009 521.195 229.539 521.534 232.476 523.044C236.978 525.361 235.832 529.708 229.288 535.8C225.733 539.104 222.135 542.367 218.493 545.588C197.406 564.291 188.277 572.72 183.485 579.447C183.072 578.471 182.642 577.505 182.194 576.548C187.354 569.852 196.727 561.265 216.563 543.688C220.898 539.861 224.198 536.867 227.33 533.978C232.755 528.901 233.399 526.48 231.105 525.309C228.812 524.137 224.477 523.799 216.227 523.929L214.214 523.955C205.432 524.111 202.3 524.007 199.839 523.07C196.875 522.002 194.33 520.727 190.75 518.722L186.891 516.562C184.029 514.861 180.908 513.571 177.634 512.735C166.783 510.21 158.281 518.384 146.508 538.507C146.553 538.428 146.251 538.952 145.739 539.837C144.925 539.411 144.104 538.994 143.277 538.586ZM581.466 393.764C569.049 386.866 559.093 380.644 549.473 373.589H549.501C547.403 372.027 545.362 370.465 543.348 368.903C539.601 365.935 536.021 360.338 531.49 350.836C530.514 348.815 528.089 343.484 526.137 339.191C524.845 336.35 523.759 333.964 523.436 333.29C515.242 315.562 508.53 305.148 499.441 298.536C478.383 283.203 456.625 283.801 422.898 298.224C401.056 307.595 357.904 346.28 326.806 382.258C320.821 389.183 313.242 395.405 300.741 404.256C299.7 405.017 296.061 407.587 293.148 409.644C291.68 410.68 290.397 411.586 289.723 412.066C285.528 415.033 282.312 417.402 279.431 419.745C267.434 429.351 261.561 437.448 261.868 446.455C262.567 466.474 313.55 506.383 358.408 529.37C363.339 531.899 368.188 534.565 372.95 537.362C372.95 537.388 411.096 561.416 421.052 566.024C445.83 577.531 468.175 575.891 499.245 557.485C506.229 553.363 513.529 549.726 521.087 546.604C535.462 540.642 540.244 539.236 573.719 530.255C596.12 524.267 607.978 520.024 618.689 513.177C632.281 504.482 640.894 492.559 644.949 475.586C652.36 444.398 641.929 427.868 610.411 409.645C606.896 407.61 596.942 402.198 589.607 398.21C585.678 396.073 582.5 394.346 581.466 393.764ZM526.373 352.945C531.239 363.124 535.154 369.241 539.712 372.86C541.782 374.5 543.879 376.088 546.033 377.65C555.849 384.887 566.001 391.213 578.585 398.216C579.701 398.845 583.152 400.721 587.341 402.998C594.601 406.945 604.077 412.096 607.447 414.044C637.147 431.226 646.292 445.752 639.468 474.44C635.748 490.164 627.946 500.942 615.529 508.856C605.461 515.312 593.995 519.425 572.181 525.257C538.398 534.316 533.504 535.748 518.822 541.866C511.013 545.085 503.47 548.835 496.253 553.086C466.777 570.528 446.529 572.038 423.541 561.364C414.362 557.117 379.243 535.03 376.133 533.073C376.002 532.991 375.928 532.945 375.914 532.936C370.88 529.995 366.014 527.313 361.092 524.788C318.192 502.842 268.049 463.585 267.461 446.299C267.21 439.296 272.244 432.345 283.067 423.676C286.335 421.088 289.683 418.588 293.107 416.179L304.125 408.421C316.962 399.336 324.82 392.879 331.169 385.538C361.764 350.133 404.412 311.865 425.247 302.962C457.268 289.242 476.9 288.722 496.001 302.649C504.111 308.533 510.46 318.425 518.318 335.347C518.599 335.943 519.503 337.934 520.622 340.4C522.63 344.822 525.331 350.772 526.373 352.945ZM547.042 426.227C536.594 421.575 525.805 416.771 519.801 413.94L519.773 413.966C506.517 407.718 494.603 399.153 480.061 386.371C478.894 385.348 475.741 382.497 472.115 379.218C466.697 374.317 460.223 368.462 457.744 366.326C449.633 359.375 443.229 354.819 436.965 351.956C422.506 345.265 409.306 348.025 395.099 362.16C390.852 366.346 386.449 370.392 381.899 374.292C373.798 381.205 365.508 387.923 357.037 394.441C318.08 424.796 315.563 426.852 306.418 436.953C293.498 451.245 292.463 461.762 305.943 468.531C314.319 472.995 322.38 477.951 330.078 483.37C331.628 484.404 336.802 487.95 342.536 491.88C349.212 496.455 356.647 501.551 360.002 503.805C373.817 513.021 385.199 520.128 396.19 526.038C424.967 541.553 448.067 547.358 466.497 541.293C467.818 540.858 472.989 539.234 479.847 537.08C494.324 532.532 516.321 525.623 525.506 522.549C552.829 513.386 572.992 505.211 586.891 496.985C604.342 486.65 610.942 476.549 604.23 466.709C601.085 461.97 597.58 457.446 593.743 453.171C588.221 447.167 581.533 442.185 574.027 438.489C570.842 436.825 559.172 431.628 547.042 426.227ZM478.131 388.271C492.841 401.21 504.95 409.905 518.514 416.283C524.421 419.044 534.839 423.682 545.028 428.218C557.416 433.733 569.465 439.097 572.657 440.754C579.876 444.303 586.309 449.09 591.618 454.864C595.372 459.04 598.801 463.459 601.881 468.088C607.475 476.315 601.713 485.14 585.381 494.798C571.706 502.894 551.682 510.991 524.555 520.102C515.253 523.203 492.743 530.28 478.275 534.828C471.733 536.884 466.835 538.424 465.546 538.846C448.123 544.573 425.722 538.95 397.588 523.799C385.223 516.991 373.229 509.615 361.652 501.697C357.869 499.155 348.903 493.013 341.684 488.067C336.998 484.858 333.049 482.152 331.728 481.261C320.989 474.024 313.522 469.364 307.285 466.24C295.763 460.487 296.602 451.844 308.572 438.619C317.549 428.701 320.094 426.618 358.855 396.42C369.37 388.219 376.865 382.18 383.801 376.192C388.39 372.25 392.83 368.16 397.113 363.931C410.536 350.628 422.422 348.129 435.706 354.272C441.691 357.058 447.927 361.458 455.842 368.252C458.557 370.574 466.129 377.427 471.803 382.563C474.719 385.202 477.134 387.388 478.131 388.271ZM433.413 439.062C425.862 436.901 418.619 436.276 409.921 437.239V437.265C395.015 438.905 382.738 443.123 375.802 449.501C367.72 456.946 367.245 466.813 375.355 478.293C386.038 493.392 396.33 503.675 409.334 510.314C425.974 518.774 445.634 519.998 469.266 512.657C496.672 504.17 513.34 496.412 519.157 488.758C526.121 479.569 517.899 471.082 494.463 463.35C481.039 458.925 470.86 454.838 457.576 448.876C441.076 441.483 439.426 440.78 433.413 439.062ZM377.76 451.349C384.164 445.466 395.91 441.405 410.257 439.843H410.229C417.732 438.877 425.371 439.464 432.602 441.561C438.419 443.227 440.041 443.904 456.373 451.219C469.741 457.207 479.977 461.32 493.512 465.797C515.466 473.061 522.289 480.09 516.864 487.249C511.55 494.277 495.19 501.879 468.371 510.21C445.466 517.317 426.645 516.119 410.704 508.023C398.12 501.619 388.136 491.648 377.704 476.861C370.265 466.37 370.685 457.857 377.76 451.349Z" fill="url(#paint0_linear)"/>
<defs>
<linearGradient id="paint0_linear" x1="652" y1="351.5" x2="98.4999" y2="388" gradientUnits="userSpaceOnUse">
<stop stop-color="#007A7A"/>
<stop offset="0.364583" stop-color="#007A7A" stop-opacity="0.453125"/>
<stop offset="0.953125" stop-color="#007A7A" stop-opacity="0"/>
</linearGradient>
</defs>
</svg>
