<svg width="838" height="962" viewBox="0 0 838 962" fill="none" xmlns="http://www.w3.org/2000/svg">
<path fill-rule="evenodd" clip-rule="evenodd" d="M812.684 503.158C812.359 502.472 812.033 501.786 811.706 501.1C804.99 504.471 797.554 507.665 789.213 510.853C785.721 512.201 782.085 513.549 777.581 515.122L766.142 519.211C742.588 527.636 730.498 533.298 720.431 541.902C710.244 550.62 697.191 556.73 680.044 561.763C675.347 563.111 670.434 564.392 664.462 565.807L649.674 569.244C636.934 572.277 629.685 574.569 624.291 577.737C616.873 582.05 608.323 585.061 593.609 589.037C589.746 590.079 585.877 591.098 582 592.093C577.087 593.396 573.33 594.429 569.549 595.508C560.389 598.084 551.384 601.122 542.576 604.607C536.073 607.191 529.33 613.436 521.431 623.479C516.236 630.205 511.296 637.099 506.62 644.148C492.772 664.526 488.364 670.524 481.958 676.747C478.477 680.116 474.777 683.282 470.88 686.228C467.923 688.478 461.135 693.06 454.873 697.286C449.252 701.081 444.055 704.589 442.437 705.864C438.884 708.421 435.884 711.585 433.599 715.188C430.612 720.355 429.023 725.455 426.904 735.116C421.678 758.953 418.426 768.389 407.155 784.767C397.353 798.989 390.779 806.964 383.481 813.951C382.349 815.03 381.194 816.108 379.869 817.276L370.838 825.275C366.816 828.869 363.179 832.284 359.133 836.283C348.117 847.06 339.959 860.094 335.315 874.342C329.294 892.607 328.764 909.098 331.076 935.496C332.208 948.572 332.304 949.785 332.304 953.874C332.304 956.673 332.308 959.362 332.318 961.959C333.12 961.975 333.925 961.986 334.731 961.993C334.718 959.329 334.713 956.623 334.713 953.874C334.713 949.695 334.616 948.482 333.46 935.316C331.197 909.187 331.726 892.922 337.627 874.993C342.154 861.076 350.113 848.341 360.867 837.811C364.889 833.857 368.526 830.464 372.499 826.915C372.912 826.548 373.659 825.888 374.558 825.094C376.959 822.971 380.444 819.891 381.531 818.894C382.769 817.788 383.989 816.664 385.191 815.524C392.633 808.424 399.304 800.336 409.178 785.98C420.666 769.31 423.99 759.672 429.264 735.565C431.335 726.107 432.876 721.186 435.718 716.244C437.356 713.435 440.029 710.672 443.979 707.572C445.515 706.377 450.483 703.023 455.946 699.335C462.302 695.044 469.328 690.3 472.397 687.981C476.515 684.835 480.248 681.668 483.716 678.32C490.267 671.917 494.698 665.873 508.667 645.361C513.305 638.351 518.204 631.495 523.357 624.804C531.064 615.076 537.567 609.055 543.515 606.674C551.944 603.304 560.518 600.451 570.248 597.642C576.318 595.898 582.42 594.251 588.551 592.7L594.283 591.194C609.19 587.173 617.909 584.095 625.543 579.624C630.697 576.636 637.777 574.389 650.277 571.424L665.064 567.986C671.085 566.571 676.022 565.29 680.766 563.897C698.202 558.797 711.569 552.529 722.069 543.565C731.823 535.207 743.744 529.636 767.009 521.323L778.448 517.234C782.952 515.616 786.612 514.291 790.128 512.943C798.474 509.744 805.933 506.54 812.684 503.158ZM367.077 960.207C366.261 960.293 365.446 960.376 364.632 960.457C364.68 953.684 365.133 947.066 365.997 940.259C367.683 927.228 367.851 918.511 367.322 905.885C366.888 895.887 366.912 893.124 367.779 888.743C369.658 879.082 376.064 869.579 392.802 852.032C414.645 829.116 422.328 817.411 440.487 784.295C443.738 778.364 446.098 774.253 448.627 770.141C450.794 766.592 453.01 763.266 455.298 760.031C462.86 749.472 472.229 741.114 495.854 722.265C522.876 700.697 533.183 691.126 539.517 679.286C541.203 676.141 542.648 672.995 544.165 669.401C545.396 666.38 546.592 663.346 547.754 660.302C556.496 637.97 567.045 629.006 602.905 620.289C612.379 617.986 637.678 612.15 648.939 609.552C651.961 608.855 653.972 608.391 654.395 608.291C693.386 599.08 715.398 591.756 735.026 579.983L735.12 579.927C749.139 571.513 749.207 571.472 801.64 542.846L807.902 539.431C813.85 536.177 819.327 533.158 824.404 530.332C824.678 531.058 824.95 531.784 825.218 532.512C820.264 535.266 814.931 538.203 809.154 541.363L802.893 544.801C750.508 573.382 750.439 573.423 736.445 581.814L736.351 581.871C716.434 593.823 694.229 601.214 654.997 610.471C654.561 610.574 652.439 611.063 649.263 611.796C637.87 614.423 612.915 620.179 603.555 622.445C584.216 627.163 571.885 632.555 563.938 639.295C557.532 644.732 554.305 650.214 550.042 661.088L546.429 670.232C545.028 673.648 543.453 676.999 541.709 680.275C535.158 692.519 524.754 702.18 497.444 723.972C474.011 742.665 464.69 750.977 457.345 761.267C455.025 764.529 452.824 767.864 450.746 771.265C448.217 775.331 445.905 779.42 442.678 785.306C424.423 818.579 416.62 830.419 394.608 853.515C378.159 870.814 371.97 879.981 370.163 889.147C369.345 893.304 369.344 895.977 369.754 905.773C370.284 918.534 370.091 927.341 368.429 940.528C367.584 947.152 367.136 953.603 367.077 960.207ZM397.954 956.166C397.155 956.283 396.356 956.4 395.556 956.516C394.85 942.69 395.175 936.873 396.92 930.486C399.834 919.837 407.059 914.535 420.208 914.535H482.825C492.651 914.535 495.324 918.691 497.107 930.508C497.347 932.283 497.42 932.688 497.564 933.474C497.768 934.683 497.999 935.822 498.264 936.891C497.503 937.145 496.74 937.396 495.978 937.645C495.67 936.45 495.407 935.179 495.18 933.833L494.698 930.823C493.085 919.994 491.014 916.804 482.825 916.804H420.208C408.167 916.804 401.905 921.387 399.256 931.048C397.584 937.127 397.276 942.801 397.954 956.166ZM454.49 948.335C451.297 948.91 448.09 949.424 444.866 949.874C445.925 949.208 447.108 948.728 448.41 948.437C450.248 948.019 452.284 947.994 454.49 948.335ZM835.9 682.229C830.602 682.063 824.679 681.804 818.041 681.465C808.357 680.851 798.655 680.514 788.948 680.454C768.887 680.454 758.339 676.141 746.152 664.907C744.969 663.826 741.76 660.683 738.474 657.463C735.271 654.326 731.995 651.117 730.45 649.675C724.839 644.44 719.251 641.902 713.158 641.609C707.306 641.295 704.633 642.014 691.58 646.552C682.067 649.855 675.949 651.27 668.532 651.27C656.49 651.27 649.193 655.202 640.812 664.525C639.246 666.278 633.755 672.703 633.105 673.467C630.208 676.858 627.088 680.077 623.761 683.105C620.078 686.431 616.08 689.439 611.815 692.092C595.8 702.022 588.936 711.144 581.23 729.162L579.881 732.397L579.159 734.06C577.965 736.951 576.729 739.828 575.45 742.687C572.993 748.146 570.561 753.044 567.671 758.032C560.735 770.051 550.283 776.499 527.644 785.104L518.204 788.631C514.302 790.092 511.316 791.26 508.329 792.451C500.695 795.506 494.12 798.472 487.859 801.842C481.42 805.266 475.291 809.173 469.531 813.524C430.902 842.798 425.025 851.65 425.025 880.408C425.025 894.562 432.924 900.044 447.447 898.156C457.49 896.853 461.054 895.618 494.241 883.171L496.023 882.52C504.043 879.509 507.559 879.689 508.618 881.621C509.654 883.576 509.461 886.429 508.016 894.652L507.438 898.156C505.391 911.591 507.727 918.938 518.806 920.825C528.8 922.51 535.158 920.106 540.481 914.49C540.671 914.277 541.05 913.844 541.501 913.328C542.531 912.149 543.939 910.537 544.358 910.131C546.303 908.272 547.842 908.803 553.391 915.445C554.89 914.809 556.389 914.171 557.889 913.533C557.68 913.269 557.464 913.004 557.243 912.737C550.114 904.2 545.49 902.605 540.914 907.008C540.346 907.538 538.853 909.244 537.83 910.413C537.377 910.931 537.016 911.343 536.868 911.502C532.605 916.017 527.909 917.792 519.649 916.399C512.062 915.119 510.473 910.109 512.207 898.785L512.785 895.348C514.423 885.822 514.639 882.834 512.929 879.621C510.377 874.858 504.283 874.589 494.241 878.318L492.434 878.992C459.874 891.237 456.213 892.472 446.797 893.708C434.998 895.235 429.844 891.642 429.842 880.414C429.844 853.242 434.955 845.534 472.566 817.007C478.128 812.806 484.048 809.034 490.267 805.728C496.733 802.312 503.407 799.252 510.256 796.562C513.17 795.394 516.156 794.248 520.01 792.81L529.451 789.26C553.076 780.296 564.299 773.354 571.909 760.144C574.854 755.029 577.523 749.78 579.905 744.417C581.17 741.516 582.422 738.61 583.662 735.7L584.336 734.037L585.709 730.825C593.055 713.593 599.413 705.19 614.489 695.822C618.994 693.016 623.218 689.835 627.108 686.318C630.572 683.17 633.821 679.824 636.838 676.298C637.078 676.028 637.877 675.094 638.884 673.916C640.81 671.662 643.5 668.516 644.497 667.424C652.059 659.021 658.104 655.741 668.532 655.741C676.648 655.741 683.271 654.236 693.265 650.753C705.524 646.507 708.004 645.833 712.893 646.103C717.734 646.328 722.238 648.372 727.03 652.843C728.579 654.276 731.975 657.606 735.263 660.829C738.467 663.971 741.568 667.011 742.757 668.098C755.81 680.14 767.562 684.948 788.948 684.948C796.077 684.948 803.061 685.217 815.32 685.824L817.776 685.959C824.327 686.292 830.197 686.552 835.475 686.723C835.624 685.227 835.766 683.729 835.9 682.229ZM837.777 649.126C837.757 649.886 837.735 650.646 837.712 651.406C830.64 652.511 824.118 652.733 817.993 652.146C805.759 650.956 796.27 647.091 782.422 638.846L774.715 634.195C770.458 631.581 766.087 629.13 761.614 626.849C751.86 621.951 753.787 613.818 765.154 603.326C774.089 595.059 788.274 585.51 810.262 572.322L821.003 565.987L821.08 565.941C825.507 563.335 829.486 560.992 833.074 558.877C833.247 559.66 833.414 560.443 833.576 561.229C830.17 563.234 826.42 565.439 822.28 567.874C818.698 569.98 815.126 572.099 811.563 574.232C789.719 587.33 775.63 596.811 766.84 604.921C756.46 614.537 754.919 620.94 762.746 624.872C766.84 626.916 770.669 629.096 775.992 632.286L783.698 636.959C797.281 645.024 806.457 648.754 818.234 649.9C824.269 650.488 830.732 650.257 837.777 649.126ZM837.975 626.01C837.981 626.757 837.986 627.505 837.99 628.252C828.885 628.828 819.601 628.428 810.166 626.961C795.571 624.715 789.334 619.57 791.26 611.976C792.802 605.82 799.762 598.384 811.274 589.734C816.933 585.465 823.556 581.017 831.118 576.321C832.6 575.4 834.096 574.482 835.617 573.561C835.721 574.393 835.818 575.227 835.908 576.064C834.741 576.773 833.588 577.479 832.443 578.186C825.683 582.344 819.126 586.781 812.791 591.486C801.689 599.844 794.969 606.988 793.596 612.493C792.079 618.491 797.161 622.67 810.575 624.76C819.867 626.201 829.008 626.589 837.975 626.01ZM833.665 702.084C833.397 701.845 833.11 701.607 832.804 701.371C829.264 698.607 824.351 697.709 817.656 698.225C812.839 698.585 810.503 699.012 797.594 701.685C788.226 703.64 782.494 704.584 776.401 705.033C766.431 705.752 758.049 704.651 750.68 701.214C744.737 698.503 739.33 694.872 734.689 690.474C732.642 688.565 730.835 686.565 728.788 684.116C727.994 683.105 724.79 679.084 723.972 678.118C717.614 670.457 712.147 667.401 701.984 667.401C689.027 667.401 678.31 672.479 659.404 685.33L656.081 687.599C645.364 694.9 640.258 698.136 633.996 701.236C623.761 706.269 616.03 713.975 607.384 726.713C605.958 728.823 601.782 735.617 596.898 743.563C590.237 754.399 582.26 767.377 578.147 773.534C569.381 786.564 561.891 790.586 544.334 794.45C529.354 797.708 524.056 799.236 515.049 803.662C502.622 809.773 490.291 819.388 477.093 834.059C463.053 849.651 459.898 858.278 466.906 861.491C471.723 863.715 478.346 863.108 497.54 859.851L499.202 859.581C511.34 857.514 517.746 856.773 523.141 857.065C529.691 857.447 532.581 859.491 532.196 863.895C530.968 877.622 532.798 884.856 538.506 888.001C543.395 890.675 550.018 890.338 564.949 887.552C569.308 886.743 572.295 888.855 574.631 894.022C575.923 896.846 576.816 899.825 577.889 905.022C578.642 904.704 579.395 904.387 580.148 904.07C579.107 899.128 578.188 896.086 576.847 893.146C574.101 887.103 570.127 884.294 564.468 885.35C550.186 888.024 543.901 888.338 539.734 886.047C535.086 883.486 533.448 877.015 534.604 864.074C535.134 858.166 531.016 855.29 523.285 854.841C517.626 854.504 511.123 855.267 498.792 857.357L497.107 857.649C478.755 860.749 472.06 861.356 467.966 859.469C463.197 857.289 465.846 850.033 478.924 835.519C491.953 821.051 504.018 811.615 516.156 805.639C524.947 801.325 530.101 799.865 544.864 796.607C562.999 792.63 571.042 788.339 580.17 774.702C584.342 768.494 592.377 755.431 599.05 744.583C603.896 736.706 608.023 729.996 609.431 727.926C617.86 715.457 625.326 708.043 635.104 703.213C641.534 700.045 646.688 696.788 657.502 689.396L660.825 687.127C679.345 674.591 689.725 669.648 701.984 669.648C711.328 669.648 716.12 672.344 722.069 679.488C722.564 680.076 723.992 681.856 725.203 683.366C725.937 684.281 726.592 685.097 726.91 685.487C728.981 688.003 730.859 690.048 732.955 692.07C737.579 696.428 742.877 700.09 749.62 703.236V703.213C757.399 706.853 766.238 708.021 776.594 707.257C782.831 706.808 788.659 705.842 798.124 703.887C819.896 699.371 825.892 698.922 831.263 703.078C832.115 703.745 832.773 704.391 833.25 705.03C833.392 704.05 833.53 703.068 833.665 702.084ZM832.146 712.183C830.776 713.756 828.293 715.72 822.135 720.512C813.104 727.522 809.154 732.173 809.154 738.171C809.154 750.688 810.997 757.649 818.407 765.611C818.712 764.788 819.013 763.961 819.31 763.132C813.07 756.028 811.563 749.596 811.563 738.171C811.563 733.094 815.175 728.825 823.677 722.242C827.4 719.351 829.825 717.456 831.49 716.04C831.715 714.757 831.934 713.472 832.146 712.183ZM795.176 810.311C796.029 809.115 796.866 807.906 797.687 806.686C786.048 811.222 775.401 821.397 762.601 837.811C762.015 838.543 759.951 841.242 757.666 844.23C757.205 844.833 756.734 845.448 756.266 846.06C758.198 844.909 760.106 843.711 761.987 842.463C762.63 841.622 763.196 840.88 763.642 840.297C764.052 839.759 764.36 839.356 764.528 839.136C775.795 824.696 785.287 815.253 795.176 810.311ZM658.97 878.103C663.183 874.718 667.906 870.837 672.249 867.268C678.624 862.029 684.182 857.462 686.113 856.121C694.879 850.01 702.562 847.135 711.617 847.135C728.861 847.135 741.456 838.575 758.796 819.388C759.565 818.554 761.763 816.091 763.753 813.86C765.192 812.247 766.523 810.756 767.129 810.087C770.236 806.65 772.692 804.111 775.101 801.864C778.111 799.033 781.724 797.191 786.179 795.888C788.708 795.169 789.864 794.944 795.451 793.978C803.326 792.608 806.529 791.327 808.384 787.71C810.599 783.397 809.371 776.32 804.241 764.704C801.689 758.93 799.666 753.538 797.739 747.63C797.403 746.599 796.687 744.319 795.944 741.952C795.035 739.056 794.086 736.029 793.741 735.003C788.683 719.996 782.35 716.828 754.967 716.828C739.963 716.828 730.643 712.739 720.528 703.999C720.297 703.794 719.863 703.406 719.314 702.914C717.459 701.253 714.295 698.418 713.255 697.552C703.766 689.531 695.794 688.138 682.187 694.474V694.496C651.24 708.92 640.089 718.94 626.266 742.125C624.122 745.742 622.171 749.202 619.98 753.314L614.874 762.974C612.345 767.67 610.298 771.13 607.938 774.5C604.254 779.765 599.975 784.646 595.174 789.058C590.598 793.282 584.36 796.652 568.441 804.066C552.257 811.637 545.924 815.007 541.107 819.501C534.388 825.791 535.206 832.014 544.768 837.968C555.485 844.641 558.23 849.336 560.542 859.693C562.661 869.085 566.852 871.848 583.975 871.848C595.824 871.848 599.918 876.633 601.219 887.26C601.372 888.613 601.501 889.969 601.604 891.326C601.733 892.742 601.864 893.995 602.013 895.107C602.783 894.802 603.554 894.498 604.325 894.196C604.214 893.289 604.112 892.277 604.013 891.147C603.82 888.855 603.748 888.136 603.603 887.013C602.206 875.375 597.221 869.601 583.975 869.601C567.936 869.601 564.781 867.534 562.902 859.222C560.47 848.348 557.435 843.135 546.116 836.081C537.783 830.914 537.181 826.353 542.793 821.096C547.369 816.849 553.63 813.479 569.525 806.065C585.733 798.517 592.043 795.124 596.86 790.631C601.785 786.117 606.178 781.123 609.961 775.735C612.558 771.947 614.922 768.024 617.042 763.985L622.123 754.325C624.315 750.236 626.241 746.798 628.385 743.226C641.944 720.423 652.733 710.717 683.247 696.496C695.939 690.564 702.851 691.8 711.641 699.214C712.39 699.836 714.269 701.521 715.954 703.03C717.249 704.191 718.429 705.249 718.89 705.64C729.414 714.739 739.313 719.075 754.967 719.075C781.41 719.075 786.733 721.748 791.429 735.677C791.819 736.81 792.982 740.516 793.985 743.713C794.595 745.654 795.145 747.407 795.427 748.281C797.327 754.136 799.529 759.902 802.026 765.558C806.891 776.634 808.047 783.172 806.216 786.744C804.819 789.463 802.122 790.519 795.017 791.754C789.31 792.743 788.105 792.99 785.456 793.754C780.911 794.957 776.763 797.205 773.391 800.292C770.562 802.971 767.854 805.759 765.275 808.649L756.966 817.928C740.035 836.643 727.921 844.888 711.617 844.888C701.984 844.888 693.819 847.943 684.692 854.301C682.7 855.69 677.109 860.283 670.724 865.529C665.005 870.227 658.65 875.448 653.673 879.358C655.437 878.936 657.202 878.518 658.97 878.103ZM299.013 957.774C298.489 954.773 297.915 951.567 297.287 948.122L296.517 943.966C291.459 915.95 289.918 900.83 291.796 885.103C294.204 864.883 302.899 848.707 319.829 835.677C373.415 794.36 392.513 766.929 392.513 733.7C392.513 727.702 391.79 722.579 390.104 714.896C387.816 704.404 387.503 702.449 387.816 698.495C388.226 693.328 390.514 689.104 395.571 684.925C401.712 679.87 412.02 674.905 427.843 669.603C451.83 661.537 466.087 648.507 487.521 620.334L491.784 614.717C513.796 585.712 527.09 574.007 550.547 568.525C582.699 561.044 599.822 556.169 611.96 551.226C616.416 549.411 620.75 547.347 624.941 545.048C628.389 543.148 631.801 541.194 635.176 539.184C641.197 535.679 647.001 534.848 661.403 534.399C674.721 533.994 680.79 533.388 688.497 531.141C697.762 528.375 706.057 523.33 712.508 516.538C723.803 505.035 735.748 500.047 753.955 497.216C756.508 496.834 758.459 496.565 763.203 495.936C780.11 493.734 787.624 492.049 796.487 487.556C798.866 486.342 800.984 485.188 803.242 483.783C803.037 483.371 802.833 482.958 802.629 482.546C802.492 482.269 802.355 481.993 802.218 481.716C799.892 483.179 797.743 484.353 795.331 485.578C786.805 489.915 779.484 491.532 762.866 493.711C758.098 494.34 756.147 494.61 753.57 495.014C734.881 497.913 722.454 503.103 710.726 515.01C704.555 521.512 696.618 526.34 687.75 528.984C680.357 531.186 674.432 531.747 661.331 532.152C646.495 532.601 640.427 533.5 633.924 537.274C627.927 540.779 626.362 541.655 623.713 543.116C619.608 545.373 615.362 547.398 610.997 549.182C599.027 554.057 582 558.887 549.97 566.346C536.579 569.492 525.332 575.557 514.952 584.701C506.933 591.778 500.623 599.192 489.833 613.414L485.547 619.03C464.401 646.867 450.433 659.628 427.024 667.491C410.96 672.906 400.412 677.961 393.982 683.24C388.467 687.778 385.89 692.586 385.408 698.338C385.095 702.584 385.408 704.583 387.744 715.345C389.382 722.894 390.104 727.859 390.104 733.7C390.104 766.12 371.392 793.035 318.312 833.924C300.852 847.382 291.892 864.074 289.412 884.856C287.509 900.852 289.051 916.13 294.156 944.325L294.903 948.504C295.454 951.542 295.965 954.394 296.436 957.081C297.292 957.322 298.151 957.553 299.013 957.774ZM274.356 947.94C270.74 925.632 269.857 902.881 273.059 881.508C274.896 868.007 278.957 854.851 285.101 842.506C292.635 827.881 302.591 814.454 314.603 802.718C322.575 794.832 327.656 790.608 342.708 778.836C353.979 770.006 358.627 765.805 361.831 760.863C363.805 757.807 364.817 754.774 364.817 751.674C364.817 750.853 364.817 750.197 364.803 749.542C364.746 746.881 364.46 744.225 363.011 730.488C362.12 722.287 361.614 716.468 361.373 710.627C360.265 685.307 364.841 670.165 377.629 666.188C416.909 653.966 441.956 638.06 460.837 606.741C482.922 570.143 520.829 538.24 543.034 538.24C573.716 538.24 593.103 533.612 616.704 517.594C632.503 506.854 638.813 503.282 645.243 501.53C649.964 500.272 653.576 500.047 665.859 500.047C671.711 500.047 676.744 497.733 682.452 493.037C684.544 491.321 690.58 485.586 693.925 482.408C695.046 481.342 695.865 480.564 696.131 480.321C709.811 467.92 723.008 461.854 742.925 461.854C748.777 461.854 753.763 461.944 760.41 462.123C779.243 462.662 782.735 462.528 789.334 460.281C790.045 460.04 790.741 459.785 791.434 459.51C790.793 458.137 790.157 456.762 789.528 455.384C788.92 455.627 788.312 455.849 787.696 456.057C781.916 458.012 778.641 458.147 760.554 457.63C753.859 457.45 748.826 457.36 742.925 457.36C721.611 457.36 707.306 463.943 692.76 477.086C692.44 477.378 691.495 478.277 690.235 479.475C686.843 482.7 681.169 488.095 679.273 489.667C674.36 493.689 670.338 495.554 665.859 495.554C653.046 495.554 649.241 495.778 643.895 497.216C636.742 499.148 630.143 502.923 613.863 513.976C591.2 529.344 572.801 533.747 543.034 533.747C518.589 533.747 479.454 566.661 456.647 604.539C438.44 634.735 414.38 650.012 376.088 661.919C360.458 666.772 355.352 683.622 356.556 710.807C356.821 716.783 357.327 722.624 358.194 730.937C359.657 744.572 359.935 747.144 359.988 749.721C360 750.324 360 750.928 360 751.674C360 753.92 359.254 756.145 357.712 758.548C354.894 762.907 350.439 766.906 339.602 775.398C324.429 787.283 319.251 791.552 311.111 799.64C298.756 811.714 288.515 825.528 280.766 840.574C274.404 853.336 270.196 866.94 268.291 880.902C265.215 901.441 265.829 923.186 268.975 944.617C270.742 945.795 272.536 946.901 274.356 947.94ZM249.304 926.843C248.994 915.857 249.103 906.118 249.674 895.707C251.071 870.051 255.406 846.438 263.546 824.039C266.605 815.606 270.224 807.36 274.384 799.348C282.62 783.487 290.64 771.849 299.142 762.548C302.382 759.016 305.823 755.649 309.449 752.46C309.814 752.136 310.853 751.232 312.112 750.137C314.347 748.194 317.273 745.65 318.336 744.687C332.617 731.611 337.121 717.749 337.121 677.534C337.121 654.82 339.674 640.98 345.044 632.488C349.476 625.478 355.159 622.131 367.394 618.177C376.232 615.368 378.255 614.694 380.327 613.975C385.697 612.111 390.514 610.156 395.33 607.797C407.444 601.843 418.98 593.553 430.733 581.691C491.736 520.042 519.263 503.417 564.708 503.417C585.107 503.417 600.593 498.924 618.896 488.971C620.484 488.112 625.339 485.244 631.372 481.681C641.903 475.461 656.023 467.122 662.607 463.651C669.325 460.118 676.203 456.857 683.223 453.878C701.911 445.97 716.217 444.083 746.321 443.319C764.696 442.847 772.451 442.173 781.314 439.657C781.748 439.533 782.178 439.405 782.604 439.273C782.323 438.569 782.044 437.863 781.768 437.156C781.387 437.274 781.003 437.389 780.616 437.5C772.042 439.949 764.408 440.6 746.273 441.05C715.856 441.836 701.285 443.746 682.211 451.834C675.058 454.889 668.243 458.124 661.427 461.696C654.772 465.201 640.597 473.571 630.071 479.786C624.066 483.331 619.249 486.176 617.692 487.016C599.726 496.789 584.65 501.17 564.708 501.17C518.42 501.17 490.363 518.088 428.951 580.163C417.391 591.846 406.096 599.979 394.174 605.82C389.424 608.137 384.516 610.164 379.484 611.886C377.436 612.583 375.438 613.257 372.813 614.088C341.697 624.13 334.713 635.206 334.713 677.534C334.713 717.21 330.402 730.51 316.626 743.091C315.012 744.552 308.823 749.944 307.788 750.842C304.102 754.081 300.605 757.501 297.311 761.087C288.665 770.546 280.549 782.341 272.216 798.382C268.002 806.47 264.389 814.783 261.258 823.32C253.046 845.921 248.663 869.736 247.266 895.573C246.741 905.003 246.6 913.873 246.806 923.591C247.609 924.695 248.441 925.779 249.304 926.843ZM228.12 873.116C233.942 824.102 253.637 772.295 281.44 741.159C295.168 725.815 303.26 711.436 306.945 697.507C309.642 687.307 309.883 679.354 308.799 667.716C308.245 661.762 308.221 661.403 308.221 659.56C308.221 647.114 308.992 638.397 312.026 628.511C317.3 611.347 328.017 599.664 345.839 595.508C379.146 587.734 425.796 555.607 454.816 525.502C479.357 500.069 537.904 474.21 579.159 474.21C591.778 474.21 603.435 471.132 616.993 464.842C621.69 462.662 626.482 460.169 632.985 456.619C632.262 457.001 645.797 449.519 649.771 447.408C675.564 433.568 696.613 425.907 723.827 422.537C747.644 419.567 762.506 416.438 773.477 411.795C773.286 411.053 773.1 410.309 772.919 409.564C762.16 414.204 747.476 417.303 723.49 420.29C695.914 423.728 674.625 431.501 648.567 445.453C645.518 447.09 636.828 451.888 633.273 453.851C632.194 454.446 631.588 454.781 631.757 454.687C625.302 458.214 620.558 460.663 615.91 462.82C602.688 468.976 591.369 471.964 579.159 471.964C537.205 471.964 478.009 498.115 453.034 524.019C424.303 553.787 378.015 585.667 345.261 593.306C326.5 597.687 315.205 610.021 309.714 627.882C306.583 638.06 305.813 646.934 305.813 659.56C305.813 661.492 305.837 661.852 306.391 667.918C307.45 679.331 307.234 687.082 304.608 696.967C300.996 710.537 293.097 724.624 279.61 739.721C253.092 769.389 233.94 817.409 226.896 864.176C227.252 867.192 227.657 870.174 228.12 873.116ZM223.348 792.416C226.831 785.692 230.22 778.925 233.515 772.118C234.157 770.799 236.191 766.521 238.947 760.728C246.937 743.929 260.99 714.384 264.751 707.235C269.351 698.45 271.542 689.374 274.577 670.052C277.587 651.18 278.671 645.316 281.32 635.88C287.943 612.29 299.479 594.205 319.805 579.579C331.124 571.401 341.287 565.56 351.354 561.066C355.28 559.314 359.085 557.786 363.42 556.259C365.18 555.623 369.883 554.003 372.32 553.164C372.985 552.934 373.482 552.763 373.704 552.686C386.058 548.305 392.44 544.329 399.232 535.41C403.153 530.087 406.508 524.422 409.251 518.492C416.596 503.282 417.656 493.891 415.994 479.355C415.368 473.739 415.223 472.031 415.368 469.402C415.873 459.09 422.665 449.946 442.606 435.792C465.943 419.212 471.964 404.092 464.016 390.275C458.429 380.569 448.434 373.582 430.42 364.258C426.277 362.124 421.124 361.023 414.019 360.484C412.031 360.305 410.734 360.238 406.904 360.038L406.842 360.035C394.439 359.428 390.658 358.395 390.49 354.688C390.297 349.273 398.798 338.13 418.667 318.853C434.345 303.621 446.845 292.702 457.803 284.3C461.846 281.194 465.99 278.205 470.23 275.335L480.128 268.73C482.055 267.427 483.692 266.259 485.258 265.091C493.277 259.159 500.406 252.15 510.28 240.108L516.325 232.649L521.864 225.707C525.162 221.551 528.575 217.475 532.1 213.485C552.065 191.153 571.933 182.885 621.425 179.807C621.213 179.822 621.289 179.817 621.604 179.795C624.624 179.586 649.594 177.86 654.588 177.718C663.017 177.493 668.628 178.055 674.095 179.785C675.949 180.369 677.828 181.133 679.779 182.031C684.186 184.076 686.233 189.962 688.762 204.745L689.797 210.946L689.875 211.38C690.275 213.618 690.617 215.535 691.002 217.371C694.614 235.255 700.129 246.106 711.039 251.656C727.705 260.125 737.266 263.54 746.008 263.024C756.773 262.395 764.672 255.16 770.549 239.816C774.282 230.065 774.306 223.819 770.91 219.865C768.213 216.765 764.6 215.529 756.099 213.956C752.018 213.229 751.473 213.113 749.976 212.793L749.741 212.743C743.961 211.44 739.843 209.823 736.495 207.127C732.644 204.122 728.799 201.112 724.959 198.095C720.576 194.68 717.662 192.299 715.229 190.119C709.377 184.907 707.017 181.357 707.932 179.178C709.787 174.707 726.115 172.685 751.21 173.045C764.603 173.323 777.983 173.982 791.333 175.022C794.206 175.297 797.061 175.724 799.882 176.302C801.861 176.721 803.963 177.133 806.182 177.536C806.195 176.771 806.203 176.006 806.204 175.241C804.175 174.867 802.24 174.489 800.412 174.123C799.256 173.876 798.196 173.651 791.549 172.775C778.149 171.661 764.71 171.001 751.258 170.798C724.502 170.416 708.125 172.438 705.668 178.369C704.271 181.784 706.993 185.896 713.568 191.737C716.749 194.531 720.026 197.228 723.394 199.825C727.271 202.784 731.108 205.787 734.905 208.834C738.614 211.777 743.07 213.575 749.187 214.923C751.319 215.383 753.463 215.795 755.617 216.158C763.541 217.619 766.864 218.742 769.032 221.258C771.777 224.471 771.753 229.975 768.261 239.052C762.698 253.655 755.497 260.215 745.863 260.777C737.699 261.249 728.451 257.946 712.171 249.678C702.104 244.556 696.854 234.221 693.386 216.945C692.976 215.012 692.591 212.99 692.182 210.586L691.122 204.386C688.473 188.704 686.305 182.571 680.838 180.009C678.791 179.066 676.816 178.279 674.89 177.673C669.086 175.831 663.233 175.246 654.515 175.471C648.928 175.651 618.968 177.718 620.028 177.673C571.163 180.683 550.668 189.198 530.269 212.047C527.259 215.372 524.273 218.989 519.938 224.359L514.374 231.301C512.382 233.797 510.375 236.284 508.354 238.76C498.6 250.645 491.616 257.497 483.764 263.338C482.223 264.484 480.61 265.607 478.707 266.91L468.785 273.516C464.498 276.459 460.572 279.267 456.261 282.57C445.231 291.017 432.66 302.003 416.933 317.281C396.535 337.096 387.865 348.464 388.105 354.778C388.322 360.372 392.802 361.607 406.698 362.281L406.786 362.286C410.595 362.485 411.89 362.552 413.802 362.708C420.594 363.247 425.483 364.258 429.264 366.236C446.845 375.335 456.598 382.142 461.897 391.331C469.218 404.047 463.607 418.044 441.137 434.017C420.69 448.531 413.489 458.192 412.959 469.29C412.864 472.731 413.082 476.173 413.61 479.58C415.223 493.756 414.212 502.765 407.059 517.549C403.736 524.446 400.532 529.838 397.281 534.107C390.779 542.599 384.782 546.351 372.861 550.575C372.474 550.712 371.208 551.148 369.665 551.679C367.171 552.538 363.952 553.647 362.553 554.147C358.194 555.719 354.317 557.247 350.319 559.044C338.96 564.209 328.229 570.499 318.312 577.804C297.552 592.767 285.727 611.279 278.984 635.319C276.311 644.867 275.203 650.776 272.216 669.738C269.206 688.812 267.038 697.731 262.583 706.246C258.717 713.63 243.948 744.678 236.094 761.19C233.672 766.281 231.908 769.99 231.323 771.197C228.458 777.064 225.745 782.52 223.141 787.638C223.215 789.227 223.284 790.82 223.348 792.416ZM207.936 710.993C208.298 708.736 208.797 705.874 209.479 702.022C210.192 698.196 210.794 694.353 211.286 690.497C212.827 677.646 211.791 668.322 206.854 661.2C195.291 644.502 159.047 639.477 114.126 648.934C115.663 649.394 117.199 649.856 118.734 650.32C160.864 642.169 194.292 647.238 204.831 662.414C209.383 668.996 210.394 677.871 208.877 690.25C208.492 693.552 207.986 696.698 207.095 701.64C206.702 703.866 206.37 705.764 206.089 707.409C206.728 708.589 207.344 709.784 207.936 710.993ZM6.52196 559.457C32.0851 539.751 55.1332 525.884 66.1594 525.884C90.0501 525.884 195.824 498.969 224.58 485.556C247.362 474.929 283.15 437.972 313.254 400.52C313.754 399.896 316.736 395.495 321.051 389.129C331.504 373.704 349.777 346.741 359.494 334.018C382.012 304.52 403.374 283.356 424.399 272.168C441.956 262.799 456.093 249.072 469.676 230.088C471.372 227.71 475.204 221.787 479.646 214.922C487.376 202.974 496.954 188.171 500.334 184.233C504.043 179.897 507.559 177.021 511.219 175.493C545.105 161.452 569.549 155.184 605.626 155.184H675.468C685.221 155.184 693.193 154.285 730.691 149.567L741.047 148.286C764.937 145.366 780.953 143.95 793.476 143.95C796.387 143.95 798.826 143.962 802.801 143.995C802.977 144.744 803.145 145.495 803.306 146.246C799.023 146.21 796.513 146.197 793.476 146.197C781.073 146.197 765.154 147.612 741.36 150.511L731.004 151.814C693.338 156.554 685.39 157.43 675.468 157.43H605.626C569.959 157.43 545.803 163.609 512.183 177.56C508.956 178.908 505.704 181.56 502.212 185.648C498.93 189.447 489.513 204.004 481.823 215.891C477.325 222.845 473.417 228.885 471.675 231.323C457.899 250.577 443.497 264.574 425.603 274.1C404.964 285.108 383.794 306.07 361.469 335.299C351.97 347.733 334.215 373.924 323.645 389.516C318.993 396.379 315.733 401.188 315.181 401.868C284.836 439.612 248.904 476.727 225.639 487.578C196.595 501.125 90.4354 528.13 66.1594 528.13C55.5951 528.13 32.6699 542.107 7.18739 561.87C6.95976 561.068 6.73797 560.264 6.52196 559.457ZM2.7666 541.888C5.56262 539.846 8.45772 537.829 11.5143 535.791C35.2123 519.997 62.4987 508.292 95.3725 501.148C184.962 481.647 218.655 472.503 237.874 460.551C259.067 447.363 289.773 404.406 327.367 336.557C339.794 314.158 356.58 295.735 377.677 279.492C389.936 270.056 400.532 263.338 419.679 252.195C437.813 241.658 443.136 238.22 447.615 233.435C450.65 229.95 453.162 226.095 455.081 221.977C456.574 219.011 462.041 207.351 462.33 206.722C465.098 200.841 468.234 195.117 471.723 189.58C487.112 165.473 509.413 150.084 545.683 143.95C576.196 138.761 593.151 137.884 616.656 138.783C624.532 139.075 626.675 139.142 630.287 139.097C642.979 138.918 654.274 136.671 671.157 130.38C711.843 115.206 748.145 106.854 786.839 104.336C786.431 103.608 786.019 102.885 785.602 102.164C747.047 104.78 710.813 113.167 670.242 128.314C653.624 134.514 642.642 136.694 630.239 136.851C626.699 136.896 624.58 136.828 616.753 136.536C593.079 135.638 575.931 136.536 545.273 141.704C508.257 147.994 485.378 163.788 469.652 188.434C466.304 193.669 463.414 199.061 460.139 205.801C459.826 206.475 454.383 218.09 452.914 221.011C451.085 224.94 448.695 228.621 445.809 231.952C441.57 236.491 436.272 239.905 418.402 250.285C399.16 261.473 388.491 268.236 376.136 277.762C354.798 294.185 337.819 312.832 325.248 335.524C287.822 403.013 257.237 445.79 236.525 458.663C217.668 470.413 184.023 479.535 94.8426 498.946C61.6558 506.18 34.0563 517.998 10.1175 533.949C7.42137 535.744 4.85101 537.523 2.36434 539.317C2.4929 540.176 2.62697 541.033 2.7666 541.888ZM0.27357 517.753C10.4878 509.578 19.9345 503.997 30.9495 499.89C38.8248 496.947 50.2162 493.734 72.4692 487.937C81.9528 485.517 91.4256 483.061 100.888 480.568C111.115 477.894 121.311 475.116 131.473 472.233C181.326 458.034 214.537 444.712 231.588 429.794C253.359 410.765 261.018 397.464 270.771 369.448C275.54 355.699 278.069 349.565 282.645 341.59C305.138 302.632 350.632 254.711 384.999 241.501C420.69 227.796 434.659 213.08 434.659 196.747C434.659 191.535 440.848 179.897 450.12 168.619C461.15 155.229 474.733 144.108 488.653 138.109C518.107 125.438 567.96 115.867 600.833 115.867C614.609 115.867 626.073 112.272 642.57 104.387C663.667 94.299 665.883 93.4003 673.083 93.4003C695.667 93.4003 739.476 88.8647 772.386 82.4213C771.358 81.0797 770.313 79.753 769.252 78.441C736.939 84.5975 694.848 88.907 673.083 88.907C664.703 88.907 662.535 89.8057 640.378 100.387C624.507 108.004 613.646 111.374 600.833 111.374C567.31 111.374 516.734 121.079 486.63 134.043C471.939 140.378 457.754 151.971 446.291 165.9C436.417 177.875 429.842 190.254 429.842 196.747C429.842 210.991 417.246 224.269 383.168 237.367C347.549 251.026 301.381 299.689 278.406 339.478C273.637 347.745 271.06 354.081 266.196 368.055C256.683 395.42 249.361 408.091 228.313 426.514C211.96 440.802 179.207 453.923 130.077 467.942C119.938 470.817 109.766 473.588 99.563 476.255C90.1046 478.706 80.6479 481.162 71.1928 483.624C48.7471 489.443 37.2594 492.7 29.1674 495.711C18.6711 499.633 9.57777 504.795 0.0703125 512.05C0.115684 513.957 0.183228 515.858 0.27357 517.753ZM0.632412 487.704C11.5597 480.951 21.3956 476.374 30.3234 474.143C47.8856 469.885 65.3877 465.414 82.8251 460.73C113.17 452.508 135.953 445.138 150.981 438.129C156.662 435.607 162.569 433.554 168.634 431.995C189.755 425.929 198.064 422.627 210.298 413.416C226.916 400.902 242.305 380.861 257.501 349.947C295.842 272.145 303.139 262.058 334.207 240.31C341.601 235.143 349.235 231.278 361.301 226.178L366.864 223.842C381.266 217.843 388.081 214.541 395.595 209.463C405.515 202.819 413.51 193.979 418.86 183.739C423.532 175.022 425.049 169.18 427.217 155.521C429.023 144.197 430.661 139.165 435.236 133.503C441.113 126.269 451.517 120.068 468.785 114.002C478.224 110.787 487.829 108.013 497.564 105.69C536.675 96.0963 558.061 93.7148 592.38 92.7263C609.335 92.232 615.789 91.4008 623.785 88.0308C626.969 86.6593 629.996 84.9881 632.816 83.0432C641.438 77.2018 651.866 73.1803 663.836 70.6865C677.37 67.8782 689.195 67.2716 708.317 67.4962L714.001 67.5412C720.406 67.5412 728.736 65.7455 751.937 59.6281C751.301 59.0178 750.662 58.4116 750.019 57.8094C727.847 63.6346 719.878 65.317 714.001 65.317L708.342 65.272C689.051 65.0698 677.057 65.6764 663.306 68.5297C651.023 71.0684 640.33 75.2023 631.419 81.2683C628.481 83.2454 625.663 84.7956 622.797 86.0088C615.187 89.244 608.925 90.0079 592.308 90.5021C557.821 91.5131 536.266 93.8946 496.938 103.555C485.643 106.319 476.034 109.105 467.918 111.935C450.264 118.091 439.523 124.539 433.334 132.178C428.397 138.221 426.711 143.546 424.833 155.206C422.689 168.641 421.244 174.303 416.716 182.773C406.529 201.757 394.632 209.8 365.901 221.82L360.289 224.156C348.103 229.324 340.324 233.233 332.762 238.535C301.285 260.552 293.795 270.932 255.334 349.049C240.258 379.648 225.109 399.396 208.781 411.663C196.86 420.65 188.768 423.885 167.911 429.861C161.73 431.455 155.71 433.552 149.921 436.129C135.038 443.094 112.375 450.418 82.1507 458.596C67.2913 462.618 60.4998 464.347 29.7213 472.009C20.9129 474.2 11.3631 478.545 0.833627 484.914C0.762106 485.844 0.695012 486.774 0.632412 487.704ZM8.83305 433.683C8.83572 433.682 8.83839 433.681 8.84106 433.68C18.354 430.131 29.8177 426.828 46.4833 422.627C46.965 422.515 82.2952 413.865 92.8196 411.101C141.131 398.385 171.355 385.445 189.9 365.988C203.988 351.228 214.103 334.153 231.684 298.88L236.693 288.793C257.935 246.174 271.229 225.28 290.977 208.812C301.912 199.555 314.206 191.801 327.488 185.783L337.193 181.38C352.751 174.213 360.747 167.945 369.417 154.015C373.693 146.957 377.365 139.595 380.399 131.998C391.164 105.869 407.444 87.896 427.434 76.9547C442.124 68.9341 457.779 65.317 470.784 65.317C487.714 65.317 501.321 65.0474 519.528 64.0364C545.882 62.6962 572.111 59.7165 598.04 55.1171C610.154 52.8929 621.642 50.2868 632.479 47.2987C664.63 38.4019 681.2 36.0879 711.28 34.4029L716.698 34.0883C717.714 34.0414 718.728 33.9873 719.743 33.9261C718.686 33.2229 717.625 32.528 716.559 31.8413C716.557 31.8415 716.556 31.8416 716.554 31.8417L711.159 32.1562C680.911 33.8637 664.173 36.2002 631.829 45.1419C621.064 48.1075 609.624 50.6912 597.582 52.8929C571.757 57.4783 545.633 60.4505 519.384 61.7897C501.273 62.8007 487.69 63.0703 470.808 63.0703C457.393 63.0703 441.306 66.7998 426.253 75.0226C405.783 86.211 389.141 104.589 378.159 131.189C375.181 138.685 371.573 145.949 367.37 152.915C358.965 166.395 351.33 172.393 336.158 179.358L326.428 183.784C312.954 189.891 300.482 197.759 289.388 207.149C269.326 223.864 255.912 244.96 234.55 287.804L229.517 297.914C212.056 333.007 202.014 349.947 188.142 364.506C170.007 383.535 140.095 396.341 92.1694 408.945C83.6919 411.181 58.9554 417.257 49.557 419.565C47.341 420.109 45.9777 420.444 45.8812 420.47C29.9993 424.456 18.7793 427.674 9.44354 431.064C9.23722 431.936 9.03371 432.809 8.83305 433.683ZM676.814 10.7381C678.109 11.2966 679.402 11.8657 680.692 12.4451C673.493 13.4833 666.969 14.6244 661.307 15.8679C652.011 17.8899 611.478 27.5505 614.585 26.8316C602.604 29.6802 590.569 32.3243 578.484 34.7623C551.896 40.042 530.053 42.8503 511.725 42.8503C460.187 42.8503 415.97 51.0956 392.031 67.339C384.806 72.2592 378.448 80.145 370.115 93.5801C369.024 95.3581 366.268 99.9625 363.588 104.44C361.121 108.562 358.718 112.577 357.736 114.182C342.106 139.569 328.836 153.97 309.907 161.811C274.023 176.707 241.558 211.305 223.809 244.421C222.124 247.8 220.762 251.311 219.739 254.913C219.576 255.441 218.989 257.501 218.186 260.317C216.257 267.084 213.081 278.221 211.55 282.997C207.841 294.896 202.847 306.413 196.643 317.371C181.711 343.342 159.458 363.607 126.898 377.491C88.1234 394.027 71.5059 392.207 74.9257 375.155C77.3341 363.27 90.3391 344.083 106.21 326.335C110.605 321.48 114.492 316.244 117.818 310.698C126.612 295.837 129.229 284.127 129.843 255.569C130.66 254.897 131.476 254.225 132.29 253.55C131.747 284.004 129.158 296.177 119.938 311.776C116.529 317.451 112.545 322.807 108.04 327.773C92.4584 345.229 79.5979 364.169 77.31 375.559C74.42 389.803 88.6051 391.353 125.886 375.447C157.941 361.787 179.833 341.859 194.524 316.315C200.642 305.477 205.564 294.088 209.214 282.323C210.741 277.608 213.903 266.556 215.842 259.778C216.657 256.93 217.256 254.836 217.427 254.284C218.485 250.558 219.895 246.927 221.641 243.433C239.632 209.89 272.433 174.909 308.943 159.767C327.271 152.173 340.252 138.087 355.665 113.059C356.519 111.656 358.478 108.381 360.618 104.806C363.549 99.9072 366.819 94.4438 368.044 92.4567C376.521 78.7521 383.024 70.6641 390.61 65.5417C415.055 48.9163 459.729 40.6036 511.725 40.6036C529.836 40.6036 551.559 37.8178 577.978 32.5606C590.039 30.1297 602.05 27.4931 614.007 24.6523C610.876 25.3937 651.433 15.7106 660.777 13.6661C665.555 12.6172 670.937 11.6411 676.814 10.7381ZM648.991 0.386719C650.43 0.840427 651.871 1.30672 653.312 1.78564L650.469 2.38786C597.101 13.6661 585.324 15.8903 574.342 15.8903C568.321 15.8903 561.216 16.6991 551.631 18.3392C547.826 18.9907 543.804 19.7321 538.048 20.833C533.07 21.796 528.093 22.7621 523.117 23.7312C503.08 27.524 486.782 29.9147 470.855 30.9763C473.288 30.0474 475.72 29.102 478.15 28.1446C491.66 26.9057 505.811 24.7169 522.635 21.5294C527.617 20.5944 532.595 19.6358 537.567 18.6537C543.347 17.5304 547.369 16.7665 551.198 16.115C560.903 14.4525 568.152 13.6436 574.342 13.6436C584.971 13.6436 596.813 11.4238 648.991 0.386719ZM219.788 155.789C226.95 151.625 235.497 147.192 246.279 141.883C246.473 141.787 246.747 141.651 247.069 141.491C248.618 140.72 251.265 139.404 251.384 139.367C270.603 129.909 280.092 124.741 289.605 117.934C301.911 109.172 310.461 99.7359 315.542 88.4801C318.238 82.5066 321.087 76.8111 324.068 71.4237C325.206 70.9983 326.347 70.5813 327.489 70.1722C324.071 76.1702 320.815 82.5797 317.758 89.3563C312.484 101.017 303.693 110.745 291.074 119.731C281.392 126.629 271.831 131.841 252.516 141.344L247.411 143.86C233.986 150.474 224.064 155.709 215.984 160.75C217.249 159.092 218.517 157.437 219.788 155.789ZM157.473 231.325C158.226 230.601 158.976 229.873 159.721 229.141C162.964 268.023 153.127 297.233 132.196 325.436C122.635 338.354 123.719 346.105 132.34 345.589C142.311 344.96 156.929 334.468 168.73 317.46C176.196 306.676 181.013 293.983 188.117 269.09L192.188 254.823C193.777 249.274 195.174 244.668 196.595 240.22C208.468 203.015 223.086 178.931 248.518 162.126C259.849 154.645 281.014 141.931 295.365 133.31C302.823 128.83 308.441 125.455 309.883 124.494C326.115 113.688 335.242 103.286 344.418 84.0542C348.74 74.9695 353.788 67.1579 359.696 60.5173C361.056 60.1715 362.417 59.831 363.781 59.4952C357.054 66.4451 351.42 74.8239 346.682 84.7731C337.29 104.544 327.849 115.283 311.28 126.336C309.821 127.307 304.235 130.661 296.824 135.111C282.456 143.737 261.228 156.483 249.915 163.968C225.013 180.414 210.659 204.116 198.883 240.872C197.486 245.275 196.113 249.858 194.499 255.407L190.429 269.674C183.253 294.792 178.388 307.642 170.753 318.674C158.591 336.22 143.371 347.161 132.485 347.835C121.166 348.532 119.721 338.332 130.221 324.178C150.482 296.876 160.186 268.676 157.473 231.325ZM529.752 7.64583C533.089 6.41893 536.426 5.23245 539.764 4.09863C539.414 4.24744 539.067 4.3961 538.723 4.54464C536.108 5.67087 533.114 6.70294 529.752 7.64583ZM43.6032 339.902C56.0282 330 64.8353 319.729 70.5667 309.035C71.5226 307.258 72.3804 305.534 73.1493 303.838C71.2969 305.669 69.4707 307.525 67.674 309.41C63.1121 317.51 56.695 325.381 48.1588 333.046C46.593 335.284 45.0732 337.568 43.6032 339.902ZM14.9361 583.173C16.5632 580.919 18.2997 578.174 20.7141 574.232C25.3622 566.683 28.8302 562.751 35.8144 558.37C41.3536 554.911 48.6749 551.675 58.5491 548.418C67.484 545.475 79.5015 542.352 97.3232 538.195C100.236 537.511 109.167 535.473 118.833 533.268C129.786 530.769 141.683 528.055 146.839 526.85C194.018 515.774 222.821 506.854 238.909 496.857C274.866 474.502 327.704 420.74 344.466 389.466C349.885 379.356 355.665 375.132 362.962 375.424C365.997 375.559 369.248 376.435 373.366 378.12C376.26 379.291 379.104 380.565 381.892 381.94L384.926 383.355C396.438 388.612 405.108 391.084 415.392 391.084C432.732 391.084 439.499 397.981 435.501 408.855C432.13 417.976 421.244 428.873 408.769 435.86C388.78 447.048 380.471 474.727 380.471 511.28C380.471 519.346 377.172 525.389 370.886 530.062C366.117 533.612 360.771 535.904 350.487 539.409L348.031 540.24C336.35 544.172 331.221 546.463 327.126 550.26C314.868 561.718 296.926 566.324 278.117 566.324C274.793 566.324 272.168 568.391 268.508 573.288C267.809 574.209 265.329 577.669 264.967 578.186C258.513 586.993 253.094 591.037 244.4 591.037C225.519 591.037 218.535 593.126 191.995 606.629C179.52 612.964 170.801 614.672 156.689 614.897C156.062 614.897 155.557 614.897 154.473 614.942C142.865 615.076 137.326 615.616 129.161 617.952C121.846 620.181 114.694 622.852 107.751 625.95C102.525 628.197 82.3916 637.206 83.1141 636.891C82.1455 637.321 81.1914 637.741 80.2511 638.154C79.2264 637.779 78.2062 637.399 77.1907 637.013C78.7792 636.323 80.4072 635.609 82.0785 634.87C81.356 635.184 101.49 626.152 106.74 623.906C113.776 620.772 121.025 618.07 128.439 615.818C136.892 613.369 142.624 612.83 154.449 612.672H156.64C170.416 612.448 178.749 610.808 190.839 604.652C217.716 590.992 225.037 588.79 244.4 588.79C252.083 588.79 256.923 585.196 262.968 576.928L266.533 571.985C270.627 566.526 273.758 564.077 278.117 564.077C296.348 564.077 313.712 559.584 325.441 548.687C329.848 544.553 335.17 542.172 347.212 538.128L349.668 537.297C370.38 530.265 378.063 524.558 378.063 511.28C378.063 473.986 386.564 445.678 407.541 433.928C419.582 427.188 430.059 416.696 433.214 408.136C436.633 398.857 431.215 393.33 415.392 393.33C404.675 393.33 395.668 390.769 383.867 385.377C370.091 379.105 367.825 378.033 365.473 377.79C364.733 377.714 363.984 377.719 362.866 377.671C356.653 377.446 351.667 381.086 346.634 390.477C329.679 422.088 276.551 476.165 240.258 498.744C223.857 508.944 194.885 517.886 147.417 529.029C141.857 530.342 128.459 533.394 116.858 536.037C108.207 538.008 100.556 539.751 97.9012 540.375C80.1518 544.509 68.2065 547.631 59.3679 550.53C49.6623 553.72 42.5095 556.888 37.163 560.235C30.5401 564.392 27.2889 568.076 22.8094 575.355C19.9436 580.034 18.0014 583.077 16.067 585.612C15.6824 584.803 15.3055 583.99 14.9361 583.173ZM57.3682 628.107C60.2109 626.415 63.165 624.525 66.3039 622.423L68.2306 621.142C78.0084 614.605 83.379 611.549 90.7003 608.943L96.1913 607.011L96.8416 606.786C115.193 600.338 123.116 597.125 130.919 592.407C141.396 586.072 146.863 578.793 146.863 569.694C146.863 562.19 143.804 558.168 137.735 556.91C133.352 556.011 129.932 556.304 117.361 558.034C109.533 559.134 104.909 559.584 99.9001 559.584C97.1546 559.584 94.7945 559.561 90.8207 559.494C70.5666 559.157 64.8107 559.988 56.6706 566.077C55.5386 566.908 54.4067 567.851 53.2989 568.907C53.2365 568.963 52.8559 569.292 52.224 569.839C47.9758 573.518 32.3693 587.03 25.7235 593.171C24.4734 594.33 23.2604 595.47 22.0834 596.592C22.5117 597.259 22.947 597.917 23.389 598.566C24.7171 597.296 26.0573 596.037 27.4093 594.789C33.0355 589.574 45.2188 578.983 51.3351 573.666C53.4659 571.814 54.8603 570.602 54.9847 570.48C56.0444 569.492 57.1041 568.615 58.1637 567.829C65.7259 562.19 71.0724 561.426 90.7726 561.74C94.7704 561.808 97.1306 561.83 99.9001 561.83C105.054 561.83 109.774 561.381 117.722 560.258C129.884 558.573 133.256 558.303 137.229 559.134C142.118 560.123 144.454 563.201 144.454 569.694C144.454 577.939 139.445 584.567 129.619 590.52C121.985 595.126 114.157 598.294 95.9745 604.674L95.3725 604.899L89.8333 606.831C82.2712 609.527 76.756 612.672 66.8096 619.323L64.883 620.603C61.3999 622.941 58.1548 625.008 55.0417 626.827C55.8117 627.261 56.5872 627.688 57.3682 628.107ZM771.569 335.47C767.551 324.465 757.892 315.775 742.034 306.587C739.007 304.831 730.435 300.16 724.118 296.718C720.734 294.874 717.998 293.383 717.108 292.882C706.415 286.928 697.841 281.559 689.557 275.47H689.581C687.774 274.122 686.016 272.774 684.282 271.426C681.055 268.865 677.972 264.035 674.071 255.834C673.23 254.09 671.142 249.49 669.461 245.784C668.348 243.333 667.413 241.273 667.135 240.692C660.079 225.392 654.299 216.405 646.471 210.699C628.337 197.466 609.6 197.983 580.555 210.429C561.746 218.517 524.586 251.903 497.805 282.952C492.651 288.928 486.125 294.297 475.359 301.936C474.462 302.594 471.327 304.812 468.818 306.587C467.555 307.481 466.451 308.262 465.87 308.676C462.258 311.237 459.488 313.282 457.008 315.304C446.676 323.594 441.619 330.581 441.884 338.354C442.486 355.631 486.389 390.073 525.019 409.911C529.266 412.094 533.442 414.394 537.543 416.808C537.543 416.831 570.392 437.567 578.966 441.544C600.304 451.474 619.546 450.059 646.303 434.175C652.317 430.618 658.603 427.479 665.112 424.784C677.491 419.639 681.609 418.426 710.437 410.675C729.728 405.507 739.939 401.845 749.163 395.936C757.876 390.35 764.214 383.22 768.325 373.897C768.141 361.107 769.404 348.287 771.569 335.47ZM669.664 257.654C673.854 266.439 677.226 271.718 681.151 274.841C682.934 276.257 684.74 277.627 686.594 278.975C695.047 285.221 703.79 290.68 714.627 296.724C715.588 297.266 718.56 298.885 722.167 300.851C728.419 304.257 736.58 308.702 739.481 310.383C765.058 325.211 772.933 337.748 767.057 362.506C763.854 376.076 757.134 385.377 746.441 392.207C737.771 397.779 727.897 401.328 709.112 406.361C680.02 414.179 675.805 415.415 663.161 420.695C656.437 423.473 649.941 426.709 643.726 430.378C618.342 445.431 600.906 446.734 581.109 437.522C573.204 433.856 542.957 414.792 540.283 413.107L540.095 412.989C535.76 410.45 531.57 408.136 527.331 405.957C490.387 387.017 447.206 353.137 446.7 338.22C446.483 332.176 450.818 326.177 460.139 318.696C462.953 316.462 465.837 314.305 468.785 312.226L478.273 305.531C489.328 297.69 496.095 292.118 501.562 285.782C527.909 255.228 564.636 222.202 582.578 214.518C610.154 202.678 627.06 202.229 643.509 214.248C650.493 219.326 655.96 227.863 662.728 242.467C662.969 242.982 663.748 244.701 664.712 246.83C666.441 250.646 668.767 255.779 669.664 257.654ZM698.516 804.313C722.503 804.313 755.737 784.52 762.914 770.029C769.778 756.19 753.666 734.801 731.847 734.801C717.951 734.801 707.86 740.755 699.045 751.539C697.457 753.509 695.947 755.532 694.518 757.605L690.857 762.817C686.45 768.883 682.163 778.836 681.392 786.654C680.309 797.618 685.679 804.313 698.516 804.313ZM731.847 737.048C751.956 737.048 766.816 756.796 760.747 769.085H760.723C753.955 782.79 721.563 802.066 698.516 802.066C687.22 802.066 682.813 796.585 683.777 786.857C684.523 779.465 688.665 769.849 692.856 764.075C693.627 763.042 696.517 758.841 696.517 758.841C698.154 756.504 699.527 754.707 700.972 752.909C709.377 742.62 718.842 737.048 731.847 737.048ZM607.119 819.725C603.651 817.501 597.968 816.086 592.958 815.681C583.108 814.917 575.546 819.815 575.546 830.285C575.546 843.068 594.114 844.888 606.493 833.318C612.418 827.813 612.225 823.028 607.119 819.725ZM577.954 830.285C577.954 821.298 584.168 817.254 592.742 817.928H592.766C597.39 818.287 602.712 819.613 605.771 821.59C609.576 824.039 609.696 827.162 604.807 831.745C593.681 842.102 577.954 840.574 577.954 830.285ZM687.463 320.897C678.466 316.883 669.175 312.737 664.004 310.294L663.98 310.316C652.565 304.924 642.305 297.532 629.782 286.501C628.777 285.618 626.061 283.157 622.938 280.326C618.272 276.098 612.698 271.046 610.563 269.202C603.579 263.203 598.064 259.272 592.669 256.8C580.218 251.026 568.851 253.408 556.617 265.607C552.959 269.219 549.168 272.711 545.249 276.077C538.273 282.043 531.134 287.841 523.839 293.466C490.291 319.662 488.124 321.437 480.248 330.154C469.122 342.488 468.231 351.565 479.839 357.406C487.051 361.259 493.994 365.536 500.623 370.212C501.958 371.105 506.415 374.166 511.354 377.558C517.102 381.507 523.503 385.903 526.392 387.848C538.289 395.802 548.091 401.935 557.556 407.035C582.338 420.425 602.23 425.435 618.101 420.2C619.239 419.825 623.693 418.423 629.6 416.564C642.067 412.639 661.008 406.677 668.917 404.025C692.446 396.116 709.811 389.062 721.78 381.962C736.808 373.043 742.492 364.326 736.712 355.833C734.003 351.744 730.985 347.84 727.68 344.151C722.925 338.969 717.165 334.67 710.702 331.48C707.959 330.043 697.909 325.559 687.463 320.897ZM628.12 288.141C640.788 299.307 651.216 306.811 662.896 312.316C667.983 314.698 676.955 318.701 685.729 322.616C696.397 327.375 706.773 332.004 709.522 333.434C715.738 336.497 721.279 340.628 725.85 345.611C729.083 349.215 732.036 353.029 734.689 357.024C739.505 364.124 734.544 371.74 720.479 380.075C708.703 387.062 691.459 394.049 668.098 401.913C660.087 404.59 640.697 410.698 628.238 414.623C622.607 416.397 618.392 417.725 617.282 418.089C602.279 423.031 582.988 418.178 558.76 405.103C548.111 399.228 537.783 392.862 527.813 386.029C524.556 383.835 516.834 378.534 510.616 374.266C506.582 371.496 503.181 369.161 502.044 368.392C492.796 362.147 486.365 358.125 480.995 355.429C471.072 350.464 471.795 343.005 482.103 331.592C489.833 323.032 492.025 321.235 525.404 295.173C534.46 288.096 540.914 282.884 546.887 277.717C550.839 274.315 554.662 270.785 558.35 267.135C569.91 255.655 580.146 253.498 591.586 258.8C596.739 261.204 602.11 265.001 608.925 270.865C611.264 272.868 617.786 278.783 622.672 283.216C625.183 285.493 627.262 287.379 628.12 288.141ZM589.611 331.974C583.108 330.109 576.871 329.57 569.381 330.401V330.424C556.544 331.839 545.972 335.479 539.999 340.983C533.039 347.409 532.629 355.923 539.614 365.831C548.813 378.862 557.676 387.736 568.875 393.465C583.205 400.767 600.135 401.823 620.486 395.487C644.087 388.163 658.441 381.468 663.45 374.863C669.447 366.932 662.366 359.608 642.185 352.935C630.625 349.116 621.858 345.589 610.419 340.444C596.21 334.063 594.789 333.457 589.611 331.974ZM541.685 342.578C547.2 337.501 557.315 333.996 569.67 332.648H569.646C576.107 331.815 582.685 332.321 588.912 334.131C593.922 335.569 595.318 336.153 609.383 342.466C620.895 347.633 629.709 351.183 641.366 355.047C660.271 361.315 666.148 367.381 661.475 373.56C656.9 379.626 642.811 386.186 619.715 393.375C599.991 399.509 583.783 398.475 570.055 391.488C559.218 385.961 550.62 377.357 541.637 364.595C535.231 355.541 535.592 348.195 541.685 342.578ZM368.405 488.634C365.997 475.154 366.238 472.188 370.765 459.966C373.824 451.766 379.002 446.599 404.53 423.907C407.667 421.128 410.766 418.312 413.826 415.46C419.462 410.203 420.449 406.451 416.572 404.451C414.043 403.148 410.142 402.856 402.531 402.969L400.797 402.991C393.693 403.126 391.044 403.014 389.358 402.407C386.762 401.414 384.264 400.211 381.892 398.812L378.544 396.925C375.221 395.083 372.74 394.027 369.922 393.353C358.989 390.814 351.113 398.43 340.42 416.718C340.458 416.648 340.132 417.215 339.603 418.133C338.091 420.759 334.922 426.259 333.87 427.974C332.164 430.97 330.13 433.793 327.801 436.399C313.375 451.317 308.221 464.325 308.221 495.554C308.221 514.201 317.517 523.367 333.292 525.749C338.373 526.513 343.118 526.535 350.006 526.131L351.547 526.041C352.756 525.938 353.969 525.885 355.184 525.884C365.082 525.884 371.247 504.495 368.405 488.634ZM402.868 422.267C376.834 445.386 371.729 450.486 368.502 459.248C363.829 471.829 363.565 475.154 366.021 488.993C368.67 503.642 362.89 523.637 355.184 523.637C354.557 523.637 353.811 523.659 352.799 523.727C351.812 523.781 350.824 523.833 349.837 523.884C343.118 524.289 338.518 524.266 333.677 523.525C319.01 521.323 310.629 513.055 310.629 495.554C310.629 464.842 315.59 452.418 329.583 437.882C332.033 435.161 334.172 432.21 335.965 429.075C337.386 426.738 342.708 417.505 342.54 417.797C352.679 400.43 360 393.375 369.345 395.555C372.164 396.276 374.852 397.389 377.316 398.857L380.64 400.722C383.722 402.452 385.914 403.553 388.467 404.474C390.586 405.283 393.283 405.372 400.845 405.238L402.579 405.215C409.684 405.103 413.417 405.395 415.392 406.406C417.367 407.417 416.813 409.506 412.141 413.887C409.443 416.381 406.601 418.965 402.868 422.267ZM352.342 491.487C352.221 491.42 347.597 488.319 346.2 487.151C340.902 482.703 338.927 481.445 336.085 482.029C332.328 482.815 331.1 486.994 331.1 495.554C331.1 512.718 343.359 518.447 352.366 505.776C357.255 498.924 357.062 495.014 352.342 491.487ZM337.121 486.432C337.603 486.32 339.361 487.443 342.973 490.476V490.499C344.635 491.847 349.404 495.059 349.331 494.992C351.908 496.924 351.98 498.227 348.368 503.305C342.347 511.752 335.917 508.742 335.917 495.554C335.917 489.196 336.712 486.5 337.121 486.432Z" fill="url(#paint0_linear)"/>
<defs>
<linearGradient id="paint0_linear" x1="87.5" y1="299" x2="652.5" y2="730" gradientUnits="userSpaceOnUse">
<stop stop-color="#539DE1"/>
<stop offset="1" stop-color="#539DE1" stop-opacity="0"/>
</linearGradient>
</defs>
</svg>
