<svg width="972" height="1041" viewBox="0 0 972 1041" fill="none" xmlns="http://www.w3.org/2000/svg">
<path fill-rule="evenodd" clip-rule="evenodd" d="M916.562 494.843C893.047 507.072 862.499 517.444 823.08 527.717C811.433 530.761 777.443 539.035 764.537 542.176C761.497 542.916 759.627 543.371 759.494 543.406C736.501 549.125 720.621 553.682 707.388 558.576C672.022 571.635 644.827 591.024 586.071 640.233L580.447 644.943C552.161 668.614 536.215 681.245 518.449 693.326C505.48 702.164 492.115 710.605 475.705 720.453C471.835 722.792 461.305 729.045 451.718 734.739C444.505 739.023 437.825 742.99 434.914 744.736C396.57 767.857 373.18 784.923 352.768 806.698C344.364 815.69 337.218 824.773 331.131 834.192C317.269 855.693 310.09 875.021 300.297 911.843L295.236 930.989C293.218 938.451 291.431 944.812 289.578 951.051C285.858 963.422 281.685 973.991 276.496 983.955C277.081 985.114 277.688 986.26 278.318 987.391C284.112 976.649 288.685 965.29 292.721 951.846C294.607 945.607 296.427 939.216 298.412 931.723L303.506 912.578C313.2 876 320.28 856.916 333.943 835.783C340.168 826.198 347.298 817.14 355.249 808.716C375.397 787.186 398.588 770.243 436.7 747.305C440.651 744.894 451.715 738.332 461.542 732.504C468.417 728.427 474.686 724.709 477.492 723.022C493.934 713.113 507.333 704.641 520.401 695.772C538.266 683.6 554.245 670.939 582.631 647.206L588.255 642.496C646.713 593.563 673.709 574.295 708.612 561.389C721.68 556.557 737.427 552.061 760.321 546.342C760.983 546.189 809.516 534.415 823.973 530.653C863.482 520.348 894.186 509.934 917.94 497.605C917.478 496.685 917.019 495.765 916.562 494.843ZM891.008 394.924C887.114 401.368 882.796 407.722 878.065 414.039C864.931 431.624 866.419 442.175 878.263 441.472C883.041 441.173 888.595 439.241 894.491 435.869C894.721 436.928 894.96 437.984 895.209 439.038C889.21 442.327 883.498 444.221 878.462 444.53C862.913 445.478 860.928 431.593 875.352 412.326C881.398 404.253 886.76 396.122 891.411 387.818C891.234 390.187 891.098 392.556 891.008 394.924ZM773.023 7.32873C766.486 9.99189 762.954 12.7725 761.975 15.9048C759.924 22.4191 766.805 27.1289 783.215 33.796C785.282 34.6344 791.828 37.0781 799.555 39.9631C810.997 44.2346 825.03 49.4735 830.954 51.9014C861.325 64.2264 880.976 76.2763 890.438 90.6199C902.444 108.786 912.441 121.928 921.808 130.859C910.406 106.109 893.772 84.6974 873.919 66.5154C863.362 59.5287 849.966 52.9495 833.634 46.3046C827.825 43.928 814.519 38.9571 803.325 34.7753C795.072 31.6923 787.967 29.0383 785.861 28.1687C773.224 23.0613 767.798 19.3301 768.327 17.5869C768.757 16.18 772.099 14.0698 778.815 11.7455C779.811 11.4029 780.874 11.0583 782.005 10.7116C779.017 9.53947 776.022 8.4119 773.023 7.32873ZM641.472 0C648.037 14.2531 656.968 23.4863 669.276 29.545C680.061 34.8665 691.607 37.4966 714.997 40.8914C746.161 45.4177 751.19 46.2435 766.276 49.8217C787.77 54.8635 808.473 62.4389 827.877 72.3616C855.336 86.3688 876.113 107.532 893.978 136.25C899.491 145.08 909.934 165.156 918.047 180.753C923.226 190.709 927.456 198.84 928.848 201.056C930.532 203.735 932.176 206.067 933.806 208.047C933.659 209.446 933.497 210.846 933.322 212.248C930.866 209.692 928.44 206.465 926.002 202.585C924.507 200.216 919.989 191.539 914.546 181.088C906.502 165.643 896.44 146.322 891.133 137.749C873.499 109.49 853.153 88.7543 826.289 75.053C807.115 65.2482 786.656 57.7652 765.416 52.7883C750.528 49.2101 745.5 48.4149 714.468 43.9191C690.747 40.4938 678.936 37.8025 667.721 32.2669C654.631 25.815 645.147 15.9486 638.288 0.877848C639.349 0.579801 640.41 0.287094 641.472 0ZM487.611 50.5231C490.788 50.6681 493.791 50.7698 496.25 50.7698C513.519 50.7698 519.508 49.7911 525.165 46.641L529.499 44.072C531.55 42.8487 533.403 41.8701 535.586 40.7997C542.972 37.3857 550.679 34.6013 558.612 32.481C568.557 29.6564 575.072 26.3554 579.548 21.139C581.376 20.4457 583.203 19.7533 585.03 19.0633C580.219 27.0976 572.618 31.6926 559.605 35.3864C551.854 37.4603 544.324 40.1833 537.108 43.5216C535.024 44.5308 533.27 45.4789 531.285 46.641L526.852 49.2712C520.566 52.7577 514.082 53.8281 496.25 53.8281C490.98 53.8281 483.718 53.4113 477.475 53.053C477.094 53.0311 476.716 53.0095 476.343 52.9881C480.102 52.1867 483.858 51.3681 487.611 50.5231ZM402.311 69.3023C393.788 76.2114 383.815 84.2512 376.372 90.2519C371.134 94.474 367.149 97.6867 365.802 98.7856C358.506 104.734 351.293 110.77 344.166 116.891C321.107 136.74 305.094 152.857 295.864 166.283C276.279 194.726 261.193 221.455 257.19 239.928C251.698 265.312 269.331 269.104 320.114 243.628C368.255 219.511 417.412 197.168 467.467 176.651C472.325 174.649 481.281 170.99 490.442 167.247C503.12 162.068 516.192 156.727 519.342 155.395C536.049 148.514 546.801 143.774 555.006 139.645L561.457 136.373L568.669 132.764C574.492 129.889 579.852 127.381 585.211 124.965C645.092 98.2963 699.282 92.9748 751.719 121.295C827.447 162.093 878.362 234.514 878.362 293.907C878.362 352.383 875.947 370.763 861.225 395.444C856.543 403.168 851.07 410.46 844.882 417.219C823.477 440.983 805.811 466.764 802.668 482.27C798.698 501.66 818.184 503.77 869.397 482.117C881.703 476.921 892.918 471.058 903.132 464.548C903.51 465.544 903.894 466.538 904.285 467.53C894.115 473.953 882.977 479.749 870.786 484.9C817.522 507.41 794.695 504.932 799.393 481.72C802.701 465.541 820.566 439.423 842.368 415.262C848.406 408.653 853.745 401.525 858.314 393.976C872.705 369.876 875.054 351.863 875.054 293.907C875.054 235.677 824.801 164.234 750.264 124.017C698.753 96.2472 645.654 101.446 586.667 127.717C578.671 131.278 570.793 135.062 563.045 139.064L556.594 142.336C544.85 148.044 532.876 153.339 520.699 158.209C518.344 159.185 510.521 162.382 501.455 166.086C489.505 170.969 475.393 176.734 468.791 179.464C418.825 199.944 369.757 222.247 321.702 246.32C268.934 272.805 247.695 268.217 253.948 239.316C258.05 220.354 273.235 193.38 293.052 164.632C302.481 150.93 318.659 134.66 341.916 114.658C348.467 109 355.547 103.067 363.619 96.4919C364.975 95.3841 368.966 92.1664 374.205 87.9425C380.109 83.1819 387.599 77.143 394.689 71.406C397.222 70.6815 399.763 69.9813 402.311 69.3023ZM244.946 180.521C234.305 202.076 224.814 231.078 215.538 267.942C212.66 279.35 209.848 291.308 206.804 305.07L202.9 322.809L199.294 339.476C193.339 366.879 190.13 380.091 186.822 389.205C164.325 451.717 129.72 518.144 97.0665 545.792C80.1609 560.166 70.269 567.414 60.344 572.888C57.3665 574.54 54.2567 576.069 50.6837 577.69C50.3444 577.847 48.4377 578.662 45.5242 579.907C36.2691 583.862 16.854 592.159 5.24939 597.498C5.00397 596.471 4.76727 595.44 4.53916 594.407C16.713 588.853 36.5282 580.396 45.1046 576.735C47.4359 575.74 48.9367 575.1 49.228 574.968C52.4253 573.512 55.5596 571.941 58.6237 570.258C68.3502 564.906 78.0767 557.75 94.8168 543.559C126.941 516.34 161.314 450.249 183.712 388.226C186.921 379.296 190.13 366.145 196.052 338.895L199.691 322.197C203.532 303.816 207.746 285.504 212.329 267.269C220.098 236.367 228.015 210.944 236.672 190.723C238.067 189.005 239.461 187.285 240.854 185.566C242.218 183.883 243.582 182.201 244.946 180.521ZM168.582 262.147C155.87 297.365 147.221 329.948 147.221 348.957C147.221 398.93 93.295 485.909 47.243 515.361C40.1632 519.888 19.9823 531.02 0 541.908V538.36V538.329C15.3335 530.157 30.4567 521.653 45.3572 512.823C90.5491 483.891 143.912 397.829 143.912 348.927C143.912 330.508 151.813 299.751 163.656 266.142C165.306 264.819 166.948 263.488 168.582 262.147ZM30.6142 406.104C47.7926 384.651 62.0554 362.657 72.7328 340.31C76.8257 336.063 81.0737 331.956 85.444 327.959C84.4653 330.254 83.4783 332.538 82.4767 334.828C68.9703 365.593 48.7588 395.682 23.494 424.641C25.7652 418.342 28.1467 412.154 30.6142 406.104ZM7.95164 477.733C14.8786 470.056 22.4757 460.829 31.363 449.546C44.6956 432.664 52.2717 423.856 61.7004 415.17C81.2082 397.114 103.012 352.966 124.221 296.302C125.849 295.067 127.481 293.833 129.114 292.601C107.195 351.958 84.5396 398.339 64.0163 417.311C54.7529 425.874 47.2761 434.56 29.6096 456.947C21.06 467.826 13.5999 476.744 6.56097 484.224C7.0058 482.057 7.46963 479.893 7.95164 477.733ZM44.03 665.409C41.1163 663.066 38.3264 660.563 35.6758 657.878C39.2574 660.114 42.0411 662.515 44.03 665.409ZM77.5108 684.584C75.3631 677.067 71.976 668.893 67.4238 659.439C56.8702 637.511 54.5875 631.486 54.5875 621.149C54.5875 610.904 60.7741 600.046 72.8495 587.293C81.4842 578.118 84.4287 575.58 112.219 552.122C129.058 537.87 138.95 528.879 147.618 519.245C178.915 484.503 189.369 459.7 206.837 382.293C217.159 336.265 228.771 320.27 256.859 305.07C258.603 304.123 263.725 301.435 267.725 299.336C269.794 298.25 271.562 297.322 272.408 296.874C278.493 293.657 284.431 290.208 290.207 286.537V286.567C304.433 277.453 316.277 271.276 330.37 265.312C332.603 264.329 334.944 263.385 337.579 262.322C338.223 262.063 338.885 261.796 339.567 261.52L354.025 255.77C374.168 247.739 393.767 238.588 412.715 228.367C442.647 212.202 473.418 197.402 504.918 184.021C516.792 178.949 560.854 160.736 572.297 156.006C574.308 155.175 575.311 154.76 574.955 154.906C638.376 128.543 667.919 133.712 738.718 179.526C764.887 196.469 782.52 220.049 793.14 248.827C803.131 275.832 805.579 299.321 805.579 333.696C805.579 359.142 803.396 373.302 793.404 391.713C779.576 417.28 752.712 441.074 708.777 463.492C627.889 504.749 580.315 547.749 533.998 609.803C504.785 648.949 375.992 745.011 318.427 775.411C297.785 786.306 275.729 796.63 253.37 805.775C253.162 804.749 252.947 803.728 252.723 802.712C274.736 793.681 296.449 783.508 316.773 772.781C373.941 742.565 502.37 646.778 531.285 608.09C577.867 545.639 625.804 502.302 707.189 460.801C750.595 438.689 776.962 415.323 790.46 390.367C800.12 372.445 802.271 358.713 802.271 333.696C802.271 299.657 799.823 276.414 790.03 249.806C779.609 221.608 762.372 198.579 736.799 182.033C666.894 136.77 638.541 131.816 576.345 157.72C578.661 156.741 520.235 180.841 506.307 186.774C505.542 187.107 504.784 187.437 504.031 187.764C499.246 189.844 494.688 191.826 490.229 193.808C464.407 205.26 439.1 217.677 414.369 231.028C395.304 241.306 375.583 250.508 355.315 258.584L340.858 264.333C337.417 265.709 334.506 266.902 331.727 268.095C317.83 273.939 304.551 280.962 292.06 289.075C286.22 292.8 280.216 296.3 274.062 299.565L258.513 307.731C231.286 322.472 220.236 337.733 210.046 382.966C192.512 460.801 181.892 486.032 150.165 521.233C141.365 530.989 131.374 540.073 114.435 554.386C86.7776 577.751 83.8662 580.32 75.3307 589.312C63.7516 601.576 57.8958 611.821 57.8958 621.18C57.8958 630.905 60.1455 636.777 70.4675 658.247C75.5347 668.778 79.1971 677.802 81.3404 686.132C80.0553 685.627 78.7786 685.111 77.5108 684.584ZM145.103 705.672C142.6 696.739 138.316 688.81 131.473 680.266C124.861 672.205 117.016 665.075 108.182 659.103C95.1807 650.081 88.1009 640.417 86.4798 630.079C83.2707 609.864 99.2831 590.137 133.359 563.744C138.525 559.754 155.036 547.398 156.76 546.108L156.815 546.067C162.963 541.604 168.746 536.728 174.118 531.479C187.682 517.318 193.471 502.271 199.923 470.098C200.826 465.646 201.708 461.191 202.569 456.733C203.661 451.014 204.554 446.641 205.481 442.267C207.929 430.707 210.443 420.308 213.421 409.757C216.729 398.196 217.986 392.936 221.228 378.042C223.213 368.806 224.305 365.167 226.389 361.313C230.425 353.82 230.591 353.667 266.916 326.387C292.39 307.272 307.609 301.4 345.258 291.919C365.505 286.812 375.43 282.897 385.983 274.426C398.555 264.333 410.696 260.602 438.453 255.77C447.551 254.18 450.595 253.629 455.194 252.65C473.323 248.858 486.557 243.689 498.533 234.637C533.006 208.549 582.564 191.484 618.658 191.484C636.292 191.484 674.139 214.666 703.815 243.965C739.313 279.013 756.616 315.132 745.93 343.361C735.409 371.191 708.248 400.154 669.739 428.566C641.817 449.148 608.998 468.324 586.303 478.814C573.996 484.503 564.501 493.739 553.98 509.367C553.413 510.204 550.856 514.455 547.083 520.728C535.688 539.675 513.201 577.064 500.948 594.48C482.355 620.935 449.999 647.573 400.937 679.991C390.863 686.631 380.717 693.176 370.5 699.626C370.411 699.683 369.389 700.329 367.772 701.35C361.596 705.251 346.742 714.634 342.049 717.639C320.644 731.279 307.807 740.118 298.875 747.703C284.887 759.556 264.85 769.068 243.964 775.416C243.538 774.462 243.1 773.516 242.649 772.576C263.175 766.356 282.931 757.045 296.625 745.44C305.723 737.733 318.659 728.833 340.163 715.101L368.614 697.087C380.624 689.503 389.953 683.508 399.018 677.514C447.75 645.279 479.874 618.855 498.169 592.798C510.169 575.728 532.158 539.218 543.724 520.013C547.783 513.274 550.558 508.666 551.168 507.777C561.987 491.69 571.878 482.056 584.847 476.062C607.311 465.663 639.931 446.61 667.655 426.15C705.767 398.074 732.531 369.479 742.82 342.351C752.977 315.499 736.137 280.359 701.4 246.044C672.286 217.296 635.101 194.542 618.658 194.542C583.358 194.542 534.527 211.363 500.617 237.022C488.178 246.411 474.481 251.733 455.954 255.648C451.29 256.626 448.18 257.177 439.049 258.767C411.888 263.507 400.143 267.116 388.167 276.75C377.117 285.619 366.828 289.656 346.151 294.855C308.899 304.244 294.045 309.964 269.034 328.772C233.403 355.502 233.039 355.808 229.334 362.659C227.415 366.206 226.422 369.693 224.47 378.623C221.228 393.578 219.971 398.9 216.63 410.552C213.652 421.042 211.171 431.349 208.723 442.848C207.22 449.919 205.798 457.005 204.455 464.104L203.165 470.679C196.614 503.342 190.692 518.817 176.566 533.497C171.085 538.869 165.18 543.858 158.899 548.422C157.51 549.462 140.703 562.093 135.509 566.099C102.294 591.789 86.8107 610.904 89.7551 629.651C91.2438 639.132 97.8274 648.093 110.167 656.656C120.092 663.537 127.999 670.786 134.12 678.432C141.748 687.936 146.308 696.712 148.812 706.766C147.578 706.398 146.341 706.034 145.103 705.672ZM257.734 839.144C257.655 838.098 257.572 837.054 257.485 836.013C277.469 829.288 287.877 833.441 289.479 847.404C290.869 859.301 286.435 875.969 275.551 905.757L273.434 911.507C268.39 925.162 265.475 933.15 263.475 939.089C263.128 936.686 262.816 934.26 262.533 931.815C264.391 926.601 266.857 919.893 270.324 910.528L272.408 904.779C283.127 875.48 287.494 858.995 286.204 847.741C284.821 835.939 276.308 832.561 257.734 839.144ZM451.184 58.1997C452.83 57.8618 454.476 57.5246 456.122 57.1873C456.517 57.1063 456.913 57.0253 457.308 56.9443C454.294 59.5791 449.489 64.0375 441.166 71.7194C436.204 76.3069 429.62 81.4449 420.258 88.1426C417.062 90.4362 408.36 96.5224 401.779 101.125C398.006 103.764 394.93 105.916 393.989 106.584C377.58 118.145 366.431 126.769 357.399 135.272C341.255 150.502 334.737 163.255 339.005 174.112C343.438 185.336 352.47 187.63 368.449 182.737C377.299 179.8 385.892 176.242 394.155 172.094C396.993 170.747 405.004 166.809 412.326 163.21C417.807 160.516 422.902 158.011 425.154 156.925C438.354 150.41 451.952 144.61 465.879 139.553C478.248 135.039 490.431 130.102 502.403 124.751C504.948 123.633 510.624 121.115 517.109 118.237C527.826 113.483 540.754 107.748 545.412 105.728C560.002 99.3056 572.209 94.1675 583.954 89.5494C640.659 67.2236 680.954 59.272 708.579 69.2115L726.543 75.6341C734.152 78.3254 740.339 80.5885 746.459 82.9129C761.18 88.3908 775.609 94.5144 789.699 101.263C850.374 130.715 890.107 168.944 904.796 223.199C910.823 245.491 914.51 265.653 915.978 284.198C915.069 287.165 914.152 290.137 913.235 293.11C913.226 293.139 913.218 293.167 913.209 293.196C912.337 272.458 908.514 249.642 901.554 223.933C887.163 170.656 848.091 133.039 788.177 103.985C774.944 97.5623 761.049 91.7514 745.202 85.7265C739.115 83.4328 732.961 81.1696 725.352 78.4477L707.388 72.0864C680.822 62.5444 641.155 70.3126 585.244 92.3631C573.599 96.9506 561.391 102.119 546.834 108.481L503.826 127.503C488.244 134.293 476.83 138.972 467.07 142.428C453.256 147.44 439.769 153.189 426.676 159.646C424.622 160.644 420.169 162.83 415.216 165.263C407.56 169.022 398.71 173.367 395.677 174.816C387.277 179.037 378.539 182.656 369.541 185.642C352.007 190.994 341.023 188.242 335.895 175.152C331.065 162.858 338.079 149.156 355.083 133.131C364.181 124.506 375.463 115.821 391.971 104.138C392.627 103.677 394.294 102.513 396.502 100.972C403.09 96.3715 414.498 88.4067 418.239 85.7265C425.459 80.7365 432.342 75.3438 438.85 69.5785C444.239 64.5967 448.202 60.9225 451.184 58.1997ZM311.615 1021.69C310.671 1021.1 309.735 1020.5 308.806 1019.88C308.997 1019.35 309.182 1018.81 309.362 1018.27C312.265 1008.74 314.552 999.062 316.21 989.28L318.89 975.304C324.25 948.085 328.815 933.099 336.226 923.649C346.151 910.957 360.046 912.088 378.275 928.97C390.846 940.592 396.206 952.152 395.478 964.63C394.982 972.765 392.004 981.176 386.446 991.177C383.839 995.811 381.059 1000.36 378.109 1004.82L368.714 1018.98C364.227 1025.81 360.356 1032.12 357.068 1038.08C355.932 1037.89 354.801 1037.69 353.674 1037.48C357.095 1031.21 361.149 1024.58 365.869 1017.39L375.264 1003.23C378.178 998.831 380.926 994.342 383.502 989.77C388.861 980.136 391.707 972.093 392.17 964.447C392.831 952.886 387.869 942.152 375.959 931.111C358.987 915.452 347.507 914.504 338.906 925.453C331.892 934.383 327.393 949.125 322.165 975.824C321.735 977.872 320.718 983.204 320.058 986.658C319.704 988.517 319.453 989.833 319.453 989.8C316.707 1004.08 314.821 1012.22 312.505 1019.16C312.222 1020.02 311.926 1020.86 311.615 1021.69ZM407.409 1040.02C405.243 1040.14 403.082 1040.25 400.927 1040.33C403.44 1038.79 406.266 1037.13 409.472 1035.28C414.001 1032.74 418.314 1029.89 422.375 1026.74C437.626 1014.63 444.144 1007.78 447.915 997.966C452.646 985.672 450.992 970.319 441.762 948.972C437.948 940.488 433.538 932.243 428.561 924.291L425.485 919.092C422.368 914.097 419.454 908.996 416.751 903.8C399.68 871.045 404.278 845.998 442.159 812.723C469.664 788.485 499.335 766.437 530.855 746.816C537.564 742.603 551.978 734.043 565.529 725.995C578.44 718.327 590.569 711.123 594.507 708.587C601.091 704.305 608.833 698.494 620.213 689.319C620.147 689.319 644.132 669.776 651.543 663.935C667.986 650.906 681.616 640.997 694.717 632.893C710.332 623.259 724.393 616.745 737.295 613.564C779.576 603.135 788.905 600.78 809.318 595.306C850.837 584.174 881.969 574.203 902.414 564.723C910.366 561.215 918.635 558.36 927.127 556.19C934.213 554.178 940.226 552.394 945.512 550.664C945.967 551.59 946.419 552.518 946.868 553.446C941.473 555.218 935.341 557.04 928.12 559.095C919.788 561.217 911.673 564.011 903.87 567.445C883.226 576.987 851.929 587.018 810.244 598.211C786.29 604.587 762.247 610.673 738.122 616.47C725.65 619.559 711.887 625.951 696.57 635.401C681.638 644.868 667.331 655.152 653.727 666.198C646.316 672.07 622.364 691.582 622.364 691.582C614.085 698.483 605.428 704.986 596.426 711.064C592.36 713.692 579.702 721.201 566.428 729.074C553.138 736.958 539.229 745.208 532.708 749.293C501.329 768.822 471.79 790.767 444.408 814.894C407.587 847.252 403.286 870.862 419.695 902.454C422.378 907.599 425.27 912.649 428.363 917.593L431.473 922.792C436.5 930.844 440.954 939.191 444.805 947.779C454.333 969.799 456.054 985.886 451.058 998.945C447.022 1009.43 440.207 1016.59 424.525 1029.04C420.808 1031.96 416.961 1034.47 407.409 1040.02ZM596.73 1007.09C592.492 1008.56 588.245 1009.99 583.986 1011.37C576.172 1009.99 569.844 1008.34 564.435 1006.25C517.986 988.363 449.933 925.453 449.933 893.341C449.933 877.009 455.69 864.195 468.03 850.126C472.375 845.176 487.144 831.034 498.208 820.44C503.823 815.063 508.484 810.601 510.343 808.716C525.297 793.517 543.956 779.54 568.835 763.881C572.904 761.329 582.836 755.352 593.453 748.963C607.003 740.809 621.671 731.982 626.698 728.741C634.173 723.75 641.188 718.195 647.672 712.134C652.734 707.547 670.698 690.328 671.228 689.809C694.982 667.483 713.244 654.454 736.534 645.83C747.65 641.732 763.431 637.297 794.265 629.376C807.253 626.024 820.244 622.681 833.237 619.345C847.253 615.714 861.226 611.942 875.153 608.029C908.414 598.624 936.21 589.516 958.539 580.369C959.265 582.309 959.966 584.256 960.638 586.213C938.107 595.407 910.277 604.498 877.072 613.87C863.112 617.794 849.106 621.576 835.056 625.216C822.058 628.609 809.046 631.953 796.018 635.248C765.449 643.138 749.801 647.512 738.982 651.518C716.717 659.745 699.117 672.315 675.959 694.09C675.86 694.181 675.073 694.933 673.833 696.117C668.82 700.904 656.415 712.75 652.304 716.477C645.556 722.786 638.252 728.566 630.469 733.757C625.338 737.081 610.381 746.078 596.715 754.298C586.239 760.6 576.521 766.446 572.573 768.928C548.092 784.342 529.763 798.043 515.24 812.815C513.195 814.903 508.005 819.879 501.901 825.731C491.022 836.161 477.239 849.376 473.191 853.98C461.711 867.008 456.55 878.538 456.55 893.341C456.55 922.395 522.717 983.561 566.982 1000.63C574.278 1003.44 583.677 1005.46 596.73 1007.09ZM910.255 890.11C909.436 890.94 908.609 891.757 907.774 892.561C902.792 890.949 897.626 889.813 892.357 889.181C868.537 886.337 844.419 892.759 813.254 907.164C810.029 908.665 802.17 912.44 795.992 915.408C792.348 917.158 789.289 918.628 788.111 919.184C783.451 921.368 778.883 923.714 774.415 926.218L759.858 934.353C721.415 955.516 692.368 962.428 651.312 952.947C640.328 950.378 630.668 948.666 607.972 944.873C564.137 937.564 546.107 933.405 530.789 925.117C510.178 913.893 506.109 897.53 521.261 874.195C534.581 853.742 550.631 834.918 569.033 818.167C577.901 810.055 587.082 802.241 596.559 794.74C596.48 794.792 598.802 792.942 602.119 790.298C608.576 785.154 618.802 777.005 622.43 774.035C629.965 767.94 637.143 761.478 643.934 754.676C669.408 728.802 686.214 713.816 710.365 697.883C743.25 676.168 781.164 660.082 826.752 650.234C893.699 635.794 937.863 625.537 968.38 616.593C968.543 617.619 968.697 618.648 968.84 619.679C938.196 628.628 894.082 638.865 827.48 653.231C782.322 662.956 744.838 678.89 712.284 700.39C688.398 716.171 671.691 731.004 646.382 756.755C639.518 763.632 632.263 770.166 624.646 776.329C619.269 780.734 599.57 796.351 598.735 797.013L598.709 797.034C587.891 805.719 579.521 812.815 571.382 820.338C553.194 836.918 537.333 855.547 524.172 875.786C509.946 897.683 513.519 912.149 532.542 922.456C547.331 930.499 565.229 934.659 609.428 941.999C623.773 944.181 638.03 946.833 652.172 949.95C692.236 959.217 720.456 952.519 758.237 931.723L772.794 923.618C778.285 920.56 782.586 918.327 786.689 916.431C787.94 915.846 791.364 914.204 795.358 912.289C801.392 909.395 808.726 905.878 811.832 904.442C843.559 889.762 868.206 883.217 892.853 886.153C898.816 886.866 904.653 888.197 910.255 890.11ZM938.87 850.12C938.363 851.076 937.849 852.027 937.328 852.974C914.396 849.295 884.283 850.754 850.605 858.139C829.079 862.625 808.089 869.079 787.946 877.407C771.026 884.577 732.189 906.71 733.307 906.18C711.095 917.29 690.419 918.84 651.312 910.131C553.55 888.294 550.639 883.768 600.826 828.137C658.524 764.126 756.715 686.903 787.35 686.903C813.665 686.903 912.301 663.346 970.724 644.598C970.775 645.66 970.824 646.724 970.872 647.79C911.97 666.607 813.93 689.961 787.35 689.961C758.171 689.961 660.343 766.879 603.341 830.094C555.039 883.676 556.395 885.786 652.106 907.164C690.482 915.728 710.332 914.198 731.803 903.494C729.587 904.565 769.221 881.994 786.589 874.624C804.487 867.039 824.966 860.586 849.812 855.142C884.296 847.593 915.234 846.137 938.87 850.12ZM971.565 669.087C951.82 675.134 927.601 681.373 898.179 688.218C891.098 689.859 874.759 693.553 859.715 696.954C846.434 699.956 834.162 702.731 830.16 703.663C805.678 709.321 789.17 713.572 776.896 717.578C763.332 722.013 753.274 726.417 745.665 731.127C736.071 737.09 731.307 742.442 724.922 752.718C717.114 765.349 714.468 768.958 706.792 776.053C702.261 780.242 700.377 781.842 688.61 791.831L687.273 792.966L681.384 797.982C667.555 809.848 659.45 817.922 654.653 825.415C648.4 835.171 648.863 843.062 657.399 848.719C686.645 868.018 707.057 872.024 748.113 861.167C766.574 856.304 784.869 849.331 810.641 838.015C809.648 838.443 837.306 826.18 844.485 823.121C854.022 818.904 863.847 815.267 873.896 812.234C885.111 809.053 892.721 808.319 908.667 808.135C910.156 808.074 910.85 808.074 911.71 808.074C930.647 807.775 942.513 805.551 959.025 797.41C959.375 796.081 959.717 794.748 960.05 793.41C959.579 793.647 959.103 793.886 958.623 794.128C942.015 802.508 930.568 804.741 911.644 805.047H908.634C892.39 805.261 884.516 805.995 872.904 809.328C862.719 812.394 852.762 816.072 843.096 820.338C835.883 823.396 808.226 835.691 809.218 835.263C783.612 846.487 765.416 853.429 747.22 858.231C707.156 868.813 687.769 865.02 659.318 846.242C652.403 841.655 652.039 835.507 657.498 826.975C662.064 819.818 670.07 811.897 683.634 800.214L689.49 795.229L690.147 794.673C702.59 784.134 704.491 782.523 709.141 778.194C717.081 770.885 719.86 767.093 727.8 754.248C733.954 744.339 738.42 739.323 747.518 733.665C754.862 729.108 764.688 724.796 778.021 720.453C790.162 716.508 806.572 712.257 830.954 706.629C834.601 705.78 845.112 703.407 856.998 700.724C872.933 697.126 891.337 692.972 898.973 691.185C927.978 684.437 951.955 678.283 971.622 672.307C971.605 671.233 971.586 670.16 971.565 669.087ZM692.765 361.649C699.382 351.312 701.367 341.036 701.367 317.915C701.367 296.323 686.612 267.514 664.942 245.524C641.287 221.547 614.06 210.048 591.067 217.632C545.213 232.771 538.133 235.891 507.697 254.18C503.854 256.492 496.037 261.634 488.542 266.564C481.069 271.481 473.915 276.186 471.338 277.668C459.759 284.335 449.702 287.332 436.7 287.332C407.487 287.332 399.084 292.378 384.197 316.386C379.631 323.787 376.29 324.093 359.616 321.035C339.865 317.395 326.599 318.19 309.329 327.518C255.469 356.542 218.35 402.295 218.35 458.599C218.35 485.267 207.896 509.122 185.763 541.846C182.984 546.006 173.092 560.227 173.621 559.462C168.957 566.252 165.747 571.145 162.935 575.824C155.756 587.752 152.183 597.019 152.183 605.399C152.183 615.002 157.344 621.73 167.005 626.318C173.919 629.651 180.867 631.364 196.879 634.391L198.864 634.759C223.941 639.499 234.131 643.444 238.498 652.527C245.544 667.207 275.849 668.492 319.949 659.623C357.929 651.977 401.334 637.419 428.396 623.351C479.874 596.591 542.567 519.673 542.567 486.124C542.567 471.046 552.293 461.81 572.309 453.308C574.207 452.496 578.713 450.717 582.82 449.096C586.3 447.722 589.493 446.461 590.571 445.998C593.217 444.897 595.368 443.888 597.187 442.879C599.933 441.35 602.778 440.065 607.211 438.291C633.447 427.648 644.596 420.492 664.313 396.209C665.11 395.229 667.126 392.854 669.746 389.767C677.356 380.801 690.058 365.835 692.765 361.649ZM660.046 249.653C680.687 270.57 694.746 298.029 694.75 317.908C694.749 340.033 692.961 349.358 687.042 358.561C684.646 362.303 672.795 376.262 665.158 385.258C662.249 388.685 659.951 391.391 659.02 392.539C640.096 415.843 629.84 422.418 604.532 432.664C599.9 434.56 596.823 435.936 593.78 437.618C592.192 438.505 590.273 439.423 587.825 440.463C586.929 440.833 584.369 441.844 581.396 443.017C577.013 444.746 571.731 446.83 569.563 447.741C547.43 457.13 535.95 468.079 535.95 486.124C535.95 517.135 474.713 592.248 425.154 618.029C363.619 650.02 255.006 671.856 244.519 650.02C238.895 638.337 227.547 633.963 200.187 628.764L198.169 628.397C168.295 622.739 158.8 618.213 158.8 605.399C158.8 598.303 162.042 589.893 168.725 578.791C171.438 574.265 174.614 569.432 179.212 562.735L191.387 545.088C214.115 511.477 224.967 486.735 224.967 458.599C224.967 404.802 260.63 360.824 312.637 332.779C328.286 324.338 339.997 323.665 358.292 327.029C369.276 329.048 371.261 329.323 375.562 328.895C381.649 328.252 386.314 325.286 389.953 319.444C403.683 297.21 409.969 293.449 436.7 293.449C451.025 293.449 462.273 290.084 474.845 282.867C477.618 281.272 485.137 276.321 492.816 271.266C500.159 266.431 507.647 261.5 511.27 259.318C541.276 241.273 547.893 238.368 593.316 223.382C613.2 216.807 637.979 227.266 660.046 249.653ZM581.506 243.781C579.686 244.79 572.242 249.103 571.746 249.409V249.378C561.216 255.452 550.135 260.671 538.63 264.975C532.542 267.3 527.084 269.716 522.121 272.254C513.914 276.38 506.356 281.525 499.658 287.546C496.018 290.849 486.358 301.003 486.92 300.452C479.377 307.914 472.893 310.728 459.858 310.728C439.909 310.728 430.183 315.407 419.067 327.641C418.724 328.008 417.507 329.383 416.06 331.018C414.014 333.33 411.509 336.161 410.366 337.397C406.949 341.127 403.221 344.603 399.217 347.795C397.232 349.385 395.213 350.731 393.195 351.863C385.52 356.175 379.135 357.307 363.42 358.132C338.641 359.447 325.573 361.374 303.771 368.928C285.278 375.351 273.136 386.361 264.997 402.967C258.414 416.363 254.841 431.226 250.143 460.005C248.75 469.092 247.261 478.165 245.677 487.225C243.824 498.082 241.971 507.532 239.887 516.86C238.206 524.295 234.735 537.441 231.446 549.895C227.809 563.667 224.396 576.593 223.875 580.014C221.758 593.991 225.463 601.361 238.762 608.487C244.774 611.537 251.009 614.194 257.421 616.439C275.948 623.29 292.027 626.042 308.37 625.278C331.032 624.177 346.515 619.283 400.937 598.089C455.723 576.773 494.927 520.469 520.963 444.224C525.628 430.584 533.766 421.532 545.776 415.354C555.105 410.552 564.17 408.136 584.152 404.191C585.267 403.972 586.222 403.785 587.054 403.622C590.992 402.85 592.186 402.616 594.507 402.111C625.44 395.658 643.074 387.217 656.439 368.133C690.35 319.689 675.231 274.212 626.069 249.745C606.285 239.897 598.047 237.665 589.545 240.203C587.13 240.906 584.682 242.038 581.506 243.781ZM501.973 289.717C508.454 283.89 515.767 278.909 523.709 274.915C528.572 272.438 533.932 270.083 539.887 267.789C551.564 263.426 562.81 258.136 573.5 251.978C573.57 251.937 573.764 251.824 574.049 251.658C575.897 250.584 581.617 247.259 583.193 246.411C586.17 244.76 588.42 243.72 590.571 243.108C597.915 240.937 605.458 242.955 624.481 252.436C672.022 276.108 686.479 319.567 653.66 366.482C640.89 384.74 623.952 392.814 593.78 399.114C593.303 399.214 592.873 399.304 592.456 399.392C590.441 399.817 588.721 400.18 583.458 401.194C563.178 405.2 553.881 407.708 544.188 412.693C531.451 419.238 522.75 428.902 517.82 443.276C492.048 518.786 453.308 574.387 399.68 595.275C345.655 616.286 330.337 621.149 308.204 622.189C292.357 622.953 276.742 620.293 258.679 613.625C250.672 610.659 244.883 608.182 240.417 605.827C228.308 599.343 225.198 593.196 227.15 580.443C227.647 577.182 230.951 564.676 234.52 551.171C237.848 538.578 241.405 525.116 243.129 517.471C245.247 508.113 247.066 498.602 248.952 487.714L251.268 473.737L253.418 460.464C258.083 431.96 261.623 417.28 268.008 404.221C275.783 388.318 287.296 377.92 304.962 371.803C326.367 364.371 339.137 362.475 363.586 361.191C379.863 360.304 386.645 359.111 394.916 354.493C397.099 353.27 399.25 351.802 401.4 350.119C405.524 346.823 409.362 343.234 412.88 339.385C414.458 337.683 418.545 333.043 420.537 330.782C421.051 330.199 421.425 329.774 421.581 329.598C432.101 318.038 440.935 313.786 459.858 313.786C473.853 313.786 481.197 310.606 489.336 302.562C493.435 298.187 497.649 293.904 501.973 289.717ZM490.891 393.823C470.677 372.017 436.898 366.206 383.469 374.984C372.717 376.727 365.339 377.308 347.706 378.134C325.209 379.174 316.21 380.642 306.914 386.147C295.269 393.089 287.693 405.995 282.896 428.168C280.348 439.882 277.768 450.616 272.507 471.413L272.11 472.973C262.615 510.498 259.042 525.882 256.462 543.253C253.021 566.466 253.815 582.278 259.969 591.361C277.205 616.898 347.838 610.475 394.651 579.586C436.204 552.122 455.425 531.846 471.272 502.547C494.629 459.333 507.697 411.959 490.891 393.823ZM347.871 381.192C365.67 380.366 373.147 379.785 384.064 377.981C436.435 369.387 469.055 375.014 488.376 395.842C503.859 412.509 490.99 459.241 468.295 501.201C452.712 530.011 433.855 549.92 392.732 577.078C347.243 607.111 278.694 613.32 262.748 589.77C257.157 581.482 256.363 566.191 259.77 543.681C262.318 526.432 265.858 511.079 275.319 473.646L275.716 472.116C280.977 451.259 283.59 440.524 286.138 428.78C290.769 407.341 297.948 395.138 308.701 388.716C317.335 383.578 325.97 382.201 347.871 381.192ZM473.919 419.911C471.967 402.723 460.255 393.303 436.7 393.303C430.216 393.303 425.088 393.181 412.284 392.844L399.415 392.539C373.147 392.019 356.142 392.936 341.585 396.606C322.959 401.255 310.983 410.277 306.087 424.957L304.863 428.627C301.356 438.924 297.992 449.262 294.772 459.638C291.795 469.15 289.181 478.019 286.932 486.429C275.187 530.408 273.665 558.637 286.866 567.353C308.535 581.666 351.577 578.608 374.768 564.325C404.014 546.281 456.285 494.717 464.755 468.66C472.496 444.806 475.308 432.205 473.919 419.911ZM412.185 395.903C425.022 396.239 430.183 396.361 436.7 396.361C458.568 396.361 468.857 404.619 470.61 420.216C471.967 431.991 469.188 444.347 461.579 467.804C453.407 493.005 401.565 544.109 372.915 561.787C350.783 575.396 309.23 578.363 288.818 564.845C277.338 557.291 278.793 529.613 290.141 487.163C292.39 478.784 294.971 469.945 297.948 460.464C299.768 454.562 301.72 448.537 303.97 441.808C305.746 436.5 307.511 431.189 309.263 425.874C313.762 412.295 324.845 403.946 342.446 399.573C356.605 395.994 373.378 395.077 399.349 395.597L412.185 395.903ZM406.197 422.051C397.007 419.413 387.465 417.972 377.845 417.77C367.89 418.835 358.317 421.938 349.823 426.853C335.2 435.386 325.341 448.812 322.562 468.018C316.078 513.129 328.65 528.634 361.138 518.603C403.584 505.544 435.046 482.27 435.046 452.941C435.046 437.435 424.128 427.495 406.197 422.051ZM351.577 429.422C358.972 425.141 367.235 422.3 375.86 421.073C376.885 420.92 377.613 420.828 378.043 420.828C387.258 420.952 396.401 422.343 405.172 424.957C421.879 430.003 431.737 438.995 431.737 452.941C431.737 480.466 401.301 503.006 360.079 515.728C330.37 524.873 319.618 511.599 325.871 468.446C328.484 450.158 337.748 437.496 351.577 429.422ZM555.006 359.447C594.011 379.51 634.406 379.327 643.405 349.355L643.438 349.386C655.612 308.801 649.591 279.227 619.287 268.034C602.15 261.672 588.619 262.804 572.97 270.236C568.535 272.398 564.207 274.745 560.002 277.27L553.286 281.246C548.464 284.177 543.52 286.931 538.464 289.503C509.351 304.458 521.36 342.198 555.006 359.447ZM561.788 279.839C565.908 277.369 570.147 275.073 574.492 272.958V272.988C589.313 265.893 601.852 264.884 618.063 270.847C646.349 281.338 652.039 309.291 640.229 348.529C632.024 375.84 594.011 376.024 556.594 356.787C524.867 340.516 513.784 305.651 540.052 292.195C542.633 290.88 545.213 289.473 547.926 287.944C549.769 286.911 551.612 285.835 553.813 284.55C554.22 284.312 554.639 284.068 555.072 283.815L561.788 279.839ZM611.578 340.578C625.473 337.642 633.546 327.549 633.546 310.116C633.546 274.15 586.898 268.34 564.402 296.048C549.613 314.276 549.812 322.197 563.277 329.476C564.766 330.271 566.453 331.127 568.669 332.167L574.922 335.042C586.567 340.425 600.661 342.902 611.578 340.578ZM606.02 282.102C620.738 283.967 630.232 293.902 630.237 310.102C630.233 326.179 623.187 334.982 610.851 337.611C600.727 339.752 587.428 337.397 576.378 332.289L570.191 329.445C568.008 328.405 566.387 327.61 564.931 326.846C553.484 320.637 553.319 314.826 567.048 297.883C576.279 286.506 592.026 280.359 606.02 282.102ZM857.685 730.668C846.933 732.166 840.581 732.778 833.7 732.778C829.928 732.778 826.686 732.747 821.228 732.656C793.404 732.197 785.498 733.329 774.315 741.617C772.76 742.748 771.206 744.033 769.684 745.47C769.598 745.545 769.077 745.992 768.212 746.735C762.383 751.736 740.935 770.138 731.803 778.5C726.808 783.088 722.242 787.461 718.074 791.651C704.113 805.628 695.147 817.096 692.269 825.69C688.53 836.67 694.816 842.878 711.292 842.878C743.382 842.878 760.453 836.303 787.549 818.32L790.195 816.576C803.627 807.677 811.005 803.517 821.062 799.97L828.605 797.339L829.498 797.034C854.708 788.256 865.592 783.883 876.311 777.46C890.703 768.836 898.212 758.927 898.212 746.541C898.212 736.326 894.011 730.851 885.674 729.139C879.653 727.915 874.955 728.313 857.685 730.668ZM821.161 735.714C826.653 735.806 829.895 735.836 833.7 735.836C840.78 735.836 847.264 735.225 858.182 733.696C874.889 731.402 879.52 731.035 884.979 732.166C891.695 733.512 894.904 737.702 894.904 746.541C894.904 757.765 888.023 766.787 874.525 774.891C864.037 781.161 853.285 785.473 828.307 794.159L827.48 794.465L819.871 797.095C809.483 800.765 801.907 805.047 788.243 814.099L785.597 815.842C759.064 833.489 742.588 839.82 711.292 839.82C696.9 839.82 692.434 835.416 695.412 826.608C698.124 818.564 706.858 807.401 720.489 793.731C724.928 789.296 729.473 784.952 734.119 780.702C741.848 773.603 758.583 759.187 766.985 751.949C769.913 749.427 771.829 747.777 772 747.611C773.455 746.265 774.911 745.073 776.367 744.002C786.755 736.326 794.099 735.286 821.161 735.714Z" fill="url(#paint0_radial)"/>
<defs>
<radialGradient id="paint0_radial" cx="0" cy="0" r="1" gradientUnits="userSpaceOnUse" gradientTransform="translate(540.5 479) rotate(93.6883) scale(1212.51 1132.44)">
<stop offset="0.13496" stop-color="#49B688"/>
<stop offset="0.217509" stop-color="#7ACAA8" stop-opacity="0.729167"/>
<stop offset="0.253245" stop-color="#8FD2B6" stop-opacity="0.613751"/>
<stop offset="0.371138" stop-color="#A2D9C2" stop-opacity="0.512747"/>
<stop offset="1" stop-color="white" stop-opacity="0"/>
</radialGradient>
</defs>
</svg>
